<svg xmlns="http://www.w3.org/2000/svg" id="customer-care" x="0" y="0" enable-background="new 0 0 600 500" version="1.1" viewBox="0 0 600 500" xml:space="preserve"><g id="Consultant_Support"><g><g opacity=".3"><g><path fill="#d2e4ff" d="M553.8,343.8c-3.4,29.6-5.2,44.7-11.3,97L82,440.2c-23.8-2.3-39-30.9-38-56.5c1.1-25.7,13.7-48.8,25.3-71.3
					c11.6-22.4,22.8-46.9,20.6-72.5c-1.6-18.7-10.2-35.7-15.8-53.5c-5.6-17.8-7.7-38.8,2.5-54.1c12.1-18.1,36.6-20.5,56.8-15.2
					c20.1,5.2,38.9,16.2,59.4,19.1c24.7,3.4,49.5-5.4,71.6-17.7c22.1-12.3,42.5-28,64.7-40c22.2-12,47.3-20.3,71.8-16.2
					c24.6,4.1,48.1,23.3,52.6,49.6c5,29.4-13.5,60.8-2.9,88.4c7.4,19.3,26.6,29.7,44.6,37.3c18.1,7.5,37.7,14.7,49.3,31.4
					C559.1,289.7,556.7,318.2,553.8,343.8z"></path></g></g><g><g><path fill="#060405" d="M239.6,248.7H238v-1h1.7c1.3,0,2.6-0.5,3.6-1.4l0.7,0.7C242.7,248.1,241.2,248.7,239.6,248.7z M232,248.7
					h-6v-1h6V248.7z M220,248.7h-6v-1h6V248.7z M208,248.7h-6v-1h6V248.7z M196,248.7h-6v-1h6V248.7z M183.8,248.3
					c-2.1-0.8-3.6-2.6-4-4.8l1-0.2c0.3,1.8,1.6,3.4,3.4,4L183.8,248.3z M246,241.2h-1v-6h1V241.2z M180.7,237.4h-1v-6h1V237.4z
					 M246,229.2h-1v-6h1V229.2z M180.7,225.4h-1v-6h1V225.4z M246,217.2h-1v-6h1V217.2z M180.7,213.4h-1v-6h1V213.4z M246,205.2h-1
					v-6h1V205.2z M180.7,201.4h-1v-6h1V201.4z M246,193.2h-1c0.1-0.3-0.5-3.4,2.2-5.8l0.7,0.8C245.6,190.2,246.1,192.8,246,193.2z
					 M271.2,186.9h-6v-1h6V186.9z M259.2,186.9h-6v-1h6V186.9z"></path></g><g><g><g><path fill="#060405" d="M385.3,422.4l-15.9-118.5l-20.5,118.5h-16.1l-5.1-159.9h76.2c0.8,1.8,7.5,16.1,7.4,34.9
							c-0.1,40.6-8.2,109.2-9.7,125.2L385.3,422.4z"></path></g><g><g><path fill="#6193f6" d="M385.3,425.1v-2.7h16.1c0.2,5.2,0.6,15.1,0.7,15.1H376C375.1,428.9,385.3,425.1,385.3,425.1z"></path></g><g><path fill="#060405" d="M376.4,433.7c-0.3,1.1-0.5,2.4-0.4,3.7h26.2c0,0-0.1-1.6-0.3-3.7H376.4z"></path></g></g><g><g><path fill="#6193f6" d="M332.8,425.1v-2.7h16.1c0.2,5.2,0.6,15.1,0.7,15.1h-26.2C322.6,428.9,332.8,425.1,332.8,425.1z"></path></g><g><path fill="#060405" d="M323.8,433.7c-0.3,1.1-0.5,2.4-0.4,3.7h26.2c0,0-0.1-1.6-0.3-3.7H323.8z"></path></g></g></g><g><g><g><path fill="#fe6021" d="M413.1,159.5c-3.4-8.6-25.7-14.2-25.7-14.2h-30.9c0,0-26,10.8-34.1,26.9c-5.5,10.9,4.5,95.3,4.5,95.3
								c0,8.1,81.3,7.9,81.3-0.2C408.2,267.3,423.9,186.7,413.1,159.5z"></path></g><g><g><path fill="#fff" d="M380.4,106.3c0,0-2.9,25.8,7,39c0,0-9.3,15.9-23.1,15.6c-13.8-0.4-17.4-10.1-16.3-11.4
									c1.1-1.3,12.9-8,12.9-22.1S380.4,106.3,380.4,106.3z"></path></g><g><path fill="#060405" d="M364.7,161.4c-0.2,0-0.3,0-0.5,0c-9.2-0.2-14.5-4.7-16.3-8.8c-0.7-1.5-0.8-2.8-0.3-3.4
									c0.2-0.2,0.6-0.6,1.3-1.1c3.1-2.5,11.5-9,11.5-20.7c0-14.4,19-21.2,19.8-21.5l0.8-0.3l-0.1,0.8c0,0.3-2.8,25.8,6.9,38.6
									l0.2,0.3l-0.2,0.3C387.7,145.7,378.4,161.4,364.7,161.4z M379.8,107.1c-3.5,1.4-18.4,8.2-18.4,20.3c0,12.2-8.6,19-11.9,21.5
									c-0.5,0.4-1,0.8-1.1,0.9c-0.1,0.1-0.2,1,0.5,2.4c1.7,3.8,6.7,7.9,15.4,8.2c0.2,0,0.3,0,0.5,0c12.1,0,20.7-13,22-15
									C377.9,133.3,379.4,111.6,379.8,107.1z"></path></g></g><g><g><path fill="#fff" d="M380.8,102.1c-0.1,1.6-0.2,3-0.4,4.2c-0.7,3.9-2.2,10.1-5.3,15.4v0c-3.5,6-10.6,10.9-19.2,9.6
									c-12.1-1.8-8.6-33.8-4.5-46.9c0.8-2.7,1.7-4.5,2.6-5.3c5.4-4.4,22.8,2.9,24.9,8.4C380.5,91.7,381,97.5,380.8,102.1z"></path></g><g><path fill="#060405" d="M358.7,132.1c-0.9,0-1.9-0.1-2.9-0.2c-2.2-0.3-4.1-1.6-5.5-3.9c-5.8-9.2-2.8-33,0.5-43.7
									c0.9-2.9,1.8-4.7,2.8-5.5c2.8-2.3,7.9-1.4,10.7-0.7c6.1,1.6,13.5,5.6,14.9,9.3c1.7,4.4,2.1,10.5,1.9,14.8
									c-0.1,1.6-0.2,3.1-0.4,4.3c-1.2,6.2-2.9,11.3-5.3,15.4v0l-0.1,0.1C372.7,126.9,366.7,132.1,358.7,132.1z M358.9,78.3
									c-2,0-3.5,0.4-4.5,1.2c-0.8,0.7-1.7,2.5-2.5,5.1c-3.3,10.5-6.3,33.9-0.7,42.8c1.2,2,2.8,3.1,4.8,3.4
									c8.9,1.4,15.6-4.1,18.6-9.3l0.1-0.1c2.3-4,4.1-9.1,5.2-15.2c0.2-1.1,0.4-2.5,0.4-4.1v0c0.2-4.1-0.2-10.1-1.9-14.4
									c-1.2-3-7.7-7-14.3-8.7C362.2,78.5,360.4,78.3,358.9,78.3z"></path></g></g><g><path fill="#060405" d="M386,80.5c-1.6,7.5,2.6,29.1-5.6,42.6l-5.3-1.4v0c3.1-5.3,4.6-11.5,5.3-15.4c0.2-1.2,0.4-2.6,0.4-4.2
								c0,0,0.3-6-2.1-5.2c-2.4,0.8-2.8,5-2.8,5h-3c0,0,0.2-15.8-2.6-16.5c-1.7-0.4-10.7,1-18.9-1c-5.5-1.3-10.7-4-13.2-9.7
								c-6.2-14.2,5.1-18,11.8-14.2c6.6,3.7,12,11.2,14.7,10.8c2.7-0.4,6.6-5.5,10.7-1.9c4,3.5,1.4,7.7,5,7.1
								C383.7,75.9,387.5,73,386,80.5z"></path></g><g><path fill="#060405" d="M362.3,206.8c0,1.8-1.5,3.3-3.3,3.3h-76.6c-1.8,0-3.3-1.5-3.3-3.3s1.5-3.3,3.3-3.3H359
								C360.8,203.5,362.3,205,362.3,206.8z"></path></g><g><g><path fill="#fff" d="M325.6,203.5h-47.3c-2.5,0-4.7-1.7-5.3-4.1l-9.7-36.9c-0.9-3.5,1.7-6.9,5.3-6.9H316
									c2.5,0,4.7,1.7,5.3,4.1l9.7,36.9C331.8,200.1,329.2,203.5,325.6,203.5z"></path></g><g><path fill="#060405" d="M325.6,204h-47.3c-2.7,0-5.1-1.8-5.8-4.5l-9.7-36.9c-1-3.8,1.9-7.5,5.8-7.5H316c2.7,0,5.1,1.8,5.8,4.5
									l9.7,36.9C332.4,200.3,329.6,204,325.6,204z M268.7,156.2c-3.3,0-5.6,3.1-4.8,6.3l9.7,36.9c0.6,2.2,2.6,3.7,4.8,3.7h47.3
									c3.3,0,5.6-3.1,4.8-6.2l-9.7-36.9c-0.6-2.2-2.6-3.7-4.8-3.7H268.7z"></path></g></g><g><path fill="#d2e4ff" d="M282.7,198.4c0.3,1.7,0.5,3.5,0.1,5.1h-4.4c-2.5,0-4.7-1.7-5.3-4.1l-9.7-36.9c-0.9-3.5,1.7-6.9,5.3-6.9
								h15.7c-3.7,2.1-7,4.7-8.9,8.4c-2.6,5.4-1.4,11.9,0.7,17.5C278.4,187.2,281.5,192.5,282.7,198.4z"></path></g><g><path fill="#060405" d="M359,210.6h-76.6c-2.1,0-3.8-1.7-3.8-3.8s1.7-3.8,3.8-3.8H359c2.1,0,3.8,1.7,3.8,3.8
								S361.1,210.6,359,210.6z M282.4,204c-1.5,0-2.8,1.3-2.8,2.8c0,1.5,1.3,2.8,2.8,2.8H359c1.5,0,2.8-1.3,2.8-2.8
								c0-1.5-1.3-2.8-2.8-2.8H282.4z"></path></g><g><path fill="#060405" d="M325.6,204h-47.3c-2.7,0-5.1-1.8-5.8-4.5l-9.7-36.9c-1-3.8,1.9-7.5,5.8-7.5H316c2.7,0,5.1,1.8,5.8,4.5
								l9.7,36.9C332.4,200.3,329.6,204,325.6,204z M268.7,156.2c-3.3,0-5.6,3.1-4.8,6.3l9.7,36.9c0.6,2.2,2.6,3.7,4.8,3.7h47.3
								c3.3,0,5.6-3.1,4.8-6.2l-9.7-36.9c-0.6-2.2-2.6-3.7-4.8-3.7H268.7z"></path></g><g><g><path fill="#fff" d="M286.1,210.1c0,0-4.5,9.4,2.8,16.6c7.3,7.2,19.6,7,24.5,2.9s19.5-15.7,19.5-15.7s17.4,4.4,16.6-3.8
									l-10.5-1c0,0,2.1-2.7-0.7-3.4c-2.8-0.7-5.4,4.4-5.4,4.4H286.1z"></path></g><g><path fill="#060405" d="M303.7,232.9c-5.1,0-10.9-1.7-15.2-5.9c-7.5-7.3-2.9-17-2.9-17.1l0.1-0.3h46.6c0.6-1.1,3.1-5.1,5.8-4.4
									c0.9,0.2,1.5,0.7,1.7,1.4c0.3,0.7,0,1.5-0.3,2.1l10.2,0.9l0,0.4c0.2,1.6-0.3,2.9-1.4,3.8c-3.7,3.2-13.8,1-15.6,0.6
									c-1.7,1.4-14.8,11.7-19.3,15.5C311.5,231.8,307.8,232.9,303.7,232.9z M286.4,210.6c-0.7,1.6-3.6,9.5,2.8,15.7
									c7.3,7.2,19.3,6.7,23.8,2.9c4.8-4.1,19.4-15.6,19.5-15.7l0.2-0.2l0.2,0.1c0.1,0,11.3,2.8,14.9-0.3c0.7-0.6,1.1-1.5,1-2.5
									l-11-1l0.5-0.7c0.2-0.3,0.8-1.3,0.6-1.9c-0.1-0.3-0.5-0.6-1-0.7c-2-0.5-4.2,2.8-4.8,4.1l-0.1,0.3H286.4z"></path></g></g></g><g><path fill="#d2e4ff" d="M299.3,180.2c0.2,2.1-1.4,3.8-3.5,3.8c-2.1,0-4-1.7-4.1-3.8c-0.2-2.1,1.4-3.8,3.5-3.8
							C297.3,176.4,299.1,178.1,299.3,180.2z"></path></g><g><g><path fill="#fff" d="M427.8,197.1c0,0-0.2,33.5-13.6,36.1c-13.4,2.5-55.6-38.5-55.6-38.5s-11.9,3.4-18.2-4.6
								c-6.3-8,14.8-8.7,14.8-8.7s-2.2-4.2-1.1-5.7c1-1.5,8.3,6.8,8.3,6.8l34.5,13.2L427.8,197.1z"></path></g><g><path fill="#060405" d="M412.9,233.7c-14.3,0-51-35.2-54.5-38.6c-1.9,0.5-12.6,2.6-18.5-4.9c-1.3-1.6-1.6-3.1-1-4.4
								c1.9-4,12.5-4.9,15.4-5.1c-0.6-1.3-1.7-4.2-0.8-5.5c0.2-0.2,0.4-0.4,0.7-0.4c1.8-0.1,6.7,5.3,8.3,7.1l34.3,13.2l31.3,1.4
								l0,0.5c0,1.4-0.3,34-14,36.6C413.8,233.7,413.4,233.7,412.9,233.7z M358.7,194.1l0.2,0.2c0.4,0.4,42.1,40.8,55.1,38.4
								c12-2.3,13.1-31,13.2-35.1l-30.6-1.4l-34.6-13.3l-0.1-0.1c-3.4-3.8-6.8-7-7.6-6.8c-0.5,0.8,0.4,3.5,1.2,5.1l0.4,0.7l-0.8,0
								c-3.7,0.1-13.8,1.2-15.3,4.5c-0.4,1-0.2,2.1,0.9,3.4c6.1,7.7,17.6,4.5,17.7,4.4L358.7,194.1z"></path></g></g><g><path fill="#fe6021" d="M410.2,155.7c0,0,16,8.8,20.1,43.1c-0.2,2.1-34-1.4-33.8-3.5C396.5,195.3,389.2,163.8,410.2,155.7z"></path></g><g><path fill="#060405" d="M425.6,199.9c-2.9,0-7.1-0.3-12.5-0.8c-11.1-1.1-16.8-2.4-17.1-3.7l0,0c0-0.2-4.1-18.3,2.9-30.6l0.9,0.5
							c-6.8,12-2.8,29.7-2.8,29.9l0,0c1.9,1.9,31,4.9,32.9,3.4c0,0-0.1,0.1-0.1,0.2l1,0.1C430.7,199.6,429,199.9,425.6,199.9z"></path></g><g><ellipse cx="365.5" cy="99.7" fill="#060405" rx="1.6" ry="2.2"></ellipse></g><g><ellipse cx="353.1" cy="98.7" fill="#060405" rx="1.6" ry="2.2"></ellipse></g><g><path fill="#060405" d="M357.2,109.8c-0.7,0-1.4-0.5-1.6-1.3c-0.2-0.7,0-1.5,0.2-1.9c0.2-0.4,0.4-0.8,0.7-1.1l0.2-0.3
							c1.2-1.7,1.8-3.8,1.8-5.9h1c0,2.3-0.7,4.5-2,6.4l-0.2,0.3c-0.2,0.3-0.4,0.6-0.6,1c-0.2,0.4-0.3,0.9-0.2,1.2
							c0.1,0.3,0.4,0.6,0.7,0.6L357.2,109.8C357.3,109.8,357.2,109.8,357.2,109.8z"></path></g><g><path fill="#060405" d="M361.2,119.4c-0.6,0-1.3-0.1-1.8-0.4l0.4-0.9c0.9,0.4,2,0.4,2.9,0s1.7-1.2,2-2.2l0.9,0.3
							c-0.4,1.2-1.4,2.2-2.5,2.7C362.5,119.3,361.8,119.4,361.2,119.4z"></path></g></g></g><g><g><path fill="#060405" d="M364.4,124.1c-2.7,0-5.1-0.3-5.3-0.3l0.1-1c0.1,0,8.7,1.1,11.4-0.8c2.9-2.1,6.3-14.7,7.4-19.3l1,0.2
						c-0.2,0.7-4.1,17.2-7.8,19.9C369.8,123.8,367,124.1,364.4,124.1z"></path></g><g><circle cx="378.7" cy="100.3" r="3.8" fill="#060405"></circle></g><g><circle cx="358.7" cy="122.9" r="2.4" fill="#060405"></circle></g></g><g><g><path fill="#060405" d="M112.9,305.1h-6v-1h6V305.1z M100.9,305.1h-6v-1h6V305.1z M88.9,305.1h-6v-1h6V305.1z M76.9,305.1
						c-2.1-0.1-4.1-0.9-5.8-2.2l0.6-0.8c1.5,1.2,3.4,1.9,5.2,2L76.9,305.1z M67.3,297.9c-0.7-1.7-1.1-3.5-1.1-5.4v-0.7h1v0.7
						c0,1.7,0.3,3.4,1,5L67.3,297.9z M67.2,285.9h-1v-6h1V285.9z M67.2,273.9h-1v-6h1V273.9z M67.2,261.9h-1v-6h1V261.9z
						 M67.2,249.9h-1v-6h1V249.9z M67.2,237.9h-1v-6h1V237.9z M67.2,225.9h-1v-6h1V225.9z M67.2,213.9h-1v-6h1V213.9z M67.2,201.9
						h-1v-6h1V201.9z M67.4,189.9l-1-0.1c0.3-2.1,1-4.1,2.2-5.8l0.8,0.6C68.3,186.2,67.6,188,67.4,189.9z M73.7,180.9l-0.4-0.9
						c1.4-0.6,2.8-0.9,4.3-0.9h1.8v1h-1.8C76.2,180.1,74.9,180.4,73.7,180.9z M103.4,180.1h-6v-1h6V180.1z M91.4,180.1h-6v-1h6
						V180.1z"></path></g><g><path fill="#bdd6ff" d="M221.3,191.3h-128c-3.4,0-6.1-2.7-6.1-6.1v-83.5c0-3.4,2.7-6.1,6.1-6.1h128c3.4,0,6.1,2.7,6.1,6.1v83.5
						C227.4,188.5,224.7,191.3,221.3,191.3z"></path></g><g><g><circle cx="101.4" cy="108.2" r="37.3" fill="#6193f6"></circle></g><g><g><path fill="#fff" d="M108.7,91.1c0,0,5,14.6,5,17.6c0,6.6-6.9,4.4-6.9,4.4l-6.4-0.4l-3.5-1.9l-1.9-3.5c0,0-0.9-7.6-0.7-7.8
								s2.2-9.4,2.5-9.7s4.4-0.6,4.9-0.5C102.1,89.3,108.7,91.1,108.7,91.1z"></path></g><g><path fill="#efc102" d="M118,135.6c0,0-5.6-15.8-16.6-15.2s-13.9,15.2-13.9,15.2S101.5,143.6,118,135.6z"></path></g><g><path fill="#fff" d="M103,114c0.2,0.3,2.2,9.3,0.4,10.6c-1,0.7-2.9,0.6-4.4,0.4c-1.3-0.2-2.4-1.1-2.7-2.4l-0.6-8.5H103z"></path></g></g><g><path fill="#060405" d="M98.5,95.5c0,0-0.8,13.5,2.9,14.4c3.8,0.9,5.2-3.3,7.8-2.4c2.6,0.9,4.5,1.2,4.5,1.2s1.1,6.1-3.6,7.8
							c-4.7,1.7-13.2,0.3-14.8-2.2c-1.6-2.5-5.8-30.5,2.4-32.6c8.1-2.1,3.4,3.1,3.4,3.1s7.1-6,7.8-3.6s-1,4.4-1,4.4s7.8-0.4,3.5,4.5
							C107.1,94.9,99.6,92.7,98.5,95.5z"></path></g><g><path fill="#060405" d="M107.2,105.1c0,0-0.1,0-0.1,0l0.1-1c0,0,0.2-0.1,0.2-0.2c0.1-0.4-0.3-1-0.5-1.3c-0.5-0.9-0.8-2.1-0.7-3.1
							l1,0.1c-0.1,0.9,0.1,1.8,0.6,2.6c0.4,0.7,0.8,1.3,0.6,2.2C108.2,104.7,107.7,105.1,107.2,105.1z"></path></g><g><ellipse cx="103.4" cy="99.3" fill="#181659" rx=".7" ry=".9" transform="rotate(-6.975 103.325 99.21)"></ellipse></g><g><ellipse cx="109.3" cy="98.1" fill="#181659" rx=".7" ry="1" transform="rotate(-6.975 109.308 98.025)"></ellipse></g><g><path fill="#fff" d="M106.7,112.4l0.2-1c1.1,0.3,2.4-0.1,3.2-0.9l0.7,0.7C109.7,112.4,108.1,112.8,106.7,112.4z"></path></g></g><g><path fill="#fff" d="M180.2,117.9c0,3.9-3.2,7.2-7.2,7.2h-20.7c-4,0-7.2-3.2-7.2-7.2c0-4,3.3-7.2,7.2-7.2H173
						C177,110.7,180.2,113.9,180.2,117.9z"></path></g><g><rect width="75.9" height="1" x="145.9" y="131.9" fill="#fff"></rect></g><g><path fill="#fff" d="M145.9,137.7l0-1c0.3,0,25.3-0.3,46.2-0.2l0,1C171.2,137.4,146.2,137.7,145.9,137.7z"></path></g><g><path fill="#fff" d="M145.9,142.5l0-1c0.1,0,8.1-0.3,18.4-0.3l0,1C154,142.3,146,142.5,145.9,142.5z"></path></g><g><path fill="#fff" d="M214.6,165.9L214.6,165.9c0,6.7-5.4,12.1-12.1,12.1h-76.4c-6.7,0-12.1-5.4-12.1-12.1v0
						c0-6.7,5.4-12.1,12.1-12.1h76.4C209.2,153.8,214.6,159.2,214.6,165.9z"></path></g><g><g><g><path fill="#060405" d="M141.4,173h-15.6c-0.8,0-1.4-0.6-1.4-1.4v-10.5c0-0.8,0.6-1.4,1.4-1.4h15.6c0.8,0,1.4,0.6,1.4,1.4v10.5
								C142.8,172.4,142.2,173,141.4,173z M125.9,160.8c-0.2,0-0.4,0.2-0.4,0.4v10.5c0,0.2,0.2,0.4,0.4,0.4h15.6
								c0.2,0,0.4-0.2,0.4-0.4v-10.5c0-0.2-0.2-0.4-0.4-0.4H125.9z"></path></g></g><g><g><path fill="#060405" d="M132.6,167.6L125,161c-0.2-0.2-0.2-0.5,0-0.7c0.2-0.2,0.5-0.2,0.7,0l7.6,6.6c0.2,0.2,0.5,0.2,0.7,0
								l7.6-6.6c0.2-0.2,0.5-0.2,0.7,0c0.2,0.2,0.2,0.5,0,0.7l-7.6,6.6C134.1,168.1,133.2,168.1,132.6,167.6z"></path></g></g><g><g><path fill="#060405" d="M139.9,170.1l-4.1-4.1c-0.2-0.2-0.2-0.5,0-0.7c0.2-0.2,0.5-0.2,0.7,0l4.1,4.1c0.2,0.2,0.2,0.5,0,0.7
								C140.4,170.3,140.1,170.3,139.9,170.1z"></path></g></g><g><g><path fill="#060405" d="M126.7,170.1c-0.2-0.2-0.2-0.5,0-0.7l4.1-4.1c0.2-0.2,0.5-0.2,0.7,0c0.2,0.2,0.2,0.5,0,0.7l-4.1,4.1
								C127.2,170.3,126.9,170.3,126.7,170.1z"></path></g></g></g><g><path fill="#d2e4ff" d="M185.2,168.7c0,0.7-0.6,1.3-1.3,1.3h-32c-0.7,0-1.3-0.6-1.3-1.3c0-0.7,0.6-1.3,1.3-1.3h32
						C184.6,167.4,185.2,168,185.2,168.7z"></path></g><g><path fill="#d2e4ff" d="M195.4,163c0,0.7-0.6,1.3-1.3,1.3h-42.2c-0.7,0-1.3-0.6-1.3-1.3c0-0.7,0.6-1.3,1.3-1.3h42.2
						C194.8,161.8,195.4,162.3,195.4,163z"></path></g></g><g><g><path fill="#bdd6ff" d="M213.2,328.8H111.9c-1.8,0-3.2-1.4-3.2-3.2v-53.2c0-1.8,1.4-3.2,3.2-3.2h101.3c1.8,0,3.2,1.4,3.2,3.2v53.2
						C216.4,327.3,215,328.8,213.2,328.8z"></path></g><g><path fill="#fff" d="M149.1,302.3h-29.5c-1.4,0-2.6-1.2-2.6-2.6v-19.6c0-1.4,1.2-2.6,2.6-2.6h29.5c1.4,0,2.6,1.2,2.6,2.6v19.6
						C151.6,301.2,150.5,302.3,149.1,302.3z M119.6,278.6c-0.9,0-1.6,0.7-1.6,1.6v19.6c0,0.9,0.7,1.6,1.6,1.6h29.5
						c0.9,0,1.6-0.7,1.6-1.6v-19.6c0-0.9-0.7-1.6-1.6-1.6H119.6z"></path></g><g><path fill="#fff" d="M134.3,292.6c-0.6,0-1.2-0.2-1.7-0.6L118,279.1c-0.2-0.2-0.2-0.5,0-0.7c0.2-0.2,0.5-0.2,0.7,0l14.6,12.8
						c0.6,0.5,1.5,0.5,2,0l14.7-12.8c0.2-0.2,0.5-0.2,0.7,0s0.2,0.5,0,0.7L136,292C135.5,292.4,134.9,292.6,134.3,292.6z"></path></g><g><path fill="#fff" d="M146.8,296.8l-7.9-8c-0.2-0.2-0.2-0.5,0-0.7c0.2-0.2,0.5-0.2,0.7,0l7.9,8c0.2,0.2,0.2,0.5,0,0.7
						C147.3,297,147,297,146.8,296.8z"></path></g><g><path fill="#fff" d="M121.2,296.8c-0.2-0.2-0.2-0.5,0-0.7l7.9-8c0.2-0.2,0.5-0.2,0.7,0c0.2,0.2,0.2,0.5,0,0.7l-7.9,8
						C121.7,297,121.4,297,121.2,296.8z"></path></g><g><rect width="48" height="2.8" x="160" y="281.8" fill="#fff"></rect></g><g><rect width="16.4" height="2.8" x="160" y="287.1" fill="#fff"></rect></g><g><path fill="#fff" d="M204.7,321.2H186c-1.5,0-2.7-1.2-2.7-2.7v-10.2c0-1.5,1.2-2.7,2.7-2.7h18.8c1.5,0,2.7,1.2,2.7,2.7v10.2
						C207.4,320,206.2,321.2,204.7,321.2z"></path></g><g><path fill="#fff" d="M176.5,321.2h-18.8c-1.5,0-2.7-1.2-2.7-2.7v-10.2c0-1.5,1.2-2.7,2.7-2.7h18.8c1.5,0,2.7,1.2,2.7,2.7v10.2
						C179.1,320,177.9,321.2,176.5,321.2z"></path></g><g><path fill="#060405" d="M162.6,317.9c-0.2-0.2-0.2-0.5,0-0.7l8.2-8.2c0.2-0.2,0.5-0.2,0.7,0s0.2,0.5,0,0.7l-8.2,8.2
						C163.1,318.1,162.8,318.1,162.6,317.9z"></path></g><g><path fill="#060405" d="M170.8,317.9l-8.2-8.2c-0.2-0.2-0.2-0.5,0-0.7s0.5-0.2,0.7,0l8.2,8.2c0.2,0.2,0.2,0.5,0,0.7
						S171,318.1,170.8,317.9z"></path></g><g><path fill="#060405" d="M193.3,317.6l-2.4-2.4c-0.2-0.2-0.2-0.5,0-0.7s0.5-0.2,0.7,0l2,2l6.4-6.4c0.2-0.2,0.5-0.2,0.7,0
						s0.2,0.5,0,0.7l-6.7,6.7C193.8,317.8,193.5,317.8,193.3,317.6z"></path></g></g><g><g><g><g><path fill="#060405" d="M514.5,118.1c-1.6,10.6-7.2,19.9-15.9,26.3c-8.3,6.1-18.7,9-29.8,7.4l0.2-1.5c10.2,1.5,20.4-1,28.7-7.1
								c8.3-6.1,13.7-15.1,15.3-25.3L514.5,118.1z"></path></g></g><g><g><path fill="#060405" d="M444.6,88.2l-1.2-0.9c8.9-11.3,23.3-17,37.5-14.8c13.1,2,24.4,10.3,30.2,22.4l-1.4,0.7
								c-5.5-11.6-16.4-19.6-29-21.5C467,71.9,453.2,77.4,444.6,88.2z"></path></g></g><g><g><path fill="#060405" d="M469.9,145c-6.4-1-12.1-3.7-16.7-7.7l-13.6,14.1l-1.1-1l24.5-25.3l-1.1-1L451,135.3
								c-7-7.2-10.6-17.5-9-28.2c2.8-18.1,19.7-30.6,37.9-27.9C498,82,510.5,99,507.8,117.1C505,135.3,488.1,147.8,469.9,145z"></path></g></g></g></g><g><g><path fill="#fff" d="M469.9,108.3c1.5,4.2,3.7,8.1,6.5,11.6c1,1.2,2.6,1.4,3.5,0.5l0,0c0.9-0.9,2.4-0.8,3.4,0.1
						c1.1,1,2.2,1.9,3.4,2.8c1.1,0.8,1.5,2.2,0.9,3.3c-1,1.7-2,3.3-3,5c-0.6,1.1-2.4,1.3-3.9,0.2c-11-7.7-17.9-20-18.7-33.4
						c-0.1-1.8,0.9-3.3,2.2-3.2c1.9,0,3.9,0,5.8,0c1.3,0,2.3,1.1,2.4,2.5c0.1,1.5,0.3,2.9,0.6,4.4c0.3,1.3-0.4,2.6-1.7,3l0,0
						C470.1,105.4,469.4,106.8,469.9,108.3z"></path></g></g><g><path fill="#6193f6" d="M475,367.5c-5.5,1.9-15,2.6-20.9-10.1s1.1-35-9.1-44.9c0,0,12,0.3,22.9,10.9
					C478.8,334.1,492.5,361.5,475,367.5z"></path></g><g><g><path fill="#6193f6" d="M508,338c-0.1,0.3-0.1,0.6-0.2,0.9c-2.6,10-8.5,17.2-19.1,15.9c-7.5-0.9-19-5.6-18.6-23.7
						c0.1-3.9,1.1-8,2.7-12.2c0.1-0.3,0.2-0.6,0.3-0.9c5.7-15,17-31.1,12.2-44.5c0.4,0.2,13.9,7.6,20.4,25.8c0,0,0,0,0,0
						c0.1,0.3,0.2,0.6,0.3,0.8C509.3,310.3,510.9,326,508,338z"></path></g></g><g><rect width="1" height="60.6" x="488.6" y="326.7" fill="#060405"></rect></g><g><path fill="#6193f6" d="M534.9,312.6c-4.5,4.4-5.7,11.1-6.1,18.4c0,0.3,0,0.7,0,1c-0.4,9,0.2,18.6-3,25.5c-0.5,1.1-1,2.1-1.6,3
					c-0.2,0.3-0.3,0.5-0.5,0.8c-5.9,8.7-13.9,8-18.8,6.3c-12.6-4.4-9-19.8-1.9-32c0.1-0.3,0.3-0.5,0.4-0.8c2.6-4.5,5.7-8.4,8.6-11.2
					C522.9,312.9,534.9,312.6,534.9,312.6z"></path></g><g><rect width="46.6" height="1" x="480.6" y="368.4" fill="#060405" transform="rotate(-63.786 503.949 368.91)"></rect></g><g><rect width="1" height="46.6" x="475.5" y="345.6" fill="#060405" transform="rotate(-26.224 475.98 368.859)"></rect></g><g><path fill="#fff" d="M500.7,436.7l-18.8,0c-1.1,0-2.1-0.8-2.3-1.9l-7.6-46.6c-0.2-1.4,0.9-2.7,2.3-2.7l34.2,0.1
					c1.4,0,2.5,1.3,2.3,2.7l-7.8,46.5C502.8,435.8,501.9,436.7,500.7,436.7z"></path></g><g><path fill="#060405" d="M500.8,437.2C500.8,437.2,500.7,437.2,500.8,437.2l-18.8,0c-1.4,0-2.5-1-2.8-2.4l-7.6-46.6
					c-0.3-1.7,1-3.3,2.8-3.3c0,0,0,0,0,0l34.2,0.1c1.7,0,3.1,1.6,2.8,3.3l-7.8,46.5C503.3,436.2,502.1,437.2,500.8,437.2z
					 M500.7,436.2C500.8,436.2,500.8,436.2,500.7,436.2c0.9,0,1.6-0.6,1.8-1.5l7.8-46.5c0.2-1.1-0.7-2.1-1.8-2.1l-34.2-0.1
					c0,0,0,0,0,0c-1.1,0-2,1-1.8,2.1l7.6,46.6c0.1,0.9,0.9,1.5,1.8,1.5L500.7,436.2z"></path></g><g><g><path fill="#fff" d="M528.9,331c0,0.3,0,0.7,0,1l-4.4,2.3l-0.4-0.8L528.9,331z"></path></g></g><g><g><path fill="#fff" d="M524.2,360.5c-0.2,0.3-0.3,0.5-0.5,0.8l-1.9-2.3l0.7-0.6L524.2,360.5z"></path></g></g><g><g><path fill="#fff" d="M506,300.2l-6.8,6l-0.6-0.7l7.1-6.2c0,0,0,0,0,0C505.8,299.6,505.9,299.9,506,300.2z"></path></g></g><g><g><path fill="#fff" d="M478.1,322.6l-0.6,0.6l-4.8-4.3c0.1-0.3,0.2-0.6,0.3-0.9L478.1,322.6z"></path></g></g><g><g><path fill="#fff" d="M508,338c-0.1,0.3-0.1,0.6-0.2,0.9c-0.8-0.6-2.3-1.6-4.7-3.4c0.1-0.3,0.3-0.5,0.4-0.8
						C505.2,336,506.9,337.3,508,338z"></path></g></g></g></g></g></svg>