<svg xmlns="http://www.w3.org/2000/svg" xmlns:xlink="http://www.w3.org/1999/xlink" enable-background="new 0 0 4680 3120" viewBox="0 0 4680 3120" id="full-stack-developer"><path fill="#b0d8ff" d="M3204.254 762.354h164.405v210.48h-164.405z"></path><path fill="#fff" d="M3214.202 772.04h144.509v191.107h-144.509z"></path><path fill="#b0d8ff" d="M3379.731 580.148h276.451V922.57h-276.451z"></path><path fill="#fff" d="M3395.741 595.593h244.432v311.531h-244.432z"></path><path fill="#b0d8ff" d="M1771.091 1568.248H798.272c-32.009 0-57.957-25.948-57.957-57.958V494.592c0-32.009 25.948-57.957 57.957-57.957h972.819c32.009 0 57.958 25.948 57.958 57.957V1510.29c0 32.01-25.949 57.958-57.958 57.958z"></path><linearGradient id="a" x1="1267.694" x2="1281.439" y1="247.329" y2="1669.875" gradientUnits="userSpaceOnUse"><stop offset="0" stop-color="#b0d8ff"></stop><stop offset=".015" stop-color="#b3d9ff"></stop><stop offset=".145" stop-color="#c4e1ff"></stop><stop offset=".301" stop-color="#d1e7ff"></stop><stop offset=".512" stop-color="#d8eaff"></stop><stop offset="1" stop-color="#daebff"></stop></linearGradient><path fill="url(#a)" d="M1755.42 1568.248H794.747c-30.062 0-54.433-24.37-54.433-54.433V510.406c0-30.062 24.37-54.433 54.433-54.433h960.673c30.062 0 54.433 24.37 54.433 54.433v1003.409c0 30.063-24.371 54.433-54.433 54.433z"></path><path fill="#d5e1f7" d="M1751.684 711.728H805.422c-10.365 0-18.767-8.402-18.767-18.767v-170.78c0-10.365 8.402-18.767 18.767-18.767h946.262c10.365 0 18.767 8.402 18.767 18.767v170.78c0 10.365-8.402 18.767-18.767 18.767z"></path><path fill="#fff" d="M1746.244 706.288H799.982c-10.365 0-18.767-8.402-18.767-18.767v-170.78c0-10.365 8.402-18.767 18.767-18.767h946.262c10.365 0 18.767 8.402 18.767 18.767v170.78c0 10.364-8.403 18.767-18.767 18.767z"></path><path fill="#d5e1f7" d="M1752.172 1533.053H805.91c-10.365 0-18.767-8.402-18.767-18.767v-170.78c0-10.365 8.402-18.767 18.767-18.767h946.262c10.365 0 18.767 8.402 18.767 18.767v170.78c0 10.365-8.402 18.767-18.767 18.767z"></path><path fill="#fff" d="M1746.244 1525.532H799.982c-10.365 0-18.767-8.402-18.767-18.767v-170.78c0-10.365 8.402-18.767 18.767-18.767h946.262c10.365 0 18.767 8.402 18.767 18.767v170.78c0 10.365-8.403 18.767-18.767 18.767z"></path><path fill="#d5e1f7" d="M1110.239 1375.126H829.636c-7.981 0-14.45-6.469-14.45-14.45 0-7.981 6.469-14.45 14.45-14.45h280.603c7.98 0 14.45 6.469 14.45 14.45 0 7.981-6.469 14.45-14.45 14.45zM1728.446 1443.346h-898.81c-7.981 0-14.45-6.47-14.45-14.45 0-7.98 6.469-14.45 14.45-14.45h898.81c7.981 0 14.45 6.469 14.45 14.45 0 7.98-6.469 14.45-14.45 14.45z"></path><path fill="#ebf5ff" d="M1728.446 1496.524h-898.81c-7.981 0-14.45-6.469-14.45-14.45 0-7.98 6.469-14.45 14.45-14.45h898.81c7.981 0 14.45 6.469 14.45 14.45 0 7.981-6.469 14.45-14.45 14.45z"></path><path fill="#d5e1f7" d="M786.655 1278.047V760.501c0-7.718 6.257-13.975 13.975-13.975h180.365c7.718 0 13.975 6.257 13.975 13.975v517.546c0 7.718-6.257 13.975-13.975 13.975H800.63c-7.718-.001-13.975-6.257-13.975-13.975z"></path><path fill="#fff" d="M782.441 1270.851V753.305c0-7.718 6.257-13.975 13.975-13.975h180.365c7.718 0 13.975 6.257 13.975 13.975v517.546c0 7.718-6.257 13.975-13.975 13.975H796.416c-7.718 0-13.975-6.257-13.975-13.975z"></path><path fill="#d5e1f7" d="M1040.548 1265.814V772.733c0-14.474 11.733-26.207 26.207-26.207h680.179c14.474 0 26.207 11.733 26.207 26.207v493.082c0 14.474-11.733 26.207-26.207 26.207h-680.179c-14.474-.001-26.207-11.734-26.207-26.208z"></path><path fill="#fff" d="M1032.418 1258.619V765.537c0-14.474 11.733-26.207 26.207-26.207h680.179c14.474 0 26.207 11.733 26.207 26.207v493.082c0 14.474-11.733 26.207-26.207 26.207h-680.179c-14.474 0-26.207-11.733-26.207-26.207z"></path><path fill="#00d967" d="M1271.068 790.941h-196.682c-7.488 0-13.559-6.07-13.559-13.559V775.6c0-7.488 6.07-13.559 13.559-13.559h196.682c7.488 0 13.559 6.07 13.559 13.559v1.782c0 7.488-6.071 13.559-13.559 13.559z"></path><path fill="#d5e1f7" d="M1717.69 859.161h-642.905c-7.709 0-13.958-6.249-13.958-13.957v-.985c0-7.708 6.249-13.958 13.958-13.958h642.905c7.708 0 13.958 6.249 13.958 13.958v.985c-.001 7.708-6.25 13.957-13.958 13.957z"></path><path fill="#ebf5ff" d="M1717.69 912.339h-642.905c-7.709 0-13.958-6.249-13.958-13.958v-.985c0-7.709 6.249-13.958 13.958-13.958h642.905c7.708 0 13.958 6.249 13.958 13.958v.985c-.001 7.709-6.25 13.958-13.958 13.958z"></path><path fill="#00d967" d="M1271.068 965.504h-196.682c-7.488 0-13.559-6.07-13.559-13.559v-1.783c0-7.488 6.07-13.559 13.559-13.559h196.682c7.488 0 13.559 6.07 13.559 13.559v1.783c0 7.488-6.071 13.559-13.559 13.559z"></path><path fill="#d5e1f7" d="M1717.69 1033.724h-642.905c-7.709 0-13.958-6.249-13.958-13.958v-.985c0-7.709 6.249-13.958 13.958-13.958h642.905c7.708 0 13.958 6.249 13.958 13.958v.985c-.001 7.708-6.25 13.958-13.958 13.958z"></path><path fill="#ebf5ff" d="M1717.69 1086.902h-642.905c-7.709 0-13.958-6.249-13.958-13.958v-.985c0-7.708 6.249-13.958 13.958-13.958h642.905c7.708 0 13.958 6.249 13.958 13.958v.985c-.001 7.709-6.25 13.958-13.958 13.958z"></path><path fill="#00d967" d="M1271.068 1140.067h-196.682c-7.488 0-13.559-6.071-13.559-13.559v-1.782c0-7.488 6.07-13.559 13.559-13.559h196.682c7.488 0 13.559 6.07 13.559 13.559v1.782c0 7.488-6.071 13.559-13.559 13.559z"></path><path fill="#d5e1f7" d="M1717.69 1208.286h-642.905c-7.709 0-13.958-6.249-13.958-13.958v-.985c0-7.708 6.249-13.958 13.958-13.958h642.905c7.708 0 13.958 6.249 13.958 13.958v.985c-.001 7.709-6.25 13.958-13.958 13.958z"></path><path fill="#ebf5ff" d="M1717.69 1261.465h-642.905c-7.709 0-13.958-6.249-13.958-13.957v-.985c0-7.708 6.249-13.958 13.958-13.958h642.905c7.708 0 13.958 6.249 13.958 13.958v.985c-.001 7.708-6.25 13.957-13.958 13.957z"></path><path fill="#daebff" d="M955.51 928.263H815.867c-10.994 0-19.906-8.912-19.906-19.906v-126.41c0-10.994 8.912-19.906 19.906-19.906H955.51c10.994 0 19.906 8.912 19.906 19.906v126.41c0 10.994-8.912 19.906-19.906 19.906zM955.51 1124.912H815.867c-10.994 0-19.906-8.912-19.906-19.906v-126.41c0-10.994 8.912-19.906 19.906-19.906H955.51c10.994 0 19.906 8.912 19.906 19.906v126.41c0 10.993-8.912 19.906-19.906 19.906zM1238.644 686.016h-176.096c-10.913 0-19.76-8.847-19.76-19.76v-21.852c0-10.913 8.847-19.76 19.76-19.76h176.096c10.913 0 19.76 8.847 19.76 19.76v21.852c0 10.913-8.847 19.76-19.76 19.76zM998.546 686.016H822.45c-10.913 0-19.76-8.847-19.76-19.76v-21.852c0-10.913 8.847-19.76 19.76-19.76h176.096c10.913 0 19.76 8.847 19.76 19.76v21.852c0 10.913-8.847 19.76-19.76 19.76zM1480.89 686.016h-176.096c-10.913 0-19.76-8.847-19.76-19.76v-21.852c0-10.913 8.847-19.76 19.76-19.76h176.096c10.913 0 19.76 8.847 19.76 19.76v21.852c0 10.913-8.847 19.76-19.76 19.76zM1723.136 686.016H1547.04c-10.913 0-19.76-8.847-19.76-19.76v-21.852c0-10.913 8.847-19.76 19.76-19.76h176.096c10.913 0 19.76 8.847 19.76 19.76v21.852c0 10.913-8.847 19.76-19.76 19.76zM1721.067 603.813H818.398c-12.056 0-21.829-9.773-21.829-21.829v-41.816c0-12.056 9.773-21.829 21.829-21.829h902.669c12.056 0 21.829 9.773 21.829 21.829v41.816c0 12.056-9.773 21.829-21.829 21.829z"></path><ellipse cx="1846.646" cy="2464.014" fill="#e2eefa" rx="290.003" ry="78.02"></ellipse><ellipse cx="1131.157" cy="2342.415" fill="#e2eefa" rx="139.043" ry="43.578"></ellipse><ellipse cx="2113.361" cy="2371.873" fill="#e2eefa" rx="238.607" ry="58.709"></ellipse><ellipse cx="3460.274" cy="2273.604" fill="#e2eefa" rx="375.984" ry="40.927"></ellipse><ellipse cx="2721.967" cy="2480.203" fill="#e2eefa" rx="108.554" ry="33.778"></ellipse><path fill="#d3e2f9" d="M701.309 2145.851h2967.793v19.766H701.309z"></path><path fill="#d1e3ff" d="M3793.421 2274.893h-655.806c-20.57 0-37.246-16.676-37.246-37.246v-1128.4c0-20.57 16.676-37.246 37.246-37.246h655.806c20.57 0 37.246 16.675 37.246 37.246v1128.401c0 20.57-16.675 37.245-37.246 37.245z"></path><path fill="#e3eeff" d="M3167.08 1954.225h298.439v251.615H3167.08zM3465.519 1954.225h296.098v251.615h-296.098z"></path><path fill="#f5fcff" d="M3167.08 1136.293h594.537v217.526H3167.08zM3167.08 1408.937h594.537v217.526H3167.08zM3167.08 1681.581h594.537v217.526H3167.08z"></path><ellipse cx="3400.759" cy="2029.125" fill="#d1e3ff" rx="21.066" ry="20.048"></ellipse><ellipse cx="3534.038" cy="2029.125" fill="#d1e3ff" rx="21.066" ry="20.048"></ellipse><path fill="#d1e3ff" stroke="#b6d4ff" stroke-miterlimit="10" d="M3182.294 1184.81h49.74v165.949h-49.74zM3232.034 1184.81h49.74v165.949h-49.74zM3281.774 1184.81h49.74v165.949h-49.74z"></path><path fill="#d1e3ff" stroke="#b6d4ff" stroke-miterlimit="10" d="M3331.513 1184.81h49.74v165.949h-49.74zM3381.253 1184.81h49.74v165.949h-49.74zM3476.181 1459.625h49.74v165.949h-49.74zM3525.921 1459.625h49.74v165.949h-49.74z"></path><path fill="#d1e3ff" stroke="#b6d4ff" stroke-miterlimit="10" d="M3290.876 1467.382h47.334v174.382h-47.334z" transform="rotate(90 3314.543 1554.573)"></path><path fill="#d1e3ff" stroke="#b6d4ff" stroke-miterlimit="10" d="M3307.846 1420.047h47.335v174.382h-47.335z" transform="rotate(90 3331.513 1507.238)"></path><path fill="#d1e3ff" stroke="#b6d4ff" stroke-miterlimit="10" d="M3310.479 1514.716h47.335v174.382h-47.335z" transform="rotate(90 3334.147 1601.907)"></path><path fill="#d1e3ff" stroke="#b6d4ff" stroke-miterlimit="10" d="M3575.661 1459.625h49.74v165.949h-49.74z"></path><path fill="#d1e3ff" stroke="#b6d4ff" stroke-miterlimit="10" d="M3625.4 1459.625h49.74v165.949h-49.74zM3675.14 1459.625h49.74v165.949h-49.74zM3217.697 1733.157h49.74v165.949h-49.74zM3267.437 1733.157h49.74v165.949h-49.74zM3317.177 1733.157h49.74v165.949h-49.74zM3366.917 1733.157h49.74v165.949h-49.74z"></path><path fill="#d1e3ff" stroke="#b6d4ff" stroke-miterlimit="10" d="M3416.656 1733.157h49.74v165.949h-49.74zM3539.258 1337.411l-46.656 16.408-60.446-155.661 46.656-16.408zM3592.81 1337.411l-46.656 16.408-60.447-155.661 46.656-16.408z"></path><path fill="#d1e3ff" stroke="#b6d4ff" stroke-miterlimit="10" d="m3691.26 1322.232-39.692 28.527-105.096-132.426 39.692-28.527z"></path><ellipse cx="3619.58" cy="1781.247" fill="#d1e3ff" stroke="#b6d4ff" stroke-miterlimit="10" rx="74.601" ry="70.993"></ellipse><path fill="none" stroke="#b6d4ff" stroke-miterlimit="10" stroke-width="2.325" d="M3619.58 1866.639c-49.557 0-89.731-38.231-89.731-85.392s40.174-85.392 89.731-85.392"></path><path fill="#d1e3ff" stroke="#b6d4ff" stroke-miterlimit="10" d="M3562.892 1884.882h107.933v14.224h-107.933z"></path><path fill="#d1e3ff" stroke="#b6d4ff" stroke-miterlimit="10" d="M3612.55 1847.336h7.029v40.568h-7.029z"></path><path fill="#00d967" d="M1207.651 2162.889s107.755-5.843 107.88-27.74c.098-17.028-65.819-2.619-65.819-2.619s72.102-20.92 105.432-38.039c7.313-3.755 14.772-7.812 19.893-14.242 5.122-6.429 7.347-15.874 3.2-22.972-5.613-9.609-19.074-10.389-30.123-9.055-44.384 5.359-75.582 29.094-115.536 49.155 29.247-14.685 55.259-33.482 79.636-55.259 22.412-20.022 48.493-38.807 63.432-65.579 9.359-16.776 13.077-41.555-3.498-55.352-16.071-13.378-39.103-7.128-56.751-.928-47.406 16.651-88.95 49.707-116.258 91.844a399.763 399.763 0 0 0 16.39-60.482c1.558-8.28 2.135-18.488-4.713-23.396-8.873-6.36-20.724 2.15-27.624 10.61a208.66 208.66 0 0 0-37.362 69.476c5.444-56.567 10.828-114.251-1.479-169.73-2.809-12.67-6.691-25.46-14.599-35.749-7.908-10.289-20.58-17.717-33.482-16.315-12.218 1.329-22.306 10.015-30.497 19.177-26.428 29.564-41.913 68.696-42.873 108.339-.959 39.642 12.614 79.477 37.581 110.286a231.712 231.712 0 0 0-44.077-36.084c-3.617-2.28-8.927-4.24-11.646-.938-1.403 1.704-1.379 4.143-1.176 6.342 2.481 26.899 20.519 49.45 37.79 70.221-35.013-40.87-90.101-63.66-143.755-59.468-6.482.507-13.841 1.947-17.138 7.551-1.907 3.243-1.992 7.237-1.594 10.979 2.865 26.976 26.662 46.542 50.065 60.261 19.689 11.542 40.416 21.189 61.106 30.819a167.938 167.938 0 0 0-35.753-1.26c-2.72.195-5.759.625-7.417 2.789-3.134 4.087 1.282 9.633 5.457 12.648 29.901 21.593 67.568 32.18 104.34 29.326"></path><linearGradient id="b" x1="1140.526" x2="1140.526" y1="1820.284" y2="2120.879" gradientTransform="rotate(-2.292 2532.315 1611.673)" gradientUnits="userSpaceOnUse"><stop offset=".366" stop-color="#86cf94"></stop><stop offset=".989" stop-color="#008166"></stop></linearGradient><path fill="url(#b)" d="M1330.012 1961.719c1.321-.955 2.628 1.153 1.353 2.117-34.27 25.895-65.958 55.007-94.032 87.543-28.304 32.803-50.884 68.618-72.958 105.717-.796 1.337-2.805.272-2.134-1.137 36.7-76.954 99.165-144.619 167.771-194.24zm-155.071 27.795c-19.69 50.448-31.513 113.993-27.546 168.28.101 1.375 2.109 1.285 2.131-.085.883-54.648 9.033-115.748 28.276-167.121.605-1.618-2.227-2.699-2.861-1.074zm-68.229-111.441c-9.282 92.598-1.798 191.33 23.014 281.12.414 1.498 2.551.743 2.259-.719-9.419-47.093-17.937-94.119-21.856-142.042-3.768-46.078-3.386-92.049-1.779-138.202.03-.924-1.545-1.092-1.638-.157zm-83.707 138.354c27.811 39.525 58.636 112.619 95.162 144.491 1.493 1.302 3.356-.799 2.058-2.228-33.014-36.312-65.375-104.369-94.983-143.693-1.016-1.348-3.231.017-2.237 1.43zm299.764 61.24c-55.167 24.883-112.051 54.157-158.8 93.048-1.452 1.208-.044 3.67 1.633 2.556 51.47-34.177 101.285-67.816 157.887-93.346 1.373-.618.673-2.885-.72-2.258zm-343.06-6.821c40.175 23.992 83.131 75.224 126.926 91.953 1.383.528 2.521-1.404 1.114-2.091-42.439-20.745-85.82-68.542-126.88-92.038-1.386-.792-2.515 1.367-1.16 2.176z" opacity=".45"></path><path fill="#b0d8ff" d="M1030.422 2156.472h235.094v196.608h-235.094z"></path><path fill="#daebff" d="M1219.324 2156.472h46.193v196.608h-46.193z"></path><path fill="#b0d8ff" d="M2970.004 1444.518H1962.73c-28.438 0-51.492-23.054-51.492-51.492V620.1c0-28.438 23.054-51.492 51.492-51.492h1007.274c28.438 0 51.492 23.054 51.492 51.492v772.925c0 28.439-23.054 51.493-51.492 51.493z"></path><linearGradient id="c" x1="2456.425" x2="2456.425" y1="418.751" y2="1555.201" gradientUnits="userSpaceOnUse"><stop offset="0" stop-color="#b0d8ff"></stop><stop offset=".015" stop-color="#b3d9ff"></stop><stop offset=".145" stop-color="#c4e1ff"></stop><stop offset=".301" stop-color="#d1e7ff"></stop><stop offset=".512" stop-color="#d8eaff"></stop><stop offset="1" stop-color="#daebff"></stop></linearGradient><path fill="url(#c)" d="M2951.203 1444.518h-989.554c-27.841 0-50.411-22.569-50.411-50.411v-753.98c0-27.841 22.57-50.411 50.411-50.411h989.554c27.841 0 50.41 22.57 50.41 50.411v753.98c0 27.841-22.569 50.411-50.41 50.411z"></path><path fill="#00d967" d="M2223.833 678.052h-122.488c-4.22 0-7.641-4.026-7.641-8.993 0-4.967 3.421-8.993 7.641-8.993h122.488c4.22 0 7.641 4.026 7.641 8.993 0 4.967-3.421 8.993-7.641 8.993z"></path><path fill="#006dfe" d="M2343.213 758.641h-207.635c-4.22 0-7.641-4.026-7.641-8.993 0-4.967 3.421-8.994 7.641-8.994h207.635c4.22 0 7.641 4.027 7.641 8.994 0 4.966-3.421 8.993-7.641 8.993z"></path><path fill="#00d967" d="M2426.962 758.641h316.849c4.22 0 7.641-4.026 7.641-8.993 0-4.967-3.421-8.994-7.641-8.994h-316.849c-4.22 0-7.641 4.027-7.641 8.994 0 4.966 3.421 8.993 7.641 8.993z"></path><path fill="#006dfe" d="M2343.213 839.229h-207.635c-4.22 0-7.641-4.026-7.641-8.993 0-4.967 3.421-8.993 7.641-8.993h207.635c4.22 0 7.641 4.026 7.641 8.993 0 4.967-3.421 8.993-7.641 8.993z"></path><path fill="#00d967" d="M2308.979 919.818h-207.635c-4.22 0-7.641-4.027-7.641-8.994s3.421-8.993 7.641-8.993h207.635c4.22 0 7.641 4.026 7.641 8.993 0 4.967-3.421 8.994-7.641 8.994z"></path><path fill="#006dfe" d="M2749.285 919.818h-356.557c-4.22 0-7.641-4.027-7.641-8.994s3.421-8.993 7.641-8.993h356.557c4.22 0 7.641 4.026 7.641 8.993 0 4.967-3.421 8.994-7.641 8.994zM2522.742 839.229h-104.933c-4.22 0-7.641-4.026-7.641-8.993 0-4.967 3.421-8.993 7.641-8.993h104.933c4.22 0 7.641 4.026 7.641 8.993 0 4.967-3.421 8.993-7.641 8.993zM2706.945 839.229h-104.934c-4.22 0-7.641-4.026-7.641-8.993 0-4.967 3.421-8.993 7.641-8.993h104.934c4.22 0 7.641 4.026 7.641 8.993 0 4.967-3.421 8.993-7.641 8.993zM2240.263 1000.406H2103.86c-4.22 0-7.641-4.026-7.641-8.993 0-4.967 3.421-8.993 7.641-8.993h136.404c4.22 0 7.641 4.026 7.641 8.993-.001 4.966-3.422 8.993-7.642 8.993z"></path><path fill="#00d967" d="M2523.139 1000.406h-207.635c-4.22 0-7.641-4.026-7.641-8.993 0-4.967 3.421-8.993 7.641-8.993h207.635c4.22 0 7.641 4.026 7.641 8.993 0 4.966-3.421 8.993-7.641 8.993z"></path><path fill="#006dfe" d="M2674.552 1000.406h-77.546c-4.22 0-7.641-4.026-7.641-8.993 0-4.967 3.421-8.993 7.641-8.993h77.546c4.22 0 7.641 4.026 7.641 8.993 0 4.966-3.421 8.993-7.641 8.993zM2368.69 1080.994h-121.653c-4.22 0-7.641-4.026-7.641-8.993 0-4.967 3.421-8.993 7.641-8.993h121.653c4.22 0 7.641 4.026 7.641 8.993 0 4.967-3.421 8.993-7.641 8.993zM2659.677 1080.994h-207.635c-4.22 0-7.641-4.026-7.641-8.993 0-4.967 3.421-8.993 7.641-8.993h207.635c4.22 0 7.641 4.026 7.641 8.993 0 4.967-3.421 8.993-7.641 8.993zM2593.119 1161.583h-389.073c-4.22 0-7.641-4.026-7.641-8.993 0-4.967 3.421-8.994 7.641-8.994h389.073c4.22 0 7.641 4.026 7.641 8.994 0 4.966-3.421 8.993-7.641 8.993zM2884.106 1161.583h-235.021c-4.22 0-7.641-4.026-7.641-8.993 0-4.967 3.421-8.994 7.641-8.994h235.021c4.22 0 7.641 4.026 7.641 8.994 0 4.966-3.421 8.993-7.641 8.993zM2308.979 1242.171h-207.635c-4.22 0-7.641-4.026-7.641-8.993 0-4.967 3.421-8.993 7.641-8.993h207.635c4.22 0 7.641 4.026 7.641 8.993 0 4.967-3.421 8.993-7.641 8.993z"></path><path fill="#00d967" d="M2560.243 1242.171h-207.635c-4.22 0-7.641-4.026-7.641-8.993 0-4.967 3.421-8.993 7.641-8.993h207.635c4.22 0 7.641 4.026 7.641 8.993 0 4.967-3.421 8.993-7.641 8.993z"></path><path fill="#006dfe" d="M2580.235 1322.759H2264.87c-4.22 0-7.641-4.026-7.641-8.994 0-4.967 3.421-8.993 7.641-8.993h315.365c4.22 0 7.641 4.026 7.641 8.993-.001 4.968-3.422 8.994-7.641 8.994zM1992.211 660.066h15.282v17.987h-15.282zM1992.211 740.654h15.282v17.987h-15.282zM1992.211 821.242h15.282v17.987h-15.282zM1992.211 901.831h15.282v17.987h-15.282zM1992.211 982.419h15.282v17.987h-15.282zM1992.211 1063.007h15.282v17.987h-15.282zM1992.211 1103.302h15.282v17.987h-15.282zM1992.211 1143.596h15.282v17.987h-15.282zM1992.211 1183.89h15.282v17.987h-15.282zM1992.211 1224.184h15.282v17.987h-15.282zM1992.211 1264.478h15.282v17.987h-15.282zM1992.211 1304.772h15.282v17.987h-15.282zM1992.211 1345.067h15.282v17.987h-15.282zM2803.829 1359.441l-55.692-27.843c-1.724-.862-2.844-2.853-2.844-5.058v-5.983c0-2.205 1.12-4.196 2.844-5.058l55.692-27.842c3.079-1.539 6.494 1.121 6.494 5.058v2.139c0 2.227-1.142 4.234-2.892 5.082l-38.243 18.53c-3.856 1.868-3.856 8.296 0 10.164l38.243 18.532c1.75.848 2.892 2.855 2.892 5.082v2.139c.001 3.938-3.414 6.598-6.494 5.058zM2854.321 1271.941l-25.725 104.692c-.578 2.351-2.406 3.969-4.485 3.969-3.108 0-5.349-3.508-4.485-7.023l25.726-104.692c.577-2.351 2.406-3.969 4.485-3.969 3.107 0 5.348 3.508 4.484 7.023zM2925.809 1331.599l-55.692 27.843c-3.079 1.539-6.494-1.121-6.494-5.058v-2.139c0-2.227 1.142-4.234 2.892-5.082l38.243-18.532c3.855-1.868 3.855-8.296 0-10.164l-38.243-18.53c-1.75-.848-2.892-2.855-2.892-5.082v-2.139c0-3.938 3.415-6.598 6.494-5.058l55.692 27.842c1.724.862 2.844 2.853 2.844 5.058v5.983c0 2.204-1.12 4.196-2.844 5.058z"></path><defs><path id="d" d="M2093.831 2008.398v133.654h44.047v-120.289c-15.433-11.706-31.707-13.982-44.047-13.365z"></path></defs><use fill="#b0d8ff" overflow="visible" xlink:href="#d"></use><clipPath id="e"><use overflow="visible" xlink:href="#d"></use></clipPath><path d="M2083.602 2033.638s37.959 6.668 59.735 47.109c21.776 40.44 39.757-4.732 35.561-23.232-4.196-18.499-1.998-37.429-13.186-51.626-11.188-14.197-32.564-34.417-61.733-26.673-29.168 7.744-32.964 3.442-31.366 20.865 1.598 17.424 4.395 36.138 4.395 36.138" clip-path="url(#e)" opacity=".34"></path><ellipse cx="1955.397" cy="2352.175" fill="#191e56" rx="34.066" ry="37.644"></ellipse><path fill="#191e56" d="M2152.024 2385.995c0 20.79-15.254 37.644-34.066 37.644-18.814 0-34.069-16.854-34.069-37.644 0-20.795 15.255-37.647 34.069-37.647 18.812 0 34.066 16.852 34.066 37.647zM2312.852 2352.175c0 20.792-15.252 37.644-34.067 37.644-18.813 0-34.064-16.852-34.064-37.644 0-20.795 15.252-37.644 34.064-37.644 18.815 0 34.067 16.849 34.067 37.644z"></path><path fill="#0542bf" d="M2085.759 2141.393s29.73-12.124 61.296 0l.858 42.573 154.675 127.591v30.31h-45.664l-.61-23.305-118.435-92.553.732 115.859-5.872 27.218h-30.832l-5.688-26.947-1.284-112.901-117.822 88.38-.489 22.635-42.332.271v-32.066l151.71-123.947v-25.534l-.243-17.584z"></path><defs><path id="f" d="M2196.045 1351.593s50.318-17.852 125.173 0 119.582 92.396 122.067 152.653-24.537 430.65-123.62 524.296c-99.082 93.647-349.107 47.522-400.206 27.954-51.099-19.568-88.837-96.442-88.837-96.442l256.127-182.168 13.631-390.893 95.665-35.4z"></path></defs><use fill="#006dfe" overflow="visible" xlink:href="#f"></use><clipPath id="g"><use overflow="visible" xlink:href="#f"></use></clipPath><path fill="#004efc" d="M2205.674 1333.414s47.522 8.071 72.681 66.932c25.159 58.862 19.794 146.451 13.159 260.132-6.636 113.68 25.977 116.476 29.704 195.679 3.727 79.204-14.909 153.748-119.271 189.157-104.363 35.409-191.952 51.343-326.132 29.865l-99.703-113.727 48.454-221.77s90.23-90.546 101.489-158.487c11.259-67.942 98.821-237.361 134.258-262.092s145.361 14.311 145.361 14.311z" clip-path="url(#g)"></path><defs><path id="h" d="m2029.097 1332.483-6.057-.466s-62.431 1.864-81.999 26.091c-19.568 24.227-33.079 137.907-33.079 137.907l38.67 291.189s23.295 41 141.635 41c118.339 0 164.93-48.454 164.93-48.454l-10.955-136.354s19.807-30.905 23.069-63.984c3.261-33.079-29.352-209.656-64.761-235.281-35.409-25.625-113.68-14.509-113.68-14.509l-57.773 2.861z"></path></defs><use fill="#ffab00" overflow="visible" xlink:href="#h"></use><clipPath id="i"><use overflow="visible" xlink:href="#h"></use></clipPath><path fill="#fe8e00" d="M2165.606 1387.459s-16.307 19.102-10.25 54.045c6.057 34.943 31.682 83.862 21.897 102.499-9.784 18.636-28.575 49.696-24.538 56.995 4.038 7.299 12.268 11.337 12.268 11.337l53.424 33.845s14.119 3.893 23.832-2.785c9.713-6.678 0 0 0 0l6.607 1.864-156.99 84.635-18.034-26.087s57.073-61.732 62.198-82.698c5.125-20.966 1.398-22.498 13.045-43.397 11.647-20.898 23.295-34.409 15.841-57.472-7.455-23.062-21.199-60.567-18.403-82.698s4.427-35.873 19.103-50.083zM1958.745 1390.141s-9.814 41.158.567 91.45l37.149 179.984 6.39-3.271s-44.106-221.376-44.106-268.163z" clip-path="url(#i)"></path><path fill="#ffab00" d="M1817.008 2338.918s-3.729 29.974-3.647 54.122c.083 24.146 16.471 43.311 8.104 65.938s-77.231 23.311-126.287 29.129c-49.055 5.818-92.448-4.709-86.164-41.544 6.284-36.836 85.907-22.344 117.129-68.146 31.217-45.8 21.837-53.275 21.837-53.275l69.028 13.776zM2079.792 2362.123s-3.729 29.974-3.647 54.122c.083 24.146 16.471 43.311 8.104 65.938-8.368 22.627-77.231 23.311-126.287 29.129-49.055 5.818-92.448-4.709-86.164-41.544 6.284-36.836 85.907-22.345 117.129-68.146 31.217-45.8 21.837-53.274 21.837-53.274l69.028 13.775z"></path><defs><path id="j" d="m1953.776 1781.924-7.144 5.28s-212.763 68.643-232.641 133.248c-19.879 64.605 11.803 435.154 11.803 435.154s57.772 45.658 109.021-4.659l4.193-346.166 215.053-79.67 62.16 1.864s74.544-53.113 79.204-56.84c4.659-3.727 63.363-45.658 63.363-45.658l-36.341-59.636-268.671 17.083z"></path></defs><use fill="#1e2889" overflow="visible" xlink:href="#j"></use><clipPath id="k"><use overflow="visible" xlink:href="#j"></use></clipPath><path fill="#1a1a7c" d="M1707.437 1881.938s86.379 19.475 102.219 126.369c15.841 106.894 34.477 185.767 34.477 185.767l44-157.212 153.543-82.398 95.354-75.01 48.176-110.727-76.44-40.226-232.02 19.568-122.067 63.363-47.242 70.506z" clip-path="url(#k)"></path><defs><path id="l" d="M2105.039 1816.09s-112.469 95.976-121.927 166.793c-9.458 70.817 0 382.972 0 382.972s72.541 48.454 121.927 0c0 0-20.5-285.133 23.295-333.587 43.795-48.454 121.135-92.249 130.453-163.998 9.318-71.749-5.591-88.521-5.591-88.521l-74.714-12.114-73.443 48.455z"></path></defs><use fill="#1e2889" overflow="visible" xlink:href="#l"></use><clipPath id="m"><use overflow="visible" xlink:href="#l"></use></clipPath><path fill="#1a1a7c" d="M1963.404 2126.382c2.795-8.386 41.931-167.554 204.066-130.6 162.134 36.954 0 0 0 0l50.939-24.39s66.69-55.287 71.549-62.12.737-63.363 1.556-70.817c.818-7.454 0-90.075 0-90.075l-320.965-7.454 4.348 114.923-11.492 175.18v95.353z" clip-path="url(#m)"></path><path fill="#191e56" d="M1222.618 2528.269v-745.07a5.313 5.313 0 0 1 5.313-5.313h14.534a5.313 5.313 0 0 1 5.313 5.313v745.07a5.313 5.313 0 0 1-5.313 5.313h-14.534a5.314 5.314 0 0 1-5.313-5.313zM2460.085 2528.269v-745.07a5.313 5.313 0 0 1 5.313-5.313h14.534a5.313 5.313 0 0 1 5.313 5.313v745.07a5.313 5.313 0 0 1-5.313 5.313h-14.534a5.314 5.314 0 0 1-5.313-5.313zM1531.899 2436.619l-45.906-663.465a5.022 5.022 0 0 1 4.663-5.356l15.08-1.044a5.022 5.022 0 0 1 5.356 4.663l45.906 663.465a5.021 5.021 0 0 1-4.663 5.356l-15.08 1.043a5.02 5.02 0 0 1-5.356-4.662zM2729.397 2436.619l-45.906-663.465a5.022 5.022 0 0 1 4.663-5.356l15.08-1.044a5.022 5.022 0 0 1 5.356 4.663l45.906 663.465a5.021 5.021 0 0 1-4.663 5.356l-15.08 1.043a5.02 5.02 0 0 1-5.356-4.662z"></path><path fill="#0542bf" d="M2743.637 1803.045H1183.172c-6.004 0-10.871-4.867-10.871-10.871v-28.575c0-6.004 4.867-10.871 10.871-10.871h1560.465c6.004 0 10.871 4.867 10.871 10.871v28.575c0 6.004-4.867 10.871-10.871 10.871z"></path><path fill="#ffab00" d="M2312.571 1633.922h326.598v39.602h-326.598z"></path><path fill="#00d967" d="M2321.218 1673.524h326.598v39.602h-326.598z"></path><path fill="#de4d30" d="M2305.377 1713.125h326.598v39.602h-326.598z"></path><path fill="#9bb4c9" d="m1534.961 1263.037 17.799 24.234c8.105-17.294 25.169-25.034 35.927-28.307l-24.558-18.667s-4.213-.187-9.552 1.554c-6.615 2.172-14.958 7.328-19.082 19.506a39.54 39.54 0 0 0-.534 1.68z"></path><path fill="#4143c5" d="M1291.648 1468.813c0 11.396 7.95 20.928 18.608 23.359 1.72.408 3.52.617 5.368.617 1.593 0 3.145-.16 4.647-.456 11.015-2.156 19.328-11.865 19.328-23.519a23.88 23.88 0 0 0-3.154-11.895 24.046 24.046 0 0 0-6.572-7.387 23.883 23.883 0 0 0-14.249-4.696c-13.248 0-23.976 10.736-23.976 23.977zM1506.973 1237.817c0 4.696 1.354 9.085 3.707 12.793a24.071 24.071 0 0 0 6.843 7.078 23.97 23.97 0 0 0 13.426 4.104c1.552 0 3.076-.15 4.548-.435 4.124-12.178 12.467-17.334 19.082-19.506.228-1.304.346-2.662.346-4.035 0-13.249-10.737-23.975-23.975-23.975-13.241 0-23.977 10.726-23.977 23.976z"></path><path fill="#9bb4c9" d="M1329.872 1449.531a24.022 24.022 0 0 1 6.572 7.387l102.961-113.285 21.514-23.665 31.736-34.922 24.866-27.358a24.084 24.084 0 0 1-6.843-7.078l-29.76 32.736-20.999 23.104-22.036 24.242-108.011 118.839z"></path><path fill="#4143c5" d="M1279.141 1732.817v-.485c79.61-29.38 146.942-2.436 152.384-.155-16.125 4.295-75.543 17.322-152.384.64z"></path><path fill="#9bb4c9" d="m1310.255 1492.171 35.79 205.134 4.765 27.313.504 2.871 9.68-1.775-.189-1.085-4.885-27.983-35.651-204.31a23.318 23.318 0 0 1-4.647.467 22.718 22.718 0 0 1-5.367-.632z"></path><path fill="#4143c5" d="m1549.299 1299.48 24.291 54.528 4.202 9.441 36.729-31.123 33.131-30.699 19.862-18.412-6.722-5.841-.03-.02-.228-.098-.208-.089-61.139-25.993s-3.895.495-9.511 2.204c-10.756 3.273-27.821 11.013-35.929 28.304a43.81 43.81 0 0 0-2.352 6.134c-1.087 3.54-1.821 7.424-2.096 11.664z"></path><path fill="#859ad0" d="M1641.882 1343.567c24.275-22.819 34.935-50.909 23.808-62.743-11.127-11.838-39.823-2.937-64.097 19.877-24.273 22.817-34.931 50.909-23.806 62.749 11.126 11.833 39.822 2.934 64.095-19.883zM1279.141 1732.817h152.384v19.91h-152.384z"></path><path fill="#191e56" d="M2839.394 2233.839c0 1.745-.341 3.468-1.016 5.158-7.655 19.529-58.189 34.607-119.385 34.607-61.922 0-112.934-15.443-119.638-35.303l-.763-4.463c0-21.959 53.905-39.765 120.4-39.765 66.499.001 120.402 17.807 120.402 39.766z"></path><path fill="#0542bf" d="m2838.389 2238.997-41.521 244.479c-75.665 43.079-155.747 0-155.747 0l-41.764-245.175c6.704 19.86 57.716 35.303 119.638 35.303 61.195 0 111.73-15.078 119.385-34.607h.009z"></path><defs><path id="n" d="M2021.253 1269.586s10.173 21.432 1.787 62.431c0 0 6.523 20.034 29.352 19.568 22.829-.466 34.477-21.963 34.477-21.963s-10.871-17.484-6.367-54.6l.311-13.822-28.886-19.568-30.674 27.954z"></path></defs><use fill="#ffaca6" overflow="visible" xlink:href="#n"></use><clipPath id="o"><use overflow="visible" xlink:href="#n"></use></clipPath><path fill="#ea756c" d="M2019.934 1296.612s40.068-7.924 74.855 19.409c0 0 2.341-59.049 3.913-61.04 1.572-1.991-64.48-31.52-64.48-31.52s-23.295 13.887-23.916 24.959 9.628 48.192 9.628 48.192z" clip-path="url(#o)"></path><defs><path id="p" d="M1955.639 1156.992s-59.299-2.1-26.064-121.682c0 0 30.413 22.911 84.458 26.016 54.045 3.106 114.301 1.864 121.756 98.15 3.106 62.12-55.287 115.544-55.287 115.544l-52.818-33.545-72.045-84.483z"></path></defs><use fill="#1e2889" overflow="visible" xlink:href="#p"></use><clipPath id="q"><use overflow="visible" xlink:href="#p"></use></clipPath><path fill="#172272" d="M1912.621 1115.791s.932 6.942 27.022 0c26.091-6.942 59.17-17.839 102.499 10.206 43.329 28.045 59.409 86.283 93.766 79.294l-25.744 54.977-56.103 36.344s-89.412-25.875-92.866-35.596c-3.454-9.721-29.006-69.84-32.733-79.089-3.727-9.249-9.002-32.079-9.002-32.079l-6.839-34.057z" clip-path="url(#q)"></path><defs><path id="r" d="M1953.155 1141.773s-16.151 135.422 33.545 143.188c49.696 7.765 82.62-49.075 82.62-49.075s24.848-3.106 22.364-29.507c-2.485-26.401-22.053-16.462-22.053-16.462s-22.053-9.629-21.742-32.924c0 0-26.712 6.212-38.825-18.326 0 0-20.189 13.977-40.689-7.454-.001-.001-5.281 12.734-15.22 10.56z"></path></defs><use fill="#ffaca6" overflow="visible" xlink:href="#r"></use><clipPath id="s"><use overflow="visible" xlink:href="#r"></use></clipPath><path fill="#ea756c" d="M1943.837 1159.388s31.215 2.574 61.266 9.097 45.891 50.318 77.806 44.96c31.914-5.358 18.17-22.708 18.17-22.708l-29.818-40.422-69.652-22.596-42.164-6.989-17.238 13.977 1.63 24.681z" clip-path="url(#s)"></path><path fill="#ffaca6" d="M2164.985 1612.335s-51.021 53.724-89.805 67.391c-38.784 13.667-57.42-.15-72.95 31.296l-3.106 6.598s55.908 18.015 96.287-1.864l122.998-69.575-53.424-33.846z"></path><path fill="#78c2ff" d="M1707.437 1719.182h460.033v33.545h-460.033z"></path><path fill="#b0d8ff" d="M2045.275 1752.727h-400.676l-57.955-280.784h400.677z"></path><path fill="#78c2ff" d="M2015.275 1752.727h-400.677l-57.954-280.784h400.677z"></path><path fill="#daebff" d="M2749.667 1605.036h199.686v88.289h-199.686z"></path><path fill="#ebf5ff" d="M2830.415 1693.325h199.686v88.289h-199.686z"></path><ellipse cx="1769.992" cy="1588.934" fill="#fff" rx="37.709" ry="41.479" transform="rotate(-8.069 1770.481 1589.507)"></ellipse></svg>