<?xml version="1.0" encoding="UTF-8" standalone="no"?>
<svg
   viewBox="0 0 997.86 1000"
   id="global-warming-data"
   version="1.1"
   sodipodi:docname="global-warming-data.svg"
   inkscape:version="1.2.2 (b0a8486541, 2022-12-01)"
   xmlns:inkscape="http://www.inkscape.org/namespaces/inkscape"
   xmlns:sodipodi="http://sodipodi.sourceforge.net/DTD/sodipodi-0.dtd"
   xmlns="http://www.w3.org/2000/svg"
   xmlns:svg="http://www.w3.org/2000/svg">
  <defs
     id="defs299" />
  <sodipodi:namedview
     id="namedview297"
     pagecolor="#ffffff"
     bordercolor="#000000"
     borderopacity="0.25"
     inkscape:showpageshadow="2"
     inkscape:pageopacity="0.0"
     inkscape:pagecheckerboard="0"
     inkscape:deskcolor="#d1d1d1"
     showgrid="false"
     inkscape:zoom="1.053"
     inkscape:cx="499.05033"
     inkscape:cy="500.94967"
     inkscape:window-width="3840"
     inkscape:window-height="2083"
     inkscape:window-x="0"
     inkscape:window-y="40"
     inkscape:window-maximized="1"
     inkscape:current-layer="global-warming-data" />
  <g
     id="g294"
     transform="matrix(1.1052352,0,0,1.1052352,-55.416905,-59.863433)">
    <path
       fill="#79a2e4"
       d="M 60.18,673.59 A 67.92,67.92 0 1 1 88.53,765.36 68,68 0 0 1 60.18,673.59 Z M 87,687.73 A 37.63,37.63 0 1 0 137.81,672 37.68,37.68 0 0 0 87,687.73 Z"
       id="path2" />
    <path
       fill="#292739"
       d="m 115.41,698.77 a 1.83,1.83 0 0 1 -0.46,-0.07 C 102.57,694.6 91.46,685.82 83.65,673.98 A 68.52,68.52 0 0 1 72.28,635.29 76,76 0 0 1 84.1,597 87.27,87.27 0 0 1 112.85,568.61 c 21.77,-13.17 50.31,-17.58 78.32,-12.1 a 1.44,1.44 0 1 1 -0.55,2.82 C 163.3,553.99 135.5,558.27 114.34,571.07 91.08,585.14 75.7,610.38 75.16,635.37 74.58,662 92.08,688.1 115.86,696 a 1.44,1.44 0 0 1 -0.45,2.8 z"
       id="path4" />
    <ellipse
       cx="121.18"
       cy="704.40997"
       fill="#a4d2f3"
       stroke="#292739"
       stroke-linecap="round"
       stroke-linejoin="round"
       stroke-width="3.16"
       rx="12.37"
       ry="11.8"
       transform="rotate(-62.17,121.16,704.388)"
       id="ellipse6" />
    <path
       fill="#292739"
       stroke="#292739"
       stroke-linecap="round"
       stroke-linejoin="round"
       stroke-width="3.16"
       d="m 742.35,727.57 a 312.6,312.6 0 0 0 49.2,-76.85 c 5.2,-11.58 9.91,-23.92 17.75,-34.05 6.08,-7.87 16,-11.8 20.29,-20.36 9.61,-19.32 33.62,-29.92 44.06,-49.37 13,-24.15 24.75,-50.7 33.16,-76.88 a 221.13,221.13 0 0 0 -104,-261.44 c -38.59,-21.38 -89.35,-20.56 -130.63,-6.69 -28.12,9.45 -54.72,25.65 -84.36,27 -22.29,1 -43.94,-6.56 -65.68,-11.56 -57.34,-13.17 -119.7,-8 -171.68,19.52 -51.98,27.52 -92.26,78.55 -101.68,136.63 -6.45,39.79 1.2,80.89 -5.54,120.63 -7.07,41.66 -29.47,79.2 -39.51,120.24 -33.27,100.76 35.06,198.91 125.44,228.77 27.57,9.11 51.61,14.83 80,10.6 28.39,-4.23 57.68,-4.86 86.29,-8.8 56.55,-7.78 113.19,-21.21 163.38,-49.26 a 313.94,313.94 0 0 0 83.51,-68.13 z"
       id="path8" />
    <circle
       cx="536.39001"
       cy="530.37"
       r="278.67999"
       fill="#d3e8f4"
       id="circle10" />
    <circle
       cx="535.58002"
       cy="511.38"
       r="278.67999"
       fill="#d3e8f4"
       transform="rotate(-45,535.574,511.388)"
       id="circle12" />
    <ellipse
       cx="778.25"
       cy="368.64001"
       fill="#ffffff"
       rx="77.389999"
       ry="132.69"
       transform="rotate(-25.47,778.217,368.629)"
       id="ellipse14" />
    <ellipse
       cx="398.39999"
       cy="678.96997"
       fill="#ffffff"
       rx="164.73"
       ry="132.69"
       transform="rotate(-25.47,398.388,678.96)"
       id="ellipse16" />
    <path
       fill="#a4d2f3"
       d="m 622.91,185.6 7.86,13.99 -10.31,12.31 15.45,4.34 1.41,15.98 13.99,-7.85 12.3,10.31 4.34,-15.45 15.99,-1.41 -7.86,-13.99 10.31,-12.3 -15.45,-4.35 -1.41,-15.98 -13.99,7.86 -12.3,-10.31 -4.34,15.45 z"
       id="path18" />
    <path
       fill="none"
       stroke="#292739"
       stroke-linecap="round"
       stroke-linejoin="round"
       stroke-width="3.16"
       d="m 622.91,185.6 7.86,13.99 -10.31,12.31 15.45,4.34 1.41,15.98 13.99,-7.85 12.3,10.31 4.34,-15.45 15.99,-1.41 -7.86,-13.99 10.31,-12.3 -15.45,-4.35 -1.41,-15.98 -13.99,7.86 -12.3,-10.31 -4.34,15.45 z"
       id="path20" />
    <path
       fill="#292739"
       d="m 442.19,227.89 a 1.44,1.44 0 0 1 -1.44,-1.39 v -2.79 a 1.45,1.45 0 0 1 1.49,-1.38 1.43,1.43 0 0 1 1.38,1.49 v 2.59 a 1.43,1.43 0 0 1 -1.39,1.48 z m 1.36,-11.43 a 1.24,1.24 0 0 1 -0.38,-0.05 1.43,1.43 0 0 1 -1,-1.76 c 0.26,-1 0.56,-2 0.89,-2.92 a 1.44,1.44 0 0 1 1.82,-0.9 1.45,1.45 0 0 1 0.9,1.83 c -0.31,0.9 -0.59,1.82 -0.84,2.74 a 1.43,1.43 0 0 1 -1.39,1.06 z M 448,205.54 a 1.39,1.39 0 0 1 -0.69,-0.18 1.44,1.44 0 0 1 -0.57,-2 c 0.48,-0.87 1,-1.75 1.53,-2.62 a 1.44,1.44 0 1 1 2.44,1.52 c -0.51,0.82 -1,1.66 -1.45,2.49 a 1.45,1.45 0 0 1 -1.26,0.79 z m 6.67,-9.75 a 1.43,1.43 0 0 1 -1.11,-2.35 c 0.64,-0.77 1.3,-1.54 2,-2.28 a 1.4341984,1.4341984 0 1 1 2.14,1.91 c -0.64,0.72 -1.28,1.46 -1.89,2.2 a 1.43,1.43 0 0 1 -1.13,0.52 z m 8.21,-8.5 a 1.44,1.44 0 0 1 -1,-2.51 l 0.37,-0.33 c 0.62,-0.55 1.26,-1.1 1.89,-1.63 A 1.44,1.44 0 1 1 466,185 c -0.62,0.52 -1.23,1 -1.84,1.58 l -0.36,0.32 a 1.39,1.39 0 0 1 -0.91,0.39 z m 9.26,-7.33 a 1.44,1.44 0 0 1 -0.82,-2.61 c 0.81,-0.57 1.65,-1.14 2.48,-1.69 a 1.4408765,1.4408765 0 0 1 1.58,2.41 c -0.81,0.53 -1.62,1.08 -2.41,1.63 a 1.41,1.41 0 0 1 -0.82,0.3 z m 150.52,-6.12 a 1.41,1.41 0 0 1 -0.49,-0.09 l -2.77,-1 a 1.4443078,1.4443078 0 0 1 1,-2.71 c 0.93,0.33 1.87,0.66 2.79,1 a 1.44,1.44 0 0 1 -0.49,2.79 z m -140.47,-0.1 a 1.44,1.44 0 0 1 -0.69,-2.7 c 0.88,-0.48 1.76,-0.94 2.65,-1.4 a 1.44,1.44 0 1 1 1.31,2.56 c -0.87,0.44 -1.73,0.9 -2.58,1.36 a 1.42,1.42 0 0 1 -0.68,0.18 z M 611.49,170 a 1.39,1.39 0 0 1 -0.44,-0.07 l -2.8,-0.89 a 1.4344075,1.4344075 0 1 1 0.85,-2.74 c 0.95,0.29 1.89,0.59 2.83,0.9 a 1.43,1.43 0 0 1 -0.44,2.8 z m -118.63,-1.36 a 1.46,1.46 0 0 1 -1.33,-0.89 1.44,1.44 0 0 1 0.78,-1.88 c 0.92,-0.38 1.84,-0.76 2.77,-1.12 a 1.44,1.44 0 1 1 1,2.68 c -0.9,0.35 -1.81,0.72 -2.7,1.09 a 1.41,1.41 0 0 1 -0.52,0.11 z m 107.31,-2 a 1.32,1.32 0 0 1 -0.39,-0.06 l -2.83,-0.77 a 1.44,1.44 0 1 1 0.74,-2.78 c 1,0.25 1.91,0.52 2.87,0.78 a 1.44,1.44 0 0 1 -0.39,2.83 z m -96.19,-2 a 1.44,1.44 0 0 1 -0.43,-2.82 l 2.87,-0.85 a 1.44,1.44 0 0 1 0.78,2.77 c -0.93,0.26 -1.87,0.54 -2.8,0.83 a 1.54,1.54 0 0 1 -0.4,0.03 z m 84.73,-0.94 a 1.87,1.87 0 0 1 -0.32,0 l -2.87,-0.64 a 1.44,1.44 0 1 1 0.61,-2.81 l 2.9,0.65 a 1.44,1.44 0 0 1 -0.32,2.84 z m -73.29,-2 a 1.44,1.44 0 0 1 -0.3,-2.84 c 1,-0.21 2,-0.41 2.92,-0.6 a 1.4414749,1.4414749 0 0 1 0.55,2.83 c -1,0.18 -1.92,0.37 -2.87,0.58 z m 61.7,-0.3 a 1.1,1.1 0 0 1 -0.25,0 c -1,-0.17 -1.93,-0.33 -2.89,-0.48 a 1.44,1.44 0 1 1 0.45,-2.84 c 1,0.15 2,0.32 2.94,0.49 a 1.44,1.44 0 0 1 -0.25,2.85 z m -50,-1.68 a 1.44,1.44 0 0 1 -0.18,-2.86 c 1,-0.13 2,-0.24 3,-0.35 a 1.44,1.44 0 1 1 0.3,2.86 c -1,0.1 -1.94,0.22 -2.91,0.34 z m 38.35,0 h -0.17 l -2.91,-0.31 a 1.44,1.44 0 0 1 0.27,-2.86 c 1,0.1 2,0.2 3,0.32 a 1.432236,1.432236 0 0 1 -0.16,2.86 z m -11.79,-1 h -0.07 c -1,0 -1.95,-0.09 -2.93,-0.12 a 1.44,1.44 0 0 1 0.09,-2.87 l 3,0.11 a 1.4404253,1.4404253 0 0 1 -0.07,2.88 z m -14.78,0 a 1.44,1.44 0 0 1 -0.06,-2.87 l 1.73,-0.07 h 1.25 a 1.41,1.41 0 0 1 1.47,1.4 1.43,1.43 0 0 1 -1.4,1.48 h -1.23 l -1.69,0.07 z"
       id="path22" />
    <path
       fill="#2b47a0"
       d="M 101,436.46 A 22.85,22.85 0 1 1 89.13,466.52 22.85,22.85 0 0 1 101,436.46 Z"
       id="path24" />
    <path
       fill="#a4d2f3"
       d="m 195.32,346.86 c -2.66,1.33 -5.27,2.61 -7.82,4 -2.55,1.39 -5,2.78 -7.42,4.24 -2.42,1.46 -4.72,3 -7,4.59 -2.28,1.59 -4.38,3.27 -6.44,5 -2.06,1.73 -4,3.54 -5.83,5.38 -0.9,0.95 -1.82,1.86 -2.65,2.85 l -1.26,1.44 -0.64,0.72 -0.59,0.75 a 76.13,76.13 0 0 0 -8.32,12.61 80.45,80.45 0 0 0 -8.77,27.89 71.27,71.27 0 0 0 -0.21,14.22 c 0.05,0.58 0.07,1.17 0.14,1.75 l 0.24,1.74 0.23,1.74 c 0.1,0.58 0.23,1.15 0.34,1.73 0.24,1.15 0.41,2.31 0.74,3.45 l 0.44,1.72 0.21,0.86 0.27,0.84 c 0.19,0.56 0.36,1.13 0.53,1.7 0.17,0.57 0.32,1.14 0.55,1.69 l 1.25,3.33 1.42,3.29 c 0.5,1.08 1.08,2.13 1.59,3.21 a 79.13,79.13 0 0 0 7.79,12.1 c 0.75,0.94 1.47,1.92 2.3,2.79 0.4,0.44 0.79,0.9 1.19,1.36 l 0.6,0.69 c 0.2,0.22 0.42,0.43 0.63,0.64 0.85,0.85 1.68,1.74 2.55,2.58 l 2.68,2.45 a 72.71,72.71 0 0 0 12,8.38 81.15,81.15 0 0 0 13.83,6.08 l 1.84,0.57 0.93,0.3 a 8.14,8.14 0 0 0 0.93,0.27 c 1.26,0.32 2.52,0.64 3.79,1 1.27,0.36 2.56,0.51 3.86,0.79 1.3,0.28 2.61,0.4 3.93,0.63 a 93.38,93.38 0 0 0 16.3,0.78 104.94,104.94 0 0 0 17.06,-2.13 60,60 0 0 1 -15.25,9.6 73.8,73.8 0 0 1 -17.79,5.26 l -2.33,0.33 c -0.78,0.1 -1.56,0.24 -2.35,0.29 -1.57,0.14 -3.14,0.23 -4.73,0.34 -1.59,0.11 -3.18,0 -4.78,0 -1.6,0 -3.19,-0.16 -4.79,-0.26 A 79.43,79.43 0 0 1 149.63,499.7 l -4.08,-2.88 c -0.69,-0.47 -1.31,-1 -2,-1.55 l -1.93,-1.58 -1,-0.8 -0.91,-0.85 -1.84,-1.7 c -1.24,-1.12 -2.35,-2.36 -3.5,-3.57 A 88.23,88.23 0 0 1 122.5,470.66 c -0.41,-0.73 -0.8,-1.47 -1.2,-2.2 -0.4,-0.73 -0.81,-1.47 -1.17,-2.23 L 118,461.67 c -0.62,-1.57 -1.22,-3.14 -1.82,-4.71 -0.32,-0.78 -0.54,-1.59 -0.81,-2.39 l -0.77,-2.41 -0.36,-1.21 -0.31,-1.24 -0.6,-2.46 c -0.43,-1.63 -0.71,-3.31 -1,-5 -0.14,-0.84 -0.29,-1.67 -0.41,-2.51 l -0.27,-2.54 -0.26,-2.53 c -0.09,-0.85 -0.09,-1.7 -0.12,-2.55 a 83.41,83.41 0 0 1 1.66,-20.12 85.77,85.77 0 0 1 16.55,-35.62 c 1.05,-1.26 2.06,-2.54 3.14,-3.75 l 3.36,-3.55 c 1.19,-1.12 2.39,-2.21 3.58,-3.3 0.58,-0.56 1.24,-1.05 1.87,-1.56 l 1.9,-1.51 0.94,-0.75 1,-0.69 2,-1.37 c 1.32,-0.93 2.69,-1.75 4.06,-2.56 a 82.15,82.15 0 0 1 8.45,-4.22 86.25,86.25 0 0 1 8.75,-3.14 87.69,87.69 0 0 1 8.91,-2.08 c 3,-0.51 6,-0.85 9,-1.06 a 73.9,73.9 0 0 1 8.88,0.02 z"
       id="path26" />
    <path
       fill="#eaeefa"
       stroke="#292739"
       stroke-linecap="round"
       stroke-linejoin="round"
       stroke-width="3.16"
       d="m 112.92,450.1 a 5.61,5.61 0 1 1 -2.91,7.38 5.61,5.61 0 0 1 2.91,-7.38 z"
       id="path28" />
    <rect
       width="238.2"
       height="51.790001"
       x="186.67"
       y="178.63"
       fill="#d8e5ee"
       rx="11.35"
       transform="rotate(180,305.775,204.53)"
       id="rect30" />
    <rect
       width="238.2"
       height="51.790001"
       x="180.44"
       y="174.97"
       fill="#2b47a0"
       rx="25.389999"
       id="rect32" />
    <path
       fill="#a4d2f3"
       d="m 244.26,198.15 h -4.21 a 6.36,6.36 0 0 0 -0.9,-2.37 6.72,6.72 0 0 0 -1.62,-1.74 6.85,6.85 0 0 0 -2.14,-1.08 8.49,8.49 0 0 0 -2.5,-0.36 7.73,7.73 0 0 0 -4.26,1.2 8,8 0 0 0 -3,3.52 15.32,15.32 0 0 0 0,11.35 8,8 0 0 0 3,3.5 7.85,7.85 0 0 0 4.25,1.19 8.52,8.52 0 0 0 2.49,-0.36 7,7 0 0 0 2.13,-1.06 6.64,6.64 0 0 0 1.63,-1.71 6.55,6.55 0 0 0 0.92,-2.34 h 4.21 a 11.46,11.46 0 0 1 -1.3,3.74 10.46,10.46 0 0 1 -2.47,2.94 11.27,11.27 0 0 1 -3.43,1.91 12.69,12.69 0 0 1 -4.21,0.67 12.11,12.11 0 0 1 -6.39,-1.7 11.79,11.79 0 0 1 -4.41,-4.89 18.61,18.61 0 0 1 0,-15.19 11.7,11.7 0 0 1 10.8,-6.59 13,13 0 0 1 4.11,0.63 11.21,11.21 0 0 1 3.43,1.83 10.51,10.51 0 0 1 2.52,2.94 11.52,11.52 0 0 1 1.35,3.97 z m 5.56,18.63 V 189.17 H 254 v 12 h 13.77 v -12 h 4.18 v 27.61 h -4.18 v -12 H 254 v 12 z m 31.08,0 h -4.43 l 9.94,-27.61 h 4.81 l 9.94,27.61 h -4.42 l -7.81,-22.59 h -0.21 z m 0.74,-10.81 H 296 v 3.51 H 281.64 Z M 328,189.17 v 27.61 h -3.83 l -14,-20.25 h -0.26 v 20.25 h -4.16 v -27.61 h 3.85 l 14.05,20.28 h 0.26 v -20.28 z m 25.32,8.73 a 8.51,8.51 0 0 0 -1.05,-2.21 6.86,6.86 0 0 0 -1.55,-1.67 6.7,6.7 0 0 0 -2.06,-1.06 8.45,8.45 0 0 0 -2.53,-0.36 7.6,7.6 0 0 0 -4.2,1.2 8.12,8.12 0 0 0 -3,3.51 15.27,15.27 0 0 0 0,11.33 8.1,8.1 0 0 0 3,3.52 7.91,7.91 0 0 0 4.32,1.2 8.07,8.07 0 0 0 3.93,-0.92 6.44,6.44 0 0 0 2.61,-2.59 8.16,8.16 0 0 0 0.92,-4 l 1.08,0.2 h -7.9 v -3.44 h 10.85 v 3.15 a 11.77,11.77 0 0 1 -1.48,6 10.09,10.09 0 0 1 -4.07,3.94 13.4,13.4 0 0 1 -12.51,-0.33 11.72,11.72 0 0 1 -4.4,-4.9 16.85,16.85 0 0 1 -1.58,-7.55 18,18 0 0 1 0.92,-5.93 12.93,12.93 0 0 1 2.58,-4.47 11.26,11.26 0 0 1 3.92,-2.82 12.39,12.39 0 0 1 4.95,-1 12.83,12.83 0 0 1 4.17,0.66 11.51,11.51 0 0 1 3.45,1.88 10.64,10.64 0 0 1 2.51,2.88 10.47,10.47 0 0 1 1.35,3.69 z m 10.32,18.88 V 189.17 H 381 v 3.59 h -13.2 v 8.41 H 380 v 3.57 h -12.2 v 8.46 h 13.31 v 3.58 z"
       id="path34" />
    <path
       fill="#2b47a0"
       d="M 242.22,197.38 H 238 a 6.48,6.48 0 0 0 -0.9,-2.38 6.72,6.72 0 0 0 -1.62,-1.74 7.3,7.3 0 0 0 -2.14,-1.08 8.49,8.49 0 0 0 -2.5,-0.36 7.73,7.73 0 0 0 -4.26,1.2 8,8 0 0 0 -3,3.52 15.32,15.32 0 0 0 0,11.35 8,8 0 0 0 3,3.51 7.84,7.84 0 0 0 4.25,1.18 8.52,8.52 0 0 0 2.49,-0.35 7,7 0 0 0 2.13,-1.06 6.68,6.68 0 0 0 1.63,-1.72 6.55,6.55 0 0 0 0.92,-2.34 h 4.21 a 11.51,11.51 0 0 1 -1.3,3.75 10.39,10.39 0 0 1 -2.47,2.93 11.06,11.06 0 0 1 -3.43,1.91 12.69,12.69 0 0 1 -4.21,0.68 12,12 0 0 1 -6.39,-1.71 11.79,11.79 0 0 1 -4.41,-4.89 18.61,18.61 0 0 1 0,-15.19 11.67,11.67 0 0 1 10.8,-6.58 13,13 0 0 1 4.11,0.63 10.79,10.79 0 0 1 3.43,1.83 9.94,9.94 0 0 1 2.52,2.94 11.18,11.18 0 0 1 1.36,3.97 z m 5.56,18.62 v -27.6 h 4.16 v 12 h 13.77 v -12 h 4.18 V 216 h -4.18 v -12 h -13.77 v 12 z m 31.08,0 h -4.43 l 9.94,-27.61 h 4.82 l 9.93,27.61 h -4.42 l -7.81,-22.6 h -0.21 z m 0.74,-10.81 h 14.34 v 3.5 H 279.6 Z M 326,188.4 V 216 h -3.83 l -14,-20.25 h -0.25 V 216 h -4.17 v -27.6 h 3.85 l 14.05,20.27 h 0.26 V 188.4 Z m 25.28,8.72 a 8.44,8.44 0 0 0 -1,-2.2 6.6,6.6 0 0 0 -3.61,-2.74 8.45,8.45 0 0 0 -2.53,-0.36 7.63,7.63 0 0 0 -4.2,1.2 8.12,8.12 0 0 0 -3,3.51 13.17,13.17 0 0 0 -1.09,5.66 13.41,13.41 0 0 0 1.09,5.68 8.13,8.13 0 0 0 3,3.51 7.91,7.91 0 0 0 4.32,1.2 8,8 0 0 0 3.93,-0.91 6.47,6.47 0 0 0 2.61,-2.6 8.15,8.15 0 0 0 0.92,-3.95 l 1.08,0.2 h -7.9 v -3.44 h 10.85 V 205 a 11.87,11.87 0 0 1 -1.47,6 10.2,10.2 0 0 1 -4.08,3.95 13.36,13.36 0 0 1 -12.51,-0.34 11.66,11.66 0 0 1 -4.4,-4.9 16.8,16.8 0 0 1 -1.58,-7.54 18,18 0 0 1 0.92,-5.94 12.93,12.93 0 0 1 2.58,-4.47 11.36,11.36 0 0 1 3.92,-2.81 12.22,12.22 0 0 1 4.95,-1 12.83,12.83 0 0 1 4.17,0.66 11.27,11.27 0 0 1 3.45,1.87 10.64,10.64 0 0 1 2.51,2.88 10.47,10.47 0 0 1 1.35,3.69 z M 361.6,216 v -27.6 h 17.31 v 3.6 h -13.15 v 8.42 H 378 V 204 h -12.24 v 8.45 h 13.31 V 216 Z"
       id="path36" />
    <path
       fill="#ffffff"
       d="m 239.83,196.2 h -4.2 a 6.55,6.55 0 0 0 -0.91,-2.37 6.41,6.41 0 0 0 -1.62,-1.74 6.8,6.8 0 0 0 -2.1,-1.09 8.22,8.22 0 0 0 -2.5,-0.37 7.74,7.74 0 0 0 -4.27,1.2 8.17,8.17 0 0 0 -3,3.52 15.45,15.45 0 0 0 0,11.35 8,8 0 0 0 3,3.51 7.79,7.79 0 0 0 4.24,1.19 8.52,8.52 0 0 0 2.49,-0.36 7,7 0 0 0 2.14,-1.06 6.48,6.48 0 0 0 1.62,-1.72 6.56,6.56 0 0 0 0.93,-2.34 h 4.2 a 11.31,11.31 0 0 1 -1.3,3.74 10.41,10.41 0 0 1 -2.47,2.94 10.92,10.92 0 0 1 -3.43,1.9 12.63,12.63 0 0 1 -4.2,0.68 12,12 0 0 1 -6.4,-1.71 11.7,11.7 0 0 1 -4.41,-4.88 18.67,18.67 0 0 1 0,-15.19 11.72,11.72 0 0 1 4.42,-4.88 12,12 0 0 1 6.38,-1.71 13,13 0 0 1 4.1,0.63 11.09,11.09 0 0 1 3.46,1.86 10.2,10.2 0 0 1 2.52,2.94 11.25,11.25 0 0 1 1.31,3.96 z m 5.56,18.63 v -27.61 h 4.17 v 12 h 13.76 v -12 h 4.18 v 27.61 h -4.18 v -12 h -13.76 v 12 z m 31.08,0 h -4.42 L 282,187.22 h 4.82 l 9.93,27.61 h -4.42 l -7.8,-22.6 h -0.22 z m 0.74,-10.81 h 14.35 v 3.5 h -14.35 z m 46.36,-16.8 v 27.61 h -3.83 l -14,-20.25 h -0.25 v 20.25 h -4.17 v -27.61 h 3.86 l 14.05,20.28 h 0.25 v -20.28 z m 25.32,8.72 a 8.76,8.76 0 0 0 -1,-2.2 7.1,7.1 0 0 0 -1.56,-1.67 6.39,6.39 0 0 0 -2.06,-1.06 8.08,8.08 0 0 0 -2.52,-0.37 7.64,7.64 0 0 0 -4.21,1.2 8.09,8.09 0 0 0 -3,3.52 15.2,15.2 0 0 0 0,11.33 8.08,8.08 0 0 0 3,3.52 7.94,7.94 0 0 0 4.33,1.2 8.09,8.09 0 0 0 3.93,-0.92 6.44,6.44 0 0 0 2.6,-2.6 8,8 0 0 0 0.92,-3.95 l 1.08,0.2 h -7.9 v -3.44 h 10.85 v 3.14 a 11.93,11.93 0 0 1 -1.47,6 10.22,10.22 0 0 1 -4.07,3.94 13.38,13.38 0 0 1 -12.52,-0.34 11.66,11.66 0 0 1 -4.4,-4.9 16.77,16.77 0 0 1 -1.58,-7.54 18,18 0 0 1 0.92,-5.93 12.75,12.75 0 0 1 2.58,-4.47 11.2,11.2 0 0 1 3.93,-2.82 12.31,12.31 0 0 1 4.94,-1 12.83,12.83 0 0 1 4.17,0.66 11.3,11.3 0 0 1 3.45,1.88 10.66,10.66 0 0 1 2.52,2.87 10.88,10.88 0 0 1 1.35,3.69 z m 10.32,18.89 v -27.61 h 17.31 v 3.58 h -13.14 v 8.42 h 12.24 v 3.57 h -12.24 v 8.45 h 13.3 v 3.59 z"
       id="path38" />
    <circle
       cx="518.63"
       cy="510.94"
       r="232.42"
       fill="#292739"
       stroke="#292739"
       stroke-linecap="round"
       stroke-linejoin="round"
       stroke-width="3.16"
       transform="rotate(-45,518.63,510.946)"
       id="circle40" />
    <path
       fill="#a4d2f3"
       d="m 286.83,493.86 c 1.78,7.6 3.43,13.26 10.87,19.95 9.07,8.16 10.76,17.76 18.07,27.22 8.48,11 12.94,-3.24 18.32,-10.91 7.21,-10.28 6.32,-14.68 6.36,-26 0.1,-26.41 25.23,-19.7 43.05,-24.43 20.11,-5.35 44.38,-16.11 45.73,-39 0.52,-8.73 -6.3,-16.23 -1.32,-24 6.11,-9.52 8.93,-7.94 2.84,-19.16 -0.61,-1.13 -1.73,-5.56 -2.36,-6.11 -1.32,-1.17 -4.32,-0.83 -5.26,-1.72 -3.59,-3.39 -5.54,-1.34 -2.83,-7.82 3.84,-9.2 14.25,-7.7 21.55,-11.32 6.62,-3.27 3.82,-4.05 6.54,-10.7 2.06,-5 5.37,-6.5 9.13,-10.2 6.3,-6.2 9,-16.47 -1.29,-20.09 -5.57,-1.95 -18.73,-1.51 -24.61,-0.85 -8.93,1 -14.71,7.4 -23.65,7.84 -4.44,0.22 -8.36,-1.32 -12.72,-0.87 -3.87,0.4 -7.29,3.11 -11.32,2.61 -5.35,-0.66 -6.84,-6.29 -9.81,-9.4 A 232,232 0 0 0 286.83,493.86 Z M 466.3,731 c -0.06,-8.53 -2.75,-4.69 -7.68,-8.26 -4.11,-3 -5.18,-7.19 -8.5,-10.27 -7.16,-6.65 -14.83,-8.78 -21.51,-17.54 -5.48,-7.18 -6.73,-14.35 -11.31,-21.91 -5.39,-8.9 -10.42,-14.85 -12.41,-26 -1.85,-10.32 -1.55,-21.15 -1.66,-31.84 -0.08,-7.78 4.35,-19.76 -0.21,-26.73 -2.78,-4.23 -7.8,-4.77 -10.45,-9.14 -4.42,-7.29 -4.12,-18.94 -6.15,-27.12 a 8.3,8.3 0 0 0 -1.28,-2.94 c -2.69,-3.69 -16.5,-11.57 -21,-11.14 -1.55,6.77 -6.44,15.47 -12,19.66 -7.64,5.72 -17.76,5.92 -24.76,13.59 -6.71,7.37 -7.59,17.93 -9.37,27.12 -1.4,7.21 -2.1,15.27 -4.24,22.37 A 232.84,232.84 0 0 0 465.21,737.19 14.83,14.83 0 0 0 466.3,731 Z m 62.63,-61.35 c 5.55,9.56 7.37,20.61 12.4,30.29 3,5.88 4.68,7.2 5.17,13.47 0.36,4.5 -2.82,12 0.79,15.88 4.75,5.16 12.17,-1.95 16.93,-4.74 a 105.1,105.1 0 0 0 28.1,-23.35 c 8,-9.44 8.93,-21.06 15.93,-31 4.82,-6.83 9.82,-11.43 11.25,-20.41 1.19,-7.51 0,-16.21 3.77,-23.23 5.66,-10.61 11.42,-12.68 11.76,-26 a 121.93,121.93 0 0 1 4.27,-29.9 c 2.6,-10.42 0,-19.68 -9.81,-25 -3.59,-1.94 -6.47,-1.89 -9.78,-4.34 -2.73,-2 -4.13,-5.55 -7.23,-7.29 -15.74,-8.83 -34.09,9.95 -46.74,-7.91 -5.91,-8.35 -10.58,-16.16 -22.58,-8.68 l -1,0.64 c -7.17,4.58 -10.63,7.79 -20.32,9.73 -5.54,11 -14.77,8.4 -25.07,8.37 -11.7,0 -14.11,3.52 -22.37,10.24 -7.34,6 -9.29,6.83 -6.82,17.46 1.69,7.27 9.33,16.32 8,23.84 -2.08,12.1 -10.81,10.48 -3.74,23 5.49,9.77 8.82,11.93 19.59,15.77 7.06,2.51 15.67,-1.78 21.95,1.45 8.86,4.56 8.11,15.81 9.19,23.88 0.99,7.41 2.73,11.57 6.36,17.83 z M 679.72,343.41 c -10.66,6.53 -22,11.2 -32.42,18.18 -8.68,5.8 -20.23,10.2 -28.33,17.63 -7.86,7.23 -7.48,8.88 -17.67,7.08 -7.63,-1.34 -10,1.46 -15.17,4.05 a 29.52,29.52 0 0 1 -4.75,1.89 c -6.61,2 -15.3,1.55 -22.24,2.58 -4.3,0.64 -14.8,2.59 -18.56,-0.57 -2.63,-2.21 -2.91,-9.35 -4.23,-13 -3.06,-8.48 -7.68,-15.36 -13,-3.54 -3,6.67 -4.22,8.64 -11.29,12.57 -5.41,3 -16.35,9.64 -8.14,17.09 3.45,3.13 12.75,-0.11 15,4.94 1.78,3.95 -8.24,21 -10.86,24.63 -2.86,4 -7.55,7.12 -8.22,12.36 -0.88,6.82 6.17,17.85 12.38,20.26 9.64,3.73 18.15,-2.41 27.3,4.47 9.84,7.41 12,22.4 24.56,26.43 10.26,3.29 24.12,0 34.25,-2.56 5.8,-1.47 13.46,-5.21 19.63,-3.31 4.75,1.47 10.26,8.7 15.48,10.74 6.09,2.38 12.82,1.56 17.73,6.16 1.75,1.63 1.49,5.28 4.06,7.09 2.12,1.49 6.52,0.56 9.13,1.45 13.8,4.73 7.49,26.47 12.53,38.35 a 17.38,17.38 0 0 0 18.18,10.21 c 8.68,-1 7.32,-6.22 8.05,-14.47 2,-23.15 9.3,-44.91 18.81,-65.89 3.52,-7.77 10.7,-11.45 14.23,-19.52 2.08,-4.75 2.63,-10.32 6.11,-14.32 a 11.63,11.63 0 0 1 1.44,-1.36 232.19,232.19 0 0 0 -63.99,-109.62 z M 462.05,312.77 c 5.2,1.26 8.89,-0.53 13.62,0.82 5.78,1.63 12.06,7.8 16.63,11.76 a 34.77,34.77 0 0 0 19.39,8.65 c 6.15,0.78 13.66,-2.44 18.87,1.12 6.47,4.41 2.1,10.56 6.26,15.77 4.35,5.46 13.08,3.83 18.81,2 2,-10.33 21.41,-11.58 29.29,-13.63 16.38,-4.28 31.23,-8.4 48.4,-8.4 9.5,0 14.62,-4.44 18.29,-10.56 a 232.82,232.82 0 0 0 -210.3,-28.6 c 3.79,9.39 9.93,18.46 20.74,21.07 z"
       id="path42" />
    <path
       fill="#ffffff"
       stroke="#292739"
       stroke-linecap="round"
       stroke-linejoin="round"
       stroke-width="3.2"
       d="M 472.53,211.58 H 598.55 V 337.6 H 472.53 Z"
       transform="rotate(90,535.54,274.59)"
       id="path44" />
    <path
       fill="#2b47a0"
       d="m 484.59,223.64 h 101.9 v 101.9 h -101.9 z"
       id="path46" />
    <path
       fill="#ffffff"
       d="m 555.01,236.7 h 13.5 v 79.56 h -13.5 z m -26.22,24.11 h 13.5 v 55.45 h -13.5 z m -26.22,23.2 h 13.5 v 32.25 h -13.5 z"
       id="path48" />
    <path
       fill="#a4d2f3"
       stroke="#292739"
       stroke-linecap="round"
       stroke-linejoin="round"
       stroke-width="3.16"
       d="m 719.79,314.62 a 59.1,59.1 0 0 1 8.53,-34.13 l -36.27,-22 a 101.77,101.77 0 0 0 63.8,151.89 l 9.7,-41.28 a 59.58,59.58 0 0 1 -45.76,-54.48 z m 118.73,-6.72 a 59.37,59.37 0 0 1 -18.76,46.76 l 29,30.95 A 101.8,101.8 0 0 0 790.9,210.08 l -4.9,42.13 a 59.55,59.55 0 0 1 52.52,55.69 z"
       id="path50" />
    <circle
       cx="778.25"
       cy="309.48999"
       r="78.989998"
       fill="none"
       stroke="#ffffff"
       stroke-linecap="round"
       stroke-linejoin="round"
       stroke-width="13.01"
       transform="rotate(-78.92,778.207,309.51)"
       id="circle52" />
    <path
       fill="#d8e5ee"
       stroke="#292739"
       stroke-linecap="round"
       stroke-linejoin="round"
       stroke-width="3.2"
       d="m 720.21,282 62.91,37.92 8.31,-73 5.93,-52.09 a 125.65,125.65 0 0 0 -122,60.11 z"
       id="path54" />
    <path
       fill="#79a2e4"
       d="m 701.49,249.54 a 107.76,107.76 0 0 1 75.34,-37.31 h 0.34 l -8.84,77.62 z"
       id="path56" />
    <path
       fill="#79a2e4"
       stroke="#292739"
       stroke-linecap="round"
       stroke-linejoin="round"
       stroke-width="3.2"
       d="m 782.52,370.63 a 59.62,59.62 0 0 1 -17,-1.49 l -9.7,41.28 a 101.54,101.54 0 0 0 92.87,-24.81 l -29,-30.95 a 59.22,59.22 0 0 1 -37.17,15.97 z"
       id="path58" />
    <path
       fill="#2b47a0"
       d="M 795.83,279.25 V 103.53 A 13.79,13.79 0 0 0 782,89.74 13.8,13.8 0 0 0 768.21,103.53 v 175.72 a 36.36,36.36 0 1 0 27.58,0 z"
       id="path60" />
    <path
       fill="#79a2e4"
       stroke="#292739"
       stroke-linecap="round"
       stroke-linejoin="round"
       stroke-width="3.2"
       d="M 786.08,280 V 104.32 A 13.79,13.79 0 0 0 772.29,90.53 v 0 A 13.8,13.8 0 0 0 758.5,104.32 V 280 a 36.35,36.35 0 1 0 27.58,0 z"
       id="path62" />
    <path
       fill="#ffffff"
       stroke="#292739"
       stroke-linecap="round"
       stroke-linejoin="round"
       stroke-width="3.16"
       d="m 764.44,90.53 h 15.7 a 5.94,5.94 0 0 1 5.94,5.94 v 36.34 0 H 758.5 v 0 -36.34 a 5.94,5.94 0 0 1 5.94,-5.94 z"
       id="path64" />
    <path
       fill="#292739"
       d="m 772.29,307.61 a 1.44,1.44 0 0 1 -1.44,-1.43 V 132.81 a 1.44,1.44 0 0 1 2.88,0 v 173.37 a 1.43,1.43 0 0 1 -1.44,1.43 z"
       id="path66" />
    <path
       fill="#a4d2f3"
       d="m 789.1,312.39 a 16.81,16.81 0 1 1 -16.81,-16.81 16.8,16.8 0 0 1 16.81,16.81 z"
       id="path68" />
    <path
       fill="#ffffff"
       stroke="#292739"
       stroke-linecap="round"
       stroke-linejoin="round"
       stroke-width="3.16"
       d="m 782.88,313.27 a 10.59,10.59 0 1 1 -10.59,-10.59 10.59,10.59 0 0 1 10.59,10.59 z"
       id="path70" />
    <path
       fill="#292739"
       d="m 777.85,142.44 h 8.38 v 3.55 h -8.38 z m 0,15.17 h 8.38 v 3.55 h -8.38 z m 0,15.17 h 8.38 v 3.55 h -8.38 z m 0,15.17 h 8.38 v 3.55 h -8.38 z m 0,15.17 h 8.38 v 3.55 h -8.38 z m 0,15.17 h 8.38 v 3.55 h -8.38 z m 0,15.17 h 8.38 v 3.55 h -8.38 z m 0,15.17 h 8.38 v 3.55 h -8.38 z"
       id="path72" />
    <path
       fill="#ffffff"
       stroke="#292739"
       stroke-linecap="round"
       stroke-linejoin="round"
       stroke-width="3.2"
       d="m 515.63,376.63 h 205.65 v 177.3 0 H 569 a 53.37,53.37 0 0 1 -53.37,-53.37 z"
       id="path74" />
    <path
       fill="#79a2e4"
       stroke="#292739"
       stroke-linecap="round"
       stroke-linejoin="round"
       stroke-width="3.2"
       d="M 637.4,553.93 A 121.77,121.77 0 0 1 515.63,432.16 c 0,0 16.29,60.84 96.26,39.24 0,0 -10.36,58.09 25.51,82.53 z"
       id="path76" />
    <path
       fill="#a4d2f3"
       stroke="#292739"
       stroke-linecap="round"
       stroke-linejoin="round"
       stroke-width="3.16"
       d="m 643.16,472.94 h 53.35 v 27.26 h -53.35 z"
       id="path78" />
    <path
       fill="#79a2e4"
       d="m 550.02,397.12 h 146.49 v 8.71 H 550.02 Z m 47.05,24.41 h 99.44 v 8.71 h -99.44 z m 34.83,24.41 h 64.61 v 8.71 H 631.9 Z"
       id="path80" />
    <rect
       width="14.52"
       height="14.52"
       x="569.25"
       y="418.63"
       fill="#a4d2f3"
       stroke="#292739"
       stroke-linecap="round"
       stroke-linejoin="round"
       stroke-width="3.16"
       rx="0.79000002"
       id="rect82" />
    <rect
       width="14.52"
       height="14.52"
       x="594.58002"
       y="443.04001"
       fill="#a4d2f3"
       stroke="#292739"
       stroke-linecap="round"
       stroke-linejoin="round"
       stroke-width="3.16"
       rx="0.79000002"
       id="rect84" />
    <path
       fill="#292739"
       d="m 533.11,215.16 a 3,3 0 0 1 -3,-2.95 v -88.34 a 3,3 0 0 1 3,-3 h 191.26 a 3,3 0 0 1 3,3 v 82.71 a 3,3 0 1 1 -5.91,0 v -79.75 h -185.4 v 85.38 a 3,3 0 0 1 -2.95,2.95 z"
       id="path86" />
    <circle
       cx="724.37"
       cy="210.08"
       r="7.6799998"
       fill="#ffffff"
       stroke="#292739"
       stroke-linecap="round"
       stroke-linejoin="round"
       stroke-width="3.16"
       id="circle88" />
    <circle
       cx="533.10999"
       cy="212.21001"
       r="7.6799998"
       fill="#ffffff"
       stroke="#292739"
       stroke-linecap="round"
       stroke-linejoin="round"
       stroke-width="3.16"
       transform="rotate(-67.5,533.102,212.206)"
       id="circle90" />
    <path
       fill="#292739"
       d="m 299.43,177.93 a 3,3 0 0 1 -3,-3 v -51.1 a 3,3 0 0 1 3,-3 h 233.68 a 3,3 0 0 1 0,5.92 H 302.38 V 175 a 3,3 0 0 1 -2.95,2.93 z"
       id="path92" />
    <path
       fill="#ffffff"
       stroke="#292739"
       stroke-linecap="round"
       stroke-linejoin="round"
       stroke-width="3.16"
       d="m 299.43,167.29 a 7.68,7.68 0 1 0 7.68,7.68 7.68,7.68 0 0 0 -7.68,-7.68 z"
       id="path94" />
    <path
       fill="#d8e5ee"
       stroke="#292739"
       stroke-linecap="round"
       stroke-linejoin="round"
       stroke-width="3.2"
       d="m 405.94,270.47 a 126.63,126.63 0 0 0 -106.27,-2.62 126.6,126.6 0 0 0 -106.26,2.62 l -6.74,3.32 v 144.48 c 0,0 88.56,-16.63 100.56,-11.88 h 24.89 c 12,-4.75 100.55,11.88 100.55,11.88 V 273.79 Z"
       id="path96" />
    <path
       fill="#79a2e4"
       d="m 299.8,272.37 a 122.59,122.59 0 0 0 -106.25,0.19 v 134.12 c 32,-15.5 61.38,-16.23 93.89,-2.21 h 24.23 c 32.52,-14 62.35,-13.32 94.37,2.19 V 272.56 A 122.57,122.57 0 0 0 299.8,272.37 Z"
       id="path98" />
    <path
       fill="#ffffff"
       stroke="#292739"
       stroke-linecap="round"
       stroke-linejoin="round"
       stroke-width="3.16"
       d="m 300.05,398.89 a 114.58,114.58 0 0 0 -101.31,0 V 269.23 a 114.65,114.65 0 0 1 101.31,0 z"
       id="path100" />
    <path
       fill="#79a2e4"
       d="m 214.32,282 a 3.55,3.55 0 0 1 -1.09,-6.93 117.58,117.58 0 0 1 72.33,0 3.55,3.55 0 0 1 -2.17,6.76 110.44,110.44 0 0 0 -68,0 3.69,3.69 0 0 1 -1.07,0.17 z m 70.15,15.33 a 3.38,3.38 0 0 1 -1.08,-0.17 111,111 0 0 0 -60.24,-2.16 3.5507886,3.5507886 0 1 1 -1.68,-6.9 118.23,118.23 0 0 1 64.09,2.33 3.55,3.55 0 0 1 -1.09,6.92 z m 0,15.32 a 3.69,3.69 0 0 1 -1.08,-0.17 110.44,110.44 0 0 0 -68,0 3.55,3.55 0 0 1 -2.17,-6.76 117.58,117.58 0 0 1 72.33,0 3.55,3.55 0 0 1 -1.09,6.93 z m -53.66,40.16 a 3.55,3.55 0 0 1 -0.58,-7.05 118.08,118.08 0 0 1 36.53,-0.28 3.55,3.55 0 0 1 -1,7 110.78,110.78 0 0 0 -34.34,0.26 3.66,3.66 0 0 1 -0.61,0.07 z m 53.66,21.1 a 3.69,3.69 0 0 1 -1.08,-0.17 110.44,110.44 0 0 0 -68,0 3.55,3.55 0 0 1 -2.17,-6.76 117.58,117.58 0 0 1 72.33,0 3.55,3.55 0 0 1 -1.09,6.93 z"
       id="path102" />
    <path
       fill="#a4d2f3"
       d="m 232.25,338.52 a 114.57,114.57 0 0 0 -21.88,5.56 v -21.81 a 113.83,113.83 0 0 1 21.88,-5.56 z m 28.35,-0.74 a 114.93,114.93 0 0 0 -22.41,0 V 316 a 114.93,114.93 0 0 1 22.41,0 z m 27.82,6.3 a 114.57,114.57 0 0 0 -21.88,-5.56 v -21.81 a 113.83,113.83 0 0 1 21.88,5.56 z"
       id="path104" />
    <path
       fill="#ffffff"
       stroke="#292739"
       stroke-linecap="round"
       stroke-linejoin="round"
       stroke-width="3.16"
       d="m 400.61,398.89 a 114.6,114.6 0 0 0 -101.32,0 V 269.23 a 114.67,114.67 0 0 1 101.32,0 z"
       id="path106" />
    <path
       fill="#a4d2f3"
       d="m 385.07,282 a 3.75,3.75 0 0 1 -1.09,-0.17 110.4,110.4 0 0 0 -68,0 3.55,3.55 0 1 1 -2.17,-6.76 117.47,117.47 0 0 1 72.32,0 3.55,3.55 0 0 1 -1.08,6.93 z m -70.16,15.32 a 3.55,3.55 0 0 1 -1.08,-6.93 118.57,118.57 0 0 1 31.92,-5.58 3.5522,3.5522 0 0 1 0.25,7.1 110.81,110.81 0 0 0 -30,5.24 3.44,3.44 0 0 1 -1.09,0.17 z m 70.16,76.6 a 3.75,3.75 0 0 1 -1.09,-0.17 110.4,110.4 0 0 0 -68,0 3.55,3.55 0 1 1 -2.17,-6.76 117.47,117.47 0 0 1 72.32,0 3.55,3.55 0 0 1 -1.08,6.93 z"
       id="path108" />
    <path
       fill="#79a2e4"
       d="m 314.06,348.38 a 3.58,3.58 0 0 1 -2,-0.6 3.55,3.55 0 0 1 -1,-4.92 c 5.23,-7.85 10.72,-15.55 16.32,-22.89 a 3.55,3.55 0 0 1 5.51,-0.17 c 3.61,4.19 7.22,8.53 10.75,12.92 a 426.06,426.06 0 0 1 33.05,-36.85 3.5532555,3.5532555 0 1 1 5,5.05 421.41,421.41 0 0 0 -35.24,39.69 3.52,3.52 0 0 1 -2.78,1.36 3.52,3.52 0 0 1 -2.78,-1.35 c -3.44,-4.34 -6.95,-8.65 -10.5,-12.84 a 458.11,458.11 0 0 0 -13.41,19 3.54,3.54 0 0 1 -2.92,1.6 z"
       id="path110" />
    <path
       fill="#79a2e4"
       d="m 383.74,320.14 q -2,-0.45 -4,-0.84 l -1.5,-20 a 112,112 0 0 0 -19.74,-0.31 c -0.2,-1.33 -0.41,-2.66 -0.61,-4 a 112.3,112.3 0 0 1 24,0.73 q 0.94,12.28 1.85,24.42 z"
       id="path112" />
    <path
       fill="#ffffff"
       stroke="#292739"
       stroke-linecap="round"
       stroke-linejoin="round"
       stroke-width="3.2"
       d="m 303.83,241.13 v -17.49 h -7.94 v 17.49 h -7.54 l 10.94,21.75 10.95,-21.75 z"
       id="path114" />
    <path
       fill="#fd9572"
       stroke="#292739"
       stroke-linecap="round"
       stroke-linejoin="round"
       stroke-width="3.16"
       d="m 308.76,485.21 c -0.53,1 -1.1,1.92 -1.73,2.86 -1.68,2.5 -7.88,6.55 -7.65,9.53 a 3.87,3.87 0 0 0 3,3.17 8.92,8.92 0 0 0 4.58,-0.24 27.79,27.79 0 0 0 15,-10 55.22,55.22 0 0 0 6.04,-11.12 q 2.77,-6.21 5.56,-12.41 a 5.62,5.62 0 0 0 0.67,-2.45 3.68,3.68 0 0 0 -3.29,-3.18 8.18,8.18 0 0 0 -4.77,1.13 29.38,29.38 0 0 0 -7.56,5.85 c -4.89,5.09 -6.7,11.15 -9.85,16.86 z"
       id="path116" />
    <path
       fill="#eaeefa"
       stroke="#292739"
       stroke-linecap="round"
       stroke-linejoin="round"
       stroke-width="3.16"
       d="m 259.94,483.93 a 16.88,16.88 0 0 0 4.8,2.4 16,16 0 0 0 6.3,-0.22 192.52,192.52 0 0 1 34.67,-2.56 3,3 0 0 1 3.26,2.08 108.42,108.42 0 0 1 5.03,11.08 4.77,4.77 0 0 1 0.46,3.06 4.67,4.67 0 0 1 -1.26,1.83 c -6.94,7 -16.39,11.28 -26.1,13.1 -9.71,1.82 -19.74,1.38 -29.54,0.07 a 25.79,25.79 0 0 1 -8.71,-2.32 c -4,-2.13 -6.68,-6 -9,-9.9 -3.89,-6.33 -10.22,-17.16 -3.14,-23.6 6.65,-6.05 17.29,1.22 23.23,4.98 z"
       id="path118" />
    <path
       fill="#2b47a0"
       stroke="#292739"
       stroke-linecap="round"
       stroke-linejoin="round"
       stroke-width="3.16"
       d="m 235.59,649.17 85.58,-100.76 c -9.49,-16.3 -0.88,-47.59 21.81,-74.89 25.72,-30.94 59.8,-45 76.11,-31.46 16.31,13.54 8.69,49.64 -17,80.58 -23,27.61 -52.57,41.8 -70.27,34.89 L 253,660.5 a 6.93,6.93 0 0 1 -9.71,1.33 v 0 c -3.08,-2.32 -10.02,-9.61 -7.7,-12.66 z"
       id="path120" />
    <path
       fill="#79a2e4"
       stroke="#292739"
       stroke-linecap="round"
       stroke-linejoin="round"
       stroke-width="3.16"
       d="m 236.85,646.37 78.07,-102 c -12.26,-15.35 -4,-48.69 20,-77.57 25.72,-30.94 59.8,-45 76.11,-31.47 16.31,13.53 8.68,49.64 -17,80.58 -21.7,26.1 -49.35,40.21 -67.26,35.84 l -78.82,103 a 6.94,6.94 0 1 1 -11.05,-8.39 z"
       id="path122" />
    <ellipse
       cx="361.67999"
       cy="490.98999"
       fill="#ffffff"
       stroke="#292739"
       stroke-linecap="round"
       stroke-linejoin="round"
       stroke-width="3.16"
       rx="60.990002"
       ry="29.9"
       transform="rotate(-50.26,361.678,490.986)"
       id="ellipse124" />
    <path
       fill="#fd9572"
       stroke="#292739"
       stroke-linecap="round"
       stroke-linejoin="round"
       stroke-width="3.16"
       d="m 296,557.78 c -3.82,-0.09 -7.67,-0.93 -10.39,-3.51 -2,-1.91 -3.93,-4.93 -6.87,-3.78 a 4.6,4.6 0 0 0 -1.85,1.39 c -2.18,2.66 -4.79,5.88 -6.13,9.2 -1.39,3.48 -0.55,2.23 2.57,3.74 a 108.1,108.1 0 0 1 12.05,6.84 c 5.05,3.12 9.61,9.3 15.14,11.52 7.06,2.83 13.52,6.54 20.39,0.56 2.44,-2.13 6.89,-5.21 8.48,-8 1.24,-2.2 2.5,-4.48 2.74,-7 a 35.6,35.6 0 0 0 0.16,-3.79 2,2 0 0 0 -3.42,-1.27 c -3.17,3.41 -8.67,7.57 -13.54,2.48 -0.32,-0.33 2.12,-2.74 3,-3.83 6,-7.49 5.13,-8.95 -3.35,-7.46 -10.62,2.54 -10.59,2.54 -16.25,2.87 -0.92,0.03 -1.83,0.06 -2.73,0.04 z"
       id="path126" />
    <path
       fill="#292739"
       d="m 257.64,812.11 c -5.91,10.06 -32.4,7.71 -46.08,5.61 0,0 3.49,-11.3 10.14,-16.93 5.32,-4.51 10,-8.72 17.28,-5.89 3.69,1.44 18.66,17.21 18.66,17.21 z"
       id="path128" />
    <path
       fill="#79a2e4"
       stroke="#292739"
       stroke-linecap="round"
       stroke-linejoin="round"
       stroke-width="3.16"
       d="m 275.79,903.62 a 6.43,6.43 0 0 1 0.73,3 4.21,4.21 0 0 1 -3.23,3.37 10.19,10.19 0 0 1 -4.9,-0.2 A 38.78,38.78 0 0 1 240.84,885 c -0.52,-1.54 -1.22,-5.21 -3.61,-4.81 a 2,2 0 0 0 -1.59,1.82 2.77,2.77 0 0 1 -3.41,-1.15 c -0.73,-1.09 -0.55,-2.52 -0.87,-3.79 -5.43,-21.82 0.78,-28.33 16,-25.47 10.43,2 13.64,17.24 17.12,25.44 z"
       id="path130" />
    <path
       fill="#fd9572"
       stroke="#292739"
       stroke-linecap="round"
       stroke-linejoin="round"
       stroke-width="3.16"
       d="m 258.53,877.32 c 0.19,12 -15.64,-5.19 -21.24,-13.72 -2.35,-3.59 -3,-11.18 -3.09,-15.47 -0.39,-13.79 -16.21,-35.25 -18.84,-61.34 -0.06,-0.61 24.73,-4.83 26.66,-3.06 1.53,1.39 2.42,28.48 6.22,49.53 2.41,13.35 9.89,31.18 10.29,44.06 z"
       id="path132" />
    <path
       fill="#292739"
       d="m 130.59,792.78 c 5.91,10.05 26.25,24.94 39.93,22.84 0,0 -2,-18.41 -8.67,-24 -5.32,-4.5 -10,-8.72 -17.29,-5.88 -3.68,1.4 -14.56,6 -13.97,7.04 z"
       id="path134" />
    <path
       fill="#79a2e4"
       stroke="#292739"
       stroke-linecap="round"
       stroke-linejoin="round"
       stroke-width="3.16"
       d="m 164.83,894.81 a 5.9,5.9 0 0 1 0.49,2.85 3.88,3.88 0 0 1 -3.17,2.92 9.44,9.44 0 0 1 -4.52,-0.47 35.87,35.87 0 0 1 -24,-24.58 c -0.39,-1.44 -0.82,-4.87 -3,-4.64 a 1.83,1.83 0 0 0 -1.58,1.58 2.58,2.58 0 0 1 -3.08,-1.26 6.44,6.44 0 0 1 -0.58,-3.56 c 0.48,-10.06 2.39,-26.09 16.27,-22.56 9.51,2.42 11.57,16.72 14.3,24.49 q 4.43,12.62 8.87,25.23 z"
       id="path136" />
    <path
       fill="#fd9572"
       stroke="#292739"
       stroke-linecap="round"
       stroke-linejoin="round"
       stroke-width="3.16"
       d="m 152.75,869.69 c -9.42,0.21 -19.6,-9.82 -20.48,-19.21 -0.37,-4 1.94,-6.11 2.81,-10 2.37,-10.48 9.6,-42.37 12,-52.85 0,0.14 14.55,8.16 15.7,8.89 1.71,1.1 5.75,2.92 6.62,4.92 0.87,2 -1.07,5.68 -1.77,7.47 -1.25,3.19 -2.79,6.27 -4.32,9.33 q -4.92,9.86 -9.86,19.72 a 37.35,37.35 0 0 0 -3.31,8.21 c -0.86,3.83 0.48,7.08 0.8,10.81 0.34,4.27 1.12,8.51 1.81,12.71 z"
       id="path138" />
    <path
       fill="#79a2e4"
       stroke="#292739"
       stroke-linecap="round"
       stroke-linejoin="round"
       stroke-width="3.16"
       d="m 146.93,584.7 c 0,0 -12.94,-0.15 -17.33,4.09 -4.39,4.24 4.24,15.21 8.67,18.42 36.83,26.76 93,-17.68 93,-17.68 l -4.2,-7.18 -26.47,-8 z"
       id="path140" />
    <path
       fill="#a4d2f3"
       d="m 218.69,600.13 c -0.52,1.67 -1.12,3.33 -1.79,5 -3,7.24 -7.74,12.95 -10,20.51 a 13.23,13.23 0 0 0 0.43,11.58 q 10.29,26 21.33,51.67 c 4,9.38 8.15,18.74 12.93,27.77 1.78,3.37 3.68,6.75 4.58,10.46 a 43.69,43.69 0 0 1 0.9,8.7 392.47,392.47 0 0 0 10.6,76.34 70.14,70.14 0 0 0 -46.08,5.61 c -10.32,-23.46 -3.54,-50.4 -2.41,-76 0.15,-3.5 0.18,-7.11 -1,-10.41 a 29,29 0 0 0 -4.86,-7.68 L 194.07,712 c -3.8,35.27 -13.69,69.55 -23.55,103.62 a 131.47,131.47 0 0 0 -39.93,-22.84 c 4.74,-15.7 13.17,-30 22.24,-43.67 2.55,-3.83 5.19,-7.71 6.49,-12.12 1.3,-4.41 1.18,-9.25 1,-13.92 L 158.7,673.7 a 33.2,33.2 0 0 0 -1.09,-8.79 c -1.16,-3.69 -3.56,-6.82 -5.75,-10 -4.65,-6.78 -8.52,-14.24 -10.13,-22.29 -2.2,-11 0.7,-20.08 6.91,-29 a 115.75,115.75 0 0 1 28.11,-28.35 c 8.85,-6.27 22,-8 32.58,-7.25 2.54,0.19 5.18,0.59 7.26,2.06 3.57,2.52 4.5,7.39 4.62,11.76 a 56.71,56.71 0 0 1 -2.52,18.29 z"
       id="path142" />
    <path
       fill="#79a2e4"
       d="m 218.08,397.42 a 10.47,10.47 0 0 1 -3.31,2.48 c -3.53,1.58 -7.61,0.34 -11.48,0.12 -16.51,-0.93 -29.52,12.64 -29.5,28.85 0,11.12 5.59,21.72 13.39,29.66 1.8,1.83 3.88,4 3.57,6.51 -0.24,2 -2,3.58 -3.93,4.28 a 25.91,25.91 0 0 1 -6,1 c -15.84,1.82 -28.41,16.15 -31.4,31.82 -1,5.45 -1.21,11.32 -4.27,16 -4.84,7.31 -15.3,9.15 -20.35,16.32 -4.14,5.88 -3.59,13.73 -5.25,20.73 a 32.45,32.45 0 0 1 -8.13,14.94 c -1,1 -2,2.2 -1.73,3.54 a 3.49,3.49 0 0 0 1.32,1.77 c 3.68,3 8.52,4.25 13.25,4.81 21.18,2.53 42.65,-6.71 58.19,-21.32 10.4,-9.77 18.43,-21.8 24.67,-34.58 6.24,-12.78 12.41,-26.17 16.34,-40 1.74,-6.11 6.2,-10.74 7.63,-16.93 0.82,-3.51 -2,-6.32 0.64,-8.59 a 40.46,40.46 0 0 0 5.62,-5.86 c 3.27,-4.2 3.41,-8.63 1,-13.34 -1.64,-3.19 -3.62,-6.45 -3.52,-10 0.29,-9.77 11.7,-14 12.48,-24 a 16.68,16.68 0 0 0 -7.41,-15.26 c -5.06,-3.14 -12.18,-2.79 -16.6,1.19 -1.99,1.6 -3.44,3.96 -5.22,5.86 z"
       id="path144" />
    <path
       fill="#eaeefa"
       stroke="#292739"
       stroke-linecap="round"
       stroke-linejoin="round"
       stroke-width="3.16"
       d="m 129.6,588.79 c 2.85,-2.58 7.25,0.16 10,2.83 l 6.43,6.17 c 1.64,1.58 3.65,3.28 5.9,2.92 3.4,-0.54 4.28,-5 4,-8.46 -0.28,-3.46 -0.63,-7.65 2.25,-9.54 3.26,-2.15 7.4,0.68 10.44,3.14 a 73.82,73.82 0 0 0 9,6.27 c 3,1.77 7.72,2.84 9.19,-0.3 0.75,-1.63 0.07,-3.56 0.38,-5.33 0.69,-3.92 5.9,-5.33 9.67,-4.06 3.77,1.27 6.71,4.2 10.23,6 7.29,3.79 16.07,2.49 24.16,1.07 a 134.59,134.59 0 0 0 -5.21,-18.17 5.94,5.94 0 0 0 -1.07,-2 6,6 0 0 0 -3.38,-1.4 c -14.44,-2.78 -30.05,-12.87 -44.62,-7.33 -17.03,6.5 -33.22,16.78 -47.37,28.19 z"
       id="path146" />
    <path
       fill="#eaeefa"
       stroke="#292739"
       stroke-linecap="round"
       stroke-linejoin="round"
       stroke-width="3.16"
       d="m 182.77,543.31 a 38,38 0 0 0 4,9.67 c 4.15,6.74 17.18,7.88 24.41,9.28 9.07,1.74 17.15,2.16 23.57,-4.85 8.87,10.56 18.15,19.07 32,22.62 6.94,1.77 15,1.93 20.52,-2.66 4.51,-3.77 6.26,-9.81 7.79,-15.48 a 6.62,6.62 0 0 0 0.33,-3 6.21,6.21 0 0 0 -1.83,-2.87 44.25,44.25 0 0 0 -23.56,-12.72 17.45,17.45 0 0 1 -5.11,-1.4 14.63,14.63 0 0 1 -3.46,-2.92 l -10.72,-11.19 a 4.84,4.84 0 0 1 -1.35,-2 5.18,5.18 0 0 1 0.21,-2.49 C 252.16,513.07 252,502 248,492.2 c -4,-9.8 -5.71,-14.9 -10.94,-17.55 -6.17,-3.12 -26,-8.78 -32.73,-6.41 -5.52,1.95 -13.74,10.27 -16.7,15.09 -6.81,11.12 -8.74,24.65 -8,37.67 0.37,6.59 1.1,15 3.14,22.31 z"
       id="path148" />
    <path
       fill="#fd9572"
       stroke="#292739"
       stroke-linecap="round"
       stroke-linejoin="round"
       stroke-width="3.16"
       d="m 213.24,478.81 a 25.28,25.28 0 0 0 3.08,2.09 c 4.58,2.62 9.79,3.91 15,4.83 2.51,0.44 5.54,0.63 7.15,-1.35 a 5.73,5.73 0 0 0 1,-3.88 8.76,8.76 0 0 0 -2.39,-5.85 c -1.87,-1.84 -4.17,-1.07 -6.45,-2 -4.81,-2 -5.87,-4.83 -4.77,-9.9 0.67,-3.05 2.39,-6.47 1.5,-9.64 -1,-3.55 -5.57,-7.4 -9,-8.39 a 2.18,2.18 0 0 0 -1.57,0 2.44,2.44 0 0 0 -1,1.44 c -2.73,6.81 -2.84,14.46 -8.21,19.9 a 3.59,3.59 0 0 0 -1.21,1.83 3,3 0 0 0 0.14,1.21 19.16,19.16 0 0 0 6.73,9.71 z"
       id="path150" />
    <path
       fill="#fd9572"
       stroke="#292739"
       stroke-linecap="round"
       stroke-linejoin="round"
       stroke-width="3.16"
       d="m 242.11,438.08 c 1.93,7.9 4.33,17.94 -3.35,20.6 -4.15,1.45 -12.81,0.33 -16.32,-2.33 -3.51,-2.66 -6,-6.37 -8.49,-10 -6.48,-9.6 -14.55,-31 3.86,-34.19 12.92,-2.29 21.86,15.9 24.3,25.92 z"
       id="path152" />
    <path
       fill="#79a2e4"
       d="m 222.28,411.93 a 62,62 0 0 1 -13.92,30.36 2.64,2.64 0 0 1 -2,1.2 c -0.95,-0.05 -1.52,-1.05 -1.86,-1.93 -5.05,-12.92 2.32,-29.27 15.34,-34.05 z"
       id="path154" />
    <path
       fill="#292739"
       stroke="#292739"
       stroke-linecap="round"
       stroke-linejoin="round"
       stroke-width="3.16"
       d="m 185.48,550.65 -7.02,9.46 48.64,14.23 3.27,-13.38 z"
       id="path156" />
    <path
       fill="#292739"
       d="m 249.4,527.25 a 1.43,1.43 0 0 1 -1.23,-0.68 187.62,187.62 0 0 0 -14.53,-20 1.44,1.44 0 1 1 2.19,-1.86 190.45,190.45 0 0 1 14.79,20.39 1.44,1.44 0 0 1 -0.47,2 1.5,1.5 0 0 1 -0.75,0.15 z"
       id="path158" />
    <path
       fill="#ffffff"
       d="m 191,708.47 a 1.44,1.44 0 0 1 -1.21,-0.66 c -2.13,-3.3 -7.52,-10.46 -13.23,-18 -7,-9.26 -14.16,-18.84 -16.68,-23 a 1.44,1.44 0 1 1 2.46,-1.48 c 2.44,4 9.6,13.56 16.52,22.76 5.74,7.63 11.15,14.83 13.35,18.22 a 1.44,1.44 0 0 1 -0.43,2 1.39,1.39 0 0 1 -0.78,0.16 z m 12.72,-79.22 a 1.42,1.42 0 0 1 -1.26,-0.74 102.11,102.11 0 0 1 -4.91,-10.23 1.44,1.44 0 1 1 2.68,-1 100.25,100.25 0 0 0 4.75,9.87 1.43,1.43 0 0 1 -0.57,2 1.34,1.34 0 0 1 -0.69,0.1 z"
       id="path160" />
    <path
       fill="#292739"
       d="m 234.74,558.85 a 1.45,1.45 0 0 1 -1.23,-0.69 c -1.53,-2.49 -3.45,-5.52 -5.67,-9 -7.05,-11.12 -16.7,-26.35 -20.76,-35.24 a 1.44,1.44 0 0 1 2.62,-1.19 c 4,8.7 13.56,23.84 20.56,34.89 2.23,3.51 4.16,6.55 5.7,9.06 a 1.42,1.42 0 0 1 -0.47,2 1.36,1.36 0 0 1 -0.75,0.17 z"
       id="path162" />
    <path
       fill="#eaeefa"
       stroke="#292739"
       stroke-linecap="round"
       stroke-linejoin="round"
       stroke-width="3.16"
       d="m 722.07,851.88 26.88,-42.95 H 540.14 v 42.95 z"
       id="path164" />
    <path
       fill="#a4d2f3"
       stroke="#292739"
       stroke-linecap="round"
       stroke-linejoin="round"
       stroke-width="3.16"
       d="m 312.69,745.07 h 404.82 a 4.56,4.56 0 0 1 4.56,4.56 v 102.25 0 H 308.13 v 0 -102.25 a 4.56,4.56 0 0 1 4.56,-4.56 z"
       id="path166" />
    <path
       fill="#ffffff"
       d="M 469.87,609.59 H 551 v 377.76 h -81.1 a 6.73,6.73 0 0 1 -6.73,-6.73 V 616.33 a 6.73,6.73 0 0 1 6.7,-6.74 z"
       transform="rotate(90,507.06,798.47)"
       id="path168" />
    <path
       fill="#292739"
       stroke="#292739"
       stroke-linecap="round"
       stroke-linejoin="round"
       stroke-width="3.16"
       d="m 337.73,801.5 h 5.91 a 2.3,2.3 0 0 1 2.3,2.3 v 21.48 0 h -10.51 v 0 -21.47 a 2.3,2.3 0 0 1 2.3,-2.3 z m 21.53,-29.85 h 5.91 a 2.3,2.3 0 0 1 2.3,2.3 v 51.33 0 H 357 v 0 V 774 a 2.3,2.3 0 0 1 2.26,-2.35 z m 21.54,29.85 h 5.91 a 2.3,2.3 0 0 1 2.3,2.3 v 21.48 0 h -10.52 v 0 -21.47 a 2.3,2.3 0 0 1 2.31,-2.31 z m 21.53,-29.85 h 5.91 a 2.3,2.3 0 0 1 2.3,2.3 v 51.33 0 H 400 v 0 V 774 a 2.3,2.3 0 0 1 2.33,-2.35 z m 21.54,29.85 h 5.91 a 2.3,2.3 0 0 1 2.3,2.3 v 21.48 0 h -10.52 v 0 -21.47 a 2.3,2.3 0 0 1 2.31,-2.31 z m 21.53,-29.85 h 5.91 a 2.3,2.3 0 0 1 2.3,2.3 v 51.33 0 H 443.1 v 0 V 774 a 2.3,2.3 0 0 1 2.3,-2.35 z"
       id="path170" />
    <path
       fill="#292739"
       d="m 475.15,826.73 h -10.52 a 1.45,1.45 0 0 1 -1.44,-1.44 v -18.63 a 6.6,6.6 0 0 1 6.6,-6.59 h 0.2 a 6.6,6.6 0 0 1 6.6,6.59 v 18.63 a 1.45,1.45 0 0 1 -1.44,1.44 z m -9.08,-2.88 h 7.64 v -17.19 a 3.73,3.73 0 0 0 -3.72,-3.72 h -0.2 a 3.73,3.73 0 0 0 -3.72,3.72 z m 30.61,2.88 h -10.51 a 1.44,1.44 0 0 1 -1.44,-1.44 v -48.48 a 6.6,6.6 0 0 1 6.59,-6.59 h 0.21 a 6.6,6.6 0 0 1 6.59,6.59 v 48.48 a 1.44,1.44 0 0 1 -1.44,1.44 z m -9.08,-2.88 h 7.65 v -47 a 3.73,3.73 0 0 0 -3.72,-3.72 h -0.21 a 3.73,3.73 0 0 0 -3.72,3.72 z m 30.62,2.88 H 507.7 a 1.45,1.45 0 0 1 -1.44,-1.44 v -18.63 a 6.6,6.6 0 0 1 6.6,-6.59 h 0.2 a 6.6,6.6 0 0 1 6.6,6.59 v 18.63 a 1.45,1.45 0 0 1 -1.44,1.44 z m -9.08,-2.88 h 7.64 v -17.19 a 3.73,3.73 0 0 0 -3.72,-3.72 h -0.2 a 3.73,3.73 0 0 0 -3.72,3.72 z m 30.61,2.88 h -10.51 a 1.44,1.44 0 0 1 -1.44,-1.44 v -48.48 a 6.6,6.6 0 0 1 6.59,-6.59 h 0.21 a 6.6,6.6 0 0 1 6.59,6.59 v 48.48 a 1.44,1.44 0 0 1 -1.44,1.44 z m -9.08,-2.88 h 7.65 v -47 a 3.73,3.73 0 0 0 -3.72,-3.72 h -0.21 a 3.73,3.73 0 0 0 -3.72,3.72 z m 30.62,2.88 h -10.52 a 1.45,1.45 0 0 1 -1.44,-1.44 v -18.63 a 6.6,6.6 0 0 1 6.6,-6.59 h 0.2 a 6.59,6.59 0 0 1 6.59,6.59 v 18.63 a 1.44,1.44 0 0 1 -1.43,1.44 z m -9.08,-2.88 h 7.64 v -17.19 a 3.73,3.73 0 0 0 -3.72,-3.72 h -0.2 a 3.73,3.73 0 0 0 -3.72,3.72 z m 30.61,2.88 H 572.3 a 1.44,1.44 0 0 1 -1.43,-1.44 v -48.48 a 6.6,6.6 0 0 1 6.59,-6.59 h 0.21 a 6.6,6.6 0 0 1 6.59,6.59 v 48.48 a 1.44,1.44 0 0 1 -1.44,1.44 z m -9.08,-2.88 h 7.64 v -47 a 3.72,3.72 0 0 0 -3.71,-3.72 h -0.21 a 3.73,3.73 0 0 0 -3.72,3.72 z m 30.62,2.88 h -10.52 a 1.45,1.45 0 0 1 -1.44,-1.44 v -18.63 a 6.6,6.6 0 0 1 6.6,-6.59 h 0.2 a 6.59,6.59 0 0 1 6.59,6.59 v 18.63 a 1.44,1.44 0 0 1 -1.43,1.44 z m -9.08,-2.88 h 7.64 v -17.19 a 3.73,3.73 0 0 0 -3.72,-3.72 H 599 a 3.72,3.72 0 0 0 -3.72,3.72 z m 30.61,2.88 h -10.52 a 1.44,1.44 0 0 1 -1.43,-1.44 v -48.48 a 6.59,6.59 0 0 1 6.59,-6.59 h 0.2 a 6.6,6.6 0 0 1 6.6,6.59 v 48.48 a 1.44,1.44 0 0 1 -1.44,1.44 z m -9.08,-2.88 h 7.64 v -47 a 3.73,3.73 0 0 0 -3.72,-3.72 h -0.2 a 3.73,3.73 0 0 0 -3.72,3.72 z m 30.62,2.88 h -10.52 a 1.44,1.44 0 0 1 -1.44,-1.44 v -18.63 a 6.6,6.6 0 0 1 6.59,-6.59 h 0.21 a 6.6,6.6 0 0 1 6.59,6.59 v 18.63 a 1.44,1.44 0 0 1 -1.43,1.44 z m -9.09,-2.88 H 646 v -17.19 a 3.73,3.73 0 0 0 -3.72,-3.72 h -0.21 a 3.73,3.73 0 0 0 -3.72,3.72 z M 669,826.73 H 658.44 A 1.45,1.45 0 0 1 657,825.29 v -48.48 a 6.6,6.6 0 0 1 6.6,-6.59 h 0.2 a 6.6,6.6 0 0 1 6.6,6.59 v 48.48 a 1.45,1.45 0 0 1 -1.4,1.44 z m -9.08,-2.88 h 7.64 v -47 a 3.73,3.73 0 0 0 -3.72,-3.72 h -0.2 a 3.73,3.73 0 0 0 -3.72,3.72 z m 30.57,2.88 H 680 a 1.44,1.44 0 0 1 -1.44,-1.44 v -18.63 a 6.6,6.6 0 0 1 6.59,-6.59 h 0.21 a 6.6,6.6 0 0 1 6.59,6.59 v 18.63 a 1.44,1.44 0 0 1 -1.46,1.44 z m -9.08,-2.88 h 7.65 v -17.19 a 3.73,3.73 0 0 0 -3.72,-3.72 h -0.21 a 3.73,3.73 0 0 0 -3.72,3.72 z"
       id="path172" />
    <path
       fill="#2b47a0"
       d="m 326.45,674.57 a 6.7,6.7 0 1 1 -6.7,-6.7 6.7,6.7 0 0 1 6.7,6.7 z"
       id="path174" />
    <path
       fill="none"
       stroke="#292739"
       stroke-linecap="round"
       stroke-linejoin="round"
       stroke-width="3.16"
       d="m 323.42,666.88 a 9.65,9.65 0 1 1 -9.65,-9.65 9.65,9.65 0 0 1 9.65,9.65 z"
       id="path176" />
    <path
       fill="#d8e5ee"
       stroke="#292739"
       stroke-linecap="round"
       stroke-linejoin="round"
       stroke-width="3.38"
       d="M 943.99,753.77 H 840.56 l -24.02,-23.25 h 103.43 z"
       id="path178" />
    <path
       fill="#a4d2f3"
       stroke="#292739"
       stroke-linecap="round"
       stroke-linejoin="round"
       stroke-width="3.38"
       d="m 840.56,753.77 v 99.28 L 816.57,831.63 V 730.49 Z"
       id="path180" />
    <path
       fill="#ffffff"
       d="m 840.56,753.77 h 103.43 v 99.28 H 840.56 Z"
       id="path182" />
    <path
       fill="#292739"
       d="M 944,854.58 H 840.56 a 1.53,1.53 0 0 1 -1.53,-1.53 v -99.28 a 1.52,1.52 0 0 1 1.53,-1.53 H 944 a 1.53,1.53 0 0 1 1.54,1.53 v 99.28 a 1.54,1.54 0 0 1 -1.54,1.53 z m -101.9,-3.07 h 100.36 v -96.2 H 842.1 Z"
       id="path184" />
    <path
       fill="#ffffff"
       stroke="#292739"
       stroke-linecap="round"
       stroke-linejoin="round"
       stroke-width="2.04"
       d="m 852.65,763.23 h 80.36 v 80.36 h -80.36 z"
       transform="rotate(90,892.835,803.405)"
       id="path186" />
    <path
       fill="#2b47a0"
       d="m 860.35,770.92 h 64.98 v 64.98 h -64.98 z"
       id="path188" />
    <path
       fill="#ffffff"
       d="m 905.25,779.24 h 8.61 v 50.73 h -8.61 z m -16.72,15.38 h 8.61 v 35.36 h -8.61 z m -16.72,14.8 h 8.61 v 20.56 h -8.61 z"
       id="path190" />
    <path
       fill="#292739"
       d="m 883.37,725.22 a 3.11,3.11 0 0 1 -1.08,-0.19 8.66,8.66 0 0 1 -5,-5 11.31,11.31 0 0 1 0.22,-9 c 2.12,-4.49 6.43,-7 9.94,-8.77 0.62,-0.31 1.25,-0.6 1.88,-0.9 2.69,-1.27 5.23,-2.47 7.09,-4.29 2.62,-2.55 4.11,-6.72 4.1,-11.44 -0.01,-4.72 -1.32,-9.33 -2.57,-13.89 a 3.16,3.16 0 0 1 6.09,-1.68 c 1.36,5 2.78,10.09 2.79,15.55 0,6.52 -2.11,12.19 -6,16 -2.62,2.56 -5.76,4 -8.8,5.48 l -1.79,0.86 c -2.59,1.27 -5.73,3.08 -7,5.8 a 5.12,5.12 0 0 0 -0.09,3.9 2.5,2.5 0 0 0 1.34,1.46 3.15,3.15 0 0 1 -1.08,6.12 z"
       id="path192" />
    <path
       fill="#d8e5ee"
       stroke="#292739"
       stroke-linecap="round"
       stroke-linejoin="round"
       stroke-width="3.38"
       d="M 943.99,580.52 H 840.56 l -24.02,-23.25 h 103.43 z"
       id="path194" />
    <path
       fill="#a4d2f3"
       stroke="#292739"
       stroke-linecap="round"
       stroke-linejoin="round"
       stroke-width="3.38"
       d="m 840.56,580.52 v 99.27 L 816.57,658.37 V 557.24 Z"
       id="path196" />
    <path
       fill="#ffffff"
       d="M 840.56,580.52 H 943.99 V 679.8 H 840.56 Z"
       id="path198" />
    <path
       fill="#292739"
       d="M 944,681.33 H 840.56 a 1.53,1.53 0 0 1 -1.53,-1.54 v -99.27 a 1.53,1.53 0 0 1 1.53,-1.54 H 944 a 1.54,1.54 0 0 1 1.54,1.54 v 99.27 A 1.54,1.54 0 0 1 944,681.33 Z M 842.1,678.26 H 942.46 V 582.05 H 842.1 Z"
       id="path200" />
    <path
       fill="#ffffff"
       d="m 908.31,739.74 h -47.44 a 18.43,18.43 0 0 1 18.43,-18.43 h 10.59 a 18.43,18.43 0 0 1 18.42,18.43 z"
       id="path202" />
    <path
       fill="#292739"
       d="m 908.31,741.27 h -47.44 a 1.54,1.54 0 0 1 -1.53,-1.53 20,20 0 0 1 20,-20 h 10.59 a 20,20 0 0 1 20,20 1.54,1.54 0 0 1 -1.62,1.53 z m -45.83,-3.07 h 44.23 A 16.92,16.92 0 0 0 889.89,722.84 H 879.3 a 16.91,16.91 0 0 0 -16.82,15.36 z"
       id="path204" />
    <path
       fill="#d8e5ee"
       stroke="#292739"
       stroke-linecap="round"
       stroke-linejoin="round"
       stroke-width="3.38"
       d="M 943.99,469.67 H 840.56 l -24.02,-23.25 h 103.43 z"
       id="path206" />
    <path
       fill="#a4d2f3"
       stroke="#292739"
       stroke-linecap="round"
       stroke-linejoin="round"
       stroke-width="3.38"
       d="m 840.56,469.67 v 99.27 L 816.57,547.53 V 446.39 Z"
       id="path208" />
    <path
       fill="#ffffff"
       d="m 840.56,469.67 h 103.43 v 99.28 H 840.56 Z"
       id="path210" />
    <path
       fill="#292739"
       d="M 944,570.48 H 840.56 a 1.53,1.53 0 0 1 -1.53,-1.54 v -99.27 a 1.53,1.53 0 0 1 1.53,-1.54 H 944 a 1.54,1.54 0 0 1 1.54,1.54 v 99.27 A 1.54,1.54 0 0 1 944,570.48 Z M 842.1,567.41 H 942.46 V 471.2 H 842.1 Z"
       id="path212" />
    <path
       fill="#d8e5ee"
       stroke="#292739"
       stroke-linecap="round"
       stroke-linejoin="round"
       stroke-width="3.38"
       d="M 943.99,358.82 H 840.56 l -24.02,-23.25 h 103.43 z"
       id="path214" />
    <path
       fill="#a4d2f3"
       stroke="#292739"
       stroke-linecap="round"
       stroke-linejoin="round"
       stroke-width="3.38"
       d="M 840.56,358.82 V 458.1 L 816.57,436.68 V 335.54 Z"
       id="path216" />
    <path
       fill="#ffffff"
       d="M 840.56,358.82 H 943.99 V 458.1 H 840.56 Z"
       id="path218" />
    <path
       fill="#292739"
       d="M 944,459.63 H 840.56 A 1.53,1.53 0 0 1 839,458.1 v -99.28 a 1.52,1.52 0 0 1 1.53,-1.53 H 944 a 1.53,1.53 0 0 1 1.54,1.53 v 99.28 a 1.54,1.54 0 0 1 -1.54,1.53 z m -101.9,-3.07 h 100.36 v -96.2 H 842.1 Z"
       id="path220" />
    <path
       fill="#a4d2f3"
       stroke="#292739"
       stroke-linecap="round"
       stroke-linejoin="round"
       stroke-width="2.28"
       d="m 934.61,521.44 a 9.67,9.67 0 0 0 -0.21,-1.5 c -1.4,-6 -9.84,-9.31 -19.47,-7.91 0.45,-0.06 -2.67,-5.45 -3,-5.87 a 17.22,17.22 0 0 0 -6,-4.5 c -5.11,-2.36 -11.26,-2.79 -16.21,0.18 -0.71,-4.59 -5,-8.14 -9.55,-8.91 -4.55,-0.77 -9.33,0.86 -13.13,3.54 a 16.82,16.82 0 0 0 -5.73,6.44 10.09,10.09 0 0 0 -0.25,8.44 c -4.24,-1.44 -9.21,0.41 -12,3.93 a 15.19,15.19 0 0 0 -2.42,12.72 3.49,3.49 0 0 0 0.35,0.71 21,21 0 0 0 18.31,10.58 h 52.47 a 16.79,16.79 0 0 0 16.84,-17.85 z"
       id="path222" />
    <path
       fill="#eaeefa"
       d="m 861.37,529.47 a 11.45,11.45 0 0 1 -2.17,-1.19 14.16,14.16 0 0 1 -5,-5.38 8.48,8.48 0 0 1 -0.3,-7.18 6.42,6.42 0 0 1 3.75,-3.37 c 0.48,-0.16 4.08,-0.88 4.25,-0.27 -1.76,-6.34 2.51,-14.14 9.08,-15.52 6.25,-1.33 12.6,3.11 14.39,9.1 1.18,-1.72 3.42,-2.34 5.49,-2.65 3.81,-0.56 8.08,-0.35 11,2.2 a 16.75,16.75 0 0 1 2.43,2.93 31,31 0 0 1 3.31,5.46 c -0.15,-0.34 4.61,-0.31 5,-0.22 a 6.19,6.19 0 0 1 4.23,2.46 8.4,8.4 0 0 1 1.59,4.74 c 0,2.86 -2.07,5.39 -4.54,6.83 -5.25,3.08 -12.1,2.91 -18,3.05 -5.9,0.14 -11.78,0 -17.67,-0.29 -4.48,-0.21 -8.93,-0.2 -13.42,-0.2 a 12.68,12.68 0 0 1 -2.22,-0.15 7.17,7.17 0 0 1 -1.2,-0.35 z"
       id="path224" />
    <path
       fill="#292739"
       d="m 898.72,524.32 a 1,1 0 0 1 -0.34,-0.05 1.05,1.05 0 0 1 -0.65,-1.32 c 0.14,-0.42 3.63,-10.22 17.07,-12 a 1.0381715,1.0381715 0 1 1 0.26,2.06 c -12.16,1.56 -15.33,10.47 -15.36,10.56 a 1,1 0 0 1 -0.98,0.75 z m -15.39,-10.46 h -0.07 a 1,1 0 0 1 -1,-1.11 c 0,-0.35 0.64,-8.62 6.94,-11.83 a 1.0375572,1.0375572 0 1 1 0.94,1.85 c -5.25,2.68 -5.81,10.05 -5.81,10.12 a 1,1 0 0 1 -1,0.97 z M 868.52,522 a 1,1 0 0 1 -0.95,-0.63 c 0,-0.07 -3,-6.8 -7,-9.16 a 1.029563,1.029563 0 0 1 1,-1.8 c 4.68,2.71 7.78,9.84 7.91,10.14 a 1,1 0 0 1 -0.55,1.36 1,1 0 0 1 -0.41,0.09 z"
       id="path226" />
    <path
       fill="#a4d2f3"
       d="m 927.75,404.45 -10.24,5.92 6.66,9.76 -11.79,0.87 1.77,11.69 -11.01,-4.31 -3.48,11.29 -8.03,-8.67 -8.04,8.67 -3.48,-11.29 -11,4.31 1.76,-11.69 -11.79,-0.87 6.67,-9.76 -10.24,-5.92 10.24,-5.91 -6.67,-9.76 11.79,-0.88 -1.76,-11.69 11,4.32 3.48,-11.3 8.04,8.68 8.03,-8.68 3.48,11.3 11.01,-4.32 -1.77,11.7 11.79,0.87 -6.66,9.76 z"
       id="path228" />
    <path
       fill="none"
       stroke="#292739"
       stroke-linecap="round"
       stroke-linejoin="round"
       stroke-width="2.56"
       d="m 927.75,404.45 -10.24,5.92 6.66,9.76 -11.79,0.87 1.77,11.69 -11.01,-4.31 -3.48,11.29 -8.03,-8.67 -8.04,8.67 -3.48,-11.29 -11,4.31 1.76,-11.69 -11.79,-0.87 6.67,-9.76 -10.24,-5.92 10.24,-5.91 -6.67,-9.76 11.79,-0.88 -1.76,-11.69 11,4.32 3.48,-11.3 8.04,8.68 8.03,-8.68 3.48,11.3 11.01,-4.32 -1.77,11.7 11.79,0.87 -6.66,9.76 z"
       id="path230" />
    <path
       fill="#ffffff"
       d="m 907.84,404.45 a 16.22,16.22 0 1 1 -16.21,-16.21 16.22,16.22 0 0 1 16.21,16.21 z"
       id="path232" />
    <path
       fill="#a4d2f3"
       stroke="#292739"
       stroke-linecap="round"
       stroke-linejoin="round"
       stroke-width="2.4"
       d="m 879,638.23 7.92,-16.36 -16.35,7.93 a 11.16,11.16 0 0 0 -6.12,8 v 0 c -0.61,4.25 2.33,7.2 6.58,6.58 v 0 a 11.13,11.13 0 0 0 7.97,-6.15 z"
       id="path234" />
    <path
       fill="#ffffff"
       d="m 869.72,637.67 a 3.34,3.34 0 0 1 -0.84,-2.92 6.43,6.43 0 0 1 3.5,-4.56 l 9.34,-4.53 -4.52,9.34 a 6.39,6.39 0 0 1 -4.56,3.49 3.31,3.31 0 0 1 -2.92,-0.82 z"
       id="path236" />
    <path
       fill="#a4d2f3"
       stroke="#292739"
       stroke-linecap="round"
       stroke-linejoin="round"
       stroke-width="2.4"
       d="m 896.56,604.58 7.93,-16.35 -16.36,7.92 a 11.13,11.13 0 0 0 -6.11,8 v 0 c -0.62,4.25 2.32,7.19 6.57,6.57 v 0 a 11.12,11.12 0 0 0 7.97,-6.14 z"
       id="path238" />
    <path
       fill="#ffffff"
       d="m 887.27,604 a 3.33,3.33 0 0 1 -0.83,-2.92 6.38,6.38 0 0 1 3.49,-4.55 l 9.35,-4.53 -4.53,9.35 a 6.38,6.38 0 0 1 -4.55,3.49 3.35,3.35 0 0 1 -2.93,-0.84 z"
       id="path240" />
    <path
       fill="#a4d2f3"
       stroke="#292739"
       stroke-linecap="round"
       stroke-linejoin="round"
       stroke-width="2.4"
       d="m 916.1,636.62 7.9,-16.36 -16.35,7.92 a 11.15,11.15 0 0 0 -6.12,8 v 0 c -0.61,4.25 2.33,7.2 6.58,6.58 v 0 a 11.16,11.16 0 0 0 7.99,-6.14 z"
       id="path242" />
    <path
       fill="#ffffff"
       d="m 906.81,636.06 a 3.35,3.35 0 0 1 -0.84,-2.93 6.39,6.39 0 0 1 3.5,-4.55 l 9.34,-4.53 -4.53,9.35 a 6.38,6.38 0 0 1 -4.55,3.49 3.33,3.33 0 0 1 -2.92,-0.83 z"
       id="path244" />
    <path
       fill="#292739"
       d="m 900.12,619.44 a 1.05,1.05 0 0 1 -0.77,-0.32 1.08,1.08 0 0 1 0,-1.54 l 13.15,-13.15 a 1.08,1.08 0 0 1 1.54,0 1.09,1.09 0 0 1 0,1.55 l -13.14,13.14 a 1.09,1.09 0 0 1 -0.78,0.32 z m -19.35,38.12 A 1.1,1.1 0 0 1 880,655.69 l 12.32,-12.32 a 1.0924857,1.0924857 0 0 1 1.54,1.55 l -12.31,12.32 a 1.13,1.13 0 0 1 -0.78,0.32 z m -24.04,-25.97 a 1.13,1.13 0 0 1 -0.78,-0.32 1.11,1.11 0 0 1 0,-1.55 l 15.45,-15.45 a 1.1,1.1 0 0 1 1.55,1.55 l -15.45,15.45 a 1.13,1.13 0 0 1 -0.77,0.32 z m 56.77,19.81 a 1.13,1.13 0 0 1 -0.77,-0.32 1.11,1.11 0 0 1 0,-1.55 l 10.62,-10.62 a 1.1,1.1 0 1 1 1.55,1.55 l -10.62,10.62 a 1.13,1.13 0 0 1 -0.78,0.32 z m -49.12,-45.5 a 1.05,1.05 0 0 1 -0.77,-0.32 1.08,1.08 0 0 1 0,-1.54 l 7.8,-7.81 a 1.11,1.11 0 0 1 1.55,0 1.09,1.09 0 0 1 0,1.55 l -7.81,7.8 a 1.05,1.05 0 0 1 -0.77,0.32 z"
       id="path246" />
    <path
       fill="#2b47a0"
       stroke="#292739"
       stroke-linecap="round"
       stroke-linejoin="round"
       stroke-width="2.04"
       d="M 710.92,529.48 655.81,464.6 c 6.11,-10.5 0.57,-30.65 -14,-48.22 -16.56,-19.93 -38.5,-29 -49,-20.27 -10.5,8.73 -5.59,32 11,51.89 14.78,17.79 33.85,26.92 45.25,22.47 l 50.74,66.31 a 4.47,4.47 0 0 0 6.26,0.85 v 0 c 1.88,-1.49 6.35,-6.18 4.86,-8.15 z"
       id="path248" />
    <path
       fill="#79a2e4"
       stroke="#292739"
       stroke-linecap="round"
       stroke-linejoin="round"
       stroke-width="2.04"
       d="M 710.1,527.68 659.83,462 c 7.9,-9.88 2.59,-31.35 -12.87,-49.95 -16.56,-19.92 -38.5,-29 -49,-20.26 -10.5,8.74 -5.59,32 11,51.89 14,16.81 31.78,25.89 43.31,23.08 L 703,533.08 a 4.4640817,4.4640817 0 1 0 7.11,-5.4 z"
       id="path250" />
    <path
       fill="#ffffff"
       stroke="#292739"
       stroke-linecap="round"
       stroke-linejoin="round"
       stroke-width="2.04"
       d="m 654.83,457.82 c -8.17,6.8 -26,-1.21 -39.91,-17.89 -13.91,-16.68 -18.48,-35.71 -10.3,-42.5 8.18,-6.79 26,1.21 39.91,17.89 13.91,16.68 18.47,35.68 10.3,42.5 z"
       id="path252" />
    <path
       fill="#fd9572"
       stroke="#292739"
       stroke-linecap="round"
       stroke-linejoin="round"
       stroke-width="2.2"
       d="m 765.68,819.23 -15.86,6.58 a 7.37,7.37 0 0 0 -3.31,2.15 c -1,1.36 -0.92,3.19 -0.82,4.87 l 2.62,41.45 c 0.06,1 15.62,-0.06 16.84,-0.8 4.55,-2.76 2.27,-14.18 2.48,-19.08 a 178.42,178.42 0 0 0 -1.95,-35.17 z"
       id="path254" />
    <path
       fill="#292739"
       stroke="#292739"
       stroke-linecap="round"
       stroke-linejoin="round"
       stroke-width="2.2"
       d="m 777.43,892.82 c -0.14,0.84 -15.8,2.2 -16.95,2.36 -5.31,0.73 -10.71,1.24 -16,2.22 -4,0.75 -37.36,-2.21 -37.18,-3 2.07,-9.06 1.54,-13 21,-15.75 3.93,-0.56 11.78,-1.76 14.55,-5.28 1.58,-2 -0.65,-9 -0.41,-9.27 0.24,-0.27 6.42,0.84 8.63,2.41 1,0.69 4.22,3.67 3.25,5.2 a 25.69,25.69 0 0 1 11.1,-9.61 6.68,6.68 0 0 1 4.54,-0.72 3.16,3.16 0 0 1 2.08,2.15 c 0.13,0.43 -0.18,1.08 0,1.43 0.23,0.52 1.06,0.95 1.46,1.38 2.84,3 6.16,7.24 5.79,11.76 -0.63,7.47 -1.86,14.72 -1.86,14.72 z"
       id="path256" />
    <path
       fill="#ffffff"
       stroke="#292739"
       stroke-linecap="round"
       stroke-linejoin="round"
       stroke-width="2.2"
       d="m 775.87,896.14 c -4.47,1.57 -12.62,3.28 -17.36,3 -3.87,-0.2 -7.58,-0.4 -11.33,0.85 -1.71,0.56 -2.95,1.66 -4.55,2.33 -1.82,0.77 -4.25,0.73 -6.2,0.87 a 69.14,69.14 0 0 1 -25.21,-2.85 9.65,9.65 0 0 1 -3.05,-1.37 c -0.89,-0.67 -0.56,-5.86 -0.56,-5.86 0,0 19.58,6.31 52.78,-2.31 5.8,-1.51 12.78,-2.74 18.63,-4.05 -0.02,0.03 0.57,8.08 -3.15,9.39 z"
       id="path258" />
    <path
       fill="#ffffff"
       d="m 742.94,885 a 1,1 0 0 0 0.4,-0.09 1,1 0 0 0 0.52,-1.31 14.26,14.26 0 0 0 -7.68,-7.37 1.0030454,1.0030454 0 1 0 -0.7,1.88 12.31,12.31 0 0 1 6.54,6.28 1,1 0 0 0 0.92,0.61 z m 9.47,-7.19 a 1,1 0 0 0 0.91,-0.58 30.17,30.17 0 0 0 2,-5.37 1.0119412,1.0119412 0 0 0 -2,-0.31 30.15,30.15 0 0 1 -1.82,4.84 1,1 0 0 0 0.48,1.33 1.06,1.06 0 0 0 0.43,0.09 z m -17.19,9.11 a 0.85,0.85 0 0 0 0.23,0 1,1 0 0 0 0.74,-1.2 c -0.9,-3.79 -3.53,-6.09 -6.23,-8 a 1.0003125,1.0003125 0 1 0 -1.16,1.63 c 2.38,1.69 4.69,3.69 5.45,6.84 a 1,1 0 0 0 0.97,0.73 z"
       id="path260" />
    <path
       fill="#fd9572"
       stroke="#292739"
       stroke-linecap="round"
       stroke-linejoin="round"
       stroke-width="2.2"
       d="m 698.72,809.07 -15.86,6.58 a 7.37,7.37 0 0 0 -3.31,2.15 c -1,1.35 -0.92,3.18 -0.82,4.86 l 2.62,41.46 c 0.06,1 15.62,-0.06 16.84,-0.81 4.54,-2.75 2.27,-14.17 2.48,-19.07 a 178.42,178.42 0 0 0 -1.95,-35.17 z"
       id="path262" />
    <path
       fill="#292739"
       stroke="#292739"
       stroke-linecap="round"
       stroke-linejoin="round"
       stroke-width="2.2"
       d="m 710.47,882.66 c -0.14,0.83 -15.8,2.19 -17,2.35 -5.31,0.74 -10.71,1.24 -16,2.22 -4,0.75 -37.36,-2.21 -37.18,-3 2.07,-9.06 1.54,-13 21,-15.75 3.93,-0.56 11.78,-1.77 14.55,-5.28 1.58,-2 -0.65,-9 -0.41,-9.27 0.24,-0.27 6.42,0.83 8.63,2.41 1,0.69 4.22,3.67 3.25,5.19 a 25.75,25.75 0 0 1 11.1,-9.61 6.67,6.67 0 0 1 4.54,-0.71 3.18,3.18 0 0 1 2.08,2.14 c 0.13,0.44 -0.18,1.08 0,1.44 0.23,0.52 1.06,1 1.45,1.37 2.85,3 6.16,7.24 5.79,11.77 -0.58,7.48 -1.8,14.73 -1.8,14.73 z"
       id="path264" />
    <path
       fill="#ffffff"
       stroke="#292739"
       stroke-linecap="round"
       stroke-linejoin="round"
       stroke-width="2.2"
       d="m 708.91,886 c -4.47,1.58 -12.63,3.29 -17.36,3 -3.88,-0.21 -7.58,-0.4 -11.33,0.84 -1.71,0.57 -3,1.66 -4.55,2.34 -1.82,0.77 -4.25,0.72 -6.2,0.86 a 68.92,68.92 0 0 1 -25.21,-2.84 9.78,9.78 0 0 1 -3,-1.37 c -0.89,-0.68 -0.56,-5.87 -0.56,-5.87 0,0 19.58,6.31 52.78,-2.31 5.8,-1.5 12.78,-2.74 18.63,-4 -0.05,-0.03 0.52,8.01 -3.2,9.35 z"
       id="path266" />
    <path
       fill="#ffffff"
       d="m 676,874.83 a 0.88,0.88 0 0 0 0.39,-0.08 1,1 0 0 0 0.53,-1.32 14.28,14.28 0 0 0 -7.68,-7.36 1.000125,1.000125 0 0 0 -0.71,1.87 12.32,12.32 0 0 1 6.55,6.29 1,1 0 0 0 0.92,0.6 z m 9.45,-7.19 a 1,1 0 0 0 0.91,-0.58 30,30 0 0 0 2,-5.36 1,1 0 0 0 -0.84,-1.15 1,1 0 0 0 -1.14,0.84 29.15,29.15 0 0 1 -1.83,4.83 1,1 0 0 0 0.49,1.33 0.91,0.91 0 0 0 0.41,0.09 z m -17.19,9.12 a 0.91,0.91 0 0 0 0.23,0 1,1 0 0 0 0.74,-1.21 c -0.91,-3.79 -3.53,-6.09 -6.23,-8 a 1.0043904,1.0043904 0 0 0 -1.16,1.64 c 2.38,1.69 4.69,3.69 5.45,6.84 a 1,1 0 0 0 0.97,0.73 z"
       id="path268" />
    <path
       fill="#fd9572"
       stroke="#292739"
       stroke-linecap="round"
       stroke-linejoin="round"
       stroke-width="2.2"
       d="m 659.49,494.88 a 24.89,24.89 0 0 0 -2.87,22.23 c 3.92,10.83 13.65,14.65 23.78,17.62 3.68,1.08 7.31,2.31 10.94,3.51 a 2.17,2.17 0 0 0 1.69,0.09 2.25,2.25 0 0 0 0.79,-1 q 1.42,-2.76 2.87,-5.52 l 0.32,-0.62 a 2.15,2.15 0 0 0 -0.33,-3.08 c -3.62,-4 -8.17,-11.24 -13.68,-12.45 -8.56,-1.87 -15.77,-7 -16.37,-16.63 a 17.45,17.45 0 0 0 -0.41,-4 3.64,3.64 0 0 0 -2.73,-2.71 c -1.66,-0.22 -3.05,1.19 -4,2.56 z"
       id="path270" />
    <path
       fill="#5275c2"
       stroke="#292739"
       stroke-linecap="round"
       stroke-linejoin="round"
       stroke-width="2.2"
       d="m 782.35,508.74 c -6.09,8.86 -17.77,12.27 -28.52,12 -10.75,-0.27 -21.15,-3.66 -31.75,-5.47 -10.6,-1.81 -22.17,-1.88 -31.33,3.76 -4.12,2.53 -7.81,6.75 -7.55,11.59 0.33,6.22 6.64,10.14 12.23,12.88 13.68,6.71 27.73,12.9 42.53,16.53 14.8,3.63 34.42,3.44 49.2,-0.24 z"
       id="path272" />
    <path
       fill="#90bdf4"
       stroke="#292739"
       stroke-linecap="round"
       stroke-linejoin="round"
       stroke-width="2.2"
       d="m 744.18,586.31 c -7.81,-1.66 -20.71,-8.25 -25.18,1.76 -4.06,9.1 -1.59,21.95 -1.4,31.62 0,0.07 -6.24,4.92 -6.87,5.69 -1.7,2.1 -3.35,4.28 -5,6.39 -4.75,6 -8.74,12.84 -12.5,19.46 a 280.69,280.69 0 0 0 -22.81,51.55 c -5.82,17.83 -12.81,34.45 -12.4,53.67 0.25,11.87 2.69,23.58 5.11,35.2 q 6.23,29.82 12.44,59.65 l 44.52,-0.51 q -5.06,-36.94 -10.12,-73.9 c -1,-7.56 -2.07,-15.3 -0.55,-22.79 1.23,-6.1 4.11,-11.73 7,-17.28 q 14.52,-28.3 29,-56.63 c 0.06,14.24 -1.44,27.91 -1.13,42.1 0.34,15.82 0.47,31.64 0.51,47.47 0,8 -1.47,93.87 0,94 l 40.42,3.84 c 2.87,0.27 13,-65.92 13.93,-72.17 3.55,-24.77 5.88,-49.72 7,-74.71 1.27,-29.07 1.65,-58.29 1.52,-87.33 0,-9.81 -1,-19.19 -4.05,-28.58 a 19.07,19.07 0 0 0 -2.68,-5.65 c -4.81,-6.35 -17.3,-7.39 -24.61,-8.89 a 93.5,93.5 0 0 0 -18.14,-1.52 c -5.19,-0.04 -9.02,-1.38 -14.01,-2.44 z"
       id="path274" />
    <path
       fill="#292739"
       d="m 745.36,681.19 a 1,1 0 0 0 1,-1 c -0.1,-8.66 0.64,-17.67 1.3,-25.62 0.55,-6.55 1.06,-12.74 1.06,-18 a 1,1 0 0 0 -2,0 c 0,5.19 -0.51,11.34 -1.05,17.85 -0.67,8 -1.42,17.06 -1.31,25.81 a 1,1 0 0 0 1,0.96 z"
       id="path276" />
    <path
       fill="#292739"
       d="m 764.2,639 a 1.1,1.1 0 0 0 1.17,-0.8 1.08,1.08 0 0 0 -0.62,-1.25 c -1.52,-0.85 -14.47,-4.49 -17.76,-1 a 1,1 0 0 0 0,1.42 1,1 0 0 0 1.41,0 c 1.93,-2 12.29,0.18 14.9,1.21 a 1,1 0 0 0 0.86,0.5 z m -32.02,-14.83 a 1,1 0 0 1 -1,-0.86 c -1.62,-1 -7.18,-3.5 -10.82,-3.5 a 2.86,2.86 0 0 0 -2,0.57 1,1 0 0 1 -1.41,0 1,1 0 0 1 0,-1.42 c 3.06,-3.2 12.61,1.06 14.8,2.29 1.07,0.6 1.93,1.16 1.7,2.07 a 1.14,1.14 0 0 1 -1.19,0.82 z m 0,-2 z M 744,635.14 a 1,1 0 0 0 1,-0.88 c 0.15,-1.08 0.21,-3.49 0.31,-6.82 0.28,-9.67 0.86,-29.78 4.59,-34.29 a 1.0019232,1.0019232 0 0 0 -1.55,-1.27 c -3.84,4.64 -4.62,20.76 -5,35.51 -0.09,3.15 -0.16,5.63 -0.29,6.62 a 1,1 0 0 0 0.86,1.12 z m 5.08,-1.62 a 1,1 0 0 0 1,-0.87 c 0.11,-0.88 0.23,-2.56 0.4,-4.9 0.67,-9.4 2.07,-29 6,-33.74 a 1,1 0 0 0 -0.13,-1.41 1,1 0 0 0 -1.41,0.13 c -4.36,5.28 -5.74,24.53 -6.48,34.88 -0.16,2.21 -0.28,4 -0.39,4.78 a 1,1 0 0 0 0.87,1.12 z m 23.12,230.99 a 1,1 0 0 0 1,-0.77 c 4.67,-20.1 8.76,-40.62 12.17,-61 a 1002.61,1002.61 0 0 0 11.75,-103 c 1.06,-17.18 1.69,-34.61 1.86,-51.81 0,-4.33 0.19,-8.86 0.34,-13.24 0.39,-11.84 0.8,-24.09 -0.73,-35.55 a 1.0090714,1.0090714 0 1 0 -2,0.27 c 1.52,11.29 1.11,23.45 0.72,35.21 -0.15,4.4 -0.3,8.94 -0.35,13.29 -0.16,17.17 -0.79,34.56 -1.85,51.71 A 1001.32,1001.32 0 0 1 783.36,802.4 c -3.4,20.35 -7.48,40.83 -12.14,60.88 a 1,1 0 0 0 0.75,1.21 z M 743,386.62 c 1.45,-9.17 6.87,-17 15.6,-20.24 9.69,-3.64 17.59,-10.39 28.4,-11.2 10.23,-0.76 21.52,4.53 24.74,14.27 2.53,7.68 -0.32,16 -3.14,23.58 q -3.36,9 -6.71,18.05 c -1.28,3.42 -3.9,7.58 -7.41,6.57 L 794,428.44 c -4.53,2.3 -9.78,-1.07 -13.74,-4.26 q -12.15,-9.82 -24.31,-19.64 c -5.76,-4.66 -14.28,-8.09 -13.06,-17.15 0.02,-0.26 0.11,-0.51 0.11,-0.77 z"
       id="path278" />
    <path
       fill="#5275c2"
       stroke="#292739"
       stroke-linecap="round"
       stroke-linejoin="round"
       stroke-width="2.2"
       d="m 796.77,438.9 c 14.15,4.24 27.1,12.85 35.05,25.23 7.73,12 10.17,27.82 5.3,41.4 -5.56,15.51 -12.07,30.51 -19,45.57 -5.95,13 -11.27,26.88 -12,41 a 9,9 0 0 1 -10.43,8.43 l -64.41,-10.44 c -3.72,-0.61 -7.66,-1.31 -10.47,-3.83 -3.28,-2.93 -4.25,-7.76 -3.77,-12.13 0.48,-4.37 2.2,-8.51 3.51,-12.71 a 72.82,72.82 0 0 0 2.83,-15.15 c 0.44,-4.79 -0.43,-8.66 -1.16,-13.4 a 111.8,111.8 0 0 1 -0.51,-29.8 114.17,114.17 0 0 1 6.89,-28 c 5.95,-15.42 12.41,-29.39 28.82,-35.74 10.45,-4.05 22.11,-4.23 33.08,-2 q 3.17,0.67 6.27,1.57 z"
       id="path280" />
    <path
       fill="#fd9572"
       stroke="#292739"
       stroke-linecap="round"
       stroke-linejoin="round"
       stroke-width="2.2"
       d="m 801.16,440.37 c 0,0 -8.58,1.18 -27.53,4.91 -2.09,0.41 -12.15,2.47 -12.63,-0.32 a 4.22,4.22 0 0 1 0.67,-2.5 11.76,11.76 0 0 1 5.5,-5.83 c 2.71,-1.47 4.54,-2.86 4.76,-6.34 0.19,-3 -0.85,-5.82 -1.43,-8.73 -0.58,-2.91 -0.59,-6.21 1.3,-8.48 a 12.44,12.44 0 0 1 3.17,-2.43 c 3.45,-2.09 6.65,-3.6 9,-6.87 0.43,-0.62 5,-7.33 6,-6.51 0.6,4.73 11.19,43.1 11.19,43.1 z"
       id="path282" />
    <path
       fill="#fd9572"
       stroke="#292739"
       stroke-linecap="round"
       stroke-linejoin="round"
       stroke-width="2.2"
       d="m 754.9,408.56 c 0.37,1.31 0.75,2.61 1.16,3.91 1,3.09 2.07,6.27 4.34,8.59 6.5,6.63 15.38,1.64 20.07,-4.25 3,-3.76 2.27,-9 5.25,-12.37 1.34,-1.55 3.25,-2.58 4.4,-4.28 a 6.22,6.22 0 0 0 -6.47,-9.56 c -1.57,-7.29 -4.39,-16.18 -12.06,-19 -6.85,-2.52 -17.17,-1.6 -20.72,5.82 -1.4,2.94 -1,6.39 -0.58,9.61 a 166.28,166.28 0 0 0 4.61,21.53 z"
       id="path284" />
    <path
       fill="#292739"
       d="m 759.27,380.36 a 37.51,37.51 0 0 1 4.59,-0.63 c 4.28,-0.27 9.16,1 11.19,4.82 1.59,3 1.22,7 3.76,9.2 3,2.59 8.2,0.24 9.39,-3.54 2.27,-7.23 -4.42,-13.14 -10,-16.41 -3.33,-2 -6.79,-2.85 -10.36,-4.15 -4.21,-1.54 -8.06,-4.18 -12.53,-5.24 -3.73,-0.88 -7.88,-0.67 -11.09,1.43 -3.21,2.1 -5.12,6.36 -3.76,10 1.52,4 6.34,5.81 10.63,5.73 a 50.28,50.28 0 0 0 8.18,-1.21 z m 1.09,183.25 c 4,0 13.39,-2.94 24.24,-10.13 10.18,-6.74 24.76,-19.34 36.42,-41.08 a 1.0000125,1.0000125 0 0 0 -1.76,-0.95 c -21.52,40.14 -54.07,50.85 -59.42,50.13 a 1,1 0 0 0 -1.13,0.85 1,1 0 0 0 0.86,1.13 6.06,6.06 0 0 0 0.79,0.05 z"
       id="path286" />
    <path
       fill="#fd9572"
       stroke="#292739"
       stroke-linecap="round"
       stroke-linejoin="round"
       stroke-width="2.2"
       d="m 705,540 -0.58,0.38 c -2.74,1.76 -10.86,-5.33 -13.44,-7.07 a 91.49,91.49 0 0 1 -13.71,-11 c -6.92,-6.93 -12.4,-15.65 -14,-25.33 -0.23,-1.44 -0.28,-3.16 0.85,-4.09 1.69,-1.42 4.18,0.2 5.75,1.76 1.57,1.56 18,20.33 21.64,13.73 1,-1.89 -1.55,-4.07 -1,-6.16 0.41,-1.7 2.75,-2.27 4.32,-1.5 1.57,0.77 2.52,2.38 3.38,3.91 5.28,9.32 8.41,19.6 12.69,29.48 a 1.62,1.62 0 0 1 -0.65,2.54 z"
       id="path288" />
    <path
       fill="#5275c2"
       d="m 701.3,534.33 c 1.45,-5.69 3.57,-12.17 9,-14.31 3.9,-1.53 8.28,-0.28 12.28,1 7.81,2.45 15.6,5.39 23.64,6.82 6.26,1.12 13.84,5.06 19.82,1.06 3.58,-2.38 5.13,-6.75 6.75,-10.72 a 89.54,89.54 0 0 1 35.62,-42 l 14.1,32.43 a 95.76,95.76 0 0 1 -33.29,40.68 93.16,93.16 0 0 1 -24,12.14 c -9.29,3.06 -17.93,-0.41 -27.12,-2.27 l -24.54,-4.94 c -4.47,-0.9 -9.41,-2.11 -11.91,-5.91 -2.65,-4.03 -1.54,-9.31 -0.35,-13.98 z"
       id="path290" />
    <path
       fill="#292739"
       d="m 757.44,563.62 a 25.41,25.41 0 0 0 8.1,-1.26 93.17,93.17 0 0 0 24.29,-12.27 97.28,97.28 0 0 0 33.64,-41.09 1.0038551,1.0038551 0 0 0 -1.85,-0.78 95.24,95.24 0 0 1 -32.94,40.25 91.79,91.79 0 0 1 -23.76,12 c -7.09,2.33 -13.8,0.72 -20.9,-1 -1.86,-0.45 -3.78,-0.91 -5.71,-1.3 l -24.54,-4.94 c -4.48,-0.9 -9,-2.07 -11.28,-5.49 -2.38,-3.62 -1.42,-8.48 -0.22,-13.15 1.52,-6 3.59,-11.74 8.43,-13.63 3.47,-1.35 7.48,-0.3 11.62,1 1.82,0.57 3.68,1.18 5.48,1.77 a 135.17,135.17 0 0 0 18.29,5.08 c 1.5,0.27 3.07,0.7 4.74,1.16 5.12,1.41 10.92,3 15.81,-0.25 3.55,-2.37 5.18,-6.38 6.74,-10.26 l 0.38,-0.92 A 88.51,88.51 0 0 1 809,477 a 1.0033195,1.0033195 0 0 0 -1.05,-1.71 90.54,90.54 0 0 0 -36,42.48 l -0.37,0.93 c -1.46,3.6 -3,7.31 -6,9.34 -4.13,2.76 -9.24,1.35 -14.17,0 -1.71,-0.47 -3.33,-0.92 -4.92,-1.2 a 134.47,134.47 0 0 1 -18,-5 c -1.8,-0.6 -3.66,-1.21 -5.5,-1.79 -4.5,-1.41 -8.87,-2.55 -12.95,-0.95 -5.68,2.22 -8,8.51 -9.64,15 -1.25,4.88 -2.34,10.45 0.49,14.76 2.67,4 7.67,5.36 12.55,6.34 l 24.54,4.94 c 1.89,0.39 3.8,0.84 5.64,1.29 4.45,1.07 9.08,2.19 13.82,2.19 z"
       id="path292" />
  </g>
</svg>
