<svg xmlns="http://www.w3.org/2000/svg" viewBox="0 0 363.23 278.09" id="idea-pipeline"><g style="isolation:isolate"><g><path fill="#2b5971" d="M10.09,260.9H358s9-39.94-6.78-62c-19.12-26.76-40-16.14-48.44-26.9C291.6,157.72,301.18,69.4,229.52,69.4c-51.66,0-62.71,82.42-76,82.42-16.94,0-40.44-19.39-83-7.55C-3,164.68,10.09,260.9,10.09,260.9Z" opacity=".5"></path><path fill="#90cbc9" d="M6.47,260.83c0,9.54,79.87,17.26,178.38,17.26s178.38-7.72,178.38-17.26-79.86-17.26-178.38-17.26S6.47,251.3,6.47,260.83Z"></path><path fill="#a2ddd0" d="M33.62,258.6s12.2-22.33,4.1-25.17c-5.34-1.87-7.08,19-7.08,19s-.48-23.15-7.58-20.19c-5.35,2.23,1.8,18.94,1.8,18.94s-7.77-6.3-8.75-2.34c-1.56,6.29,7.39,9.86,7.39,9.86Z"></path><path fill="#e0fbf0" d="M31.12 258.63l5.9-18.5a.21.21 0 00-.13-.25.2.2 0 00-.24.13l-5.94 18.62zM29.58 258.64l-4.23-20.16a.19.19 0 00-.23-.15.2.2 0 00-.15.23l4.21 20.09zM27.4 258.67l-8-6.92a.2.2 0 00-.28 0 .19.19 0 000 .27l7.71 6.64z"></path><path fill="#a2ddd0" d="M334.47,258.71s-10-14.86-3.64-20.56c3.92-3.49,5.84,7.69,5.84,7.69s2.22-21.33,9.44-16.83c3.54,2.2-3.89,21.87-3.89,21.87s5.28-10.23,9.45-7.42c6.74,4.54-9.31,15.1-9.31,15.1Z"></path><path fill="#e0fbf0" d="M338.29 258.64l5.18-24.17a.24.24 0 00-.19-.29.25.25 0 00-.29.19l-5.21 24.28zM341.05 258.59L350.6 247a.23.23 0 000-.34.24.24 0 00-.34 0L340.4 258.6zM336.52 258.68L332.6 241a.25.25 0 00-.3-.19.24.24 0 00-.18.3l3.9 17.61z"></path><path fill="#a2ddd0" d="M35.13,187.71a25.34,25.34,0,0,0,9-2c2.22-.94,4.29-1.72,4.48-4.69a20.52,20.52,0,0,0-6.12-15.51,18.93,18.93,0,0,0-2.27-1.87,17.35,17.35,0,0,0-5.91-3.47,24.15,24.15,0,0,0-12.52-.36,60.51,60.51,0,0,0-6.14,1.65c-2.47.79-5.15,2.09-7.59.85-.54-.28-1,.39-.88,1a49.17,49.17,0,0,0,3.43,10.91,20.39,20.39,0,0,0,6.75,7.65C22.61,185.53,28.8,187.94,35.13,187.71Z"></path><path fill="#e0fbf0" d="M33.52,187.14a6.78,6.78,0,0,1,5.25-2.86,9.68,9.68,0,0,0,3.41-.68,17.45,17.45,0,0,0,3-1.8,55.76,55.76,0,0,0-5.46-4.08l-.16-.1c-5.51,1.41-9.06,6.53-14.46,8.24-.39.12-.62-.48-.22-.61,5.22-1.65,8.7-6.5,13.93-8.08A36.76,36.76,0,0,0,31.39,174c-.87-.27-1.74-.55-2.61-.81a23.38,23.38,0,0,0-3.8,2.44,11,11,0,0,1-3.55,1.56c-2.56.6-5.24.46-7.8,1.09-.4.1-.63-.51-.23-.6,2.52-.61,5.13-.52,7.65-1.07a10.68,10.68,0,0,0,4-1.83,24.84,24.84,0,0,1,2.81-1.86C25,172,22.05,171.14,19.22,170c-3.41.87-7.13,1.62-10.26-.48-.34-.23.07-.73.41-.5,2.67,1.79,5.88,1.3,8.84.57-1.07-.43-2.12-.91-3.16-1.43a34.59,34.59,0,0,1-7.84-5.31c-.31-.28.09-.78.4-.5a37.92,37.92,0,0,0,11.64,7,.32.32,0,0,1,.36.15L21,170a13.07,13.07,0,0,0-1-2.73,33.09,33.09,0,0,0-3.61-5.46c-.25-.33.27-.71.52-.38,2,2.68,4.1,5.47,4.78,8.82.36.14.72.26,1.07.38,2,.68,4.05,1.27,6.08,1.87h0c1.09.32,2.18.66,3.25,1,.06-2.54-1.35-4.75-2.74-6.76a24.11,24.11,0,0,1-3.62-7c-.11-.4.49-.63.6-.23a18.78,18.78,0,0,0,1.75,4.13c.74,1.26,1.64,2.43,2.44,3.65a11,11,0,0,1,2.21,6.4,34.31,34.31,0,0,1,6.55,2.93A38.67,38.67,0,0,1,43,179.28c.84-2.9-.79-5.74-2.21-8.18a18.29,18.29,0,0,1-2.8-8.17c0-.41.62-.47.64-.06a14.7,14.7,0,0,0,1.07,4.75,46.94,46.94,0,0,0,2.55,4.74c1.22,2.24,2.1,4.81,1.29,7.33,1.33,1,2.62,2.12,3.9,3.2.32.26-.08.77-.4.5l-1.38-1.16A12.37,12.37,0,0,1,40,184.85a10.68,10.68,0,0,0-3.37.56A6,6,0,0,0,34,187.54C33.79,187.88,33.29,187.48,33.52,187.14Z"></path><path fill="#a2ddd0" d="M24.83,199.37a64.05,64.05,0,0,1-4.2,7.35.41.41,0,0,0,.31.6l9,1a22.4,22.4,0,0,0,9.71-1.19,13.17,13.17,0,0,0,8.72-10.3c.68-4.35-3.69-6.15-7.21-7-4.34-1.06-8.48,1.06-11.68,3.52A16.28,16.28,0,0,0,24.83,199.37Z"></path><path fill="#e0fbf0" d="M20.92,207a39.72,39.72,0,0,0,5.26-2.53l.41-.25c-.32.45-.64.9-.95,1.36a5.44,5.44,0,0,0-.81,1.9c0,.22.29.33.34.11a5.37,5.37,0,0,1,.81-1.87c.45-.67.92-1.31,1.39-2a.32.32,0,0,0,0-.09c1.13-.81,2.2-1.71,3.34-2.51a31.28,31.28,0,0,1,3.86-2.28c0,1.71-1.19,3.27-2.06,4.65L31,206.06a3,3,0,0,0-.67,2.1c0,.23.39.15.35-.08-.16-.93.65-1.86,1.11-2.59l1.63-2.59A7.36,7.36,0,0,0,35,198.73c2-1,4-1.78,6-2.58.66-.26,1.33-.53,2-.78a22,22,0,0,1-7.11,12.36c-.18.15.07.42.25.27a22.41,22.41,0,0,0,7.26-12.77,21.46,21.46,0,0,1,4.25-1.12c.23,0,.15-.39-.08-.36-.54.08-1.07.19-1.6.31h0a27.42,27.42,0,0,0-6.72-2.14c-2.33-.41-5.05-.78-7.29.15-.21.09,0,.41.17.32a8.74,8.74,0,0,1,3.76-.47,25.92,25.92,0,0,1,9.56,2.3c-.73.19-1.44.43-2.14.68a.17.17,0,0,0-.19.06l-1.11.43-2.3.9a18.43,18.43,0,0,0-5.3-1.12c-2-.14-4.08-.21-6.12-.33a.19.19,0,0,0,0,.37c2,.1,3.94.18,5.91.3a19,19,0,0,1,5,1c-.9.36-1.79.74-2.68,1.13-.55.25-1.1.5-1.65.77a.2.2,0,0,0-.22.11,32.3,32.3,0,0,0-3,1.7h0a14.3,14.3,0,0,1-3.4-.71,6.49,6.49,0,0,0-3.51.42c-.22.08-.14.43.08.35a11,11,0,0,1,1.79-.48,5.17,5.17,0,0,1,1.84.12,18,18,0,0,0,2.68.65c-1.49,1-2.83,2.21-4.34,3.19a36.15,36.15,0,0,1-5.94,3C20.54,206.79,20.71,207.12,20.92,207Z"></path><path fill="#a2ddd0" d="M205.25,106.27c-5,2.32-10.12,6-11.56,11.87-1.16,4.78-1.72,11.17,3.94,13.08a17.89,17.89,0,0,0,17.86-4.07,30.27,30.27,0,0,0,7.51-11l4.38-11.44a.57.57,0,0,0-.53-.76,87.74,87.74,0,0,1-11.48.47A22.07,22.07,0,0,0,205.25,106.27Z"></path><path fill="#e0fbf0" d="M227,104.53a56.61,56.61,0,0,1-6.34,4.75l-.56.33c.74-.11,1.49-.21,2.23-.29a7.74,7.74,0,0,1,2.8.2c.3.09.22.57-.08.48a7.33,7.33,0,0,0-2.76-.18c-1.08.12-2.15.29-3.23.44a.22.22,0,0,1-.12,0c-1.69.86-3.44,1.58-5.12,2.45a42.12,42.12,0,0,0-5.16,3.23c2,1.12,4.68.61,6.89.43l4-.34a4.1,4.1,0,0,1,3,.5c.26.19-.06.57-.31.38-1-.78-2.65-.38-3.83-.28l-4.12.34c-2,.17-4.2.36-6-.7-2.38,1.76-4.64,3.71-6.87,5.65-.74.63-1.48,1.27-2.2,1.93a29.9,29.9,0,0,0,19.34-.85c.29-.12.46.35.17.47a30.48,30.48,0,0,1-19.93.77,28.47,28.47,0,0,0-4,4.41c-.19.26-.56-.06-.38-.31.43-.61.89-1.18,1.37-1.74a.08.08,0,0,1,0,0,37,37,0,0,1,1.63-9.45c1-3,2.22-6.56,4.74-8.67.24-.21.52.2.28.4a11.83,11.83,0,0,0-2.93,4.24,34.88,34.88,0,0,0-1.67,4.33,36,36,0,0,0-1.54,8.61c.7-.75,1.42-1.46,2.17-2.14a.19.19,0,0,1,.19-.18l1.21-1.09,2.52-2.2a25.45,25.45,0,0,1,2-7.09c1.1-2.53,2.29-5,3.44-7.57a.24.24,0,0,1,.44.21c-1.11,2.44-2.24,4.87-3.33,7.31a25.58,25.58,0,0,0-1.95,6.66c1-.86,2-1.7,3-2.53.65-.51,1.3-1,2-1.5a.28.28,0,0,1,.28-.2,44.66,44.66,0,0,1,3.94-2.6s0,0,0,0c.8-1.4.84-3,1.27-4.54a8.76,8.76,0,0,1,2.71-4c.22-.23.6.1.37.31a13.65,13.65,0,0,0-1.7,1.86,6.8,6.8,0,0,0-1,2.29,25.13,25.13,0,0,1-.9,3.64c2.14-1.17,4.44-2,6.56-3.24a49.78,49.78,0,0,0,7.28-5.3C227,103.91,227.27,104.32,227,104.53Z"></path><path fill="#98d4fc" d="M275.42,139.34v84.24a7.2,7.2,0,0,1-7.18,7.19H254.12v8.32h14.12a15.52,15.52,0,0,0,15.5-15.51V139.34Z"></path><rect width="10.59" height="46.87" x="274.29" y="160.9" fill="#4693b9" rx="1.51"></rect><path fill="#7fc8ef" d="M277.72,236.65a.41.41,0,0,1-.25-.15L272,229.25a.39.39,0,0,1,.07-.53,5.86,5.86,0,0,0,.66-.57.37.37,0,0,1,.26-.1.35.35,0,0,1,.27.11l6.37,6.47a.38.38,0,0,1,0,.53,14.59,14.59,0,0,1-1.63,1.41.36.36,0,0,1-.23.08Z"></path><rect width="9.83" height="2.26" x="274.67" y="214.1" fill="#7fc8ef" rx=".38"></rect><rect width="9.83" height="2.27" x="274.67" y="149.26" fill="#7fc8ef" rx=".38"></rect><rect width="7.46" height="10.59" x="254.88" y="229.63" fill="#387694" rx="1.51"></rect><rect width="4.18" height="16.91" x="224.14" y="184.77" fill="#387694"></rect><rect width="12.58" height="9.97" x="219.95" y="194.61" fill="#7fc8ef" rx="1.78"></rect><path fill="#387694" d="M232.78,186.7H219.69a1.34,1.34,0,0,1-1.11-.59l-3.8-5.67A1.34,1.34,0,0,1,217,179l3.4,5.07h11.65l3.4-5.07a1.35,1.35,0,0,1,2.24,1.49l-3.8,5.67A1.35,1.35,0,0,1,232.78,186.7Z"></path><path fill="#29566d" d="M241.93,180.29H210.54a1.79,1.79,0,1,1,0-3.58h31.39a1.79,1.79,0,0,1,0,3.58Z"></path><path fill="#98d4fc" d="M200.86,255.23h-8.32V132.6a7.19,7.19,0,0,0-7.18-7.18h-28.5a7.19,7.19,0,0,0-7.18,7.18v84.25a15.53,15.53,0,0,1-15.51,15.51H120.05a15.53,15.53,0,0,1-15.51-15.51V154.28a7.19,7.19,0,0,0-7.18-7.19H62.14A7.2,7.2,0,0,0,55,154.28V255.23H46.63V154.28a15.52,15.52,0,0,1,15.51-15.51H97.36a15.52,15.52,0,0,1,15.51,15.51v62.57a7.2,7.2,0,0,0,7.18,7.19h14.12a7.2,7.2,0,0,0,7.19-7.19V132.6a15.51,15.51,0,0,1,15.5-15.5h28.5a15.51,15.51,0,0,1,15.5,15.5Z"></path><path fill="#4693b9" d="M171.61,261.07H160.27V217a17,17,0,0,1,17-17h63a17,17,0,0,1,17,17V259.9H246V217a5.68,5.68,0,0,0-5.68-5.67h-63a5.68,5.68,0,0,0-5.68,5.67Z"></path><path fill="#387694" d="M185.68,201.85h-3.79V180.09a9.46,9.46,0,0,0-9.45-9.46H152.25v-3.78h20.19a13.26,13.26,0,0,1,13.24,13.24Z"></path><rect width="4.28" height="21.1" x="169.23" y="97.65" fill="#387694"></rect><rect width="9.08" height="11.4" x="166.83" y="91.95" fill="#29566d" rx="1.51"></rect><path fill="#4693b9" d="M171.37,100.73a16.55,16.55,0,1,1,16.54-16.55A16.57,16.57,0,0,1,171.37,100.73Z"></path><path fill="#387694" d="M171.37,100a15.79,15.79,0,1,1,15.79-15.79A15.81,15.81,0,0,1,171.37,100Z"></path><path fill="#98d4fc" d="M185.72,84.18a14.35,14.35,0,1,1-14.35-14.35A14.34,14.34,0,0,1,185.72,84.18Z"></path><path fill="#bfe4fd" d="M178.94,84.18a7.57,7.57,0,1,1-7.57-7.56A7.57,7.57,0,0,1,178.94,84.18Z"></path><path fill="#387694" d="M171.37 72.46a.24.24 0 01-.24-.24V69.83a.24.24 0 01.48 0v2.39A.24.24 0 01171.37 72.46zM168.27 72.87a.24.24 0 01-.23-.18l-.61-2.31a.23.23 0 01.17-.29.24.24 0 01.29.17l.62 2.31a.24.24 0 01-.17.29zM165.39 74.07a.24.24 0 01-.2-.12L164 71.87a.22.22 0 01.09-.32.23.23 0 01.32.08l1.2 2.08a.22.22 0 01-.09.32A.19.19 0 01165.39 74.07zM162.92 76a.21.21 0 01-.17-.07l-1.7-1.69a.24.24 0 01.34-.34l1.69 1.7a.22.22 0 010 .33A.2.2 0 01162.92 76zM181.52 94.57a.23.23 0 01-.17-.07l-1.69-1.69a.24.24 0 11.34-.34l1.69 1.69a.25.25 0 010 .34A.23.23 0 01181.52 94.57zM161 78.44a.24.24 0 01-.12 0l-2.08-1.2a.23.23 0 01-.08-.32.22.22 0 01.32-.09l2.07 1.2a.22.22 0 01.09.32A.22.22 0 01161 78.44zM183.8 91.6a.19.19 0 01-.12 0l-2.07-1.19a.24.24 0 11.24-.42l2.07 1.2a.25.25 0 01.09.33A.27.27 0 01183.8 91.6zM159.82 81.32h-.06l-2.31-.62a.24.24 0 01-.17-.3.23.23 0 01.29-.16l2.31.61a.25.25 0 01.17.3A.25.25 0 01159.82 81.32zM185.23 88.13h-.06l-2.31-.62a.26.26 0 01-.17-.3.24.24 0 01.3-.16l2.31.61a.26.26 0 01.17.3A.25.25 0 01185.23 88.13zM185.72 84.42h-2.39a.24.24 0 010-.48h2.39a.24.24 0 110 .48zM159.41 84.42H157a.24.24 0 010-.48h2.39a.24.24 0 110 .48zM182.92 81.32a.25.25 0 01-.23-.17.25.25 0 01.17-.3l2.31-.62a.24.24 0 11.13.47l-2.32.62zM157.51 88.13a.24.24 0 01-.23-.17.24.24 0 01.17-.3l2.31-.61a.24.24 0 01.29.16.25.25 0 01-.17.3l-2.31.62zM158.94 91.6a.24.24 0 01-.12-.45l2.07-1.2a.25.25 0 01.33.09.24.24 0 01-.09.33l-2.07 1.19A.17.17 0 01158.94 91.6zM181.73 78.44a.22.22 0 01-.21-.12.24.24 0 01.09-.33l2.07-1.19a.24.24 0 01.33.08.25.25 0 01-.09.33l-2.08 1.2A.2.2 0 01181.73 78.44zM179.83 76a.21.21 0 01-.17-.07.22.22 0 010-.33l1.69-1.7a.24.24 0 01.34.34L180 75.89A.23.23 0 01179.83 76zM161.22 94.57a.28.28 0 01-.17-.07.25.25 0 010-.34l1.7-1.69a.24.24 0 01.33 0 .23.23 0 010 .34l-1.69 1.69A.24.24 0 01161.22 94.57zM177.35 74.06l-.12 0a.22.22 0 01-.09-.32l1.2-2.08a.25.25 0 01.33-.09.24.24 0 01.08.33L177.56 74A.26.26 0 01177.35 74.06zM174.46 72.87h-.06a.23.23 0 01-.16-.29l.61-2.32a.24.24 0 01.47.13l-.62 2.31A.25.25 0 01174.46 72.87z"></path><path fill="#2f627c" d="M169.36,84a.49.49,0,0,1-.27-.31.51.51,0,0,1,.08-.4l5.7-7.68a.5.5,0,0,1,.59-.15h0a.47.47,0,0,1,.26.55l-2.21,9.3a.48.48,0,0,1-.67.32Z"></path><path fill="#29566d" d="M174.62,85.7a3.59,3.59,0,1,1-1.73-4.77A3.59,3.59,0,0,1,174.62,85.7Z"></path><rect width="7.91" height="2.21" x="167.42" y="93.49" fill="#4693b9" rx=".76"></rect><rect width="10.38" height="13.27" x="166.18" y="109.33" fill="#29566d" rx="1.51"></rect><rect width="22.46" height="10.59" x="160.14" y="115.96" fill="#4693b9" rx="1.51"></rect><rect width="6.68" height="8.21" x="147.79" y="164.63" fill="#2f627c" rx="1.51"></rect><rect width="10.59" height="30.26" x="191.41" y="154.13" fill="#4693b9" rx="1.51"></rect><rect width="10.59" height="54.46" x="140.22" y="146.57" fill="#4693b9" rx="1.51"></rect><rect width="10.59" height="39.33" x="45.5" y="166.23" fill="#4693b9" rx="1.51"></rect><rect width="9.83" height="2.26" x="45.88" y="239.01" fill="#7fc8ef" rx=".38"></rect><rect width="9.83" height="2.26" x="191.78" y="238.94" fill="#7fc8ef" rx=".38"></rect><rect width="2.27" height="9.83" x="126.01" y="223.28" fill="#7fc8ef" rx=".38"></rect><path fill="#7fc8ef" d="M110.58 230a.33.33 0 01-.22-.08 15.66 15.66 0 01-1.65-1.4.39.39 0 01-.11-.27.43.43 0 01.11-.27l6.33-6.49a.47.47 0 01.27-.12h0a.37.37 0 01.27.11 7.07 7.07 0 00.65.56.37.37 0 01.08.52l-5.42 7.29A.39.39 0 01110.58 230zM143.66 229.91a.33.33 0 01-.25-.15l-5.47-7.24a.43.43 0 01-.07-.29A.35.35 0 01138 222a6.8 6.8 0 00.65-.57.4.4 0 01.27-.11.39.39 0 01.27.12l6.36 6.47a.38.38 0 010 .53 16.81 16.81 0 01-1.63 1.41.39.39 0 01-.23.07z"></path><rect width="9.83" height="2.26" x="45.88" y="223.92" fill="#7fc8ef" rx=".38"></rect><rect width="9.83" height="2.26" x="191.78" y="217.81" fill="#7fc8ef" rx=".38"></rect><rect width="9.83" height="2.27" x="45.88" y="208.82" fill="#7fc8ef" rx=".38"></rect><rect width="9.84" height="2.26" x="140.6" y="207.37" fill="#7fc8ef" rx=".38"></rect><rect width="9.84" height="2.27" x="103.79" y="201.39" fill="#7fc8ef" rx=".38"></rect><rect width="9.83" height="2.26" x="191.78" y="190.65" fill="#7fc8ef" rx=".38"></rect><rect width="9.84" height="2.27" x="103.79" y="171.2" fill="#7fc8ef" rx=".38"></rect><rect width="9.83" height="2.26" x="45.88" y="160.54" fill="#7fc8ef" rx=".38"></rect><rect width="9.84" height="2.27" x="103.79" y="156.11" fill="#7fc8ef" rx=".38"></rect><path fill="#7fc8ef" d="M57.81 149.42a.37.37 0 01-.29-.14l-5.8-7a.36.36 0 01.05-.53 14.55 14.55 0 011.74-1.26.36.36 0 01.2-.06h.08a.4.4 0 01.24.16l4.84 7.68a.42.42 0 01.05.29.46.46 0 01-.17.24 5.9 5.9 0 00-.7.5A.38.38 0 0157.81 149.42zM101 148.92a.36.36 0 01-.2-.06 6.79 6.79 0 00-.75-.41.4.4 0 01-.19-.51l3.86-8.21a.38.38 0 01.34-.22.41.41 0 01.16 0 16.56 16.56 0 011.89 1.05.35.35 0 01.17.24.39.39 0 01-.05.28l-4.91 7.64A.37.37 0 01101 148.92z"></path><rect width="2.27" height="9.83" x="90.25" y="138.01" fill="#7fc8ef" rx=".38"></rect><rect width="2.27" height="9.83" x="65.4" y="138.01" fill="#7fc8ef" rx=".38"></rect><rect width="9.83" height="2.27" x="191.78" y="142.36" fill="#7fc8ef" rx=".38"></rect><rect width="9.84" height="2.27" x="140.6" y="134.93" fill="#7fc8ef" rx=".38"></rect><path fill="#7fc8ef" d="M152.91 127.41a.42.42 0 01-.25-.16l-5.23-7.42a.38.38 0 01.09-.53 16.54 16.54 0 011.85-1.12.33.33 0 01.17 0 .38.38 0 01.34.2l4.2 8a.34.34 0 010 .28.38.38 0 01-.18.23 6.73 6.73 0 00-.73.44.36.36 0 01-.22.07zM188.42 126.91a.33.33 0 01-.17 0 6.72 6.72 0 00-.79-.34.38.38 0 01-.23-.48l3-8.57a.38.38 0 01.35-.25l.13 0a18.15 18.15 0 012 .85.41.41 0 01.19.22.41.41 0 010 .29l-4.12 8.09A.36.36 0 01188.42 126.91z"></path><rect width="12.03" height="8" x="190.68" y="249.92" fill="#7fc8ef" rx="1.51"></rect><rect width="12.03" height="8" x="44.78" y="249.92" fill="#7fc8ef" rx="1.51"></rect><rect width="11.87" height="13.59" x="177.85" y="198.76" fill="#2f627c" rx="1.51"></rect><rect width="24.75" height="13.59" x="213.86" y="198.76" fill="#98d4fc" rx="1.51"></rect><rect width="16.26" height="9.62" x="157.81" y="253.95" fill="#4087aa" rx="1.51"></rect><rect width="16.26" height="9.62" x="243.54" y="253.95" fill="#4087aa" rx="1.51"></rect><path fill="#4087aa" d="M159.89 241.07H172a.76.76 0 01.76.76v2.26a.76.76 0 01-.76.76h-12.1a.76.76 0 01-.76-.76v-2.26A.75.75 0 01159.89 241.07zM159.89 223H172a.76.76 0 01.76.76V226a.76.76 0 01-.76.76h-12.1a.76.76 0 01-.76-.76v-2.27A.75.75 0 01159.89 223zM173.62 213.94a.78.78 0 01-.54-.23l-8.4-8.71a.74.74 0 01-.21-.54.72.72 0 01.23-.53 16.94 16.94 0 012.83-2.23.72.72 0 01.4-.12h.16a.78.78 0 01.48.33l6.53 10.2a.76.76 0 01.1.57.75.75 0 01-.33.47 3.92 3.92 0 00-.72.57A.77.77 0 01173.62 213.94zM243.56 213.57a.78.78 0 01-.47-.16 4.77 4.77 0 00-.77-.49.76.76 0 01-.34-1l5.43-10.82a.75.75 0 01.68-.42.84.84 0 01.34.08 18.67 18.67 0 013 1.93.79.79 0 01.28.51.72.72 0 01-.15.55l-7.46 9.54a.71.71 0 01-.5.28z"></path><rect width="3.78" height="13.62" x="204.79" y="198.83" fill="#4087aa" rx=".76"></rect><rect width="13.62" height="20.05" x="244.86" y="225.4" fill="#2f627c" rx="1.5"></rect><path fill="#ffd471" d="M318.87,31.41C314.7,10.35,297.14-.1,279.58,0,262-.1,244.46,10.35,240.29,31.41a46.27,46.27,0,0,0,9.65,38.38,47.62,47.62,0,0,1,10,21.53,5.93,5.93,0,0,0,3.68,4.46h31.88a5.93,5.93,0,0,0,3.68-4.46,47.72,47.72,0,0,1,10-21.53A46.06,46.06,0,0,0,319.75,40,45.38,45.38,0,0,0,318.87,31.41Z"></path><path fill="#387694" d="M295.69,40.9a.59.59,0,0,1-.23,0c-.51-.27-.37-1.25-.06-3.11a12.37,12.37,0,0,0,.26-2.4,12,12,0,0,0-1.58,1.8c-1.18,1.49-1.81,2.26-2.35,2.06s-.53-1.19-.47-3.08a12,12,0,0,0-.05-2.41,11.74,11.74,0,0,0-1.35,2c-1,1.62-1.51,2.46-2.07,2.33s-.67-1.12-.84-3a10.9,10.9,0,0,0-.34-2.38,12.08,12.08,0,0,0-1.11,2.12c-.78,1.73-1.22,2.62-1.78,2.56s-.8-1-1.18-2.88a11.36,11.36,0,0,0-.61-2.33,12.14,12.14,0,0,0-.86,2.24c-.59,1.8-.91,2.74-1.49,2.74s-.9-.94-1.48-2.74a12.8,12.8,0,0,0-.87-2.24,11.36,11.36,0,0,0-.61,2.33c-.38,1.85-.6,2.82-1.17,2.88s-1-.83-1.79-2.56a11.44,11.44,0,0,0-1.11-2.12,11.55,11.55,0,0,0-.34,2.38c-.16,1.88-.27,2.87-.83,3s-1.1-.71-2.08-2.33a11.74,11.74,0,0,0-1.35-2,12,12,0,0,0-.05,2.41C268,38,268,39,267.44,39.2s-1.18-.57-2.35-2.06a12.57,12.57,0,0,0-1.59-1.8,11.76,11.76,0,0,0,.27,2.4c.31,1.85.45,2.84-.06,3.11s-1.25-.41-2.61-1.72a8.12,8.12,0,0,0-1.91-1.59.28.28,0,0,1-.4-.12.34.34,0,0,1,.13-.45c.5-.31,1.25.37,2.63,1.69a10.77,10.77,0,0,0,1.84,1.58,11.06,11.06,0,0,0-.25-2.4c-.32-1.89-.46-2.89.08-3.13s1.19.53,2.37,2a11.42,11.42,0,0,0,1.61,1.82,10.57,10.57,0,0,0,.06-2.42c-.07-1.91-.08-2.92.5-3.09s1.1.68,2.09,2.32a11.17,11.17,0,0,0,1.37,2,11.34,11.34,0,0,0,.35-2.39c.17-1.92.28-2.92.86-3s1,.81,1.81,2.55a11.63,11.63,0,0,0,1.13,2.15,10.87,10.87,0,0,0,.62-2.34c.38-1.88.61-2.86,1.2-2.89s.93.91,1.51,2.74a12.1,12.1,0,0,0,.88,2.26,10.84,10.84,0,0,0,.88-2.26c.59-1.83.93-2.79,1.51-2.74s.82,1,1.2,2.89a11.5,11.5,0,0,0,.62,2.34,11.05,11.05,0,0,0,1.13-2.15c.79-1.74,1.22-2.65,1.81-2.55s.7,1.1.86,3a11.35,11.35,0,0,0,.35,2.4,11.17,11.17,0,0,0,1.37-2c1-1.64,1.53-2.49,2.1-2.32s.56,1.18.49,3.09a11.18,11.18,0,0,0,.06,2.42,11.38,11.38,0,0,0,1.62-1.82c1.18-1.5,1.82-2.27,2.36-2s.41,1.24.09,3.13a11.22,11.22,0,0,0-.26,2.41,11.77,11.77,0,0,0,1.85-1.58c1.38-1.33,2.12-2,2.62-1.7a.31.31,0,0,1,.1.44.3.3,0,0,1-.43.1,12.59,12.59,0,0,0-1.85,1.62C296.9,40.25,296.19,40.9,295.69,40.9Z"></path><path fill="#2f627c" d="M288.67 99a.64.64 0 01-.64-.64V71.75c0-7.61 2.89-12.66 5.68-17.54s5.5-9.65 5.5-16.93a.64.64 0 111.28 0c0 7.62-2.89 12.67-5.68 17.56s-5.5 9.64-5.5 16.91V98.33A.64.64 0 01288.67 99zM270.5 99a.63.63 0 01-.64-.64V71.75c0-7.27-2.68-12-5.51-16.91s-5.67-9.94-5.67-17.56a.64.64 0 111.27 0c0 7.28 2.68 12 5.51 16.93s5.67 9.93 5.67 17.54V98.33A.63.63 0 01270.5 99zM290.41 116.81A10.83 10.83 0 11279.58 106 10.83 10.83 0 01290.41 116.81z"></path><path fill="#387694" d="M263.64,95.78V113.4a5.83,5.83,0,0,0,5.63,5.89H289.9a5.83,5.83,0,0,0,5.62-5.89V95.78Z"></path><path fill="#2f627c" d="M263.69,111.37h31.78a1,1,0,0,1,1,1v.45a1,1,0,0,1-1,1H263.7a1,1,0,0,1-1-1v-.46A1,1,0,0,1,263.69,111.37Z"></path><rect width="33.86" height="2.54" x="262.65" y="105.97" fill="#2f627c" rx="1.04"></rect><path fill="#2f627c" d="M296.52,102.07a1,1,0,0,1-1,1H263.69a1,1,0,0,1-1-1v-.46a1,1,0,0,1,1-1h31.78a1,1,0,0,1,1,1Z"></path><rect width="16.92" height="6.87" x="271.12" y="137.2" fill="#4693b9" rx="2.17"></rect><rect width="28" height="19.06" x="265.58" y="120.28" fill="#387694" rx="5.42"></rect><path fill="#4693b9" d="M264.3,110.31h30.57a5.42,5.42,0,0,1,5.42,5.42v8.21a5.43,5.43,0,0,1-5.43,5.43H264.3a5.42,5.42,0,0,1-5.42-5.42v-8.21A5.43,5.43,0,0,1,264.3,110.31Z"></path><path fill="#387694" d="M261.89 123.3c0 .59-.36 1.08-.81 1.08a1 1 0 01-.82-1.08v-6.92c0-.6.37-1.09.82-1.09s.81.49.81 1.09zM265.59 123.3c0 .59-.36 1.08-.81 1.08s-.81-.49-.81-1.08v-6.92c0-.6.36-1.09.81-1.09s.81.49.81 1.09zM269.29 123.3c0 .59-.36 1.08-.81 1.08s-.81-.49-.81-1.08v-6.92c0-.6.36-1.09.81-1.09s.81.49.81 1.09zM273 123.3a1 1 0 01-.82 1.08c-.45 0-.81-.49-.81-1.08v-6.92c0-.6.36-1.09.81-1.09s.82.49.82 1.09zM276.7 123.3a1 1 0 01-.82 1.08c-.45 0-.81-.49-.81-1.08v-6.92c0-.6.36-1.09.81-1.09s.82.49.82 1.09zM280.4 123.3a1 1 0 01-.82 1.08c-.44 0-.81-.49-.81-1.08v-6.92c0-.6.37-1.09.81-1.09s.82.49.82 1.09zM284.1 123.3a1 1 0 01-.82 1.08c-.44 0-.81-.49-.81-1.08v-6.92c0-.6.37-1.09.81-1.09s.82.49.82 1.09zM287.8 123.3a1 1 0 01-.82 1.08c-.44 0-.81-.49-.81-1.08v-6.92c0-.6.37-1.09.81-1.09s.82.49.82 1.09zM291.5 123.3a1 1 0 01-.82 1.08c-.44 0-.81-.49-.81-1.08v-6.92c0-.6.37-1.09.81-1.09s.82.49.82 1.09zM295.2 123.3c0 .59-.37 1.08-.81 1.08a1 1 0 01-.82-1.08v-6.92c0-.6.37-1.09.82-1.09s.81.49.81 1.09zM298.9 123.3c0 .59-.37 1.08-.81 1.08a1 1 0 01-.82-1.08v-6.92c0-.6.37-1.09.82-1.09s.81.49.81 1.09z"></path><path fill="#a55852" d="M83.07,107.78c4.77-2,1.27-5.82,1.73-8,.66-3.18-.73-5.28-3.14-5.89a3.28,3.28,0,0,0,.08-.78,2.47,2.47,0,0,0-2.36-2.36,2.33,2.33,0,0,0-2.17,2.36,3.43,3.43,0,0,0,.05.65,5,5,0,0,0-3.51,6.08c.73,3.35-2.38,5,1.15,7.43C76.67,108.49,81,108.63,83.07,107.78Z"></path><path fill="#a2ddd0" d="M73.51,128.46l-.24,2.84c-2.23-.87-9.82-1.09-9.21-6,.42-3.38,2.2-6.88,4.27-10.64s4.13-4.71,7-5.32l8.58.15c3.2.31,5,1,7.16,4.11A52.77,52.77,0,0,1,96.64,124c1.8,4.33-7.32,6.91-8.89,7.43-.93.31-1-2.34-.87-2.49.74-.69,5.83-3.17,5.18-4.17-2.83-4.29-4.13-7.27-4.57-7.49,0,0,.11,5.29.33,9.24.27,4.73,1.4,4.94.17,6.93a27.59,27.59,0,0,1-7.5,1.2,34,34,0,0,1-7.64-1.95c-1-1.51-.16-2-.07-6,.08-4.13-.38-9.08-.38-9.08a62.58,62.58,0,0,0-3.64,7.84C68.51,126.25,70.75,127.18,73.51,128.46Z"></path><path fill="#ffa18a" d="M77.18,105.1v2.84a.78.78,0,0,1-.33.65,7.74,7.74,0,0,1-1.55.77,8.13,8.13,0,0,0,4.21,1.12c3.23,0,4.37-1,4.37-1a4.49,4.49,0,0,1-1.93-.88.73.73,0,0,1-.25-.55l0-3Z"></path><path d="M81.7,106.58a4.1,4.1,0,0,1-4.52,0v-1.18l4.52,0Z" style="mix-blend-mode:multiply" fill="#ffa18a" opacity=".3"></path><path fill="#ffa18a" d="M84,100.29h-.1V98.54c0-2.49-1.85-3.69-4.35-3.7h0c-2.5,0-4.72,1.18-4.72,3.68v1.75h0a1,1,0,1,0,0,2h.07c.64,2.27,2.4,4.56,4.45,4.56h0c2.38,0,4-2,4.55-4.55h.13a1,1,0,1,0,0-2Z"></path><path fill="#a55852" d="M83.85,100.29c1.23-7.5-6.21-7-8.31-5.13-1.37,1.19-.76,5.11-.76,5.11s3.3-5,4.7-4.53C81.05,95.21,83.85,100.29,83.85,100.29Z"></path><path fill="#2a817d" d="M73.11,132.18c-6.06-2-15.88-.47-16.22,1.78-1,6.55,8.47,6.8,14.82,7.75,2.28.34,4.89,1.57,8.17,1.41,20.27-1,24.25-6.94,23.22-10.2-.58-1.82-4.88-3.85-14.82-.38a18.15,18.15,0,0,1-7.88,1.22A23.55,23.55,0,0,1,73.11,132.18Z"></path><path fill="#ffa18a" d="M72.58 128.52c-.47.55.1 1.95.25 2.21.77 1.26 2.79 2.38 4.15 1.86s2.15-1.81 1.84-2.3c-.2-.31-.76-.14-2.51 0a2.51 2.51 0 01-1.75-.57c0-.21 1.78-.15 1.81-.51S73.17 127.83 72.58 128.52zM88.17 129.2c.43.58-.25 1.94-.42 2.18-.87 1.2-3 2.17-4.28 1.54s-2-2-1.66-2.44c.23-.3.77-.07 2.52.2a2.55 2.55 0 001.77-.43c0-.23-1.76-.3-1.76-.65S87.63 128.46 88.17 129.2zM81.24 142c-.13-1.23-3.61-.15-5.54-.54-3.59-.71-5.41.07-5.62.91-.27 1.05.74 2 2.38 2.51 1.3.41 2.44 0 4.87-.67C79.53 143.63 81.4 143.5 81.24 142zM80 140.33c-.52-1.13 3-2 4.48-3.32 2.7-2.45 4.66-2.73 5.28-2.12a1.29 1.29 0 01.4 1 23.4 23.4 0 01-4.35 3.05c-1.24.62-4.62 2.13-4.62 2.13A1.17 1.17 0 0180 140.33z"></path><path fill="#236b68" d="M61.56 132.59a12.47 12.47 0 013.67 1.21c1.22.51 2.44 1 3.67 1.49a77.33 77.33 0 007.44 2.65q2.13.6 4.32 1c.08 0 .11-.11 0-.12a51.56 51.56 0 01-7.63-2.09c-2.53-.9-5-1.92-7.49-2.95a14.46 14.46 0 00-4-1.34.07.07 0 100 .13zM90.38 135.78a26.51 26.51 0 013.73-2.24 16.84 16.84 0 013.91-1.9c.07 0 0-.14 0-.12a17.21 17.21 0 00-3.93 1.91 28 28 0 00-3.76 2.26c-.06.05 0 .14.09.09z"></path><path fill="#1f4152" d="M91.05,133.2a1.23,1.23,0,0,1-1.17,1H69.6a1.24,1.24,0,0,1-1.17-1L66.29,121a.8.8,0,0,1,.82-1H92.38a.81.81,0,0,1,.82,1Z"></path><path fill="#98d4fc" d="M81.22,126.92a1.48,1.48,0,1,1-1.48-1.48A1.48,1.48,0,0,1,81.22,126.92Z" opacity=".3"></path><path fill="#af6f5f" d="M116,231c.29.15.57.32.85.49s.73.58,1.07.33,0-.62-.14-.83a5.14,5.14,0,0,0-1.3-1.25,8,8,0,0,0-1.76-.48,2.55,2.55,0,0,1-1.63-1.38c-.95.63-2.12,1.44-2.83,1.95a11.92,11.92,0,0,1,.83,1.48c.17.54.17,1.11.34,1.65a6.39,6.39,0,0,0,1.58,2.45c.23.22.53.56.89.46.1,0,.19-.18.26-.19s.29.11.41.15a.86.86,0,0,0,.81-.08c.21-.19.14-.43,0-.65.35.23.88.51,1.23.37s.21-.42.09-.64a1.1,1.1,0,0,0,1.06.13c.3-.17.23-.45.09-.71a4.75,4.75,0,0,0-1-.93,3.84,3.84,0,0,1-.93-1.77c0-.16-.1-.33-.14-.49S115.79,230.85,116,231Z"></path><path fill="#f9c969" d="M108.47,219.18c-1.07-1.73-1.14-3.5-1.28-5.44h-6.84s.13,3,.2,2.95a10.72,10.72,0,0,0,1.81,5.15c1,1.44,2.32,2.73,3.49,4,1.37,1.56,2.69,3.15,4.18,4.58a5.6,5.6,0,0,1,3.6-2.13,37.83,37.83,0,0,0-2.26-4.72C110.48,222.08,109.4,220.69,108.47,219.18Z"></path><path fill="#29566d" d="M84.56,238.43a10.52,10.52,0,0,1,.89,2.26,6.54,6.54,0,0,1-.18,3,27.89,27.89,0,0,0-.63,9.25h6.18a45.61,45.61,0,0,1,1.73-8.56,32.6,32.6,0,0,0,1.25-3.23c.65-2.33,0-4.84-.35-7.16-.44-2.55-1-5.09-1.36-7.65a44.73,44.73,0,0,1-.59-8H80c-1.5,5.29.3,10.88,2.52,15.76C83.16,235.53,83.87,237,84.56,238.43Z"></path><path fill="#091317" d="M98,263.93a2.66,2.66,0,0,0-1.29-1.69c-1.17-.79-4.82-1.83-5.2-2.18a3.41,3.41,0,0,1-.86-2.72c.08-2,.33-4.06.51-6.09a19.12,19.12,0,0,1-7-.09l.45,5.46a16.86,16.86,0,0,1,.08,2.66,20,20,0,0,1-.38,2.32,13.84,13.84,0,0,0-.34,2.31v.43c.48.49,1.63.45,2.18.42a36.48,36.48,0,0,1,4-.18c1.78.12,3.53.41,5.31.48A9,9,0,0,0,97.3,265,.93.93,0,0,0,98,263.93Z"></path><path fill="#2f627c" d="M80,238.67a10.27,10.27,0,0,1,.88,2.27,6.54,6.54,0,0,1-.17,3,27.94,27.94,0,0,0-.63,9.26h6.18A45.56,45.56,0,0,1,88,244.61a32.6,32.6,0,0,0,1.25-3.23c.65-2.33,0-4.83-.35-7.16-.45-2.55-1-5.08-1.36-7.64a44.91,44.91,0,0,1-.59-8H75.37c-1.5,5.29.29,10.89,2.52,15.75C78.56,235.78,79.27,237.22,80,238.67Z"></path><path fill="#bf7968" d="M109.4,200.53c.54-.49.88-.85.88-.85a1.72,1.72,0,0,0,1.86.36s6.42-4,7.83-2.44c1.67,1.82.82,4.17-.81,6a2.86,2.86,0,0,0-.71,2.1.32.32,0,0,1-.58.14l-.24-.27a.13.13,0,0,0-.2,0,7.65,7.65,0,0,1-1.66,1c-1.3.54-2.33,1.53-3.71-.38-.16-.23-.3-.46-.44-.68l-3.31,3.31c-1.42,0-1.63-3.65-1.91-4.47a9.7,9.7,0,0,1-.4-2.12A12.82,12.82,0,0,0,109.4,200.53Z"></path><path fill="#12252e" d="M109.9,198.26c.86-1.33,2.66-7.24,8.3-6.21,3.35.62,8,5.87,4.85,9-1.74,1.73-3.77-1.67-7.76.31,0,0-.17-.76-.37-.79.83-.56-1.28.65-2.82.7-.79,0-2.4,0-3-1.35S109.58,198.75,109.9,198.26Z"></path><path fill="#bf7968" d="M113.91,200.09c-.35.46-.44,1,0,1.34a1,1,0,0,0,1.39-.1,1,1,0,0,0,.07-1.4C114.73,199.27,114.25,199.65,113.91,200.09Z"></path><path fill="#12252e" d="M93.42,264.19a2.65,2.65,0,0,0-1.29-1.7c-1.17-.79-4.82-1.83-5.21-2.18a3.43,3.43,0,0,1-.85-2.71c.07-2,.33-4.08.51-6.1a19.12,19.12,0,0,1-7-.09l.45,5.46a17,17,0,0,1,.08,2.67,18.26,18.26,0,0,1-.39,2.31,15,15,0,0,0-.33,2.31v.42c.48.5,1.63.45,2.17.44a32.36,32.36,0,0,1,4.06-.18c1.77.11,3.53.4,5.31.47a9.93,9.93,0,0,0,1.74-.07A1,1,0,0,0,93.42,264.19Z"></path><rect width="3.68" height="23.17" x="113" y="222.64" fill="#2f627c" transform="rotate(-132.35 114.848 234.23)"></rect><path fill="#2f627c" d="M99.06 246.79l3.79-3.46 1.84 2-3.8 3.46a4.63 4.63 0 10-1.83-2zM127.38 220.94l-3.79 3.46 1.84 2 3.79-3.46a4.63 4.63 0 11-1.84-2z"></path><path fill="#387694" d="M121.13,228.49h0a.49.49,0,0,1,0,.69L108.16,241a.48.48,0,0,1-.68,0h0a.47.47,0,0,1,0-.68l12.94-11.81A.48.48,0,0,1,121.13,228.49Z"></path><path fill="#bf7968" d="M113.56,232.82c.31.12.61.25.91.39s.8.48,1.1.18,0-.61-.25-.81a5.24,5.24,0,0,0-1.45-1.07,7.73,7.73,0,0,0-1.8-.24,2.57,2.57,0,0,1-1.8-1.16c-.86.74-1.92,1.7-2.56,2.29a12.16,12.16,0,0,1,1,1.37c.23.52.31,1.08.55,1.59a6.4,6.4,0,0,0,1.88,2.22c.26.2.6.49.94.34.1,0,.17-.19.24-.22s.3.08.42.1a.83.83,0,0,0,.79-.18.48.48,0,0,0-.07-.64c.38.18.94.38,1.27.2s.15-.44,0-.64a1.15,1.15,0,0,0,1.08,0c.27-.21.17-.48,0-.71a4.49,4.49,0,0,0-1.08-.81,3.86,3.86,0,0,1-1.15-1.63,3.9,3.9,0,0,1-.2-.47C113.32,232.71,113.35,232.75,113.56,232.82Z"></path><path fill="#ffd471" d="M108.92,225.92c-.88-1.54-2-2.93-2.9-4.44-1.11-1.81-1.14-3.65-1.29-5.7,0-.13,0-.25,0-.38a11.16,11.16,0,0,0,2.15-1.17,4,4,0,0,0,1.32-2,10.2,10.2,0,0,0,.26-3.59s-.72-2-.8-2.46c-.23-1.55.43-4.79-.92-4.66A26.19,26.19,0,0,0,84,205.85a26.46,26.46,0,0,0-7.22,8.52c-.39.74-2,4.19-2,5,0,.3,7.75,4.24,10.07,4.92,1.15.33,6.54.95,7.88,1.79a12.33,12.33,0,0,1,4.69-6.65c.23-.17.47-.31.72-.46a10.78,10.78,0,0,0,1.81,5.15c1,1.44,2.33,2.73,3.49,4.06,1.37,1.54,2.69,3.14,4.18,4.57a5.64,5.64,0,0,1,3.61-2.13A37.89,37.89,0,0,0,108.92,225.92Z"></path><path fill="#ffbc33" d="M106 201.53c.55 1.32.32 2.84.56 4.23a7.58 7.58 0 001.48 3.47s.11 0 .07-.07a7.52 7.52 0 01-1.49-3.67c-.2-1.32 0-2.73-.53-4 0-.06-.12 0-.09 0zM104.75 215.32c.42-3 .82-6.23-.48-9.11a0 0 0 10-.08 0c1.28 2.86.88 6 .47 9 0 .06.09.09.09 0zM98.1 218.92l-.84-4.61a19.15 19.15 0 01-.49-4.94 7.66 7.66 0 011.39-4.08 4.06 4.06 0 013.87-1.63 0 0 0 100-.09 4 4 0 00-3.5 1.13 6.7 6.7 0 00-1.78 3.81 14.54 14.54 0 00.25 5.05q.48 2.7 1 5.38c0 .06.1 0 .09 0z"></path><path fill="#a2ddd0" d="M223.74 265.67s-15.35-28.85-2.88-28.55c5.13.13 9.56 23.07 9.56 23.07s-1-20.94 9.24-17.65c5.55 1.78-2.84 17.65-2.84 17.65s7.6-10.25 11.87-7.33c7 4.74-5.82 12.89-5.82 12.89zM217 265.65s-2.7-15.28-8.65-15c-4.25.19-.41 10.54 3.19 15z"></path><path fill="#e0fbf0" d="M227.47 265.69l-6.4-22.62a.27.27 0 00-.35-.19.27.27 0 00-.19.35l6.34 22.46zM232.76 265.71l4.43-18.3a.28.28 0 00-.21-.34.29.29 0 00-.35.2l-4.46 18.44zM214.21 265.64l-4.09-10.21a.28.28 0 00-.37-.16.3.3 0 00-.17.37l4 10zM237.46 265.73l8-9.08a.28.28 0 000-.4.29.29 0 00-.41 0l-8.38 9.45z"></path><path fill="#ffa18a" d="M305.9,253.32l-5.11-1.89c.25-.57.5-1.15.71-1.74a51.34,51.34,0,0,0,1.74-6.23,26.93,26.93,0,0,0,.76-6.13,21.64,21.64,0,0,1,.1-3.32,9,9,0,0,1,.74-2.43l8,1c-.62,1.39-1.93,4.44-2,6,0,.85,0,1.68-.12,2.51a18,18,0,0,1-.47,2.41,44.64,44.64,0,0,1-4.14,9.39Z"></path><path fill="#ffd471" d="M300.72,251.4c.13-.52.26-1.05.4-1.57a45.21,45.21,0,0,0,5.79,2.07l-.72,1.53Z"></path><path fill="#12252e" d="M290.91,259.41a2.45,2.45,0,0,1,1.63-1c1.23-.3,4.65,0,5.09-.2a3.15,3.15,0,0,0,1.58-2c.57-1.74,1-3.55,1.48-5.32a17.39,17.39,0,0,0,5.93,2.12s-1.4,3-2.09,4.47a15,15,0,0,0-.91,2.24,17.77,17.77,0,0,0-.4,2.08,13.26,13.26,0,0,1-.44,2.06l-.14.36c-.56.26-1.52-.13-2-.32a34.56,34.56,0,0,0-3.38-1.43c-1.54-.46-3.12-.76-4.64-1.26a8,8,0,0,1-1.45-.61A.85.85,0,0,1,290.91,259.41Z"></path><path fill="#ee9681" d="M280.12,205.67h.62l-.18,0c-.18,0-.67,0-.75.28s.29.32.46.35a9.24,9.24,0,0,0,1.48.2,6.7,6.7,0,0,0,1.52-.35,9.21,9.21,0,0,1,1.57-.18c1.11-.08,2.46-.49,3.47.16.23-.55.93-3.14.91-3.15a10.36,10.36,0,0,0-1.12-.07,5.24,5.24,0,0,1-1.18-.23,6.06,6.06,0,0,1-1.92-1.11,3,3,0,0,0-1.42-.72,6.18,6.18,0,0,0-1-.05c-.19,0-.58,0-.73.1s.13.57.35.65a2.79,2.79,0,0,0,.39.1c.05,0,.29.06.3.1a3.59,3.59,0,0,1-.08.35l-.15,0a4.29,4.29,0,0,1-1,.23c-.77.17-1.55.29-2.33.41-.26,0-.8.08-.58.48a.51.51,0,0,0,.28.24c-.32,0-.76.14-.71.48a.33.33,0,0,0,.29.25c.24.07.5.11.74.16a4.53,4.53,0,0,0,.81.12,5.88,5.88,0,0,0,.71-.07l.85-.07a4.6,4.6,0,0,1-2,.5c-.24,0-1.12-.2-1,.3S279.78,205.66,280.12,205.67Z"></path><path fill="#25716d" d="M288.15,202.88a74.58,74.58,0,0,0,9.56-.59,10.16,10.16,0,0,0,4.72-1.52,38.53,38.53,0,0,0,3.74-4.7l3.3,4.9a51.84,51.84,0,0,1-3.68,4.32c-2,1.72-5.38,1.66-7.37,1.74-1.33.05-8.72-.07-11.1-1.08A6.75,6.75,0,0,0,288.15,202.88Z"></path><path fill="#2f627c" d="M288.31,192.86l-2.33-.27a1.18,1.18,0,0,1-.9-.71l-.82-1.93a1.13,1.13,0,0,1,.12-1.12l1.45-1.81a.75.75,0,0,0-.06-1l-2.89-2.82a.8.8,0,0,0-1-.06L280,184.56a1.21,1.21,0,0,1-1.15.11l-2-.8a1.15,1.15,0,0,1-.73-.87l-.28-2.28a.78.78,0,0,0-.76-.67H271a.78.78,0,0,0-.76.67L270,183a1.15,1.15,0,0,1-.73.87l-2,.8a1.21,1.21,0,0,1-1.15-.11l-1.85-1.42a.8.8,0,0,0-1,.06L260.37,186a.75.75,0,0,0-.06,1l1.45,1.81a1.1,1.1,0,0,1,.12,1.12l-.82,1.93a1.18,1.18,0,0,1-.9.71l-2.33.27a.78.78,0,0,0-.68.75v4a.78.78,0,0,0,.68.75l2.33.27a1.16,1.16,0,0,1,.9.71l.82,1.93a1.1,1.1,0,0,1-.12,1.12l-1.45,1.81a.75.75,0,0,0,.06,1l2.89,2.82a.8.8,0,0,0,1,.06l1.85-1.42a1.18,1.18,0,0,1,1.15-.11l2,.8a1.15,1.15,0,0,1,.73.87l.28,2.28a.78.78,0,0,0,.76.67h4.1a.78.78,0,0,0,.76-.67l.28-2.28a1.15,1.15,0,0,1,.73-.87l2-.8a1.18,1.18,0,0,1,1.15.11l1.85,1.42a.8.8,0,0,0,1-.06l2.89-2.82a.75.75,0,0,0,.06-1l-1.45-1.81a1.13,1.13,0,0,1-.12-1.12l.82-1.93a1.16,1.16,0,0,1,.9-.71l2.33-.27a.78.78,0,0,0,.68-.75v-4A.78.78,0,0,0,288.31,192.86Zm-4.6,5.19-.66-.17a.37.37,0,0,1-.26-.42l.16-1.18a.36.36,0,0,1,.36-.33H284A11.18,11.18,0,0,1,283.71,198.05Zm-1,2.6-.59-.33a.36.36,0,0,1-.15-.46l.47-1.11a.39.39,0,0,1,.45-.22l.65.17A10.21,10.21,0,0,1,282.7,200.65Zm-18.85-5a9.23,9.23,0,1,1,9.22,9A9.11,9.11,0,0,1,263.85,195.61Zm-1.24,3.09.65-.17a.38.38,0,0,1,.45.22l.47,1.11a.35.35,0,0,1-.16.46l-.58.33A10.21,10.21,0,0,1,262.61,198.7Zm-.18-5.53.66.17a.37.37,0,0,1,.26.42l-.15,1.18a.39.39,0,0,1-.37.34h-.68A11.28,11.28,0,0,1,262.43,193.17Zm1-2.6.58.33a.35.35,0,0,1,.16.46l-.47,1.11a.37.37,0,0,1-.45.22l-.65-.17A10.21,10.21,0,0,1,263.44,190.57ZM262.15,196h.68a.38.38,0,0,1,.37.33l.15,1.18a.37.37,0,0,1-.26.42l-.66.17A11.18,11.18,0,0,1,262.15,196Zm21.38-3.43-.65.17a.38.38,0,0,1-.45-.22l-.47-1.11a.36.36,0,0,1,.15-.46l.59-.33A10.21,10.21,0,0,1,283.53,192.52Zm-.22,2.76a.37.37,0,0,1-.36-.34l-.16-1.18a.37.37,0,0,1,.26-.42l.66-.17a11.28,11.28,0,0,1,.28,2.11Zm-1-5.29-.58.33a.4.4,0,0,1-.49-.11l-.74-1a.36.36,0,0,1,0-.49l.48-.47A10.25,10.25,0,0,1,282.35,190Zm-1.8-2.16-.48.46a.38.38,0,0,1-.5,0l-1-.73a.38.38,0,0,1-.11-.48l.34-.58A11.42,11.42,0,0,1,280.55,187.83Zm-2.32-1.63-.33.57a.37.37,0,0,1-.48.14l-1.14-.45a.37.37,0,0,1-.23-.44l.18-.63A11.31,11.31,0,0,1,278.23,186.2Zm-2.67-1-.17.63a.38.38,0,0,1-.42.27l-1.22-.16a.37.37,0,0,1-.34-.36v-.66A10.81,10.81,0,0,1,275.56,185.22Zm-2.83-.28v.66a.37.37,0,0,1-.34.36l-1.22.16a.38.38,0,0,1-.42-.27l-.18-.63A11,11,0,0,1,272.73,184.94Zm-2.82.45.18.63a.37.37,0,0,1-.23.44l-1.14.45a.37.37,0,0,1-.48-.14l-.33-.57A11.31,11.31,0,0,1,269.91,185.39Zm-2.59,1.14.33.58a.36.36,0,0,1-.11.48l-1,.73a.38.38,0,0,1-.5,0l-.48-.46A11,11,0,0,1,267.32,186.53Zm-2.21,1.77.48.47a.37.37,0,0,1,0,.49l-.75,1a.4.4,0,0,1-.49.11l-.58-.33A10.25,10.25,0,0,1,265.11,188.3Zm-1.32,12.93.58-.32a.37.37,0,0,1,.49.1l.75,1a.37.37,0,0,1,0,.49l-.48.46A9.77,9.77,0,0,1,263.79,201.23Zm1.8,2.16.48-.47a.38.38,0,0,1,.5,0l1,.73a.36.36,0,0,1,.11.48l-.33.57A10.38,10.38,0,0,1,265.59,203.39Zm2.32,1.63.33-.57a.39.39,0,0,1,.48-.15l1.14.46a.37.37,0,0,1,.23.44l-.18.63A11.31,11.31,0,0,1,267.91,205Zm2.66,1,.18-.64a.36.36,0,0,1,.42-.25l1.22.15a.38.38,0,0,1,.34.36v.66A11,11,0,0,1,270.57,206Zm2.84.28v-.66a.38.38,0,0,1,.34-.36l1.22-.15a.37.37,0,0,1,.42.25l.17.64A10.81,10.81,0,0,1,273.41,206.28Zm2.82-.45-.18-.63a.37.37,0,0,1,.23-.44l1.14-.46a.4.4,0,0,1,.48.15l.33.57A11.31,11.31,0,0,1,276.23,205.83Zm2.6-1.15-.34-.57a.38.38,0,0,1,.11-.48l1-.73a.38.38,0,0,1,.5,0l.48.47A10.73,10.73,0,0,1,278.83,204.68Zm2.2-1.77-.48-.46a.36.36,0,0,1,0-.49l.74-1a.37.37,0,0,1,.49-.1l.58.32A9.77,9.77,0,0,1,281,202.91Z"></path><path fill="#ffa18a" d="M280.91 208.32c.21 0 .41 0 .62 0l-.19 0c-.17 0-.67 0-.75.27s.28.33.45.36a9.45 9.45 0 001.48.22 7.35 7.35 0 001.53-.34 11.6 11.6 0 011.57-.16c1.11 0 2.47-.45 3.47.22.23-.55 1-3.14 1-3.14a10.38 10.38 0 00-1.11-.09 4.68 4.68 0 01-1.18-.25 5.78 5.78 0 01-1.91-1.13 2.92 2.92 0 00-1.41-.74 6.11 6.11 0 00-1-.06c-.19 0-.58 0-.73.09s.12.56.35.66l.38.1s.28.06.31.1-.07.24-.1.35a.58.58 0 01-.14 0 4.49 4.49 0 01-1 .23c-.77.15-1.55.26-2.34.38-.25 0-.8.06-.58.47a.57.57 0 00.27.24c-.31 0-.76.13-.71.47 0 .15.16.22.28.26s.5.11.75.16a3.62 3.62 0 00.79.13 5.83 5.83 0 00.72-.06l.85 0a4.71 4.71 0 01-2 .46c-.24 0-1.11-.21-1.05.28S280.56 208.31 280.91 208.32zM323.54 251.8l-5.44.43c0-.63 0-1.25-.08-1.88a53 53 0 00-1-6.38 26.73 26.73 0 00-1.89-5.88 21.08 21.08 0 01-1.29-3.06 8.63 8.63 0 01-.36-2.52l7.73-.6a11.73 11.73 0 00.67 4.48c.33.77.69 1.53.95 2.33a17.57 17.57 0 01.58 2.38 44 44 0 01.18 10.26C323.55 251.52 323.55 251.66 323.54 251.8z"></path><path fill="#ffd471" d="M318,252.24c-.1-.54-.2-1.07-.29-1.6a43,43,0,0,0,6.13-.54s0,.75,0,1.68Z"></path><path fill="#12252e" d="M312.48,263.62a2.44,2.44,0,0,1,1-1.61c1-.79,4.2-2,4.53-2.33a3.07,3.07,0,0,0,.58-2.5c-.21-1.83-.59-3.65-.88-5.46a17.52,17.52,0,0,0,6.26-.56s0,3.29,0,4.94a14.79,14.79,0,0,0,.12,2.4,16.27,16.27,0,0,0,.5,2.06,12.06,12.06,0,0,1,.47,2.06l0,.38c-.4.48-1.44.52-1.93.54a34.7,34.7,0,0,0-3.67.12c-1.59.23-3.14.61-4.74.8a7.63,7.63,0,0,1-1.57.06A.86.86,0,0,1,312.48,263.62Z"></path><path fill="#2a817d" d="M288.54,205.61a74.62,74.62,0,0,0,9.57-.59,10.06,10.06,0,0,0,4.72-1.53,30.06,30.06,0,0,0,3.36-4l3.68,4.22a50,50,0,0,1-3.69,4.31c-2,1.73-5.38,1.67-7.36,1.75-1.33.05-8.72-.07-11.11-1.08A6.62,6.62,0,0,0,288.54,205.61Z"></path><path fill="#ffa18a" d="M316.73,183.88c.16-.73.3-1.22.3-1.22a1.75,1.75,0,0,1-1.27-1.45s-.21-6.28-2.28-6.75c-2.47-.55-3.68,0-4.45,2.37a2.94,2.94,0,0,1-1.49,1.7.33.33,0,0,0,.17.59l.36.06a.16.16,0,0,1,.13.17,7.78,7.78,0,0,0,0,2c.18,1.42-.16,2.84,2.24,3.08l.82,0L310,189.07c.75,1.25,4.07-.43,4.94-.6a9.43,9.43,0,0,0,2.08-.74A13.1,13.1,0,0,1,316.73,183.88Z"></path><path fill="#a55852" d="M317.34,185.74a4.26,4.26,0,0,0,1.12.48,1.75,1.75,0,0,0,1.89-.82,2.47,2.47,0,0,0,.28-2,2.37,2.37,0,0,0-1.83-1.85s2-1.25,1.92-4.64a6.59,6.59,0,0,0-2.47-4.81,6.82,6.82,0,0,0-4.13-1.25c-1.2.05-3.07.1-3.87,1.11a3.33,3.33,0,0,0,.83,4.49c.31.22.72.33.95.66s.15.74.25,1.11a7.59,7.59,0,0,0,1,2,13.5,13.5,0,0,1,.87,2.24,4.83,4.83,0,0,0,1.06,1.58,15,15,0,0,0,1.78,1.5Z"></path><path fill="#2a817d" d="M318.45,204.1c-.52-1.78-.05-3.63.29-5.4a28.53,28.53,0,0,0,.6-4.78,9.37,9.37,0,0,0-2.43-6.92,20,20,0,0,1-3.32,1.16,15.88,15.88,0,0,1-3.32-.11c-2.23,2.8-2.35,3.53-3.6,6.68,0,0-1.24,2.24-1.2,7.34,0,.91.06,1.81.16,2.73.16,1.45.37,2.9.4,4.36a29.84,29.84,0,0,1-.38,4.82,171.27,171.27,0,0,1-4,18.34c0,.1,12.75,1,15.16,1.21,4.47.39,5.7-.11,9.74-1.81C325.87,223.18,318.86,205.52,318.45,204.1Z"></path><path fill="#236b68" d="M305.7 200.34a54.65 54.65 0 003.64-4.64 29.21 29.21 0 011.94-2.38 5.33 5.33 0 012.51-1.69 2.29 2.29 0 012.77 1.27c0 .06.12 0 .1 0a2.21 2.21 0 00-1.74-1.39 3.56 3.56 0 00-2.65.8 13 13 0 00-2.23 2.34c-.66.85-1.29 1.72-1.93 2.58a33.27 33.27 0 01-2.48 3.07s0 .11.07.07zM306.07 208.2c1.78-1.2 3.56-2.41 5.23-3.76a26 26 0 004.58-4.55 4.28 4.28 0 001-3.15c0-.06-.1 0-.09 0a4.15 4.15 0 01-1 3.07 19.83 19.83 0 01-2.12 2.37 40.63 40.63 0 01-4.76 3.92c-1 .67-1.92 1.33-2.89 2 0 0 0 .12.05.09z"></path><path fill="#ffd471" d="M244.34,145.72l-.77-.18a.58.58,0,0,1-.43-.58s0-.26,0-.63,0-.62,0-.62a.58.58,0,0,1,.43-.58l.77-.18a.51.51,0,0,0,.38-.57l-.13-.73a.53.53,0,0,0-.56-.41l-.78.09a.6.6,0,0,1-.62-.4l-.44-1.17a.59.59,0,0,1,.21-.69l.66-.43a.5.5,0,0,0,.16-.66l-.37-.64a.54.54,0,0,0-.67-.2l-.72.35a.62.62,0,0,1-.71-.17l-.83-.95a.6.6,0,0,1,0-.72l.47-.63a.5.5,0,0,0-.08-.68l-.57-.47a.52.52,0,0,0-.7,0l-.55.56a.62.62,0,0,1-.73.08l-1.11-.62a.6.6,0,0,1-.29-.67l.22-.74a.5.5,0,0,0-.31-.61l-.71-.25a.51.51,0,0,0-.64.27l-.32.71a.61.61,0,0,1-.66.32l-1.26-.21a.59.59,0,0,1-.5-.53l0-.77a.52.52,0,0,0-.51-.47h-.76a.52.52,0,0,0-.51.47l-.05.77a.59.59,0,0,1-.5.53l-1.26.21a.61.61,0,0,1-.66-.32l-.32-.71a.51.51,0,0,0-.64-.27l-.71.25a.5.5,0,0,0-.31.61l.22.74a.6.6,0,0,1-.29.67l-1.11.62a.62.62,0,0,1-.73-.08l-.55-.56a.52.52,0,0,0-.7,0l-.57.47a.49.49,0,0,0-.08.68l.47.63a.59.59,0,0,1-.05.72l-.82.95a.63.63,0,0,1-.72.17l-.71-.35a.54.54,0,0,0-.67.2l-.37.64a.5.5,0,0,0,.16.66l.66.43a.59.59,0,0,1,.21.69l-.44,1.17a.61.61,0,0,1-.62.4l-.78-.09a.52.52,0,0,0-.56.41l-.13.73a.5.5,0,0,0,.38.57l.77.18a.58.58,0,0,1,.43.58s0,.26,0,.62,0,.63,0,.63a.58.58,0,0,1-.43.58l-.77.18a.5.5,0,0,0-.38.57l.13.73a.5.5,0,0,0,.56.4l.78-.08a.61.61,0,0,1,.62.4l.44,1.17a.6.6,0,0,1-.21.69l-.66.43a.5.5,0,0,0-.16.66l.37.64a.54.54,0,0,0,.67.2l.71-.35a.63.63,0,0,1,.72.17l.82,1a.59.59,0,0,1,.05.72l-.47.63a.49.49,0,0,0,.08.68l.58.47a.51.51,0,0,0,.69,0l.55-.56a.62.62,0,0,1,.73-.08l1.11.62a.6.6,0,0,1,.29.67l-.22.74a.5.5,0,0,0,.31.61l.71.25a.51.51,0,0,0,.64-.27l.32-.71a.61.61,0,0,1,.66-.32l1.26.21a.58.58,0,0,1,.5.53l.05.77a.52.52,0,0,0,.51.47h.76a.52.52,0,0,0,.51-.47l0-.77a.58.58,0,0,1,.5-.53l1.26-.21a.61.61,0,0,1,.66.32l.32.71a.51.51,0,0,0,.64.27l.71-.25a.5.5,0,0,0,.31-.61l-.22-.74a.6.6,0,0,1,.29-.67l1.11-.62a.62.62,0,0,1,.73.08l.55.56a.52.52,0,0,0,.7,0l.57-.47a.5.5,0,0,0,.08-.68l-.47-.63a.6.6,0,0,1,0-.72l.83-1a.62.62,0,0,1,.71-.17l.72.35a.54.54,0,0,0,.67-.2l.37-.64a.5.5,0,0,0-.16-.66l-.66-.43a.6.6,0,0,1-.21-.69l.44-1.17a.6.6,0,0,1,.62-.4l.78.08a.51.51,0,0,0,.56-.4l.13-.73A.51.51,0,0,0,244.34,145.72Zm-12.49-10.84a.32.32,0,0,1,.32-.32h0a10.12,10.12,0,0,1,7.16,4,.31.31,0,0,1,0,.25.34.34,0,0,1-.16.21l-1.41.79a.3.3,0,0,1-.16.05.33.33,0,0,1-.26-.13,7.84,7.84,0,0,0-5.29-3,.32.32,0,0,1-.28-.32ZM223,138.6a10.12,10.12,0,0,1,7.16-4h0a.32.32,0,0,1,.32.32v1.59a.32.32,0,0,1-.28.32,7.84,7.84,0,0,0-5.29,3,.33.33,0,0,1-.26.13.3.3,0,0,1-.16-.05l-1.42-.79a.36.36,0,0,1-.15-.21A.31.31,0,0,1,223,138.6Zm-.54,9.91a.34.34,0,0,1-.17.05l-.1,0a.32.32,0,0,1-.19-.17,9.59,9.59,0,0,1,0-8.07.29.29,0,0,1,.19-.17l.1,0a.47.47,0,0,1,.17,0l1.41.8a.31.31,0,0,1,.13.4,7.5,7.5,0,0,0,0,6,.31.31,0,0,1-.13.4Zm8.05,5.28a.33.33,0,0,1-.1.23.31.31,0,0,1-.22.09h0a10.12,10.12,0,0,1-7.16-4,.32.32,0,0,1,0-.25.36.36,0,0,1,.15-.21l1.42-.79a.3.3,0,0,1,.16,0,.33.33,0,0,1,.26.13,7.84,7.84,0,0,0,5.29,3,.32.32,0,0,1,.28.32Zm.65-3.45a6,6,0,1,1,6.15-6A6.08,6.08,0,0,1,231.2,150.34Zm8.16-.27a10.12,10.12,0,0,1-7.16,4h0A.31.31,0,0,1,232,154a.33.33,0,0,1-.1-.23V152.2a.32.32,0,0,1,.28-.32,7.84,7.84,0,0,0,5.29-3,.33.33,0,0,1,.26-.13.3.3,0,0,1,.16,0l1.41.79a.34.34,0,0,1,.16.21A.32.32,0,0,1,239.36,150.07Zm1-1.7a.35.35,0,0,1-.19.17l-.1,0a.34.34,0,0,1-.17-.05l-1.41-.79a.31.31,0,0,1-.13-.4,7.5,7.5,0,0,0,0-6,.31.31,0,0,1,.13-.4l1.41-.8a.47.47,0,0,1,.17,0l.1,0a.32.32,0,0,1,.19.17,9.59,9.59,0,0,1,0,8.07Z"></path><path fill="#a2ddd0" d="M256.4,158.17h-.66a.43.43,0,0,1-.4-.31l-.22-.79a.42.42,0,0,1,.19-.47l.57-.32a.32.32,0,0,0,.12-.44l-.8-1.36a.33.33,0,0,0-.45-.12l-.58.33a.44.44,0,0,1-.5-.08l-.6-.58a.42.42,0,0,1-.08-.5l.34-.56a.33.33,0,0,0-.12-.44l-1.39-.78a.35.35,0,0,0-.46.11l-.33.56a.41.41,0,0,1-.48.18l-.81-.21a.42.42,0,0,1-.32-.39v-.65a.33.33,0,0,0-.33-.32h-1.61a.33.33,0,0,0-.32.32V152a.42.42,0,0,1-.33.39l-.81.21a.4.4,0,0,1-.47-.18l-.34-.56a.33.33,0,0,0-.45-.11l-1.39.78a.33.33,0,0,0-.12.44l.34.56a.44.44,0,0,1-.08.5l-.6.58a.44.44,0,0,1-.5.08l-.58-.33a.33.33,0,0,0-.45.12l-.8,1.36a.32.32,0,0,0,.12.44l.57.32a.42.42,0,0,1,.19.47l-.22.79a.43.43,0,0,1-.4.31h-.67a.33.33,0,0,0-.32.33v1.57a.33.33,0,0,0,.32.32h.67a.43.43,0,0,1,.4.31l.22.8a.42.42,0,0,1-.19.46l-.57.33a.32.32,0,0,0-.12.44l.8,1.36a.33.33,0,0,0,.45.11l.58-.32a.41.41,0,0,1,.5.08l.6.58a.43.43,0,0,1,.08.49l-.34.57a.31.31,0,0,0,.12.43l1.39.79a.34.34,0,0,0,.45-.12l.34-.56A.4.4,0,0,1,246,166l.81.21a.42.42,0,0,1,.33.39v.65a.32.32,0,0,0,.32.32h1.61a.32.32,0,0,0,.33-.32v-.65a.43.43,0,0,1,.32-.39l.81-.21a.41.41,0,0,1,.48.18l.33.56a.35.35,0,0,0,.46.12l1.39-.79a.31.31,0,0,0,.12-.43L253,165a.41.41,0,0,1,.08-.49l.6-.58a.41.41,0,0,1,.5-.08l.58.32a.34.34,0,0,0,.45-.11l.8-1.36a.32.32,0,0,0-.12-.44l-.57-.33a.42.42,0,0,1-.19-.46l.22-.8a.43.43,0,0,1,.4-.31h.66a.33.33,0,0,0,.33-.32V158.5A.33.33,0,0,0,256.4,158.17Zm-1.94.91h-1a5,5,0,0,0-.58-2.14l.89-.5A5.91,5.91,0,0,1,254.46,159.08Zm-6.38,4.83a4.89,4.89,0,0,1-2-.52l-.35-.2a4.68,4.68,0,0,1-1.45-1.42,3.24,3.24,0,0,1-.21-.35,4.52,4.52,0,0,1-.53-1.94c0-.06,0-.13,0-.2s0-.13,0-.2a4.52,4.52,0,0,1,.53-1.93,2.5,2.5,0,0,1,.21-.35,4.57,4.57,0,0,1,1.45-1.42l.35-.2a4.73,4.73,0,0,1,2-.52h.42a4.73,4.73,0,0,1,2,.52l.35.2a4.68,4.68,0,0,1,1.45,1.42,4.05,4.05,0,0,1,.21.35,4.52,4.52,0,0,1,.53,1.93v.4a4.52,4.52,0,0,1-.53,1.94c-.07.12-.13.23-.21.35a4.79,4.79,0,0,1-1.45,1.42l-.35.2a4.89,4.89,0,0,1-2,.52h-.42Zm5.45-7.82-.89.5A5.18,5.18,0,0,0,251,155l.51-.87A6.09,6.09,0,0,1,253.53,156.09ZM251.2,154l-.52.87a5.15,5.15,0,0,0-2.18-.57v-1A6.16,6.16,0,0,1,251.2,154Zm-3.12-.71v1a5.15,5.15,0,0,0-2.18.57l-.52-.87A6.16,6.16,0,0,1,248.08,153.25Zm-3.06.91.52.87a5.07,5.07,0,0,0-1.6,1.56l-.9-.5A6.29,6.29,0,0,1,245,154.16Zm-2.18,2.28.89.5a4.88,4.88,0,0,0-.58,2.14h-1A5.91,5.91,0,0,1,242.84,156.44Zm-.72,3h1a4.84,4.84,0,0,0,.58,2.14l-.89.51A6,6,0,0,1,242.12,159.48Zm.92,3,.9-.5a5.07,5.07,0,0,0,1.6,1.56l-.52.88A6.22,6.22,0,0,1,243,162.47Zm2.34,2.14.52-.88a5,5,0,0,0,2.18.58v1A6.29,6.29,0,0,1,245.38,164.61Zm3.12.71v-1a5,5,0,0,0,2.18-.58l.52.88A6.29,6.29,0,0,1,248.5,165.32Zm3.05-.91-.51-.88a5.18,5.18,0,0,0,1.6-1.56l.89.5A6,6,0,0,1,251.55,164.41Zm2.19-2.28-.89-.51a5,5,0,0,0,.58-2.14h1A6,6,0,0,1,253.74,162.13Z"></path><g opacity=".3"><g opacity=".6"><path fill="#98d4fc" d="M177.11,150.45a2.61,2.61,0,1,1,2.61-2.6A2.61,2.61,0,0,1,177.11,150.45Zm0-4.62a2,2,0,1,0,2,2A2,2,0,0,0,177.11,145.83Z"></path></g><g opacity=".6"><path fill="#98d4fc" d="M3.24,197.85a3.24,3.24,0,1,1,3.23-3.24A3.25,3.25,0,0,1,3.24,197.85Zm0-5.74a2.5,2.5,0,1,0,2.5,2.5A2.5,2.5,0,0,0,3.24,192.11Z"></path></g><g opacity=".6"><path fill="#98d4fc" d="M86.75,178.08A4.06,4.06,0,1,1,90.81,174,4.06,4.06,0,0,1,86.75,178.08Zm0-7.19A3.14,3.14,0,1,0,89.89,174,3.13,3.13,0,0,0,86.75,170.89Z"></path></g><g opacity=".6"><path fill="#98d4fc" d="M316.66,140.12a3.23,3.23,0,1,1,3.23-3.23A3.23,3.23,0,0,1,316.66,140.12Zm0-5.73a2.5,2.5,0,1,0,2.5,2.5A2.51,2.51,0,0,0,316.66,134.39Z"></path></g><g opacity=".7"><path fill="#98d4fc" d="M350.66,171.67a2.41,2.41,0,1,1,2.41-2.41A2.41,2.41,0,0,1,350.66,171.67Zm0-4.27a1.86,1.86,0,1,0,1.86,1.86A1.87,1.87,0,0,0,350.66,167.4Z"></path></g><g opacity=".7"><path fill="#98d4fc" d="M68.83,196.9a2.29,2.29,0,1,1,2.29-2.29A2.28,2.28,0,0,1,68.83,196.9Zm0-4.06a1.77,1.77,0,1,0,1.77,1.77A1.77,1.77,0,0,0,68.83,192.84Z"></path></g><g opacity=".7"><path fill="#98d4fc" d="M121.26,113.66a2.29,2.29,0,1,1,2.29-2.29A2.3,2.3,0,0,1,121.26,113.66Zm0-4.06a1.77,1.77,0,1,0,1.77,1.77A1.77,1.77,0,0,0,121.26,109.6Z"></path></g><g opacity=".7"><path fill="#98d4fc" d="M23.22,223.63a2.29,2.29,0,1,1,2.29-2.29A2.3,2.3,0,0,1,23.22,223.63Zm0-4.06A1.77,1.77,0,1,0,25,221.34,1.77,1.77,0,0,0,23.22,219.57Z"></path></g><g opacity=".6"><path fill="#98d4fc" d="M336.52,211.13a3.37,3.37,0,1,1,3.38-3.37A3.37,3.37,0,0,1,336.52,211.13Zm0-6a2.61,2.61,0,1,0,2.61,2.61A2.61,2.61,0,0,0,336.52,205.15Z"></path></g><g opacity=".6"><path fill="#98d4fc" d="M33.87,143.19A2.16,2.16,0,1,1,36,141,2.16,2.16,0,0,1,33.87,143.19Zm0-3.83A1.67,1.67,0,1,0,35.54,141,1.67,1.67,0,0,0,33.87,139.36Z"></path></g><g opacity=".6"><path fill="#98d4fc" d="M224.15,90.71a2.58,2.58,0,1,1,2.57-2.57A2.57,2.57,0,0,1,224.15,90.71Zm0-4.57a2,2,0,1,0,2,2A2,2,0,0,0,224.15,86.14Z"></path></g></g><path fill="#ffd471" d="M66.91 59.73l.51-.3a5.74 5.74 0 001.47 1.24.31.31 0 00.37-.1.72.72 0 00.11-.45 3.1 3.1 0 00-.2-.95l-.3-.89c.24-.08.48-.16.71-.26a2.8 2.8 0 00.89-.5 1 1 0 00.29-.38.23.23 0 00-.17-.3 1.86 1.86 0 00-.52-.11h-.56c-.33 0-.66.08-1 .11 0-.24 0-.47-.07-.7a2.88 2.88 0 00-.25-.88.31.31 0 00-.28-.2c-.15 0-.21.16-.27.27a5.33 5.33 0 00-.51 1.55 6.82 6.82 0 00-.79-.08h-.43a1.11 1.11 0 00-.36 0 .27.27 0 00-.2.23.44.44 0 00.12.3 2.43 2.43 0 00.57.49l.66.44a5 5 0 00-.51.61c-.08.11-.16.23-.23.35a1.81 1.81 0 00-.18.37.35.35 0 000 .31.37.37 0 00.32.09A2.38 2.38 0 0066.91 59.73zM199.68 40.15l.43-.19a4.62 4.62 0 001 1.13.27.27 0 00.3 0 .56.56 0 00.13-.35 2.23 2.23 0 00-.06-.77l-.15-.73.59-.13a2.59 2.59 0 00.75-.31.87.87 0 00.27-.27c.05-.11 0-.2-.11-.26a1.44 1.44 0 00-.4-.13A3.11 3.11 0 00202 38h-.79a5.28 5.28 0 000-.56 2.46 2.46 0 00-.1-.72c0-.09-.11-.18-.21-.18s-.18.1-.23.18a4 4 0 00-.56 1.18c-.21-.06-.41-.11-.62-.15l-.33-.05a1 1 0 00-.3 0 .21.21 0 00-.18.16.4.4 0 00.07.25 1.86 1.86 0 00.4.44l.48.42a6.14 6.14 0 00-.47.42 2.65 2.65 0 00-.21.26 1 1 0 00-.18.27.28.28 0 000 .25.27.27 0 00.24.1A1.94 1.94 0 00199.68 40.15zM174.73 28.45l.44-.19a4.41 4.41 0 001 1.13.26.26 0 00.3 0 .56.56 0 00.13-.35 2.23 2.23 0 00-.06-.77l-.15-.73.59-.13a2.59 2.59 0 00.75-.31.87.87 0 00.27-.27c.05-.11 0-.2-.11-.26a1.7 1.7 0 00-.4-.13 3.11 3.11 0 00-.44-.06h-.79a5.23 5.23 0 000-.56 2.46 2.46 0 00-.1-.72.25.25 0 00-.21-.18c-.11 0-.18.1-.23.18a4.26 4.26 0 00-.56 1.18 6.23 6.23 0 00-.62-.15l-.33 0a.94.94 0 00-.29 0 .23.23 0 00-.19.16.45.45 0 00.07.25 2.43 2.43 0 00.4.45l.48.41a6.14 6.14 0 00-.47.42A2.65 2.65 0 00174 28a1.81 1.81 0 00-.18.27.28.28 0 000 .25.27.27 0 00.24.1A1.71 1.71 0 00174.73 28.45zM112.11 21.2a.59.59 0 00.06-.53.51.51 0 00-.43-.26 2.42 2.42 0 00-.66 0c-.22 0-.45.07-.67.12a9.15 9.15 0 00-1.22.4q-.1-.64-.24-1.26a4 4 0 00-.38-1.16.72.72 0 00-.38-.37.43.43 0 00-.46.16 1.75 1.75 0 00-.28.52c-.1.21-.18.42-.26.64a12.45 12.45 0 00-.36 1.23 8.62 8.62 0 00-2.63-.2c-.21 0-.45 0-.56.22a.49.49 0 00.11.55 4.67 4.67 0 001.16.91c.32.19.66.37 1 .54-.25.47-.53.93-.78 1.41a6.58 6.58 0 00-.34.83 3.06 3.06 0 00-.17.84c0 .22.1.43.35.44a1.49 1.49 0 00.74-.2 4.74 4.74 0 001.31-1c.28-.28.55-.59.81-.89l1.15 1a4.76 4.76 0 001.29.88 1.18 1.18 0 00.74.12.55.55 0 00.38-.49 8.94 8.94 0 00-1-3l.77-.58A3.46 3.46 0 00112.11 21.2zM145 54.17a.48.48 0 000-.42.42.42 0 00-.34-.18 1.73 1.73 0 00-.51 0 4.37 4.37 0 00-.52.12 8.13 8.13 0 00-.94.34c-.07-.32-.14-.64-.23-1a2.85 2.85 0 00-.33-.88.55.55 0 00-.3-.28.32.32 0 00-.35.14 1.33 1.33 0 00-.21.41c-.07.17-.12.34-.18.51a8.42 8.42 0 00-.24 1 7.11 7.11 0 00-2.06-.07c-.15 0-.34 0-.42.2a.39.39 0 00.1.42 3.79 3.79 0 00.93.67c.26.14.53.27.8.39-.18.37-.39.74-.56 1.12a3.71 3.71 0 00-.24.66 2.11 2.11 0 00-.1.66.3.3 0 00.28.33 1.16 1.16 0 00.57-.18 3.55 3.55 0 001-.83c.21-.23.41-.48.61-.72l.93.74a3.76 3.76 0 001 .65.89.89 0 00.58.06.41.41 0 00.28-.39 6.87 6.87 0 00-.83-2.27l.58-.48A2.66 2.66 0 00145 54.17z"></path></g></g></svg>