<svg xmlns="http://www.w3.org/2000/svg" viewBox="0 0 997.86 900" id="learning-for-software-development-and-growth"><g><path fill="#d8e5ee" d="M135.47 507.91A78.07 78.07 0 1 0 213.53 586a78.16 78.16 0 0 0-78.06-78.09Zm0 119.19a41.12 41.12 0 1 1 41.12-41.1 41.16 41.16 0 0 1-41.12 41.1Z"></path><path fill="#292739" d="M150.59 642.29a1.46 1.46 0 0 1-.09-2.92 73.7 73.7 0 0 0 11.7-1.62 1.48 1.48 0 0 1 1.75 1.12 1.46 1.46 0 0 1-1.12 1.74 76 76 0 0 1-12.16 1.68Zm-12-.27h-.15a75 75 0 0 1-12.08-2.24 1.47 1.47 0 0 1 .77-2.83 72.47 72.47 0 0 0 11.61 2.16 1.46 1.46 0 0 1-.15 2.92Zm-23.15-6.33a1.6 1.6 0 0 1-.63-.14 69.12 69.12 0 0 1-10.37-6l-.25-.18a1.47 1.47 0 0 1 1.7-2.39l.25.18a64.83 64.83 0 0 0 9.92 5.76 1.47 1.47 0 0 1-.62 2.8ZM96 621.68a1.49 1.49 0 0 1-1.07-.46 65.91 65.91 0 0 1-7.57-9.71 1.47 1.47 0 1 1 2.47-1.58 63.13 63.13 0 0 0 7.17 9.28 1.46 1.46 0 0 1-.06 2.07 1.43 1.43 0 0 1-.94.4Zm-13-20.2a1.46 1.46 0 0 1-1.36-.93 61.46 61.46 0 0 1-3.41-11.85 1.46 1.46 0 1 1 2.88-.52 58.72 58.72 0 0 0 3.25 11.29 1.46 1.46 0 0 1-.82 1.9 1.49 1.49 0 0 1-.54.11Zm-4.19-23.57h-.06a1.47 1.47 0 0 1-1.41-1.52 55.15 55.15 0 0 1 1.88-12.22 1.47 1.47 0 0 1 2.83.76 52.31 52.31 0 0 0-1.78 11.57 1.46 1.46 0 0 1-1.42 1.41ZM85 554.8a1.44 1.44 0 0 1-.67-.16 1.47 1.47 0 0 1-.63-2 58.17 58.17 0 0 1 6.81-10.3 1.47 1.47 0 0 1 2.26 1.87 54.71 54.71 0 0 0-6.44 9.79 1.47 1.47 0 0 1-1.33.8Zm15.32-18.37a1.46 1.46 0 0 1-.89-2.63 49.87 49.87 0 0 1 9.75-5.8l1-.42a1.47 1.47 0 0 1 1.14 2.7l-.92.4a47.58 47.58 0 0 0-9.17 5.45 1.44 1.44 0 0 1-.88.3Zm80.68-2.11a1.46 1.46 0 0 1-.77-.22 49.06 49.06 0 0 0-10.63-4.82 1.47 1.47 0 1 1 .9-2.79 52.84 52.84 0 0 1 11.27 5.11 1.47 1.47 0 0 1-.77 2.72Zm-58.72-7.39A1.46 1.46 0 0 1 122 524a83.8 83.8 0 0 1 12.18-1.42 1.47 1.47 0 0 1 .14 2.93 80.55 80.55 0 0 0-11.75 1.36 1.43 1.43 0 0 1-.3.06Zm36-.26h-.22a113.5 113.5 0 0 0-11.85-1.09 1.47 1.47 0 0 1 .13-2.93 116.5 116.5 0 0 1 12.15 1.12 1.46 1.46 0 0 1-.21 2.91Z"></path><path fill="#eaeefa" stroke="#292739" stroke-linecap="round" stroke-linejoin="round" stroke-width="3.31" d="M107.34 439.08c-24.91-50-17.22-88.27-6.38-111.59 8.53-18.35 22.48-35 40.35-48.26a157.91 157.91 0 0 1 49.45-24.37l5.7-1.65-1.2-11.4 31.37 14L198.85 276l-1.41-13.42-8.31 2.68c-35.95 11.6-65.71 36.36-79.59 66.24-14.5 31.19-12.39 66 6.26 103.39s45.17 60 78.8 67.24c32.22 6.89 69.9-2 100.8-23.7l7.14-5-9.86-9.2 32.85-10-7.73 33.37-8.38-7.81-4.75 3.55a157.81 157.81 0 0 1-49.23 24.82c-21.31 6.31-43 7.41-62.82 3.18-25.15-5.34-60.36-22.29-85.28-72.26ZM878.57 315.21c38.78 40.18 42.94 79 39.61 104.52-2.62 20.06-10.92 40.16-24 58.14A157.8 157.8 0 0 1 854.35 516l-4.94 3.29 4.57 10.5-34.12-3.89 20.43-27.61 5.38 12.37 7.12-5.05c30.81-21.86 51.75-54.41 56-87.09 4.46-34.1-8-66.65-37-96.73s-61.11-43.7-95.36-40.46c-32.8 3.11-66.08 22.88-89 52.89l-5.3 6.94 12.13 5.84L666 366.39l-2.69-34.24 10.34 4.94 3.46-4.82a157.83 157.83 0 0 1 39.5-38.46c18.44-12.43 38.83-20 59-21.91 25.52-2.42 64.19 3.1 102.96 43.31Z"></path><path fill="#a4d2f3" d="M151.67 230.5a181.08 181.08 0 0 0-14.68 35c-14.5 48.31-8.4 102.24 15.58 146.62 7.38 13.67 16.64 26.73 29.32 35.72 6.76 4.79 14.57 8.51 19.55 15.13 12.48 16.59-.09 40.56-3.37 58.3-4.24 23-19 42.18-28.78 63.08-28 59.83-16.54 134.77 24.31 186.68s108.09 80.42 174.13 78.83c42.7-1 84.62-14.07 121.42-35.5 38.67-22.51 70.51-54.43 108.92-77.63 47.88-28.92 93.37-16.09 143.83-8.33s105.14-8.72 143.27-44.5c44.05-41.33 64.43-106.85 51.4-165.24-13.1-58.76-56.76-106.15-107.64-136.8C765.56 343.67 692.55 332.2 623.4 309c-11.48-3.85-22.23-10-33.85-13.3-14-3.94-28-4-41.67-9.57-67.55-27.61-102.48-103.04-169.26-134.03-45.75-21.24-101-20.35-146.46 1.4-34.08 16.28-62.35 43.88-80.49 77Z"></path><path fill="#fff" d="M176.05 364.46c8.29 26.62 24.25 50.7 48.79 68.28 10.41 7.46 22.31 13.6 29.61 24.12 11.34 16.32 8.38 39-.43 56.78s-22.61 32.61-33.28 49.36c-29.52 46.37-32.74 108.31-8.2 157.49s76 83.84 130.77 88.13c36 2.83 72.69-7.56 102.59-27.69 29-19.51 45.05-48.79 77.37-64.14C584 687.94 653.84 699 718.68 693c28.23-2.59 56.76-6.78 82.81-18.26s49.64-31.11 60.81-57.44c12.9-30.42 7.45-66.53-9.38-94.56s-43.82-48.67-73.08-63c-50.84-24.94-108.6-39.12-162.13-57.46-10-3.42-19.93-7-29.87-11-47.53-17.47-78.09-49-100.45-93.91-14.16-28.41-26.06-58.43-46.12-83-44.83-55-130.14-71.85-192.52-38.08-64.75 34.96-93.95 119.92-72.7 188.17Z"></path><path fill="#eaeefa" d="M891.16 795.71c-3.86-7.77-10.48-13.84-17.52-18.92-26.94-19.43-60.8-26.36-93.79-30.29-23.77-2.83-47.68-4.36-71.57-5.88-63.79-4.07-127.28-13.62-190.36 1.74-17.52 4.27-41.45 14.07-40.14 36.12.66 11.32 9.84 20.78 20.39 24.95s22.27 4 33.58 3.27 22.78-2.08 33.94-.06c5.55 1 12.1 4.39 11.69 10-.32 4.59-5.16 7.38-7.37 11.41-3.27 6 0 13.79 5.38 17.86s12.42 5.28 19.13 6.27c90 13.17 182.61 6.42 270.63-16.65 9.93-2.61 20.74-6.09 26.06-14.87 4.5-7.42 3.79-17.17-.05-24.95Z"></path><path fill="#fff" d="M423.43 207.09c-1.77-6.58-6.91-11.19-12.47-11.19-13.21 0-14.89 19.73-16.25 30.9a17.38 17.38 0 0 0-2.29-.15 18.4 18.4 0 0 0-17 25.44c-.46 0-.93-.05-1.4-.05a23.46 23.46 0 0 0-6.19 46.1 11.31 11.31 0 0 0 6.5 18.86A18.38 18.38 0 0 0 406 332.67h17.43Z"></path><path fill="#d8e5ee" d="M397.16 329.54a12.91 12.91 0 0 1-12.88-12.89 13.93 13.93 0 0 1 .2-2.3l1-5.51L380 308a5.82 5.82 0 0 1-3.34-9.71l6.19-6.65-8.85-2.44a18 18 0 0 1 4.74-35.3h1.09l8.77.52-3.38-8.11a12.91 12.91 0 0 1 11.9-17.84 13.07 13.07 0 0 1 1.61.11l5.47.68.67-5.47.2-1.68c1.4-11.8 3.49-24.38 10.59-24.38 2.88 0 5.74 2.69 7 6.49v107.97s-21.88 17.35-25.5 17.35Z"></path><path fill="#79a2e4" d="M423.43 332.67h17.43A18.38 18.38 0 0 0 472.53 317a11.31 11.31 0 0 0 6.47-18.86 23.46 23.46 0 0 0-6.19-46.1c-.47 0-.94 0-1.41.05a18.38 18.38 0 0 0-17-25.44 17.38 17.38 0 0 0-2.29.15c-1.36-11.17-3-30.9-16.25-30.9-5.56 0-10.7 4.61-12.47 11.19Z"></path><path fill="#d8e5ee" d="M449 329.54c-3.62 0-25.52-17.35-25.52-17.35V204.25c1.24-3.8 4.1-6.49 7-6.49 7.09 0 9.19 12.58 10.59 24.38l.2 1.68.67 5.47 5.47-.68a12.9 12.9 0 0 1 13.51 17.73l-3.38 8.11 8.77-.52h1.09a18 18 0 0 1 4.74 35.3l-8.76 2.39 6.18 6.65a5.81 5.81 0 0 1-3.33 9.71l-5.53.89 1 5.51a12.87 12.87 0 0 1-12.7 15.16Z"></path><path fill="#292739" d="M367.84 299.48a1.38 1.38 0 0 1-.79-.26 1.34 1.34 0 0 1-.28-1.87c2.8-3.81 10.49-7.25 13.64-7.31a1.31 1.31 0 0 1 1.36 1.31 1.34 1.34 0 0 1-1.31 1.36c-2.53.05-9.32 3.2-11.54 6.22a1.33 1.33 0 0 1-1.08.55ZM386.34 261.21c-3.7 0-10.16-3.09-12.15-8.67a1.33 1.33 0 1 1 2.51-.9c1.62 4.53 7.14 6.9 9.64 6.9a1.34 1.34 0 1 1 0 2.67ZM443.15 250.35a1.33 1.33 0 0 1-.44-2.59c5.6-2 8.52-12.16 8.11-20.9a1.33 1.33 0 1 1 2.66-.13c.46 9.59-2.85 21.1-9.89 23.55a1.39 1.39 0 0 1-.44.07ZM456.94 292.14a1.33 1.33 0 0 1-1-.47 22.3 22.3 0 0 1-4.86-20.33c2.24-8.94 9.48-16.41 19.87-20.49a1.33 1.33 0 1 1 1 2.48c-9.57 3.77-16.22 10.57-18.25 18.66a19.72 19.72 0 0 0 4.3 17.95 1.33 1.33 0 0 1-1 2.2Z"></path><path fill="#292739" d="M392.42 340a19.74 19.74 0 0 1-19.72-19.71 18.65 18.65 0 0 1 .13-2.23 12.64 12.64 0 0 1-7.23-19.23 24.8 24.8 0 0 1 7.93-48.12 19.74 19.74 0 0 1 18.89-25.4h1.12v-.38c1.35-11.37 3.62-30.4 17.38-30.4 6.17 0 11.83 5 13.76 12.17a1.39 1.39 0 0 1 0 .35v125.62a1.32 1.32 0 0 1-1.33 1.33h-16.77a19.76 19.76 0 0 1-14.16 6ZM374 253.38a22.13 22.13 0 0 0-5.84 43.47 1.36 1.36 0 0 1 .93.92 1.33 1.33 0 0 1-.31 1.28 10 10 0 0 0 5.72 16.65 1.33 1.33 0 0 1 1.11 1.55 16.61 16.61 0 0 0-.28 3A17.05 17.05 0 0 0 405 331.77a1.32 1.32 0 0 1 1-.44h16.09V207.27c-1.66-5.91-6.21-10-11.13-10-11.39 0-13.4 16.88-14.73 28L396 227a1.32 1.32 0 0 1-.5.89 1.3 1.3 0 0 1-1 .27 17.4 17.4 0 0 0-2.12-.14A17.07 17.07 0 0 0 375.37 245a16.82 16.82 0 0 0 1.31 6.54 1.34 1.34 0 0 1-1.32 1.85c-.49 0-.92-.01-1.36-.01Z"></path><path fill="#292739" d="M454.44 340a19.76 19.76 0 0 1-14.16-6h-16.85a1.33 1.33 0 0 1-1.34-1.33V207.09a1.41 1.41 0 0 1 .05-.35c1.93-7.17 7.59-12.17 13.76-12.17 13.76 0 16 19 17.38 30.4v.38h1.12A19.75 19.75 0 0 1 474.16 245a19.38 19.38 0 0 1-.84 5.68 24.8 24.8 0 0 1 7.94 48.12 12.64 12.64 0 0 1-7.26 19.26 21 21 0 0 1 .13 2.23A19.74 19.74 0 0 1 454.44 340Zm-29.68-8.67h16.1a1.32 1.32 0 0 1 1 .44 17.05 17.05 0 0 0 29.65-11.48 17.54 17.54 0 0 0-.28-3 1.35 1.35 0 0 1 .23-1 1.32 1.32 0 0 1 .87-.54 10 10 0 0 0 5.67-16.7 1.34 1.34 0 0 1 .63-2.2 22.13 22.13 0 0 0-5.84-43.47h-1.33a1.3 1.3 0 0 1-1.16-.56 1.32 1.32 0 0 1-.15-1.29 16.82 16.82 0 0 0 1.31-6.54A17.07 17.07 0 0 0 454.44 228a17.4 17.4 0 0 0-2.12.14 1.3 1.3 0 0 1-1-.27 1.38 1.38 0 0 1-.51-.89l-.2-1.67c-1.33-11.17-3.34-28-14.72-28-4.92 0-9.48 4.12-11.14 10Z"></path><path fill="#a4d2f3" d="M437.46 322.12h8.64v58.76h-8.64zM455.97 319.87l-24.68-46.62-4.91 9.29 19.76 37.33h9.83z"></path><path fill="#2b47a0" stroke="#292739" stroke-linecap="round" stroke-linejoin="round" stroke-width="3.02" d="M437.46 380.88v-58.76H447.33l-1.19-2.25-19.76-37.33-3.73-7.03-24.67 46.61h10.68v58.76h28.8z"></path><path fill="#a4d2f3" stroke="#292739" stroke-linecap="round" stroke-linejoin="round" stroke-width="3.02" d="M323.67 105.14h151.99v67.68H323.67z"></path><path fill="#fff" d="M341.55 121.7h109.02v6.69H341.55zM341.55 133.81h77.43v6.69h-77.43zM341.55 145.92h41.89v6.69h-41.89z"></path><path fill="#79a2e4" d="M579.33 90.45h101.13v39.99H579.33z"></path><path fill="#d8e5ee" d="M595.4 107.04h71.15v5.22H595.4zM595.4 97.35h71.15v5.22H595.4zM595.4 116.48h50.53v5.22H595.4zM505.53 143.32h67.77v86.4h-67.77z"></path><path fill="#79a2e4" d="M516.29 167.9h47.68v5.21h-47.68zM516.29 158.23h47.68v5.21h-47.68zM516.29 177.32h33.87v5.21h-33.87zM516.29 199.05h25.24v5.21h-25.24zM522.91 189.38h41.06v5.21h-41.06zM516.29 208.47h47.68v5.21h-47.68z"></path><path fill="#292739" d="M539.32 148.67a2.75 2.75 0 0 1-2.75-2.75V46.64H403.48v52.83a2.75 2.75 0 0 1-5.49 0V43.89a2.75 2.75 0 0 1 2.75-2.74h138.58a2.74 2.74 0 0 1 2.74 2.74v102a2.75 2.75 0 0 1-2.74 2.78Z"></path><circle cx="400.74" cy="102.65" r="7" fill="#fff" stroke="#292739" stroke-linecap="round" stroke-linejoin="round" stroke-width="3.02" transform="rotate(-45 400.738 102.649)"></circle><circle cx="539.32" cy="145.92" r="7" fill="#fff" stroke="#292739" stroke-linecap="round" stroke-linejoin="round" stroke-width="3.02" transform="rotate(-45 539.312 145.92)"></circle><path fill="#292739" d="M626.25 93.2a2.75 2.75 0 0 1-2.74-2.75V66.14h-84.19a2.75 2.75 0 0 1 0-5.5h86.93a2.75 2.75 0 0 1 2.75 2.75v27.06a2.75 2.75 0 0 1-2.75 2.75Z"></path><path fill="#fff" stroke="#292739" stroke-linecap="round" stroke-linejoin="round" stroke-width="3.02" d="M626.25 83.45a7 7 0 1 1-7 7 7 7 0 0 1 7-7Z"></path><path fill="#79a2e4" d="M172.83 498.89 206 400.6a681.71 681.71 0 0 1 73.41 32.12c37.73 19.39 49.94 24.28 49.94 24.28l-34.48 92.95s-12.21-14.63-54.36-30.46-67.68-20.6-67.68-20.6Z"></path><path fill="#fff" d="M172.79 452.28h70.03v5.49h-70.03z" transform="rotate(-72.28 207.794 455.016)"></path><path fill="#fff" d="M183.14 454.13h70.03v5.49h-70.03z" transform="rotate(-72.28 218.136 456.869)"></path><path fill="#fff" d="M207.92 461.37h61.65v5.49h-61.65z" transform="rotate(-72.79 238.737 464.11)"></path><path fill="#fff" d="M213.5 467.94h68.67v5.49H213.5z" transform="rotate(-71.41 247.85 470.696)"></path><path fill="#fff" d="M222.79 472.58h67.23v5.49h-67.23z" transform="matrix(.33 -.94 .94 .33 -277.18 558.8)"></path><path fill="#fff" d="M230.71 477.3h67.93v5.49h-67.93z" transform="rotate(-70.25 264.678 480.047)"></path><path fill="#fff" d="M254.03 480.61h48.62v5.49h-48.62z" transform="rotate(-70.25 278.312 483.337)"></path><path fill="#fff" d="M253.58 488.65h66.65v5.49h-66.65z" transform="matrix(.36 -.93 .93 .36 -274.65 583.22)"></path><path fill="#fff" d="M216.89 458.83h22.54v5.49h-22.54z" transform="rotate(-72.4 228.127 461.564)"></path><path fill="#fff" stroke="#292739" stroke-linecap="round" stroke-linejoin="round" stroke-width="3.02" d="M701.2 185.04H566.87l22.36-10.01h136.55l-24.58 10.01z"></path><path fill="#a4d2f3" stroke="#292739" stroke-linecap="round" stroke-linejoin="round" stroke-width="3.02" d="M725.78 175.03V316.3l-24.58 21.16V185.04l24.58-10.01z"></path><path fill="#d8e5ee" stroke="#292739" stroke-linecap="round" stroke-linejoin="round" stroke-width="3.02" d="M566.87 185.04H701.2v152.42H566.87z"></path><path fill="#292739" d="M580.8 264a2.74 2.74 0 0 1-1.91-4.72l35.67-34.51a2.78 2.78 0 0 1 2.28-.75 2.74 2.74 0 0 1 2 1.33L630.48 245l46.62-36.32a2.75 2.75 0 1 1 3.38 4.33l-49.08 38.21a2.77 2.77 0 0 1-2.2.54 2.74 2.74 0 0 1-1.85-1.3l-11.47-19.32-33.17 32.09a2.77 2.77 0 0 1-1.91.77Z"></path><path fill="#292739" d="M672.49 232.68a2.58 2.58 0 0 1-.86-.14 2.75 2.75 0 0 1-1.75-3.47l4.89-14.85-16 2.49a2.75 2.75 0 0 1-.84-5.43l20.45-3.18a2.75 2.75 0 0 1 3 3.57l-6.3 19.12a2.75 2.75 0 0 1-2.59 1.89Z"></path><path fill="#79a2e4" d="M681.41 245.94a3.12 3.12 0 0 0 .09-.44s0-.07 0-.11a3.65 3.65 0 0 0 0-.47 2.36 2.36 0 0 0-.08-.45v-.12a2.23 2.23 0 0 0-.16-.43v-.06a2.92 2.92 0 0 0-.24-.37v-.12a2.54 2.54 0 0 0-.28-.29l-.09-.06a2.35 2.35 0 0 0-.32-.23l-.09-.05a2 2 0 0 0-.42-.18h-.11a2.33 2.33 0 0 0-.38-.08h-.09a3.38 3.38 0 0 0-.45 0h-.28l-20.45 3.18a2.75 2.75 0 0 0 .84 5.43l10-1.55-38.26 29.81-11.65-19.63a2.72 2.72 0 0 0-2-1.32 2.78 2.78 0 0 0-2.28.75l-35.67 34.51a2.74 2.74 0 1 0 3.82 3.94l33.17-32.08 11.47 19.32a2.75 2.75 0 0 0 4 .76l42-32.69-3.47 10.54a2.75 2.75 0 0 0 1.75 3.47 2.54 2.54 0 0 0 .86.14 2.75 2.75 0 0 0 2.61-1.89L681.4 246Z"></path><circle cx="258.9" cy="322.01" r="57.8" fill="#eaeefa" stroke="#292739" stroke-linecap="round" stroke-linejoin="round" stroke-width="3.02" transform="rotate(-76.72 258.884 322.007)"></circle><path fill="#79a2e4" d="M300 313.2a41.73 41.73 0 0 0-35.61-33.72L259 320.86l-41.38-5.41A41.74 41.74 0 1 0 300 313.2Z"></path><path fill="#a4d2f3" d="m213.79 305.91 40.79 8.86-4.21-41.53a41.75 41.75 0 0 0-36.58 32.67Z"></path><path fill="#292739" stroke="#292739" stroke-linecap="round" stroke-linejoin="round" stroke-width="3.02" d="m273.68 201.78-9.5 1.86 1.34 13.13a5.06 5.06 0 0 0 5.55 4.52l9.16-.94a5.06 5.06 0 0 0 4.52-5.55l-1.36-13.22Z"></path><path fill="#79a2e4" stroke="#292739" stroke-linecap="round" stroke-linejoin="round" stroke-width="3.02" d="m273 194.63-9.16 5.21 1 9.78a5.06 5.06 0 0 0 5.55 4.51l9.16-.93a5.05 5.05 0 0 0 4.51-5.55l-1-9.86Z"></path><path fill="#fff" stroke="#292739" stroke-linecap="round" stroke-linejoin="round" stroke-width="3.02" d="M299.53 167.15c4.81-19.44-9-41.3-33.34-38.81s-33.44 26.7-24.8 44.76a51.67 51.67 0 0 0 14.09 16.84c7.63 5.78 6 7.95 7.38 11.28a5.07 5.07 0 0 0 3.54 2.93 37.17 37.17 0 0 0 14.93-1.53 5.12 5.12 0 0 0 2.88-3.58c.66-3.54-1.36-5.33 4.93-12.54a50 50 0 0 0 10.39-19.35Z"></path><path fill="#a4d2f3" d="M278.4 139.45a21 21 0 0 0-21.49.12c-6.37 3.69-14.63 12.77-8.94 28.93a33.62 33.62 0 0 0 21.75 21.05s-6.56-10.44-2.91-26.06 11.59-24.04 11.59-24.04Z"></path><path fill="#292739" d="M275.45 205.29a1.34 1.34 0 0 1-1.31-1.09c-1.3-7.19 1.44-14.59 4-20.23a107.67 107.67 0 0 0 6.38-18.62l-.75-.32c-4.09-1.79-6.66-4-7.87-6.8a8 8 0 0 1 .19-6.54 5.85 5.85 0 0 1 3.79-3.2c3.57-.9 7 1.91 8.06 5s.53 6.28-.06 9.08l-.24 1.12a26.26 26.26 0 0 1 6.16 3.17 1.33 1.33 0 1 1-1.6 2.13 22.81 22.81 0 0 0-5.18-2.67 108.85 108.85 0 0 1-6.45 18.71c-2.37 5.3-4.95 12.2-3.78 18.66a1.33 1.33 0 0 1-1.08 1.55 1 1 0 0 1-.26.05Zm5.78-54.3a2.82 2.82 0 0 0-.71.09 3.24 3.24 0 0 0-2 1.79 5.33 5.33 0 0 0-.14 4.3c.93 2.13 3.05 3.91 6.49 5.41l.29.12c.05-.22.09-.43.14-.65.51-2.45 1-5.26.15-7.64-.68-1.79-2.45-3.41-4.22-3.41ZM271.72 205.06a1.34 1.34 0 0 1-1.34-1.25c-.33-5-2-9.93-3.62-14.7-.56-1.65-1.13-3.35-1.65-5-1.61-5.27-3-10.64-4.14-16.05l-5.88.58a1.33 1.33 0 1 1-.26-2.65l5.6-.56c-.21-1.08-.41-2.17-.61-3.26a12.81 12.81 0 0 1-.07-5.84c.6-2.09 2.49-4.17 5-4.17h.08c1.64 0 3.2.94 4.65 2.72 2.08 2.57 2.81 5.4 2 7.76a7.39 7.39 0 0 1-4.38 4.27 14.46 14.46 0 0 1-3.41.86c1.12 5.24 2.46 10.45 4 15.55.5 1.65 1.07 3.33 1.62 5 1.68 4.93 3.4 10 3.76 15.38a1.33 1.33 0 0 1-1.24 1.42Zm-7-50.26a2.92 2.92 0 0 0-2.39 2.24 10.61 10.61 0 0 0 .13 4.63c.21 1.15.42 2.3.65 3.45a12.35 12.35 0 0 0 2.95-.71 4.8 4.8 0 0 0 2.86-2.67c.5-1.45-.08-3.4-1.55-5.21a4 4 0 0 0-2.62-1.73ZM336.85 418.82a2.75 2.75 0 0 1-2.71-2.32c-2.42-15.41 5.32-29.32 12.81-42.77 1.84-3.31 3.74-6.72 5.42-10.05 13.39-26.55 14.28-56.73 2.32-78.76-8.65-15.92-24-28.26-42.19-33.87-2.67-.82-5.49-1.53-8.21-2.21-6.45-1.62-13.11-3.29-19.1-6.75-8.84-5.11-16.31-16.17-12.73-26.61a2.75 2.75 0 0 1 5.2 1.78c-2.63 7.67 3.33 16.06 10.27 20.07 5.33 3.07 11.34 4.58 17.7 6.18 2.79.7 5.68 1.43 8.49 2.29 19.53 6 36.07 19.33 45.4 36.5 6.6 12.17 9.71 26.68 9 41.95a104.89 104.89 0 0 1-11.24 41.91c-1.72 3.42-3.65 6.89-5.52 10.24-7 12.64-14.31 25.71-12.18 39.24a2.76 2.76 0 0 1-2.29 3.15ZM220.88 163h-25.2a1.34 1.34 0 1 1 0-2.68h25.2a1.34 1.34 0 0 1 0 2.68ZM232.51 129.48a1.33 1.33 0 0 1-.78-.26l-25.35-18.49a1.34 1.34 0 0 1 1.57-2.16l25.35 18.49a1.34 1.34 0 0 1-.79 2.42ZM287.64 120.85a1.33 1.33 0 0 1-1.11-2.07l17.32-26.16a1.35 1.35 0 0 1 1.86-.37 1.33 1.33 0 0 1 .37 1.85l-17.33 26.15a1.32 1.32 0 0 1-1.11.6ZM258.83 115.32a1.34 1.34 0 0 1-1.32-1.18l-5.12-44a1.34 1.34 0 0 1 2.66-.31l5.11 44a1.32 1.32 0 0 1-1.17 1.48Z"></path><path fill="#fff" d="M254.78 419.1h131.4v200.69h-131.4z"></path><path fill="#a4d2f3" d="M381.79 423.5v191.9H259.18V423.5Zm8.79-8.79h-140.2v209.48h140.2V414.71Z"></path><path fill="#292739" d="M390.58 625.53h-140.2a1.34 1.34 0 0 1-1.33-1.34V414.71a1.34 1.34 0 0 1 1.33-1.34h140.2a1.34 1.34 0 0 1 1.34 1.34v209.48a1.34 1.34 0 0 1-1.34 1.34Zm-138.86-2.67h137.52V416H251.72Z"></path><path fill="#79a2e4" d="M279.49 573.55h46.3v13.35h-46.3z" transform="rotate(-90 302.635 580.225)"></path><path fill="#79a2e4" d="M233.41 552.27h88.85v13.35h-88.85z" transform="rotate(-90 277.835 558.945)"></path><path fill="#79a2e4" d="M305.51 575.42h42.56v13.35h-42.56z" transform="rotate(-90 326.795 582.095)"></path><path fill="#a4d2f3" d="M320.48 493.24V465.6a27.64 27.64 0 1 0 26 18.15Z"></path><path fill="#79a2e4" d="M346.45 483.75a27.65 27.65 0 0 0-26-18.15v27.64ZM269.49 429.18h89.36v6.03h-89.36zM269.49 442.26h53.14v6.03h-53.14z"></path><path fill="#d8e5ee" stroke="#292739" stroke-linecap="round" stroke-linejoin="round" stroke-width="4.03" d="M702.43 364.52a155 155 0 0 0-130.1-3.21 155 155 0 0 0-130.1 3.21l-8.23 4.06v176.88s108.4-20.36 123.1-14.54h30.46c14.7-5.82 123.11 14.54 123.11 14.54V368.58Z"></path><path fill="#79a2e4" d="M572.48 366.85a150 150 0 0 0-130.07.23v164.19c39.2-19 75.14-19.87 115-2.71h29.65c39.82-17.18 76.33-16.29 115.54 2.69V367.08a150 150 0 0 0-130.12-.23Z"></path><path fill="#fff" stroke="#292739" stroke-linecap="round" stroke-linejoin="round" stroke-width="3.98" d="M572.79 521.73a140.34 140.34 0 0 0-124 0V363a140.34 140.34 0 0 1 124 0Z"></path><path fill="#79a2e4" d="M467.84 378.66a4.34 4.34 0 0 1-1.33-8.48 143.83 143.83 0 0 1 88.54 0 4.34 4.34 0 0 1-2.66 8.27 135.2 135.2 0 0 0-83.22 0 4.49 4.49 0 0 1-1.33.21ZM553.72 397.4a4.11 4.11 0 0 1-1.33-.21 136 136 0 0 0-73.74-2.67 4.34 4.34 0 0 1-2.06-8.44 144.71 144.71 0 0 1 78.46 2.84 4.35 4.35 0 0 1-1.33 8.48ZM553.72 416.15a4.11 4.11 0 0 1-1.33-.21 135.2 135.2 0 0 0-83.22 0 4.34 4.34 0 1 1-2.66-8.27 143.83 143.83 0 0 1 88.54 0 4.35 4.35 0 0 1-1.33 8.48ZM488 465.32a4.34 4.34 0 0 1-.7-8.63 144.79 144.79 0 0 1 44.71-.35 4.35 4.35 0 0 1-1.27 8.6 135.57 135.57 0 0 0-42 .32 4.34 4.34 0 0 1-.74.06ZM553.72 491.15a4.4 4.4 0 0 1-1.33-.21 135.2 135.2 0 0 0-83.22 0 4.34 4.34 0 1 1-2.66-8.27 143.83 143.83 0 0 1 88.54 0 4.35 4.35 0 0 1-1.33 8.48Z"></path><path fill="#a4d2f3" d="M489.79 447.83a140.36 140.36 0 0 0-26.79 6.8v-26.7a140.36 140.36 0 0 1 26.79-6.8ZM524.5 446.92a141.34 141.34 0 0 0-27.44 0v-26.7a141.34 141.34 0 0 1 27.44 0ZM558.55 454.63a140.26 140.26 0 0 0-26.78-6.8v-26.7a140.26 140.26 0 0 1 26.78 6.8Z"></path><path fill="#fff" stroke="#292739" stroke-linecap="round" stroke-linejoin="round" stroke-width="3.98" d="M695.9 521.73a140.36 140.36 0 0 0-124 0V363a140.36 140.36 0 0 1 124 0Z"></path><path fill="#a4d2f3" d="M676.87 378.67a4.4 4.4 0 0 1-1.33-.21 135.23 135.23 0 0 0-83.23 0 4.34 4.34 0 0 1-2.65-8.27 143.83 143.83 0 0 1 88.54 0 4.35 4.35 0 0 1-1.33 8.48ZM591 397.39a4.34 4.34 0 0 1-1.32-8.48 144.55 144.55 0 0 1 39.08-6.83 4.34 4.34 0 1 1 .3 8.68 135.71 135.71 0 0 0-36.73 6.42 4.4 4.4 0 0 1-1.33.21ZM676.87 491.16a4.11 4.11 0 0 1-1.33-.21 135.16 135.16 0 0 0-83.23 0 4.35 4.35 0 0 1-2.65-8.28 143.83 143.83 0 0 1 88.54 0 4.35 4.35 0 0 1-1.33 8.48Z"></path><path fill="#79a2e4" d="M589.94 459.89a4.28 4.28 0 0 1-2.41-.73 4.34 4.34 0 0 1-1.2-6c6.4-9.61 13.13-19 20-28a4.33 4.33 0 0 1 6.74-.2c4.43 5.13 8.84 10.44 13.17 15.82a517.8 517.8 0 0 1 40.46-45.12 4.34 4.34 0 0 1 6.1 6.18 514.45 514.45 0 0 0-43.13 48.6 4.33 4.33 0 0 1-3.41 1.66 4.32 4.32 0 0 1-3.41-1.65c-4.2-5.32-8.51-10.59-12.85-15.72a540.72 540.72 0 0 0-16.41 23.28 4.36 4.36 0 0 1-3.65 1.88Z"></path><path fill="#79a2e4" d="M675.25 425.33c-1.61-.38-3.23-.72-4.85-1l-1.83-24.43a137.3 137.3 0 0 0-24.18-.39c-.25-1.63-.49-3.25-.74-4.88a136.38 136.38 0 0 1 29.38.89q1.11 14.88 2.22 29.81Z"></path><path fill="#292739" d="M815.11 743.68H815a2.84 2.84 0 0 1-2.72-2.94l7.29-190.59a2.83 2.83 0 1 1 5.66.21L817.94 741a2.83 2.83 0 0 1-2.83 2.68Z"></path><path fill="#fff" d="M815 550a7.46 7.46 0 1 1 7.16 7.74A7.46 7.46 0 0 1 815 550Z"></path><path fill="#292739" d="M814 549.93a8.45 8.45 0 1 0 8.77-8.12 8.47 8.47 0 0 0-8.77 8.12c-.22 4.66.13-4.65 0 0Zm14.91.57a6.46 6.46 0 1 1-6.22-6.7 6.48 6.48 0 0 1 6.22 6.7c-.19 3.57.09-3.56-.05 0Z"></path><path fill="#fff" d="M807.66 740.56a7.46 7.46 0 1 0 7.74-7.16 7.46 7.46 0 0 0-7.74 7.16Z"></path><path fill="#292739" d="M806.67 740.52a8.45 8.45 0 1 1 8.12 8.77 8.47 8.47 0 0 1-8.12-8.77c.18-4.65-.18 4.66 0 0Zm14.9.57a6.46 6.46 0 1 0-6.7 6.22 6.46 6.46 0 0 0 6.7-6.22c.14-3.56-.13 3.57 0 0Z"></path><path fill="#eaeefa" stroke="#292739" stroke-linecap="round" stroke-linejoin="round" stroke-width="3.11" d="M782.06 734.93a5.29 5.29 0 0 0 4-1.81c1.92-2.21 3.37-5.56 1.16-7.48l-25.24-56a5.29 5.29 0 0 0-3.49-1.31h-73.4a5.3 5.3 0 0 0 0 10.6h68.08l25.41 54.71a5.28 5.28 0 0 0 3.48 1.29Z"></path><rect width="59.48" height="17.77" x="677.44" y="664.72" fill="#a4d2f3" stroke="#292739" stroke-linecap="round" stroke-linejoin="round" stroke-width="3.11" rx="3.03" transform="rotate(180 707.18 673.605)"></rect><path fill="#fff" stroke="#292739" stroke-linecap="round" stroke-linejoin="round" stroke-width="3.11" d="m844.64 729.51-14.59-11.18 7.05-16.99-18.23-2.36-2.37-18.24-16.99 7.05-11.18-14.59-11.18 14.59-16.98-7.05-2.37 18.24-18.24 2.36 7.06 16.99-14.59 11.18 14.59 11.18-7.06 16.98 18.24 2.37 2.37 18.24 16.98-7.05 11.18 14.58 11.18-14.58 16.99 7.05 2.37-18.24 18.23-2.37-7.05-16.98 14.59-11.18z"></path><path fill="#a4d2f3" d="m839.25 731.3-12.46 9.55 6.02 14.49-15.56 2.03-2.03 15.56-14.49-6.02-9.55 12.46-9.55-12.46-14.49 6.02-2.02-15.57-15.57-2.02 6.02-14.49-12.46-9.55 12.46-9.55-6.02-14.49 15.57-2.02 2.02-15.57 14.49 6.02 9.55-12.46 9.55 12.46 14.49-6.02 2.03 15.57 15.57 2.02-6.03 14.49 12.46 9.55z"></path><ellipse cx="790.42" cy="729.63" fill="#fff" stroke="#292739" stroke-linecap="round" stroke-linejoin="round" stroke-width="3.11" rx="16.23" ry="15.98"></ellipse><circle cx="787.26" cy="729.63" r="8.83" fill="#79a2e4"></circle><path fill="#eaeefa" stroke="#292739" stroke-linecap="round" stroke-linejoin="round" stroke-width="3.11" d="M787.26 734.93a5.3 5.3 0 0 1-3.49-9.29l45.27-56a5.29 5.29 0 0 1 3.49-1.31h70.06a5.3 5.3 0 0 1 0 10.6h-68.08l-43.77 54.71a5.24 5.24 0 0 1-3.48 1.29Z"></path><rect width="59.48" height="17.77" x="850.76" y="664.72" fill="#a4d2f3" stroke="#292739" stroke-linecap="round" stroke-linejoin="round" stroke-width="3.11" rx="3.03"></rect><path fill="#fff" stroke="#292739" stroke-linecap="round" stroke-linejoin="round" stroke-width="3.11" d="M748.92 665.64c-2.73 3.59-7.53.86-12 2.14-9.38 2.68-18.14 11.18-31.08 4.93a26.31 26.31 0 0 1-7.22-5.39c-1.89-2-2.55-5.33-.78-7.07 1.26-1.23 3.29-1.37 5.16-1.45a254.17 254.17 0 0 0 30.18-2.8c3.38-.56 19.86-10.32 19.57-5.36-.41 6.82-1.87 12.41-3.83 15Z"></path><path fill="#eaeefa" stroke="#292739" stroke-linecap="round" stroke-linejoin="round" stroke-width="3.11" d="M700.23 656.58a5 5 0 0 0-2 1.79c-.64 1.28-.07 3 1 4.17a10.87 10.87 0 0 0 4 2.5 37.62 37.62 0 0 0 20.88 2.29 54 54 0 0 0 8.14-2.34c2.4-.84 4.41-2.4 6.9-3.13 2.22-.65 4.66-.68 6.88-1.33a11.34 11.34 0 0 0 7.8-7.88 24.38 24.38 0 0 0 .57-5.55q.11-4.2.2-8.38a2.5 2.5 0 0 0-.19-1.26 2.67 2.67 0 0 0-1.16-1c-13-7.28-21.78 1.19-31.47 7.07Z"></path><path fill="#fd9572" stroke="#292739" stroke-linecap="round" stroke-linejoin="round" stroke-width="3.11" d="M726.45 648.77c1.24 1.92 4.56 2.05 8.38.77a36.1 36.1 0 0 0 10.51-6.16c4.75-3.69 7.06-7 6.36-13.46q-1.38-13-2.77-26a12.15 12.15 0 0 0-1.17-4.71 8.18 8.18 0 0 0-7.28-3.85c-11.48.5-6.2 10.32-5.45 17.52a46.91 46.91 0 0 1-1.14 16.37 34.07 34.07 0 0 1-5.16 11.37c-1.42 2.06-4.21 5.18-2.28 8.15Z"></path><path fill="#2b47a0" d="M729.61 544.06s-5.7 74.4-5.69 76 37.48 7.09 38.37 4 4.82-52.94 4.82-52.94Z"></path><path fill="#fff" stroke="#292739" stroke-linecap="round" stroke-linejoin="round" stroke-width="3.11" d="M767 601.47c-1.85-2.56-3.48-5-5-7.42-.49-.8-1-1.61-1.46-2.44a73.26 73.26 0 0 1-18.4 0c-.48.83-1 1.64-1.46 2.44-1.5 2.44-3.13 4.86-5 7.42l-1.86 2.58-3.09-.77a85.24 85.24 0 0 1-12.73-4.15 92.94 92.94 0 0 1-11.9-6l-2.72-1.64.51-3.14c.48-3 1.06-5.91 1.73-8.77.21-.89.44-1.82.69-2.76a73.49 73.49 0 0 1-13-13q-1.43.38-2.76.69c-2.87.67-5.81 1.25-8.77 1.73l-3.14.51L677 564a90.91 90.91 0 0 1-6-11.89 85.24 85.24 0 0 1-4.15-12.73l-.77-3.09 2.58-1.86c2.55-1.85 5-3.48 7.41-5 .81-.49 1.62-1 2.45-1.46a73.26 73.26 0 0 1 0-18.4c-.83-.48-1.64-1-2.44-1.45-2.44-1.51-4.87-3.14-7.42-5l-2.58-1.86.77-3.09a85.24 85.24 0 0 1 4.15-12.73 91.67 91.67 0 0 1 6-11.9l1.64-2.72 3.14.51c3 .47 5.9 1.06 8.77 1.73.89.21 1.82.44 2.76.69a73.49 73.49 0 0 1 13-13q-.37-1.42-.69-2.76c-.67-2.87-1.25-5.81-1.73-8.77l-.51-3.14 2.72-1.64a91.67 91.67 0 0 1 11.9-6 85.24 85.24 0 0 1 12.73-4.15l3.09-.77 1.86 2.58c1.85 2.55 3.48 5 5 7.41.49.8 1 1.62 1.46 2.45a73.26 73.26 0 0 1 18.4 0c.48-.83 1-1.64 1.45-2.44 1.51-2.44 3.14-4.87 5-7.42l1.86-2.58 3.09.77a85.24 85.24 0 0 1 12.73 4.15 90.91 90.91 0 0 1 11.89 6l2.73 1.64-.51 3.14c-.48 3-1.06 5.91-1.73 8.77q-.31 1.33-.69 2.76a73.49 73.49 0 0 1 13 13c.94-.25 1.87-.48 2.76-.69 2.86-.67 5.81-1.26 8.77-1.73l3.14-.51 1.64 2.72a92.29 92.29 0 0 1 6 11.9 85.24 85.24 0 0 1 4.15 12.73l.77 3.09-2.58 1.86c-2.56 1.85-5 3.48-7.42 5-.8.49-1.61 1-2.44 1.46a73.26 73.26 0 0 1 0 18.4c.83.48 1.64 1 2.43 1.45 2.45 1.51 4.87 3.14 7.43 5l2.58 1.86-.77 3.09a85.24 85.24 0 0 1-4.15 12.73 92.17 92.17 0 0 1-6 11.89l-1.67 2.7-3.14-.51c-3-.48-5.91-1.06-8.77-1.73-.89-.21-1.82-.44-2.76-.69a73.49 73.49 0 0 1-13 13c.25.94.48 1.87.69 2.76.67 2.86 1.25 5.81 1.73 8.77l.51 3.14-2.73 1.64a92.17 92.17 0 0 1-11.89 6 85.24 85.24 0 0 1-12.73 4.15l-3.09.77Z"></path><path fill="#292739" stroke="#292739" stroke-linecap="round" stroke-linejoin="round" stroke-width="3.11" d="M696.82 391.12s4.66 11.24 6.5 13.57l-11.55 10.13c-4.48-7.44 2.09-22.06 5.05-23.7Z"></path><path fill="#fd9572" stroke="#292739" stroke-linecap="round" stroke-linejoin="round" stroke-width="3.11" d="M683.6 405.55c1.06.14 2.12.3 3.17.5 7.29 1.4 13.76 5.46 20 9.44.52.33 6.76-11 4.75-13.6-.93-1.19-2.5-1.62-3.95-2a71.2 71.2 0 0 1-20.57-9.73c-6.59-3.76-9.29-10.85-12.82-17.21a10.6 10.6 0 0 0-2.53-3.38 3.62 3.62 0 0 0-4-.49c-2.78 1.71-1 7.11-3.93 8.53-3.67 1.76-12.31-5.1-15.53-6.83a10.65 10.65 0 0 0-3.39-1.35 3.6 3.6 0 0 0-3.33 1.08c-.91 1.14-.74 2.77-.44 4.19 4.45 20.95 23.51 28.39 42.57 30.85Z"></path><path fill="#eaeefa" stroke="#292739" stroke-linecap="round" stroke-linejoin="round" stroke-width="3.11" d="M696.82 391.12a208.92 208.92 0 0 1 31.11 6.41c-1.14-.33 8.39-16.36 11.14-20.1 13-17.61 33.67-28 55.47-28.81 16.24-.62 23.25-.44 37.67 6.89 12.3 6.26 48.56 59 51.2 64.8 4.21 9.36 2.31 30.51-9.44 44.91l-28.5-18c4.19-12.47 3.38-20 2.34-20.85s-22.22-24.37-22.52-31.63l2 42.95a4.5 4.5 0 0 1-3.36 5.34 145.69 145.69 0 0 1-22.21 8.46c-2.57.74-5.29 1.42-7.91.84-4.65-1-7.55-5.67-9.19-10.15s-2.63-9.37-5.73-13-8.08-5.48-12.38-7.89c-2.67-1.49-10.58-8.22-10.85-17.86-6.28 7.09-9 17.29-14.81 25.09-1 1.3-2.09 2.66-3.68 3a7.07 7.07 0 0 1-3.39-.4 292.55 292.55 0 0 1-39.08-14.55c-1.34-.6-2.84-1.43-3.1-2.87a4.82 4.82 0 0 1 .71-2.85 48.2 48.2 0 0 0 4.51-19.73Z"></path><path fill="#fff" stroke="#292739" stroke-linecap="round" stroke-linejoin="round" stroke-width="3.11" d="M900.36 649.52c2.47 3.92-1.92 7-2.33 11.45-.85 9.37 4.14 20.68-6.6 29.34a24.61 24.61 0 0 1-7.83 4c-2.65.79-6.07 0-7.09-2.34-.73-1.63-.12-3.46.48-5.13a221.5 221.5 0 0 0 8.38-27.66c.69-3.2-2.69-21.81 2-19.43 6.36 3.25 11.21 6.94 12.99 9.77Z"></path><path fill="#eaeefa" stroke="#292739" stroke-linecap="round" stroke-linejoin="round" stroke-width="3.11" d="M873.85 688.28a5.18 5.18 0 0 0 1 2.54 4.43 4.43 0 0 0 4.37.91 10 10 0 0 0 3.88-2.45 32.19 32.19 0 0 0 9.83-17.28 47.37 47.37 0 0 0 .72-8.14c.07-2.46-.7-4.89-.5-7.38.19-2.22 1.05-4.37 1.24-6.59a11.83 11.83 0 0 0-4.75-10.21 28.86 28.86 0 0 0-5.14-2.87l-8-3.76a2.91 2.91 0 0 0-1.28-.37 2.57 2.57 0 0 0-1.4.58c-11.77 8.31-6.8 19.59-4.68 30.59Z"></path><path fill="#fd9572" stroke="#292739" stroke-linecap="round" stroke-linejoin="round" stroke-width="3.11" d="M875.9 662c2.31-.27 3.65-3.12 3.81-7 .43-10.29-4.5-20.45-11.15-28.55q-12.56-15.36-26.47-29.76l-10.25 11.44a3.23 3.23 0 0 0-1 1.69 3.1 3.1 0 0 0 1 2.09c12.08 14.87 26.45 29 37.1 44.6 1.41 2.11 3.4 5.89 6.96 5.49Z"></path><path fill="#2b47a0" d="M793.12 504.85a52.76 52.76 0 0 1-4-5.12 44.22 44.22 0 0 1-7.81-21c-.34-3.87.35-7.35.7-11.16s-.39-7.84.08-11.77c.42-3.58 4.39-6 7.1-7.89 2.23-1.51 19.49-3.22 27-3.52 8.1-.33 12.14 2.33 19 5.38 7.1 3.16 14.15 4.67 20.81 9.1A66.05 66.05 0 0 1 882.6 494c2.33 7.65 3.22 16 .89 23.61s-8.28 14.46-16 16.36c-6 1.47-12.32-.07-18.32-1.63-11.27-2.93-22.58-6-33.1-11-8.6-4.04-16.67-9.46-22.95-16.49Z"></path><path fill="#fff" stroke="#292739" stroke-linecap="round" stroke-linejoin="round" stroke-width="3.11" d="m834.6 448.76-1.15-9s-21.72 3.52-33.51 3.61-17.78-2.53-17.78-2.53l3.39 13.21a148.38 148.38 0 0 0 27.8 0c13.47-1.58 21.25-5.29 21.25-5.29Z"></path><path fill="#fd9572" stroke="#292739" stroke-linecap="round" stroke-linejoin="round" stroke-width="3.11" d="M793.85 349.75c2.51 1.06 5.29 1.91 8.4 3 .92.32 2 .76 2.27 1.69a3.18 3.18 0 0 1-.42 2.29 143.91 143.91 0 0 1-26.48 39.1l-13.92-28.91a5.76 5.76 0 0 1-.8-2.74c.45-8.5 12.21-6.37 6.78-17.53-3.08-6.32-9.72-11.44-6.09-19.26a12.19 12.19 0 0 1 8.67-6.91 2.69 2.69 0 0 1 2.09.27 3.08 3.08 0 0 1 .84 1.27c3 6.56 4.91 13.6 8.88 19.69a20.21 20.21 0 0 0 9.78 8.04Z"></path><path fill="#292739" d="M742.46 297.53c2.5-4.26 5.1-8.49 5.74-13.33.91-6.91.15-13.59 3.3-20.08a27.23 27.23 0 0 1 15.53-14c5-1.66 10.59-1.85 15.2-4.46 8.58-4.85 12.9-14.17 19.82-20.81 4.67-4.5 10.4-8.12 16.78-9.26s13.44.52 17.93 5.2 5.69 12.52 2 17.83c-3.23 4.62-9.54 7-11.3 12.34-1.15 3.51 0 7.3.18 11a19.66 19.66 0 0 1-8.61 16.8c-4 2.69-9.35 4.09-11.74 8.32-1.77 3.13-1.4 7.12.09 10.4 2.44 5.36 6.1 7.55 6.35 13.75a21.68 21.68 0 0 1-4.81 15c-5.74 6.62-15.37 9.57-23.67 11.2-10 2-19.77 1.79-29.06-2.76-12.45-6.09-23.28-18.33-16.22-32.56.73-1.56 1.6-3.11 2.49-4.58Z"></path><path fill="#fd9572" stroke="#292739" stroke-linecap="round" stroke-linejoin="round" stroke-width="3.11" d="M752.91 331c2.17 7.54 5 17.09 12.68 15.64 4.17-.79 10.88-5.88 12.54-9.79s2-8.22 2.3-12.46c.81-11.14-2.68-32.89-19.64-26.76-11.9 4.3-10.65 23.8-7.88 33.37Z"></path><path fill="#292739" d="M761.87 297.27c5.36 9.46 16.57 19.91 26.08 25.18a2.55 2.55 0 0 0 2.17.43c.83-.38 1-1.47 1-2.39.16-13.37-12.06-25.62-25.43-25.5ZM755.66 404.82a1.37 1.37 0 0 1-1.37-1.31c-.32-6.82 0-11.1 1.11-14.3a1.37 1.37 0 1 1 2.6.89c-1 2.82-1.26 6.91-1 13.28a1.38 1.38 0 0 1-1.31 1.44ZM825.28 396.12a1.38 1.38 0 0 1-.79-.26 71.234 71.234 0 0 0-3.34-2.22c-1.43-.91-2.77-1.77-6.62-4.7a1.38 1.38 0 0 1 1.68-2.19 73.64 73.64 0 0 0 6.42 4.56c.9.57 1.84 1.17 3.45 2.3a1.38 1.38 0 0 1-.8 2.51Z"></path><path fill="#79a2e4" d="M822.4 530.47a69.75 69.75 0 0 0 0-23.42c1.71-.94 3.41-1.92 5.1-3 2.42-1.49 4.78-3.09 7.13-4.79a82.2 82.2 0 0 0-3.93-12A86.51 86.51 0 0 0 825 476c-2.87.46-5.69 1-8.45 1.66-1.9.45-3.81 1-5.69 1.52a69.08 69.08 0 0 0-16.56-16.56c.55-1.88 1.06-3.79 1.51-5.7q1-4.14 1.67-8.44a88 88 0 0 0-11.29-5.73 81.77 81.77 0 0 0-12-3.92c-1.7 2.35-3.29 4.7-4.79 7.13-1 1.69-2 3.39-3 5.1A69.06 69.06 0 0 0 743 451c-.94-1.71-1.92-3.41-3-5.1-1.5-2.43-3.09-4.78-4.79-7.13a82.16 82.16 0 0 0-12 3.92 87.19 87.19 0 0 0-11.28 5.73c.46 2.87 1 5.68 1.66 8.44.45 1.91 1 3.82 1.51 5.7a69.26 69.26 0 0 0-16.56 16.56c-1.87-.55-3.78-1.07-5.69-1.52-2.76-.64-5.57-1.2-8.44-1.66a86.57 86.57 0 0 0-5.73 11.28 81 81 0 0 0-3.92 12c2.35 1.7 4.7 3.3 7.13 4.79 1.69 1 3.39 2 5.1 3a69.06 69.06 0 0 0 0 23.42q-2.57 1.39-5.1 3c-2.43 1.49-4.78 3.08-7.13 4.79a81.36 81.36 0 0 0 3.92 12 86.57 86.57 0 0 0 5.73 11.28q4.3-.69 8.44-1.67c1.91-.44 3.82-1 5.69-1.51a69.26 69.26 0 0 0 16.56 16.56c-.55 1.88-1.06 3.79-1.51 5.7-.64 2.75-1.2 5.57-1.66 8.44a87.19 87.19 0 0 0 11.28 5.73 83.37 83.37 0 0 0 12 3.92c1.7-2.35 3.29-4.71 4.79-7.13 1-1.69 2-3.39 3-5.1a69.06 69.06 0 0 0 23.42 0 83.72 83.72 0 0 0 3 5.1c1.5 2.42 3.09 4.78 4.79 7.13a83 83 0 0 0 12-3.92 88 88 0 0 0 11.29-5.73c-.46-2.87-1-5.69-1.67-8.44-.45-1.91-1-3.82-1.51-5.7a69.08 69.08 0 0 0 16.56-16.56c1.88.55 3.79 1.07 5.69 1.51q4.14 1 8.45 1.67a86.51 86.51 0 0 0 5.72-11.28 82.59 82.59 0 0 0 3.93-12c-2.35-1.71-4.71-3.3-7.13-4.79q-2.54-1.56-5.14-2.96Z"></path><path fill="#fff" d="M796 560.08a49.17 49.17 0 0 1-17.34 13.07 53.28 53.28 0 0 1-21.66 4.68 56.22 56.22 0 0 1-22-4.35 58.09 58.09 0 0 1-9.95-5.34 58.36 58.36 0 0 1-15.9-15.89 58.09 58.09 0 0 1-5.34-10 56.08 56.08 0 0 1-4.35-21.95 53.25 53.25 0 0 1 4.68-21.64 49.32 49.32 0 0 1 13.08-17.35 56.64 56.64 0 0 0-10.39 18.41 54.78 54.78 0 0 0-2.74 20.47 56.35 56.35 0 0 0 16.4 36.57 56.11 56.11 0 0 0 36.56 16.41 55 55 0 0 0 20.48-2.75A56.49 56.49 0 0 0 796 560.08Z"></path><path fill="#2b47a0" d="m814.53 503.39-6.2 12c-5.39 10.42-10.22 21.31-17.15 30.77-5.47 7.46-7.69 18.84-2.85 27.47s51.78 62.41 53.23 65.16 5.78 5.88 5.78 5.88l33.16-28.26s-31-36.11-38.94-44.35-9.62-14.24-5.65-16.93 32.23-16.35 38.9-23.06 5.69-23.2 5.69-23.2c-9.57-.74-15.55-8.24-23.44-13.51-2.38-1.59-29.28-17.57-30-16.14Z"></path><path fill="#fff" stroke="#292739" stroke-linecap="round" stroke-linejoin="round" stroke-width="3.11" d="m785.81 389.78 2.53 4.73 5.16 64.08-9.38 22.53s-12-21.37-10.33-22.68c0 0 .24-50.84 1.35-62.6s10.67-6.06 10.67-6.06Z"></path><path fill="#2b47a0" stroke="#292739" stroke-linecap="round" stroke-linejoin="round" stroke-width="3.11" d="M789.72 392.21a3.3 3.3 0 0 1 .23 1.69 3.42 3.42 0 0 1-.8 1.39l-5.91 7.29a.89.89 0 0 1-.51.39c-.31 0-.56-.24-.74-.49q-3.6-4.92-7.21-9.85a2.2 2.2 0 0 1-.59-1.52 2.15 2.15 0 0 1 .44-.88l3.88-5.48c1.55-2.19 4.32-5.7 7-3.39 2.25 1.86 3.35 8.15 4.21 10.85Z"></path><circle cx="757.84" cy="518.76" r="19.63" fill="#fff" stroke="#292739" stroke-linecap="round" stroke-linejoin="round" stroke-width="3.11"></circle><circle cx="754.68" cy="518.76" r="13.29" fill="#79a2e4"></circle><path fill="#eaeefa" stroke="#292739" stroke-linecap="round" stroke-linejoin="round" stroke-width="3.11" d="M754.68 524.06a5.3 5.3 0 0 1-3.49-9.29l33.59-29.32a5.26 5.26 0 0 1 3.48-1.31h70.07a5.3 5.3 0 0 1 0 10.6h-68.08l-32.09 28a5.24 5.24 0 0 1-3.48 1.32Z"></path><rect width="59.48" height="17.77" x="806.5" y="480.55" fill="#a4d2f3" stroke="#292739" stroke-linecap="round" stroke-linejoin="round" stroke-width="3.11" rx="3.03"></rect><path fill="#fd9572" stroke="#292739" stroke-linecap="round" stroke-linejoin="round" stroke-width="3.11" d="M849.54 478.06c.35-1.22.78-2.79.88-3.1 2.34-7 14.58-15.4 14.58-15.4l-14.59-9.21s-6.27 10.35-8.55 12.83a27 27 0 0 1-9.42 6.69c-3.7 1.57-7.75 2.72-10.73 5.56-6.3 6-3 13.71.24 20.21 1.77 3.49 4.1 7.87 9 5.79 2.4-1 3.88-3.42 5.21-5.68l5.74-9.75c1.69-2.89 3.85-6.09 7.17-6.45.03.01.23-.66.47-1.49Z"></path><path fill="#292739" d="M757.24 743.68a2.83 2.83 0 0 1-2.65-1.83l-74-195.38a2.83 2.83 0 1 1 5.3-2l74 195.38a2.84 2.84 0 0 1-1.64 3.66 2.94 2.94 0 0 1-1.01.17Z"></path><path fill="#fff" d="M676.24 548.1a7.46 7.46 0 1 1 9.62 4.33 7.45 7.45 0 0 1-9.62-4.33Z"></path><path fill="#292739" d="M675.32 548.45a8.45 8.45 0 1 0 4.9-10.89 8.45 8.45 0 0 0-4.9 10.89c1.68 4.36-1.65-4.35 0 0Zm13.94-5.28a6.46 6.46 0 1 1-8.33-3.75 6.47 6.47 0 0 1 8.33 3.75c1.27 3.34-1.26-3.33 0 0Z"></path><path fill="#fff" d="M750.26 743.49a7.46 7.46 0 1 0 4.33-9.62 7.46 7.46 0 0 0-4.33 9.62Z"></path><path fill="#292739" d="M749.34 743.84a8.45 8.45 0 1 1 10.89 4.91 8.45 8.45 0 0 1-10.89-4.91c-1.66-4.36 1.66 4.36 0 0Zm13.94-5.28a6.46 6.46 0 1 0-3.75 8.33 6.47 6.47 0 0 0 3.75-8.33Z"></path><path fill="#a4d2f3" stroke="#292739" stroke-linecap="round" stroke-linejoin="round" stroke-width="3.31" d="m206.94 816.45-55.66 14.45H107V691.58a25.31 25.31 0 0 1 13.06-22.15l39.53-7.43a57.88 57.88 0 0 1 10.67-1h11a25.65 25.65 0 0 1 25.65 25.64Z"></path><path fill="#fff" stroke="#292739" stroke-linecap="round" stroke-linejoin="round" stroke-width="3.31" d="M116 679.09h24.18a8.94 8.94 0 0 1 8.94 8.94V830.9h0H107h0V688a8.94 8.94 0 0 1 9-8.91Z"></path><path fill="#79a2e4" stroke="#292739" stroke-linecap="round" stroke-linejoin="round" stroke-width="3.31" d="M136.2 833.66V698.53a9.63 9.63 0 0 0-19.26 0v135.13H104v-139.8a24.09 24.09 0 0 1 48.17 0v139.8Z"></path><path fill="#fff" d="M144.25 832.54h6.76V693.86l-6.76 138.68zM112.01 832.54h3.81V698.53l-3.81 134.01zM148.32 673.17l40.89-7c5.55.69 9.08 4.34 9.65 8.5l-43.61 10.16c0-4.93-3.05-10.07-6.93-11.66Z"></path><path fill="#292739" stroke="#292739" stroke-linecap="round" stroke-linejoin="round" stroke-width="3.31" d="M131.13 701.08a4.61 4.61 0 1 1-4.6-4.44 4.52 4.52 0 0 1 4.6 4.44Z"></path><path fill="#292739" d="m130.17 831.01 1.46-101.26 1.47 101.26h-2.93zM126.57 831.01l1.46-101.26 1.47 101.26h-2.93zM122.96 831.01l1.47-101.26 1.46 101.26h-2.93zM119.36 831.01l1.46-101.26 1.47 101.26h-2.93z"></path><path fill="#a4d2f3" stroke="#292739" stroke-linecap="round" stroke-linejoin="round" stroke-width="3.31" d="m270.57 816.45-55.66 14.45h-44.26V691.58a25.32 25.32 0 0 1 13-22.15l39.57-7.43a57.91 57.91 0 0 1 10.68-1h11a25.64 25.64 0 0 1 25.65 25.64Z"></path><path fill="#fff" stroke="#292739" stroke-linecap="round" stroke-linejoin="round" stroke-width="3.31" d="M179.58 679.09h24.18a8.94 8.94 0 0 1 8.94 8.91v142.9h0-42.05 0V688a8.94 8.94 0 0 1 8.93-8.91Z"></path><path fill="#79a2e4" stroke="#292739" stroke-linecap="round" stroke-linejoin="round" stroke-width="3.31" d="M199.84 833.66V698.53a9.64 9.64 0 0 0-19.27 0v135.13h-13v-139.8a24.09 24.09 0 0 1 48.17 0v139.8Z"></path><path fill="#fff" d="M207.89 832.54h6.75V693.86l-6.75 138.68zM175.64 832.54h3.81V698.53l-3.81 134.01zM212 673.17l40.89-7c5.56.69 9.08 4.34 9.65 8.5l-43.61 10.16c-.05-4.93-3.1-10.07-6.93-11.66Z"></path><path fill="#292739" stroke="#292739" stroke-linecap="round" stroke-linejoin="round" stroke-width="3.31" d="M194.77 701.08a4.61 4.61 0 1 1-4.61-4.44 4.53 4.53 0 0 1 4.61 4.44Z"></path><path fill="#292739" d="m193.8 831.01 1.47-101.26 1.46 101.26h-2.93zM190.2 831.01l1.46-101.26 1.47 101.26h-2.93zM186.59 831.01l1.47-101.26 1.47 101.26h-2.94zM182.99 831.01l1.47-101.26 1.46 101.26h-2.93z"></path><path fill="#d8e5ee" stroke="#292739" stroke-linecap="round" stroke-linejoin="round" stroke-width="3.31" d="M224.52 756.42h9.98v76.3h-9.98z"></path><path fill="#a4d2f3" stroke="#292739" stroke-linecap="round" stroke-linejoin="round" stroke-width="3.31" d="m244.48 827.12-9.98 5.6v-76.7l9.98-5.07v76.17z"></path><path fill="#fff" stroke="#292739" stroke-linecap="round" stroke-linejoin="round" stroke-width="3.31" d="M595.02 739.59H224.51l63.05-25.61H648.7l-53.68 25.61z"></path><path fill="#a4d2f3" stroke="#292739" stroke-linecap="round" stroke-linejoin="round" stroke-width="3.31" d="M648.7 713.98v14.79l-53.68 27.25v-16.43l53.68-25.61z"></path><path fill="#d8e5ee" stroke="#292739" stroke-linecap="round" stroke-linejoin="round" stroke-width="3.31" d="M224.52 739.59h370.51v16.43H224.52zM585.04 756.42h9.98v76.3h-9.98z"></path><path fill="#a4d2f3" stroke="#292739" stroke-linecap="round" stroke-linejoin="round" stroke-width="3.31" d="m605 827.12-9.98 5.6v-76.7l9.98-5.07v76.17z"></path><path fill="#292739" stroke="#292739" stroke-linecap="round" stroke-linejoin="round" stroke-width="3.31" d="M374.29 550.78h-.15c-1-.16-3.31.25-4.15-.2-1.19-.63-.86-1.54-1.82-2.41a12.81 12.81 0 0 0-6.74-3.55 38.63 38.63 0 0 0-14.1.08c-2.16.42-6.57 3.55-8.56 1.61a3 3 0 0 1-.7-2.87c1.33-5.46 3.25-9.86.68-15.54a15.86 15.86 0 0 0-11.37-8.9 22.48 22.48 0 0 0-9 .47 32 32 0 0 0-16.1 8.68c-7.06 7.42-9.21 21.13 1.34 26.84a20 20 0 0 0 8.54 2.31c1.42.11 3.08 1.3 2.57 2.63a3.35 3.35 0 0 1-1.1 1.21c-4.57 3.76-5.5 10.29-5.83 16.2q-.29 5.21-.3 10.42a30.31 30.31 0 0 0 .61 7.18c1 4.12 5.67 11.8 9.2 14.32 2.27 1.62 5.52 1.15 7.85-.37a16.6 16.6 0 0 0 4.26-4.38c3.95-.5 8-2.83 11.26-4.52a76 76 0 0 0 16.55-11.66 35 35 0 0 0 6.44-7.28c1.48-2.44 2.38-3.59 5.57-4.07 2.15-.33 4.35-.22 6.48-.66a13.11 13.11 0 0 0 9.86-9.53c1.95-8.17-3.06-15.68-11.29-16.01Z"></path><path fill="#fd9572" stroke="#292739" stroke-linecap="round" stroke-linejoin="round" stroke-width="3.31" d="M361.8 606.88c-4 5.85-12.1 14.7-18.29 8 0 0-3.29 12.06-2.07 14.52 1 2 2.89 3.33 4.71 4.58l19.93 13.71a49.54 49.54 0 0 1-34.57 5.15c-6.34-1.4-12.51-4.14-17.15-8.67s-7.62-11-7.1-17.47c-.14 1.74 10.55-.36 11.49-4 1.18-4.59.07-11.36.25-16.19.32-8.49.17-17.26 1.29-25.69 1.58-11.9 7.6-20.69 19.94-22.9 29.86-5.44 35.15 29.23 21.57 48.96Z"></path><path fill="#292739" stroke="#292739" stroke-linecap="round" stroke-linejoin="round" stroke-width="3.31" d="M362.86 580.08c-2.69 3.55-5 7.4-8 10.68-5.68 6.2-13.53 8.33-20.26 12.75-2.65 1.74-5.6 3.28-8.77 3.33-6.18.08-8.49-6.23-9.83-11.26-2.5-9.31.59-18.56 6.71-25.67 5.92-6.88 11.6-13.29 21.1-15 6.56-1.19 14.24 0 19.83 3.79 8.05 5.42 7.26 12 1.32 18.8-.74.83-1.43 1.69-2.1 2.58Z"></path><path fill="#fd9572" stroke="#292739" stroke-linecap="round" stroke-linejoin="round" stroke-width="3.31" d="m413 687.4 1.45 2.16c5.88 8.71 9.76 20.47 21.28 21.33a90.56 90.56 0 0 1 25.57 5.72 10.38 10.38 0 0 0 4.54 1 15.41 15.41 0 0 0 3.7-1.21c4.2-1.54 8.95-.93 13.09.77s7.77 4.4 11.33 7.11a2.57 2.57 0 0 1 1.24 1.65c.07 1-.94 1.66-1.83 2.08-9.82 4.64-20.24 3.86-30.78 4.29-12.27.51-24.62.65-36.79-1.17a28.23 28.23 0 0 1-9.62-2.79c-8.55-4.74-13.72-16.85-19.66-24.35-8.11-10.26-4.83-22.35.51-33.3a.68.68 0 0 1 .29-.35.65.65 0 0 1 .55.15c7.02 4.45 10.76 10.26 15.13 16.91Z"></path><path fill="#2b47a0" stroke="#292739" stroke-linecap="round" stroke-linejoin="round" stroke-width="3.31" d="M288.93 753.89a362.22 362.22 0 0 0 17.39 42.9c7.13 14.8 11.36 23.74 27.91 21.79 13.53-1.59 27.18-1.8 40.78-1.7 4.54 0 9.4 1.42 13.83 1 5.71-.53 12.14-3.93 17.28-6.3 3.65-1.68 7.31-3.62 9.95-6.64 6-6.87 5.19-17.13 4.05-26.17-.7-5.58-1.91-12-6.81-14.74-5.07-2.89-11.57-.4-17.2-1.91s-9.71-7.17-11-13c-2-8.77-.13-19 .43-27.86.47-7.57 3.62-15.44 2.39-23.11l9.43 8.36a49.36 49.36 0 0 1 8.37-12.8c2.21-2.55 6.51-6.62 5.9-10.49a8.18 8.18 0 0 0-1.39-3c-6-9.33-11.94-18.69-19-27.21a37.07 37.07 0 0 0-8.15-7.77c-4.46-2.89-9.79-4-15-5.11-7-1.46-11.95-2.93-18.85-.88-9 2.68-18.35 5.37-27.55 3.65S307 636 307.26 626.66c.09-2.93-17.72 9.3-18.5 10.39-17.29 23.86-6.53 96.68.17 116.84Z"></path><path fill="#292739" d="M387.92 699.65a1.48 1.48 0 0 1-1.25-.68c-3.07-4.88-4.15-6.19-9.36-12.34a1.47 1.47 0 1 1 2.24-1.89c5.32 6.28 6.42 7.62 9.6 12.66a1.46 1.46 0 0 1-.45 2 1.44 1.44 0 0 1-.78.25ZM343.51 616.31a1.46 1.46 0 0 1-.92-.33 62.58 62.58 0 0 1-5.65-5.7 1.46 1.46 0 1 1 2.2-1.93 62.44 62.44 0 0 0 5.29 5.35 1.47 1.47 0 0 1-.92 2.61Z"></path><path fill="#a4d2f3" stroke="#292739" stroke-linecap="round" stroke-linejoin="round" stroke-width="3.31" d="M424.72 817c-7-23.36-27.57.14-56.36-112-6.15-24-28.39-40.31-53.14-40.31H264.1a15.37 15.37 0 0 0-14.9 19.14L281 830.9h147.87Z"></path><path fill="#79a2e4" d="m282.44 828.9-31.83-146.17h64.61a37.22 37.22 0 0 1 35.72 27.1l18.8 57.17c5.44 16.88 12.49 35.8 27.67 42.68a26.93 26.93 0 0 1 15 18l.32 1.24Z"></path><path fill="#fff" stroke="#292739" stroke-linecap="round" stroke-linejoin="round" stroke-width="3.31" d="M495.24 672.94s11.77-20 18.9-38.59a339.61 339.61 0 0 0 11.94-39.83l64.59 15.65-3.29 16.72s-10.74 58.58-23.88 69.52-68.26-23.47-68.26-23.47Z"></path><path fill="#a4d2f3" d="M574.23 626.53a2.92 2.92 0 0 1-.71-.08l-40-9.67a3 3 0 0 1 1.42-5.86l40 9.67a3 3 0 0 1-.71 5.94ZM570.55 639.58a2.94 2.94 0 0 1-.71-.09l-40-9.67a3 3 0 0 1 1.42-5.86l40 9.67a3 3 0 0 1-.71 6ZM568.42 650.66a2.82 2.82 0 0 1-.71-.09l-40-9.67a3 3 0 0 1 1.39-5.9l40 9.67a3 3 0 0 1-.7 5.95ZM563.5 663.64a3.27 3.27 0 0 1-.54 0l-32.82-6a3 3 0 0 1 1.08-5.93l32.82 6a3 3 0 0 1-.54 6Z"></path><path fill="#2b47a0" stroke="#292739" stroke-linecap="round" stroke-linejoin="round" stroke-width="3.31" d="m572.39 581.88-7.13-4-.79-19.49 11.17 15.99-3.25 7.5z"></path><path fill="#a4d2f3" stroke="#292739" stroke-linecap="round" stroke-linejoin="round" stroke-width="3.31" d="M608.52 688.92h0a5.47 5.47 0 0 1-6.94-3.43l-36.32-107.6 10.38-3.51L612 682a5.48 5.48 0 0 1-3.48 6.92Z"></path><path fill="#292739" stroke="#292739" stroke-linecap="round" stroke-linejoin="round" stroke-width="3.31" d="M506.33 536.88a21.85 21.85 0 0 0-3.23-3.07c-10.05-7.69-26.16-6.55-37.71-3.72-8.65 2.11-17 6.79-21.79 14.31-6 9.45-5.35 22-1.07 32.29s11.73 19 19.11 27.43a1.77 1.77 0 0 0 1.16.76 1.81 1.81 0 0 0 1.17-.64l11.18-10.76a32.92 32.92 0 0 1 5.18-4.5c.93-.58 4.06-3 4.9-3A76.43 76.43 0 0 0 500 572.05a52.68 52.68 0 0 0 3.26-4.33c.91-1.39 1.49-3.77 2.56-4.92 1.68-1.8 4.35-2.24 5.81-4.3 1.78-2.48 1.85-5.43 1.18-8.24a32 32 0 0 0-6.48-13.38Z"></path><path fill="#fd9572" stroke="#292739" stroke-linecap="round" stroke-linejoin="round" stroke-width="3.31" d="m508.75 589.91-.18 2.74c-.19 2.72-.44 5.52-1.76 7.9s-4 4.22-6.68 3.7-7.91-2.27-10-4c0 0-1.55 12.4 0 14.66 1.25 1.83 3.33 2.89 5.32 3.87l21.66 10.75a49.54 49.54 0 0 1-33.5 10c-6.47-.48-13-2.33-18.2-6.16s-9.09-9.81-9.5-16.28c0 0 10.4-1.85 10.81-5.63.51-4.71-1.54-11.25-2.05-16.06-.88-8.45-2.27-17.11-2.35-25.62s2.45-16.84 9.47-22c6.57-4.8 17.95-8.6 26-7.29 4.4.71 8.77 3.37 10.22 7.58a18.37 18.37 0 0 1 .74 4.85 311.65 311.65 0 0 1 0 36.99Z"></path><path fill="#292739" stroke="#292739" stroke-linecap="round" stroke-linejoin="round" stroke-width="3.31" d="M499.75 562.73c-.49 5.8-.75 9.83-4.69 14.41-3.73 4.35-8.56 7.6-13 11.19a12.9 12.9 0 0 0-4.12 4.76c-1 2.3-.62 4.89-.6 7.38a8.65 8.65 0 0 1-.35 2.91 6.65 6.65 0 0 1-3.88 3.77c-4 1.63-8.79.17-12-2.76s-5-7.09-6-11.27a44.5 44.5 0 0 1 2.44-28.87c4.49-10.07 13.73-19.81 24.38-23.34 6.33-2.1 14.11-2 20.16 1 2.65 1.28 12.52 10.38 4.92 12.21-1.41.34-3-.2-4.31.28a4.18 4.18 0 0 0-2.38 2.73 14.4 14.4 0 0 0-.47 3.71c0 .6-.05 1.25-.1 1.89Z"></path><path fill="#fd9572" stroke="#292739" stroke-linecap="round" stroke-linejoin="round" stroke-width="3.31" d="M569.41 676.16a3.86 3.86 0 0 1-.22-1.59c.12-9.25 5.39-18.71 10.21-26.32 2.68-4.22.05-6.54-1.07-11a38.67 38.67 0 0 1-.92-14 2.41 2.41 0 0 1 .34-1.13c.78-1.1 2.59-.23 3.22 1s.89 2.7 2 3.43c1.84 1.21 4.21-.7 5.15-2.69a16.26 16.26 0 0 0 1.39-6.79c0-2.1.16-4.83 2.18-5.39 1.72-.48 3.25 1.17 4.18 2.69a35.26 35.26 0 0 1 2.93 30c-1.12 3-3.13 5.77-4.17 8.79-2.56 7.42-1.31 13.78-6.45 20.3a20 20 0 0 1-4.68 4.63 11.64 11.64 0 0 1-12.86-.43 3.44 3.44 0 0 1-1.23-1.5Z"></path><path fill="#eaeefa" stroke="#292739" stroke-linecap="round" stroke-linejoin="round" stroke-width="3.31" d="M436.3 753.89a360.53 360.53 0 0 0 17.39 42.9c7.13 14.8 11.36 23.74 27.91 21.79 13.53-1.59 27.17-1.8 40.78-1.7 15.23.11 30.36.7 45.72-1.26 2.07-.27 4.29-.64 5.78-2.11 2.17-2.14 1.93-5.65 1.53-8.67Q573.73 792 572 779.25c-.29-2.21-.65-4.59-2.21-6.19a9.15 9.15 0 0 0-5-2.23c-5.12-1-10.73-.8-15-3.73-5.39-3.66-10.46-22.3-12.56-44.88-.41-4.47-1.9-24-1.9-24 9.43 8.36 15 17.76 28.68 19.89 4.63.72 9.9.3 13.16-3.05a18.53 18.53 0 0 0 3.55-6.42l16.23-41.5a6.56 6.56 0 0 0 .65-2.86c-.54-6.51-23.22-13.15-23.89-13s-9.5 13.2-13.45 19.07c-.13.2-.31.42-.55.42a.76.76 0 0 1-.52-.33c-6-6.9-11.29-14.23-17.19-21.27-4.06-4.85-24.66-26.59-32.09-24.37-9 2.67-24.47 4.2-33.67 2.49s-20.57-.83-20.26-10.18c.1-2.93-23.32 6.6-24.1 7.69-17.33 23.87-2.28 108.93 4.42 129.09Z"></path><path fill="#292739" d="M535.28 699.65A1.47 1.47 0 0 1 534 699c-3.07-4.88-4.15-6.19-9.36-12.34a1.47 1.47 0 1 1 2.24-1.89c5.32 6.28 6.42 7.62 9.6 12.66a1.46 1.46 0 0 1-.46 2 1.39 1.39 0 0 1-.74.22ZM491.49 602.64a1.46 1.46 0 0 1-.92-.33c-2.19-1.77-7.6-7.36-7.83-7.6a1.46 1.46 0 1 1 2.11-2c0 .05 5.52 5.69 7.57 7.36a1.46 1.46 0 0 1 .21 2.06 1.48 1.48 0 0 1-1.14.51Z"></path><path fill="#292739" stroke="#292739" stroke-linecap="round" stroke-linejoin="round" stroke-width="3.31" d="M455.61 787c-1.48 15.65 7.2 17.72 19.83 27.1S504.23 827.18 520 827s31.17-4 46.25-8.49c3.87-1.15 8.08-2.62 10.07-6.12 1.38-2.43 1.4-5.38 1.39-8.18q-.12-18.62-.22-37.25c-8.94-2-18.52-1.07-27.71.15 0 0 2.09 29-23.94 33.85-48 8.91-70.23-13.96-70.23-13.96Z"></path><path fill="#a4d2f3" stroke="#292739" stroke-linecap="round" stroke-linejoin="round" stroke-width="3.31" d="M572.09 817c-7-23.36-27.57.14-56.36-112-6.15-24-28.39-40.31-53.14-40.31h-51.12a15.37 15.37 0 0 0-14.9 19.14L428.4 830.9h147.84Z"></path><path fill="#79a2e4" d="M429.81 828.9 398 682.73h64.61a37.22 37.22 0 0 1 35.72 27.1L517.1 767c5.45 16.88 12.5 35.8 27.67 42.68a26.94 26.94 0 0 1 15 18l.32 1.24Z"></path><path fill="#eaeefa" stroke="#292739" stroke-linecap="round" stroke-linejoin="round" stroke-width="3.31" d="M461.17 610.23h0l-15.28 6.33s10.19 12.27 25.32 15.64 42-8.4 42-8.4l-13-6.25-11 3.42a33.11 33.11 0 0 1-28.04-10.74Z"></path></g></svg>