<svg xmlns="http://www.w3.org/2000/svg" enable-background="new 0 0 5320 3547" viewBox="0 0 5320 3547" id="finance-analysis"><rect width="5320" height="3547" fill="#FFF" stroke="#000" stroke-miterlimit="10" display="none"></rect><path fill="#D6F2FC" d="M3297.89,2315.67c0,41.18-1.6,81.95-4.76,122.28c-0.89,11.32-1.9,22.6-3.04,33.84
			c-4.1,41.01-9.81,81.51-17.05,121.45c-2.02,11.06-4.13,22.07-6.38,33.05c-2.76,13.49-5.68,26.91-8.79,40.25
			c-2.58,11.07-5.27,22.1-8.08,33.08c-4.54,17.73-9.4,35.34-14.55,52.8c-3.27,11.11-6.67,22.16-10.21,33.16
			c-4.97,15.6-10.21,31.08-15.68,46.44c-3.98,11.14-8.08,22.23-12.29,33.24c-2.84,7.42-5.73,14.8-8.69,22.14
			c-9.98,24.85-20.58,49.36-31.78,73.49c-7.75,16.67-15.77,33.16-24.1,49.47c-47.67,93.5-104.68,180.96-169.69,261
			c-33.2,40.89-68.5,79.83-105.72,116.64H937.01c-37.22-36.81-72.51-75.76-105.72-116.64c-208.92-257.2-335.07-590.97-335.07-955.7
			c0-813.26,627.17-1472.55,1400.83-1472.55c85.84,0,169.9,8.11,251.49,23.67c1.42,0.26,2.82,0.53,4.23,0.81
			c13.96,2.71,27.83,5.63,41.63,8.77c17.1,3.88,34.08,8.1,50.93,12.63c47.52,12.78,94.07,28.12,139.49,45.86c0,0,0.02,0.01,0.02,0
			c63.28,24.7,124.38,54.08,182.94,87.73c110.09,63.22,211.22,141.54,300.88,232.29c2.35,2.38,4.67,4.75,6.99,7.13
			c17.82,18.3,35.18,37.08,52.05,56.33c2.15,2.46,4.29,4.92,6.43,7.39c53.19,61.54,101.49,127.82,144.27,198.19
			c0,0.01,0.02,0.04,0.03,0.07c16.95,27.87,33.02,56.39,48.17,85.51c5.1,9.75,10.08,19.57,14.95,29.45
			c5.68,11.53,11.23,23.14,16.62,34.84c4.51,9.72,8.9,19.52,13.18,29.37c5.04,11.56,9.94,23.2,14.68,34.93
			c3.95,9.68,7.78,19.44,11.53,29.23c4.44,11.61,8.74,23.3,12.9,35.06c3.42,9.66,6.74,19.37,9.96,29.13
			c8.41,25.35,16.15,51.03,23.24,76.99c1.83,6.7,3.62,13.42,5.37,20.16c7.53,29.15,14.24,58.65,20.07,88.49
			c0.02,0.03,0.02,0.07,0.02,0.1c3.58,18.27,6.84,36.65,9.76,55.15v0.01c12.03,76.01,18.5,153.97,19,233.43
			C3297.87,2309.12,3297.89,2312.39,3297.89,2315.67z"></path><path fill="#D6F2FC" d="M4823.78,1984.18c0,527.11-241.86,994.81-615.28,1287.19c-54.59,42.76-112.01,81.76-171.89,116.64H2559.17
			c-59.88-34.88-117.29-73.88-171.89-116.64c-89.49-70.06-171.42-150.2-244.29-238.82c-10.16-12.35-20.14-24.87-29.93-37.55
			c-13.66-17.64-26.94-35.61-39.86-53.86h-0.02c-0.48-0.67-0.94-1.32-1.4-1.99v-0.01c-0.17-0.21-0.31-0.43-0.46-0.64
			c-0.69-0.97-1.37-1.95-2.05-2.92c-11.12-15.82-21.97-31.88-32.52-48.17c-7.85-12.06-15.53-24.26-23.06-36.55
			c-0.55-0.88-1.07-1.76-1.62-2.64c-2.05-3.38-4.1-6.77-6.13-10.16c-0.83-1.36-1.64-2.7-2.44-4.06v-0.03
			c-12.11-20.34-23.8-40.98-35.04-61.92c-0.54-0.99-1.07-1.97-1.6-2.96c-1.45-2.74-2.92-5.47-4.36-8.22
			c-0.46-0.88-0.93-1.75-1.39-2.63c-3.78-7.2-7.52-14.43-11.18-21.71v-0.01c-0.53-1.03-1.06-2.06-1.57-3.08
			c-2.03-4.01-4.03-8.04-6.03-12.07c-0.79-1.61-1.57-3.18-2.36-4.79v-0.03c-7.33-14.99-14.45-30.13-21.36-45.4
			c-0.38-0.88-0.78-1.75-1.17-2.63c-4.77-10.63-9.45-21.32-14.01-32.09c-0.4-0.93-0.79-1.85-1.17-2.78
			c-7.12-16.89-13.97-33.94-20.55-51.12v-0.03c-0.13-0.31-0.25-0.58-0.36-0.89c-0.35-0.89-0.68-1.76-0.99-2.64
			c-0.31-0.76-0.59-1.51-0.89-2.28v-0.03c-10.51-27.77-20.3-55.93-29.34-84.45c-0.3-0.88-0.56-1.75-0.84-2.63
			c-5.38-17.07-10.52-34.27-15.36-51.6v-0.01c-2.84-10.1-5.58-20.24-8.23-30.44v-0.04c-0.4-1.51-0.79-3.04-1.17-4.57
			c-0.13-0.46-0.25-0.93-0.36-1.4c-0.12-0.4-0.21-0.82-0.31-1.22c-9.96-39.08-18.55-78.76-25.72-118.96c0-0.03-0.02-0.06-0.02-0.08
			c-5.85-32.81-10.74-65.96-14.64-99.44c-0.46-3.79-0.89-7.57-1.3-11.36c-2.63-23.94-4.76-48.04-6.38-72.3
			c-1.39-20.8-2.41-41.7-3.04-62.72c-0.51-17.02-0.76-34.11-0.76-51.25c0-10.13,0.08-20.24,0.26-30.33v-0.04
			c1.14-64.46,5.9-127.99,14.07-190.37c0.93-7.17,1.92-14.31,2.94-21.44c0.08-0.6,0.17-1.19,0.25-1.79
			c13.21-90.94,33.68-179.35,60.77-264.58c4.86-15.32,9.94-30.55,15.23-45.66v-0.01c1.22-3.49,2.46-6.97,3.72-10.45
			c0.69-1.96,1.4-3.92,2.11-5.88v-0.01c0.56-1.56,1.12-3.1,1.7-4.65c24.27-66.38,52.61-130.64,84.7-192.44
			c0.17-0.32,0.35-0.64,0.51-0.96c49.42-95,107.73-184.16,173.75-266.25c2.73-3.39,5.45-6.77,8.23-10.13
			c17.53-21.45,35.58-42.4,54.15-62.84c38.42-42.27,79.01-82.33,121.59-119.99c0-0.01,0.02-0.01,0.03-0.03
			c265.36-234.74,607.9-376.15,981.87-376.15C4140.6,380.19,4823.78,1098.32,4823.78,1984.18z"></path><path fill="#4D7CAB" d="M1509.49,1234.32c1.34-11.98,2.03-24.15,2.03-36.48c0-26.78-3.24-52.81-9.34-77.73l65.69-11.81
				l-142.12-244.06l-55.33,64.74c-29.19-20.31-61.83-36.06-96.89-46.23l30.2-83.52h-284.25l34.43,95.2
				c-31.96,13.12-61.41,31.05-87.4,52.9l-64.81-75.84l-142.12,244.06l96.3,17.31c-4.25,21-6.49,42.73-6.49,64.97
				c0,13.26,0.8,26.33,2.34,39.18l-87.92,15.8l142.12,244.06l49.68-58.13c27.64,25.37,59.66,46.12,94.8,61.02l-22.46,62.11h284.25
				l-19.9-55.02c37.74-13.43,72.3-33.45,102.28-58.67l35.41,41.43l142.12-244.06L1509.49,1234.32z M1165.83,1417.68
				c-132.08,0-239.15-106.16-239.15-237.11s107.07-237.11,239.15-237.11s239.15,106.16,239.15,237.11
				S1297.91,1417.68,1165.83,1417.68z"></path><path fill="#66A5E4" d="M1550.01,1256.14c1.34-11.98,2.03-24.15,2.03-36.48c0-26.78-3.24-52.81-9.34-77.73l65.69-11.81
				l-142.12-244.06l-55.33,64.74c-29.19-20.31-61.83-36.06-96.89-46.23l30.2-83.52H1060l34.43,95.2
				c-31.96,13.12-61.41,31.05-87.4,52.9l-64.81-75.84l-142.12,244.06l96.3,17.31c-4.25,21-6.49,42.73-6.49,64.97
				c0,13.26,0.8,26.33,2.34,39.18l-87.92,15.8l142.12,244.06l49.68-58.13c27.64,25.37,59.66,46.12,94.8,61.02l-22.46,62.11h284.25
				l-19.9-55.02c37.74-13.43,72.3-33.45,102.28-58.67l35.41,41.43l142.12-244.06L1550.01,1256.14z M1206.35,1439.5
				c-132.08,0-239.15-106.16-239.15-237.11c0-130.95,107.07-237.11,239.15-237.11s239.15,106.16,239.15,237.11
				C1445.51,1333.34,1338.43,1439.5,1206.35,1439.5z"></path><path fill="#4D7CAB" d="M2452.41,820.26c1.34-11.98,2.03-24.15,2.03-36.48c0-26.78-3.24-52.81-9.34-77.73l65.69-11.81
				l-142.12-244.06l-55.33,64.74c-29.19-20.31-61.83-36.06-96.89-46.23l30.2-83.52H1962.4l34.43,95.2
				c-31.96,13.12-61.41,31.05-87.4,52.9l-64.81-75.84l-142.12,244.06l96.3,17.31c-4.25,21-6.49,42.73-6.49,64.97
				c0,13.26,0.8,26.33,2.34,39.18l-87.92,15.8l142.12,244.06l49.68-58.13c27.64,25.37,59.66,46.12,94.8,61.02l-22.46,62.11h284.25
				l-19.9-55.02c37.74-13.43,72.3-33.45,102.28-58.67l35.41,41.43l142.12-244.06L2452.41,820.26z M2108.76,1003.62
				c-132.08,0-239.15-106.16-239.15-237.11c0-130.95,107.07-237.11,239.15-237.11s239.15,106.16,239.15,237.11
				C2347.91,897.46,2240.84,1003.62,2108.76,1003.62z"></path><path fill="#66A5E4" d="M2492.94,842.09c1.34-11.98,2.03-24.15,2.03-36.48c0-26.78-3.24-52.81-9.34-77.73l65.69-11.81
				L2409.2,472.01l-55.33,64.74c-29.19-20.31-61.83-36.06-96.89-46.23l30.2-83.52h-284.25l34.43,95.2
				c-31.96,13.12-61.41,31.05-87.4,52.9l-64.81-75.84l-142.12,244.06l96.3,17.31c-4.25,21-6.49,42.73-6.49,64.97
				c0,13.26,0.8,26.33,2.34,39.18l-87.92,15.8l142.12,244.06l49.68-58.13c27.64,25.37,59.66,46.12,94.8,61.02l-22.46,62.11h284.25
				l-19.9-55.02c37.74-13.43,72.3-33.45,102.28-58.67l35.41,41.43l142.12-244.06L2492.94,842.09z M2149.28,1025.44
				c-132.08,0-239.15-106.16-239.15-237.11c0-130.95,107.07-237.11,239.15-237.11c132.08,0,239.15,106.16,239.15,237.11
				C2388.44,919.28,2281.36,1025.44,2149.28,1025.44z"></path><path fill="#4D7CAB" d="M3435.05,594.07c1.34-11.98,2.03-24.15,2.03-36.48c0-26.78-3.24-52.81-9.34-77.73l65.69-11.81
				L3351.31,224l-55.33,64.74c-29.19-20.31-61.83-36.06-96.89-46.23l30.2-83.52h-284.25l34.43,95.2
				c-31.96,13.12-61.41,31.05-87.4,52.9l-64.81-75.84l-142.12,244.06l96.3,17.31c-4.25,21-6.49,42.73-6.49,64.97
				c0,13.26,0.8,26.33,2.34,39.18l-87.92,15.8l142.12,244.06l49.68-58.13c27.64,25.37,59.66,46.12,94.8,61.02l-22.46,62.11h284.25
				l-19.9-55.02c37.74-13.43,72.3-33.45,102.28-58.67l35.41,41.43l142.12-244.06L3435.05,594.07z M3091.4,777.42
				c-132.08,0-239.15-106.16-239.15-237.11c0-130.95,107.07-237.11,239.15-237.11c132.08,0,239.15,106.16,239.15,237.11
				C3330.55,671.27,3223.48,777.42,3091.4,777.42z"></path><path fill="#66A5E4" d="M3475.58,615.89c1.34-11.98,2.03-24.15,2.03-36.48c0-26.78-3.24-52.81-9.34-77.73l65.69-11.81
				l-142.12-244.06l-55.33,64.74c-29.19-20.31-61.83-36.06-96.89-46.23l30.2-83.52h-284.25l34.43,95.2
				c-31.96,13.12-61.41,31.05-87.4,52.9l-64.81-75.84l-142.12,244.06l96.3,17.31c-4.25,21-6.49,42.73-6.49,64.97
				c0,13.26,0.8,26.33,2.34,39.18l-87.92,15.8l142.12,244.06l49.68-58.13c27.64,25.37,59.66,46.12,94.8,61.02l-22.46,62.11h284.25
				l-19.9-55.02c37.74-13.43,72.3-33.45,102.28-58.67l35.41,41.43l142.12-244.06L3475.58,615.89z M3131.92,799.24
				c-132.08,0-239.15-106.16-239.15-237.11c0-130.95,107.07-237.11,239.15-237.11c132.08,0,239.15,106.16,239.15,237.11
				C3371.08,693.09,3264,799.24,3131.92,799.24z"></path><rect width="4015.87" height="116.64" x="682.63" y="3271.37"></rect><path fill="#1E357F" d="M3626.17,2887.41H1870.83c-66.08,0-116.03-54.33-104.21-113.35L2154.85,835.3
							c9.16-45.72,53.02-78.96,104.21-78.96h1571.81c62.49,0,111.4,48.86,105.43,105.33l-204.7,1938.76
							C3726.4,2849.76,3680.75,2887.41,3626.17,2887.41z"></path><path fill="#456BC5" d="M3867.14,1025.55l-1707.15-3.91c-47.41,1.96-27.11-25.87-24.01-58l26.69-152.66
							c15-24.31,62.41-55.42,89.57-54.61l1601.97-0.02c50.43,0,89.53,56.72,89.53,91.36l-13.04,131.97
							C3930.71,1005.57,3895.67,1025.55,3867.14,1025.55z"></path><polygon fill="#5D90DC" points="2627.51 1298.13 2076.26 1299.68 2114.46 1247.7 2653.72 1247.7"></polygon><path fill="#B0CBF7" d="M2070.49,1773.73l-784.69-28.41c-76.48-2.77-132.85-65.93-119.98-134.43l73.5-391.11l1029.56-4.66
							c24.45,0.01,42.56,20.62,37.14,42.26l-106.79,426.79C2185.7,1738.3,2131.57,1775.95,2070.49,1773.73z"></path><path fill="#FCFCFC" d="M2045.65,1749.32l-763.12-27.14c-74.38-2.64-129.2-62.98-116.68-128.4l72.44-378.61l1046.71,0.58
							l-114.13,448.02C2157.69,1715.46,2105.05,1751.43,2045.65,1749.32z"></path><polygon fill="#6FCBF3" points="1412.86 1458.87 1371.4 1458.87 1320.28 1723.75 1366.07 1725.15"></polygon><polygon fill="#2649B3" points="1535.48 1390.25 1494.04 1388.95 1430 1727.55 1476.84 1729.09"></polygon><polygon fill="#6FCBF3" points="1640.28 1466.91 1598.82 1466.91 1547.7 1731.79 1593.48 1733.24"></polygon><polygon fill="#2649B3" points="1751.64 1396.74 1710.17 1396.74 1659.29 1735.58 1705.34 1737.14"></polygon><polygon fill="#6FCBF3" points="1862.21 1475.44 1820.75 1476.12 1774.87 1741.78 1820.67 1742.49"></polygon><ellipse cx="2057.9" cy="1394.31" fill="#6FCBF3" rx="71.11" ry="64.56"></ellipse><polygon fill="#6FCBF3" points="2172.07 1494.23 1959.24 1494.83 1973.99 1474.76 2182.19 1474.76"></polygon><polygon fill="#6FCBF3" points="2159.26 1530.19 1946.43 1530.79 1961.18 1510.72 2169.38 1510.72"></polygon><polygon fill="#5D90DC" points="2651.31 1189.92 2100.06 1191.48 2138.25 1139.5 2677.51 1139.5"></polygon><polygon points="1838.95 1433.26 1724.42 1354.32 1614.78 1418.63 1503.77 1342.04 1345.61 1391.04 1344.04 1386.87 1504.65 1337.11 1615.01 1413.25 1724.64 1348.95 1839.48 1428.1 1879.45 1409.95 1881.62 1413.89"></polygon><polygon points="1851.02 1411.92 1866.1 1430.68 1891.03 1406.56"></polygon><path fill="#B0C8EB" d="M3427.09,1928.66H2636.9c-20.57,0-36.29-16.66-33.13-35.11l58.51-341.99
								c2.53-14.77,16.49-25.69,32.96-25.77l793.59-3.77c20.73-0.1,36.6,16.74,33.27,35.32l-61.91,345.76
								C3457.55,1917.84,3443.53,1928.66,3427.09,1928.66z"></path><polygon fill="#FFF" points="3430.46 1908.49 2601.19 1908.49 2666.66 1525.93 3499.7 1521.83"></polygon><path fill="#FC9118" d="M2876.34,1725.34l-91.4-153.89c28.08-13.75,59.5-20.94,91.4-20.94c26.13,0,51.99,4.83,76,14.19
							L2876.34,1725.34z"></path><path fill="#6FCBF3" d="M2871.84,1725.34l-168.44,84.76c-15.83-25.93-24.14-55.11-24.14-84.76
							c0-62.11,36.46-119.73,95.55-151.02L2871.84,1725.34z"></path><path fill="#618FDF" d="M2881.91,1724.08l83.99-157.33c66.31,29.17,108.6,90.44,108.6,157.33c0,5.97-0.34,11.94-1.01,17.88
							L2881.91,1724.08z"></path><path fill="#2D4CAF" d="M2875.25,1731.91l187.75,16.02c-9.06,87.5-90.94,155.18-187.75,155.18
							c-69.24,0-133.13-34.62-165.99-89.95L2875.25,1731.91z"></path><polygon fill="#DEE9FC" points="3406.32 1638.19 3092.47 1639.08 3114.21 1609.49 3421.24 1609.49"></polygon><polygon fill="#DEE9FC" points="3406.32 1702.49 3092.47 1703.37 3114.21 1673.78 3421.24 1673.78"></polygon><polygon fill="#DEE9FC" points="3384.02 1766.78 3070.17 1767.67 3091.92 1738.07 3398.95 1738.07"></polygon><polygon fill="#DEE9FC" points="3373.68 1831.07 3059.83 1831.96 3081.58 1802.37 3388.61 1802.37"></polygon><path fill="#B0C8EB" d="M4334.33,1487.04h-722.45c-18.81,0-33.18-15.23-30.29-32.1l53.49-312.67
								c2.31-13.5,15.08-23.49,30.13-23.56l725.57-3.45c18.96-0.09,33.46,15.31,30.42,32.29l-56.6,316.12
								C4362.18,1477.14,4349.37,1487.04,4334.33,1487.04z"></path><polygon fill="#FFF" points="4339.4 1468.6 3581.22 1468.6 3641.07 1118.83 4402.7 1115.09"></polygon><path fill="#A20016" d="M3976.66,1296c-10.99,61.75-80.11,110.04-154.77,110.04c-74.66,0-130.9-48.3-125.43-110.04
							c5.69-64.28,75.58-118.36,155.87-118.36S3988.1,1231.72,3976.66,1296z"></path><path fill="#FF9D1F" d="M3853.71,1298.89l-73.7-105.97c23.94-12.82,57.55-17,85.24-14.82c27.69,2.18,55.1,11.78,76.26,28.15
							L3853.71,1298.89z"></path><path fill="#2D4CAF" d="M3845.61,1288.97l-81.47,106.35c-42.82-15.24-68.04-50.38-67.99-94.17
							c0.06-42.86,39.39-93.79,83.85-108.23L3845.61,1288.97z"></path><path fill="#618FDF" d="M3831.67,1271.05l146.49,14.96c-2.51,18.22-6.53,37.5-18.01,52.67
							c-50.42,66.66-146.84,81.5-196.01,56.63L3831.67,1271.05z"></path><path fill="#FFF" d="M3957.14,1295.42c-9.45,53.11-68.9,94.65-133.11,94.65s-112.59-41.54-107.88-94.65
							c4.9-55.29,65-101.8,134.07-101.8C3919.27,1193.62,3966.98,1240.13,3957.14,1295.42z"></path><polygon fill="#DEE9FC" points="4268.97 1211.59 4013.21 1212.31 4030.94 1188.19 4281.13 1188.19"></polygon><polygon fill="#DEE9FC" points="4257.16 1291.12 4001.41 1291.84 4019.13 1267.73 4269.32 1267.73"></polygon><polygon fill="#DEE9FC" points="4227.31 1370.51 3971.55 1371.24 3989.28 1347.12 4239.47 1347.12"></polygon><polygon fill="#DEE9FC" points="3697.08 1188.88 3634.42 1189.6 3638.76 1165.49 3700.05 1165.49"></polygon><polygon fill="#DEE9FC" points="3682.45 1249.55 3619.8 1250.28 3624.14 1226.16 3685.43 1226.16"></polygon><polygon fill="#DEE9FC" points="3672.28 1310.13 3609.63 1310.85 3613.97 1286.73 3675.26 1286.73"></polygon><polygon fill="#DEE9FC" points="3664.26 1370.7 3601.6 1371.42 3605.95 1347.31 3667.24 1347.31"></polygon><polygon fill="#DEE9FC" points="3653.11 1431.28 3590.45 1432 3594.8 1407.88 3656.09 1407.88"></polygon><path fill="#B0C8EB" d="M2251.77,2181.82h-937.33c-24.4,0-43.05-9.39-39.3-19.79l69.4-192.78c3-8.33,19.56-14.48,39.09-14.52
								l941.37-2.13c24.6-0.06,43.41,9.44,39.46,19.91l-73.44,194.91C2287.9,2175.72,2271.28,2181.82,2251.77,2181.82z"></path><polygon fill="#FFF" points="2255.77 2170.45 1272.08 2170.45 1349.74 1954.8 2337.9 1952.49"></polygon><polygon fill="#DEE9FC" points="2156.89 2097.09 1482.74 2098.99 1529.46 2035.42 2188.95 2035.42"></polygon><path fill="#456BC5" d="M1545.43,2063.92c-5.06,44.09-48.42,78.34-93.1,79.85c-40.67,1.37-72.66-25.03-74.8-61.28
							c-2.31-39.23,30.58-80.47,77.94-89.94C1508.33,1981.97,1550.99,2015.44,1545.43,2063.92z"></path><polygon fill="#FFF" points="1428.26 2052.97 1443.26 2071.54 1500.53 2028.21 1516.9 2043.07 1440.53 2106.2 1406.44 2067.21"></polygon><path fill="#B0C8EB" d="M3835.35,3014.71l-902.45-5.56c-23.49-0.14-41.14-41.24-37.19-86.62l73.11-841.05
								c3.16-36.32,19.31-63.09,38.11-63.17l906.4-3.7c23.68-0.1,41.49,41.45,37.35,87.14l-77.07,850.31
								C3870.33,2988.3,3854.13,3014.82,3835.35,3014.71z"></path><polygon fill="#FFF" points="3839.57 2965.11 2892.49 2959.28 2974.3 2018.45 3925.75 2014.23"></polygon><path fill="#456BC5" d="M3355.38,2201.63c-9.67,84.27-92.56,149.74-177.96,152.63c-77.73,2.63-138.89-47.83-142.98-117.12
							c-4.42-74.98,58.46-153.8,148.97-171.92C3284.46,2044.99,3366,2108.97,3355.38,2201.63z"></path><polygon fill="#DEE9FC" points="3786.59 2141.9 3423.22 2142.93 3448.4 2108.66 3803.86 2108.66"></polygon><polygon fill="#DEE9FC" points="3751.97 2241.15 3388.61 2242.18 3413.78 2207.91 3769.25 2207.91"></polygon><polygon fill="#DEE9FC" points="3719.67 2356.17 3356.31 2357.19 3381.49 2322.93 3736.95 2322.93"></polygon><polygon fill="#DEE9FC" points="3703.73 2471.18 3004.94 2472.21 3053.36 2437.95 3736.95 2437.95"></polygon><path fill="#FD8917" d="M3527.5,2776.99l2.15-221.19c64.22,0.51,125.69,24.06,170.9,65.47
							c45.21,41.41,70.61,97.41,70.61,155.72H3527.5z"></path><path fill="#618FDF" d="M3514.84,2773.55l-126.24-26.06c6.5-25.97,22.55-49.18,45.48-65.8
							c22.93-16.62,51.42-25.67,80.76-25.67V2773.55z"></path><path fill="#2D4CAF" d="M3514.84,2786.44l6.08,117.39c-2.02,0.09-4.05,0.13-6.08,0.13c-71.02,0-129.46-53.05-129.46-117.52
							c0-8.77,1.08-17.51,3.22-26.06L3514.84,2786.44z"></path><path fill="#ACC9FA" d="M3527.5,2790.9l129.33,5.16c-1.38,28.45-14.1,55.5-35.79,76.08c-21.69,20.58-50.89,33.32-82.14,35.83
							L3527.5,2790.9z"></path><polygon fill="#FD8917" points="3126.76 2625.42 3006.86 2626.8 3015.17 2580.65 3132.46 2580.65"></polygon><polygon fill="#2D4CAF" points="3114.81 2705.02 2994.91 2706.4 3003.22 2660.25 3120.51 2660.25"></polygon><polygon fill="#618FDF" points="3105.96 2784.61 2986.05 2786 2994.36 2739.85 3111.66 2739.85"></polygon><polygon fill="#ACC9FA" points="3097.1 2864.21 2977.2 2865.59 2985.51 2819.44 3102.8 2819.44"></polygon><polygon fill="#DEE9FC" points="3381.22 2625.8 3148.82 2626.8 3164.92 2593.23 3392.27 2593.23"></polygon><polygon fill="#DEE9FC" points="3364.87 2699.11 3132.46 2700.11 3148.57 2666.54 3375.92 2666.54"></polygon><polygon fill="#DEE9FC" points="3359.2 2784.99 3126.79 2786 3142.9 2752.42 3370.25 2752.42"></polygon><polygon fill="#DEE9FC" points="3352.92 2864.59 3120.51 2865.59 3136.62 2832.02 3363.97 2832.02"></polygon><path fill="#DEE9FC" d="M2735.29,2150.06c-7.89,68.78-75.54,122.21-145.25,124.57c-63.44,2.15-113.36-39.04-116.69-95.59
							c-3.61-61.2,47.71-125.53,121.59-140.32C2677.41,2022.21,2743.97,2074.43,2735.29,2150.06z"></path><path fill="#FCFAFF" d="M2724.38,2138.91c-7.56,65.92-72.4,117.13-139.2,119.38c-60.8,2.06-108.64-37.42-111.83-91.61
							c-3.46-58.65,45.72-120.3,116.52-134.47C2668.9,2016.39,2732.69,2066.43,2724.38,2138.91z"></path><polygon points="2555.5 2129.59 2570.5 2148.16 2627.77 2104.83 2644.14 2119.68 2567.77 2182.82 2533.68 2143.82"></polygon><path fill="#B0C8EB" d="M2191.99,3032.85l-679.8-4.19c-17.7-0.11-30.99-31.07-28.02-65.25l55.07-633.55
								c2.38-27.36,14.54-47.52,28.71-47.58l682.78-2.79c17.84-0.07,31.25,31.22,28.13,65.64l-58.05,640.53
								C2218.34,3012.95,2206.13,3032.94,2191.99,3032.85z"></path><polygon fill="#FFF" points="2195.17 2995.49 1481.75 2991.09 1543.37 2282.38 2260.09 2279.2"></polygon><path fill="#000205" d="M2136.83,2394.28l-2.3,0.04l-293,5.63l-12.72,0.25l-4.97,0.1l-75.57,1.44l-1.29,0.03l-12.07,101.72
								l-1.19,10.02L1718,2645.92l-1.97,16.46l-1.78,15.09l-3.67,30.87l-4.82,40.62c0,0-0.02,0.01,0,0.04l-0.51,4.21v0.01
								l-0.48,4.01l-0.43,3.57l-0.25,2.13l-6.23,52.46l-13.23,111.44l-1.82,15.18l100.15-0.22l3.93-0.01l76.07-0.18l137-0.31
								l73.22-0.17h0.02l15.23-0.03l59.5-0.14h1.9l5.68-47.53l0.71-6.03l0.15-1.15l0.05-0.43l9.96-83.35l0.33-2.74l26.68-223.25
								v-0.04l0.21-1.71v-0.01l9.2-76.94l12.37-103.51l0.18-1.5L2136.83,2394.28z M2210.3,2410.5c0,0,0.02,0,0,0.01l-2,16.64
								c0,0.01,0,0.03,0,0.03l-6.77,56.64l-0.3,2.64l-1.39,11.48l-9.18,76.83v0.01l-0.96,7.99v0.01l-0.05,0.46l-1.11,9.2v0.04
								l-8.75,73.21v0.01l-0.31,2.64l-10.54,88.26l-0.33,2.64l-4.63,38.8l-0.03,0.18l-5.88,49.25v0.01l-0.33,2.64l-4.31,36.08
								l-0.02,0.18l-0.12,1.03l-1.01,8.41l-5.09,42.51h-2.15l-52.76,0.13l-20.43,0.04h-0.55l-2.4,0.01l-68.75,0.15l-6.23,0.01h-2.92
								l-74.6,0.18h-0.02l-2.92,0.01h-0.02l-50.56,0.11l-23.64,0.04h-0.02l-2.92,0.01l-47.56,0.12h-3.75l-22.55,0.06h-2.94
								l-73.47,0.17l0.55-4.74v-0.01l0.4-3.22l0.76-6.52l8.61-72.41v-0.01l0.33-2.64l4.1-34.44l6.23-52.49l0.16-1.49v-0.03
								c0,0,0,0,0-0.01l0.28-2.35l0.03-0.22l2.06-17.39c0-0.01,0-0.01,0-0.01v-0.04l4.06-34.09l3.53-29.8l0.5-4.15v-0.01l0.31-2.64
								v-0.01l0.94-7.96l1.83-15.34l7.57-63.66v-0.01l0.3-2.64v-0.01l8.16-68.53l1.04-8.92l1.14-9.54l0.31-2.64l10.34-87.02
								l73.7-1.42l1.21-0.03l1.72-0.04h0.02l5.8-0.1l8.95-0.17l59.32-1.15l2.92-0.06h0.02l74.43-1.43l2.94-0.06l74.81-1.43
								l2.94-0.06l60.97-1.18l4.01-0.07h0.02l8.54-0.17l4.59-0.08l73.92-1.42h0.02l1.65-0.04l-0.33,2.65L2210.3,2410.5z"></path><rect width="464.3" height="2.64" x="1695.08" y="2848.65" fill="#000205" transform="translate(-17.337 11.8)"></rect><path fill="#7CA4DD" d="M1849.86,2678.3l-1.29,0.74l-0.63,0.36l-12.16,6.9l-46.37,26.27l-3.14,1.78l-8.69,4.93l-24.05,13.63
								c-0.61,1.47-1.32,2.92-2.13,4.33l25.47-14.45h0.02l8.99-5.08l0.02-0.01l3.12-1.78l49.22-27.91l11.66-6.63l3.24-1.82
								l0.78-0.44C1852.62,2678.84,1851.27,2678.58,1849.86,2678.3z M1910.32,2758.65h-0.02l-29.22,0.22h-0.02l-8.04,0.07
								l-10.98,0.08l2.08,2.64h0.02l8.23-0.07l8.8-0.07l29.02-0.24l21.36-0.17l2.51-2.65L1910.32,2758.65z M1910.32,2758.65h-0.02
								l-29.22,0.22h-0.02l-8.04,0.07l-10.98,0.08l2.08,2.64h0.02l8.23-0.07l8.8-0.07l29.02-0.24l21.36-0.17l2.51-2.65
								L1910.32,2758.65z M1910.32,2758.65h-0.02l-29.22,0.22h-0.02l-8.04,0.07l-10.98,0.08l2.08,2.64h0.02l8.23-0.07l8.8-0.07
								l29.02-0.24l21.36-0.17l2.51-2.65L1910.32,2758.65z M2170.23,2756.58l-1.29,0.01l-28.54,0.24l-26.3,0.21l-7.4,0.06l-13.2,0.1
								l1.47-12.39v-0.01l0.46-3.93l0.12-0.88l0.26-2.24v-0.01l5.12-42.76l3.07-25.81v-0.01l0.31-2.64l10.52-88.06l0.31-2.65
								l8.87-74.31l1.65-13.77v-0.01l0.08-0.74l0.23-1.9v-0.01l0.31-2.65l5.75-48.05v-0.01l3.88-32.45v-0.01l0.58-4.92l0.31-2.65
								l0.33-2.67l-2.63,2.71l-2.61,2.7l-1.6,1.67l-0.02,0.01l-27.24,28.2l-0.02,0.01l-42.86,44.36l-11.98,12.39l-2.61,2.7v0.01
								l-0.73,0.75l-1.87,1.93l-11.48,11.89l-0.02,0.01l-3.32,3.43l-42.3,43.77l-26.15,27.08l-2.59,2.68l-0.43,0.44l-0.31,0.32
								l-1.9,1.92l-0.02,0.01l-22.75,23.1l-29.48,29.92l-21.06,21.38l-9.23,9.35l-0.02,0.01l-3.11,3.15l-0.2,0.11h-0.02l-2.44,1.4
								l-4.76,2.7l-0.02,0.01l-11.55,6.53l-1.29,0.74l-0.63,0.36l-12.16,6.9l-46.37,26.27l-3.14,1.78l-8.69,4.93l-24.05,13.63
								l-11.15,6.33l-34.69,19.66l-0.23,0.12l-1.04,0.6l-2.1,1.18l-3.77,2.15l3.52-0.03l2.94-0.03h1.02l38.11-0.31l22.79-0.18
								l11.63-0.1h0.02l2.91-0.03l54.15-0.42h0.02l16.15-0.14h0.02l3.6-0.03h0.25l2.68-0.03h0.2l3.55-0.01h0.02l8.23-0.07l8.8-0.07
								l29.02-0.24l21.36-0.17l3.12-0.03l0.74-0.01h0.02l2.18-0.01l6.31-0.04l9.8-0.08l8.79-0.07l9.12-0.07l3.29-0.03h0.02
								l28.03-0.22l9.32-0.07l2.92-0.03l48.2-0.39l21.94-0.17h0.83l4.1-0.04l-2.02,16.89v0.01l-5.52,46.26l-2.41,20.16l-0.56,4.68
								l-0.31,2.64l-0.45,3.78l-3.96,33.12l-5.75,48.17l-0.35,2.93l-0.15,1.18l2.91,0.28l0.1-0.82v-0.01l0.08-0.64l6.08-51.08
								l4.31-36.01l0.1-0.89v-0.01l0.33-2.64l0.23-2.08l3.3-27.65l5.02-41.98l1.93-16.31l13.35-0.1l10.59-0.08l24.86-0.21
								l26.64-0.21l1.65-0.01L2170.23,2756.58z M2091.31,2751.08l-0.73,6.14l-2.87,0.01l-4.21,0.04l-20.33,0.17l-47.64,0.38
								l-2.92,0.03h-0.02l-9.89,0.07l-26.25,0.21l-3.3,0.03l-12.03,0.1l-7.58,0.06l-13.38,0.1l-2.23,0.03h-0.07l-2.87,0.03
								l-0.91,0.01h-0.02l-23.74,0.18h-0.02l-29.22,0.22h-0.02l-8.04,0.07l-10.98,0.08l-1.34,0.01h-0.02l-2.92,0.03h-0.02l-1.4,0.01
								l-18.62,0.14l-53.9,0.43l-2.92,0.03l-11.41,0.08l-22,0.18h-0.02l-26.02,0.21l-10.08,0.08h-0.51l0.17-0.1l33.3-18.88
								l7.09-4.01l25.47-14.45h0.02l8.99-5.08l0.02-0.01l3.12-1.78l49.22-27.91l11.66-6.63l3.24-1.82l0.78-0.44l13.08-7.42
								l1.22-0.71h0.02l2.31-1.31l0.18-0.1l0.58-0.58l0.1-0.1l12.03-12.2l19.99-20.28l30.49-30.97l21.94-22.26l0.02-0.01l2.59-2.63
								l0.43-0.44l0.3-0.31l1.87-1.93l26.71-27.65l44.37-45.93l1.6-1.67l0.02-0.01l10.57-10.93l2.61-2.71l0.73-0.74l0.02-0.01
								l1.85-1.93l12.78-13.24l42.43-43.91l0.02-0.01l28.21-29.2l0.28-0.29l-0.05,0.4v0.01l-4.23,35.5l-5.91,49.54l-0.1,0.74
								l-0.21,1.92l-0.33,2.65l-1.32,11.18l-8.89,74.24l-0.3,2.64v0.01l-10.52,88.05v0.01l-0.31,2.64l-2.64,22.12l-5.65,47.26
								l-0.02,0.24l-0.63,5.21v0.01l-0.84,7.03V2751.08z M1910.32,2758.65h-0.02l-29.22,0.22h-0.02l-8.04,0.07l-10.98,0.08
								l2.08,2.64h0.02l8.23-0.07l8.8-0.07l29.02-0.24l21.36-0.17l2.51-2.65L1910.32,2758.65z M1910.32,2758.65h-0.02l-29.22,0.22
								h-0.02l-8.04,0.07l-10.98,0.08l2.08,2.64h0.02l8.23-0.07l8.8-0.07l29.02-0.24l21.36-0.17l2.51-2.65L1910.32,2758.65z
								 M1910.32,2758.65h-0.02l-29.22,0.22h-0.02l-8.04,0.07l-10.98,0.08l2.08,2.64h0.02l8.23-0.07l8.8-0.07l29.02-0.24l21.36-0.17
								l2.51-2.65L1910.32,2758.65z"></path><polygon fill="#000205" points="1716.38 2673.32 1716.35 2670.68 2181.09 2665.68 2181.13 2668.32"></polygon><polygon fill="#033275" points="1772.59 2852.02 1770.38 2850.3 1859.46 2755.77 1926.23 2840 2024.57 2668.42 2085.55 2755.29 2189.54 2577.43 1727.03 2583.7 1726.99 2581.06 2194.42 2574.72 2085.78 2760.53 2024.83 2673.7 1926.63 2845.03 1859.26 2760.05"></polygon><polygon fill="#000205" points="1737.68 2494.06 1737.63 2491.42 2202.83 2483.79 2202.88 2486.43"></polygon><polygon fill="#000205" points="1993.77 2940.14 1990.88 2939.86 2055.63 2396.99 2058.53 2397.28"></polygon><polygon fill="#000205" points="1916.24 2940.32 1913.35 2940.03 1977.88 2398.49 1980.77 2398.77"></polygon><polygon fill="#000205" points="1839.09 2940.49 1836.19 2940.21 1900.5 2399.97 1903.39 2400.26"></polygon><polygon fill="#000205" points="1762.3 2940.67 1759.41 2940.38 1823.5 2401.45 1826.39 2401.74"></polygon><polygon fill="#1B5396" points="1685.97 2934.96 1684.55 2932.66 1847.32 2850.12 1935.29 2757.17 2034.26 2577.45 2034.39 2577.32 2212.63 2393.25 2214.82 2395 2036.7 2578.94 1937.74 2758.65 1937.62 2758.77 1849.19 2852.2 1848.97 2852.31"></polygon><ellipse cx="1846.71" cy="2851.16" fill="#1B5396" rx="21.77" ry="19.76"></ellipse><ellipse cx="1931.94" cy="2760.81" fill="#1B5396" rx="21.77" ry="19.76"></ellipse><ellipse cx="2035.31" cy="2579.5" fill="#1B5396" rx="21.77" ry="19.76"></ellipse><ellipse cx="2189.71" cy="2416.9" fill="#1B5396" rx="21.77" ry="19.76"></ellipse><ellipse cx="1774.68" cy="2850.94" fill="#033275" rx="21.77" ry="19.76"></ellipse><ellipse cx="1859.41" cy="2760.81" fill="#033275" rx="21.77" ry="19.76"></ellipse><ellipse cx="1925.29" cy="2840.19" fill="#033275" rx="21.77" ry="19.76"></ellipse><ellipse cx="2024.7" cy="2674.17" fill="#033275" rx="21.77" ry="19.76"></ellipse><g><ellipse cx="2084.93" cy="2757.23" fill="#033275" rx="21.77" ry="19.76"></ellipse></g><g><ellipse cx="2168.06" cy="2585.75" fill="#033275" rx="21.77" ry="19.76"></ellipse></g><g><ellipse cx="1727.01" cy="2753.21" fill="#7CA4DD" rx="21.77" ry="19.76"></ellipse></g><g><ellipse cx="1868.48" cy="2671.06" fill="#7CA4DD" rx="21.77" ry="19.76"></ellipse></g><g><ellipse cx="2046.47" cy="2486.61" fill="#7CA4DD" rx="21.77" ry="19.76"></ellipse></g><g><ellipse cx="2121.82" cy="2416.9" fill="#7CA4DD" rx="21.77" ry="19.76"></ellipse></g><g><ellipse cx="1621.37" cy="2488.92" fill="#1B5396" rx="70.55" ry="64.04"></ellipse></g><g><ellipse cx="1621.37" cy="2651.3" fill="#7CA4DD" rx="70.55" ry="64.04"></ellipse></g><g><ellipse cx="1596.2" cy="2813.67" fill="#033275" rx="70.55" ry="64.04"></ellipse></g><g><path fill="#FCFAFF" d="M2430.32,865.37c-5.58,48.65-53.43,86.44-102.73,88.1c-44.87,1.52-80.18-27.61-82.53-67.61
							c-2.55-43.29,33.74-88.78,85.99-99.24C2389.38,774.95,2436.46,811.87,2430.32,865.37z"></path></g><g><path fill="#FCFAFF" d="M2658.56,865.37c-5.58,48.65-53.43,86.44-102.73,88.1c-44.87,1.52-80.18-27.61-82.53-67.61
							c-2.55-43.29,33.74-88.78,85.99-99.24C2617.62,774.95,2664.7,811.87,2658.56,865.37z"></path></g><g><path fill="#FCFAFF" d="M2902.1,865.37c-5.58,48.65-53.43,86.44-102.73,88.1c-44.87,1.52-80.18-27.61-82.53-67.61
							c-2.55-43.29,33.74-88.78,85.99-99.24C2861.16,774.95,2908.23,811.87,2902.1,865.37z"></path></g><g><path fill="#FC9118" d="M2048.38,1804.42c-47.37,0-97.83-3.87-151.33-11.61l1.53-8.7c197.88,28.65,353.51,3.71,462.58-74.14
							c71.24-50.85,96.13-105.14,122.48-162.63c25.17-54.9,51.19-111.67,119.23-169.38c40.19-34.09,88.43-62.86,143.37-85.51
							c52.24-21.53,109.32-37.07,169.66-46.19c118.95-17.98,242.22-9.6,347.12,23.58c60.01,18.98,111.57,45.52,157.65,81.13
							c41.08,31.75,74.27,67.76,106.37,102.58c58.66,63.64,119.32,129.44,232.23,175.47c176.86,72.11,396.04,61.27,651.44-32.22
							l3.63,8.17c-111.05,40.65-216.38,66.09-313.08,75.62c-29.59,2.92-58.6,4.37-86.92,4.37c-94.04,0-180.86-16.03-259.05-47.91
							c-114.95-46.87-176.33-113.46-235.69-177.86c-66.16-71.78-128.66-139.57-259.78-181.05
							c-221.59-70.1-495.1-25.42-650.34,106.24c-66.52,56.41-92.13,112.29-116.9,166.33c-26.85,58.57-52.21,113.9-125.44,166.17
							C2285.55,1775.15,2178.7,1804.42,2048.38,1804.42z"></path></g><g><path fill="#282828" d="M2065.36,1875.68c-47.37,0-97.83-3.87-151.33-11.61l1.53-8.7c197.87,28.65,353.51,3.71,462.58-74.14
							c71.24-50.85,96.13-105.14,122.48-162.63c25.17-54.9,51.19-111.67,119.23-169.38c40.19-34.09,88.43-62.86,143.37-85.51
							c52.24-21.53,109.32-37.08,169.66-46.2c118.94-17.98,242.22-9.6,347.12,23.58c60.01,18.98,111.57,45.52,157.65,81.13
							c41.08,31.75,74.27,67.76,106.37,102.58c58.66,63.64,119.32,129.44,232.23,175.47c176.87,72.11,396.04,61.27,651.44-32.22
							l3.63,8.17c-111.05,40.65-216.38,66.09-313.08,75.62c-29.59,2.92-58.59,4.37-86.92,4.37c-94.04,0-180.86-16.03-259.05-47.91
							c-114.95-46.87-176.33-113.46-235.69-177.86c-66.16-71.78-128.66-139.57-259.78-181.05
							c-221.59-70.1-495.1-25.42-650.34,106.24c-66.52,56.41-92.13,112.29-116.9,166.33c-26.85,58.57-52.21,113.9-125.44,166.17
							C2302.52,1846.41,2195.67,1875.68,2065.36,1875.68z"></path></g><g><path fill="#FCFAFF" d="M2560.04,2421.18c-5.38,46.88-51.49,83.31-99.01,84.91c-43.25,1.46-77.27-26.61-79.54-65.16
						c-2.46-41.72,32.52-85.57,82.88-95.65C2520.59,2334.03,2565.96,2369.63,2560.04,2421.18z"></path></g><g><path fill="#FCFAFF" d="M2838.88,2427.04c-5.38,46.88-51.49,83.31-99.01,84.91c-43.25,1.46-77.27-26.61-79.54-65.16
						c-2.46-41.72,32.52-85.57,82.88-95.65C2799.43,2339.9,2844.8,2375.49,2838.88,2427.04z"></path></g><g><path fill="#FFAD93" d="M4162.23 3136.12c0 0-36.57 127.78-59.83 115.28-23.26-12.5-9.05-51.16-1.96-69.83s25.48-55.64 25.48-55.64L4162.23 3136.12zM4028.87 3127.15c0 0-36.57 127.78-59.83 115.28s-9.05-51.16-1.96-69.83c7.09-18.67 25.48-55.64 25.48-55.64L4028.87 3127.15z"></path><polygon fill="#FFA681" points="4090.48 1722.55 4109.7 1829.43 4077.22 1899.43 4013.78 1855.95 4013.78 1767.35"></polygon><path fill="#BF7D61" d="M4014.64,1820.95c0,0,28.11,0,52.58-22.49c11.25-10.34,18.52-33.78,18.52-33.78l-72.19,29.17
				L4014.64,1820.95z"></path><polygon fill="#FFAD93" points="4102.4 2950.69 4115.05 3135.61 4173.26 3135.61 4194.77 2927.58"></polygon><polygon fill="#FFAD93" points="3967.64 2950.38 3980.3 3132.77 4038.5 3132.77 4060.01 2927.58"></polygon><path fill="#FFA681" d="M4100.86,1747.14c0,0-37.78,53.85-82.56,48.02c-44.78-5.84-65.95-74.11-68.75-97.99
				c-2.8-23.89-8.21-83.25,57.84-86.43s82.84,90.73,82.84,90.73s29.98-23.05,36.19,6.58
				C4135.98,1753.56,4100.86,1747.14,4100.86,1747.14z"></path><path fill="#3B2C29" d="M3960.93,1652.66c0,0,39.18,22.82,69.4,22.82c30.22,0,44.22,30.79,57.09,27.6
				c12.87-3.18,24.34-9.77,29.44,8.76c7.96,28.92-5.84,32.35-16.01,35.3l-4.84,6.22l15.18,85.57l81.45,30.33
				c0,0-3.92-66.92-12.31-80.73c-8.4-13.8,7.84-33.44,2.24-54.67c-5.6-21.23-24.63-46.18-24.63-74.31s-39.74-82.8-105.23-81.74
				c-65.49,1.06-90.67,7.43-108.58,50.96c-17.91,43.52-16.23,84.93-3.92,113.06c12.31,28.13,20.15,115.71,20.15,115.71l55.05-17.32
				l-1.88-46.38c0,0-48.97-23.1-55.97-76.18C3950.58,1664.61,3960.93,1652.66,3960.93,1652.66z"></path><polygon fill="#FEB008" points="4259 2403.81 4312.14 2961.77 4275.45 2938.98 4259 2971.37 4212.18 2940.18 4165.36 2971.37 4132.46 2948.58 4083.12 2971.37 4028.71 2944.98 4010.99 2962.97 3990.75 2942.58 3938.87 2961.77 3926.22 2936.58 3873.07 2955.78 3917.36 2400.21"></polygon><path fill="#E39D07" d="M4185.97,2423.78c0,0,16.1,224.78,18.63,301.23s-9.83,226.54-9.83,226.54l17.41-11.73l46.82,31.55
				l16.45-32.77l36.69,23.06l-52.08-553.06L4185.97,2423.78z"></path><path fill="#6398F4" d="M4109.7,1829.43c0,0-26.57,40.8-55.67,37.8c-29.1-3-39.54-32.4-39.54-32.4l-113.13,46.32
				c0,0,54.61,338.86,45.12,380.26s-36.69,152.39-36.69,152.39s7.28,13.8,24.99,13.5c17.71-0.3,17.71-0.3,17.71-0.3
				s18.35,9.9,39.23,7.5s20.88-2.4,20.88-2.4s28.15,5.4,45.87,0.9c17.71-4.5,17.71-4.5,17.71-4.5s28.79,8.7,47.13,3.9
				c18.35-4.8,18.35-4.8,18.35-4.8s44.6,5.7,57.57,0s12.97-5.7,12.97-5.7s21.51,5.7,40.49-3.3s18.98-9,18.98-9
				s-59.47-172.19-59.47-222.59s27.58-315.31,27.58-315.31L4109.7,1829.43z"></path><path fill="#5B8DE3" d="M4201.62 1879.41c0 0-35.82 18.43-16 104.78 4.94 21.5 17.64 58.44 17.64 58.44l-92.72-37.79 4.46 13.48 114.03 44.24L4201.62 1879.41zM3987.09 2101.33c0 0 14.11 10.29 29.61 17.49 13.07 6.07 130.92 95.99 153.08 137.39s-28.13 171.38-28.13 171.38 46.04 4.79 55.73.67 14.81-6.37 14.81-6.37 18.84 5.62 33.36-.59c14.52-6.21 26.11-11.71 26.11-11.71s-45.46-139.61-51.94-174.08-6.32-76.85-6.32-76.85l-78.23-62.27L3987.09 2101.33z"></path><path fill="#6398F4" d="M4202.21,1998.69l26.81,63.86l-142.52-55.29l16.58,58.22c0,0,127.19,131.13,173.58,112.73
				c46.4-18.4,49.96-58.33,36.46-123.93c-13.5-65.6-37.12-202.39-96.59-183.19S4202.21,1998.69,4202.21,1998.69z"></path><path fill="#E7E3D8" d="M3948.92,1907l119.03-4.76c7.04-0.28,13.37,4.07,15.27,10.5l51.36,173.22
				c2.68,9.04-4.32,18.05-14.21,18.31l-120.44,3.17c-6.99,0.18-13.21-4.18-15.08-10.58l-49.95-171.62
				C3932.31,1916.3,3939.15,1907.4,3948.92,1907z"></path><path fill="#FFA68C" d="M3963.93,2021.37l5.52-14.8c0,0,24.88-6,31.21-11.8s25.73-19.4,24.04-23.6c-1.69-4.2-10.76,2-10.76,2
				s14.97-12.7,13.5-16.7c-1.48-4-9.17-0.5-9.17-0.5s15.18-9.1,12.34-13.1c-2.85-4-26.36,4.5-26.36,4.5s14.08-8.4,12.81-13.35
				c-1.27-4.95-23.25,3.75-34.32,10.65c-11.07,6.9-37.33,10.65-37.96,8.55c-0.63-2.1-3.68-6.72-3.68-6.72s-5.81,13.17-3.92,22.17
				c1.9,9-0.3,21-0.3,21L3963.93,2021.37z"></path><path fill="#6398F4" d="M3844.84,2159.87c37.11,21.6,60.31,2.83,73.38-23.21c12.58-25.07,47.2-108.71,49.78-114.92
				c0.1-0.24,0.14-0.36,0.14-0.36l-33.79-37.19c0,0-2.53-102.65-7.49-104.75c-29.14-12.34-40.49,22.8-40.49,22.8
				s-26.23,67.96-40.59,137.75l-0.02,0.04C3834.15,2096.49,3828.24,2150.21,3844.84,2159.87z"></path><path fill="#FEB008" d="M4056.48 1867.38c0 0 9.56 22.06 29.6 12.86 20.03-9.2 28.91-49.47 28.91-49.47l-5.29-1.33L4056.48 1867.38zM4054.03 1867.23c0 0-8.48 27.36-23.06 17.01-14.58-10.35-22.91-47.4-22.91-47.4l6.44-2L4054.03 1867.23z"></path><path fill="#5B8DE3" d="M3844.83,2186.62c45.56,24.61,73.38-24.51,84.36-54.47c9.6-26.23,36.24-104.2,38.82-110.41
				c0.1-0.24,0.14-0.36,0.14-0.36l-33.79-37.19c0,0-65.69,120.24-73.92,117.83c-8.21-2.4-14.65-62.04-14.65-62.04l-0.02,0.04
				C3834.15,2096.49,3812.77,2169.3,3844.83,2186.62z"></path><path fill="#3B4352" d="M4017.36 3130.41c0 0-25.13 107.63-50.68 101.55-19.17-4.56 24.43-100.31 24.43-100.31l-10.9-.29c0 0-18.7 46.65-23.4 66.72-4.7 20.06-11.75 41.91-26.33 51.72-14.57 9.81-24.45 24.07-10.34 29.87 14.1 5.8 70.52 8.92 85.56-25.86 15.04-34.77 15.04-34.77 15.04-34.77l6.11 64.23h13.16c0 0 17.39-91.87 15.98-106.14s-16.77-51.2-16.77-51.2L4017.36 3130.41zM4152.81 3129.91c0 0-25.41 109.01-50.72 102.05-18.88-5.19 23.51-98.53 23.51-98.53h-10.81c0 0-17.86 44.58-22.57 64.64-4.7 20.06-11.75 41.91-26.33 51.72-14.57 9.81-24.45 24.07-10.34 29.87 14.1 5.8 70.52 8.92 85.56-25.86 15.04-34.77 15.04-34.77 15.04-34.77l6.11 64.23h13.16c0 0 17.39-91.87 15.98-106.14-1.41-14.27-16.9-53.72-16.9-53.72L4152.81 3129.91z"></path></g><g><polygon fill="#FFBB9A" points="1247.66 3119.86 1248 3221.99 1292.39 3228.16 1331.82 3189.98 1331.82 3119.86"></polygon><path fill="#3B4352" d="M1245.4,3193.6l63.8,5.65c0,0,4.01-26,28.05-22.97s59.84,31.8,105.26,49.33s56.77,55.37-1.06,55.26
				c-50.46-0.1-201.06-0.6-201.06-0.6L1245.4,3193.6z"></path><polygon fill="#FFBB9A" points="1030.27 3154.32 1030.62 3256.46 1075.01 3262.62 1114.44 3224.45 1114.44 3154.32"></polygon><path fill="#3B4352" d="M1028.02,3228.07l63.8,5.65c0,0,4.01-26,28.05-22.97c24.05,3.02,59.84,31.8,105.26,49.33
				c45.42,17.53,56.77,55.37-1.06,55.26c-50.46-0.1-201.06-0.6-201.06-0.6L1028.02,3228.07z"></path><polygon fill="#FFBB9A" points="1121.08 1847.5 1138.8 1753.92 1251.1 1814.95 1246.4 1863.65 1170.47 1926.72"></polygon><polygon fill="#35415C" points="1207.42 2348.96 1244.2 3147.16 1337.36 3147.16 1397.83 2348.96"></polygon><polygon fill="#35415C" points="1248.08 2348.96 1135.55 3172.09 1023.02 3172.09 1051.35 2348.96"></polygon><path fill="#FFBB9A" d="M1134.67,1758.77c0,0,109.32,75.61,144.19,57.85s7.26-171.59,7.26-171.59s-13.96-80.21-70.54-76.59
				c-56.58,3.62-60.21,120.64-60.21,120.64s-8.44-30.9-25.33-28.43c-16.89,2.47-14.44,34.76-8.99,43.39
				S1134.67,1758.77,1134.67,1758.77z"></path><path fill="#141C1F" d="M1138.79,1763.78c0,0,105.96,79.14,137.92,65s23.24-94.67,23.24-94.67s-43.22-10.19-74.45,1.64
				c-31.23,11.83-82.44,1.64-92.25-20.05c-9.81-21.7-17.07-47.34,1.82-47.5c11.11-0.1,19.79,28.93,19.79,28.93
				s17.43-30.74,20.16-48.98c2.72-18.24,0-35.01,0-35.01s99.15,58.84,134.38,34.52c35.23-24.33,30.51-60.81,30.51-60.81
				s-18.52,7.89-38.14-5.59c-19.61-13.48-43.58-38.79-78.09-35.17c-34.5,3.62-54.48,13.15-54.48,13.15s-61.38-11.83-88.26,19.07
				c-26.88,30.9-15.98,120.97,0,146.94S1138.79,1763.78,1138.79,1763.78z"></path><path fill="#FFBB9A" d="M1246.4 1752.53h45.76C1292.17 1752.53 1275.49 1775.62 1246.4 1752.53zM1633.72 1873.32c0 0 6.54-20.22 3.81-29.58-2.72-9.37 5.45-66.81 17.71-64.1 12.26 2.71 4.63 29.58 4.63 29.58s9.26-23.91 11.71-40.19 5.18-29.83 26.42-21.45c21.25 8.38 28.6 45.86 20.43 76.67-8.17 30.82-29.96 70.51-29.96 70.51L1633.72 1873.32z"></path><path fill="#F37168" d="M1397.83,2355.38h-353.54l-37.36-488.47l117.27-35.88c0,0,26.3,45.07,67.71,44.08
				c41.4-0.99,66.46-34.52,66.46-34.52l91.75,23.06l33.78,8.48c0.09,0.04,0.17,0.09,0.24,0.14l6.68,236.01L1397.83,2355.38z"></path><path fill="#FFBB9A" d="M1024.84,2394.17c0,0,5.81,34.84,17.07,46.35c11.26,11.51,25.42,28.27,17.07,31.56
				c-8.35,3.29-34.14-24.65-34.14-24.65s-1.45,20.38,10.9,42.73s34.87,48.65,4.72,42.08c-30.15-6.57-52.3-33.53-58.11-54.57
				c-5.81-21.04-8.72-71-8.72-71L1024.84,2394.17z"></path><path fill="#F37168" d="M1046.25 2038.32c0 0-46.38 91.71-43.63 150.88 2.74 59.17 28.52 204.97 28.52 204.97l-66.65 18.09c0 0-69.17-219.11-62.63-278.28 6.54-59.17 54.98-288.18 116.54-265.5C1079.95 1891.16 1046.25 2038.32 1046.25 2038.32zM1702.14 1898.05c0 0-107.64 302.03-156.67 329.64-37.95 21.38-119.65-74.84-154.63-119.41-10.21-13.01-16.43-21.61-16.43-21.61s-66.72-75.64-84.98-165.36c-6.73-33.04 26.64-57.16 60.7-57.67l33.78 8.48c.09.04.17.09.24.14 8.94 5.3 16.71 13.18 22.23 24.06 21.08 41.48 86.86 123.76 107.41 157.54 3.29 5.43 12.05 5.04 14.75-.65l86.65-182.8L1702.14 1898.05z"></path><polygon fill="#FFF" points="1190.67 1875.12 1240.57 1921.46 1274.19 1844.35 1250.74 1836.65"></polygon><polygon fill="#FFF" points="1187.27 1875.11 1150.5 1921.46 1098.92 1838.76 1124.2 1831.03"></polygon><polygon fill="#FFF" points="959.46 2415.53 1038.63 2394.17 1027.01 2370.07 957.58 2389.72"></polygon><polygon fill="#FFF" points="1612.28 1867.25 1710.8 1896.35 1694.28 1919.51 1604.53 1892.87"></polygon></g></svg>