<svg xmlns="http://www.w3.org/2000/svg" xmlns:xlink="http://www.w3.org/1999/xlink" enable-background="new 0 0 4680 3120" viewBox="0 0 4680 3120" id="data-scientist"><path fill="#d3e2f9" d="M731.478 2046.958h3284.771v18.74H731.478z"></path><path fill="#00b77b" d="M1007.72 2144.856s-30.312 60.353-84.239 82.776c-53.927 22.422-129.535-5.828-171.928-39.14s-83.537-80.687-87.629-116.009c-4.092-35.322 67.007-21.392 67.007-21.392s-31.42-42.924-44.493-73.581c-13.073-30.657 2.243-62.646 45.206-43.603l42.964 19.043s-32.948-66.723-32.353-108.391c.594-41.668 25.151-104.167 71.455-60.032s51.044 136.689 51.044 136.689 10.302-39.445 24.965-68.3c14.663-28.855 45.117-25.112 59.162 15.1 14.045 40.212 19.428 97.779 19.428 97.779s13.421-44.419 35.335-37.358 34.695 59.109 31.014 110.205c-3.679 51.096-26.938 106.214-26.938 106.214z"></path><path fill="#00d967" d="M998.126 2036.808s-1.605-219.804-169.99-298.095c0 0-77.064 184.606 39.948 342.889s93.054 121.49 93.054 121.49l36.988-166.284z"></path><path fill="none" stroke="#fff" stroke-linecap="round" stroke-linejoin="round" stroke-miterlimit="10" stroke-width="2" d="m869.707 1841.539 95.795 326.425"></path><ellipse cx="1909.724" cy="2295.051" fill="#ebf5ff" rx="208.143" ry="42.739"></ellipse><ellipse cx="3628.268" cy="2273.939" fill="#ebf5ff" rx="230.412" ry="42.739"></ellipse><ellipse cx="3064.444" cy="2252.312" fill="#ebf5ff" rx="414.044" ry="42.739"></ellipse><ellipse cx="1288.883" cy="2273.231" fill="#ebf5ff" rx="345.138" ry="31.752"></ellipse><path fill="#b0d8ff" d="M3140.245 1684.687H1612.21c-49.145 0-88.985-39.84-88.985-88.985V541.438c0-49.145 39.84-88.985 88.985-88.985h1528.035c49.145 0 88.985 39.84 88.985 88.985v1054.264c0 49.145-39.84 88.985-88.985 88.985z"></path><path fill="#37abc8ff" d="M3113.894 1708.31H1611.502c-48.754 0-88.276-39.523-88.276-88.276V564.352c0-48.754 39.523-88.276 88.276-88.276h1502.392c48.753 0 88.276 39.523 88.276 88.276v1055.682c0 48.753-39.523 88.276-88.276 88.276z"></path><linearGradient id="a" x1="2355.53" x2="2367.531" y1="251.87" y2="1658.881" gradientUnits="userSpaceOnUse"><stop offset="0" stop-color="#b0d8ff"></stop><stop offset=".015" stop-color="#b3d9ff"></stop><stop offset=".145" stop-color="#c4e1ff"></stop><stop offset=".301" stop-color="#d1e7ff"></stop><stop offset=".512" stop-color="#d8eaff"></stop><stop offset="1" stop-color="#daebff"></stop></linearGradient><path fill="url(#a)" d="M3067.302 1656.957H1658.093c-45.178 0-81.802-36.624-81.802-81.802V609.232c0-45.178 36.624-81.802 81.802-81.802h1409.209c45.178 0 81.802 36.624 81.802 81.802v965.923c0 45.178-36.624 81.802-81.802 81.802z"></path><path fill="#b0d8ff" d="M2019.706 1629.827h-245.349c-18.394 0-33.306-14.912-33.306-33.306v-245.349c0-18.394 14.912-33.306 33.306-33.306h245.349c18.394 0 33.306 14.912 33.306 33.306v245.349c0 18.394-14.912 33.306-33.306 33.306zM2496.538 1629.827h-245.349c-18.395 0-33.306-14.912-33.306-33.306v-245.349c0-18.394 14.912-33.306 33.306-33.306h245.349c18.395 0 33.306 14.912 33.306 33.306v245.349c0 18.394-14.912 33.306-33.306 33.306zM2973.37 1629.827h-245.349c-18.395 0-33.306-14.912-33.306-33.306v-245.349c0-18.394 14.912-33.306 33.306-33.306h245.349c18.394 0 33.306 14.912 33.306 33.306v245.349c0 18.394-14.912 33.306-33.306 33.306z"></path><path fill="#fff" d="M2091.531 992.177H1721.12c-8.098 0-14.663-6.565-14.663-14.663 0-8.098 6.565-14.663 14.663-14.663h370.411c8.098 0 14.663 6.565 14.663 14.663 0 8.099-6.565 14.663-14.663 14.663zM2091.531 1055.836H1721.12c-8.098 0-14.663-6.565-14.663-14.663 0-8.098 6.565-14.663 14.663-14.663h370.411c8.098 0 14.663 6.565 14.663 14.663 0 8.098-6.565 14.663-14.663 14.663zM2091.531 1119.495H1721.12c-8.098 0-14.663-6.565-14.663-14.663 0-8.098 6.565-14.663 14.663-14.663h370.411c8.098 0 14.663 6.565 14.663 14.663 0 8.098-6.565 14.663-14.663 14.663zM2091.531 1183.153H1721.12c-8.098 0-14.663-6.565-14.663-14.663 0-8.098 6.565-14.663 14.663-14.663h370.411c8.098 0 14.663 6.565 14.663 14.663 0 8.099-6.565 14.663-14.663 14.663zM2091.531 1246.812H1721.12c-8.098 0-14.663-6.565-14.663-14.663 0-8.098 6.565-14.663 14.663-14.663h370.411c8.098 0 14.663 6.565 14.663 14.663 0 8.098-6.565 14.663-14.663 14.663zM2574.963 992.177h-370.411c-8.098 0-14.663-6.565-14.663-14.663 0-8.098 6.565-14.663 14.663-14.663h370.411c8.098 0 14.663 6.565 14.663 14.663 0 8.099-6.565 14.663-14.663 14.663zM2574.963 1055.836h-370.411c-8.098 0-14.663-6.565-14.663-14.663 0-8.098 6.565-14.663 14.663-14.663h370.411c8.098 0 14.663 6.565 14.663 14.663 0 8.098-6.565 14.663-14.663 14.663zM2574.963 1119.495h-370.411c-8.098 0-14.663-6.565-14.663-14.663 0-8.098 6.565-14.663 14.663-14.663h370.411c8.098 0 14.663 6.565 14.663 14.663 0 8.098-6.565 14.663-14.663 14.663zM2574.963 1183.153h-370.411c-8.098 0-14.663-6.565-14.663-14.663 0-8.098 6.565-14.663 14.663-14.663h370.411c8.098 0 14.663 6.565 14.663 14.663 0 8.099-6.565 14.663-14.663 14.663zM2574.963 1246.812h-370.411c-8.098 0-14.663-6.565-14.663-14.663 0-8.098 6.565-14.663 14.663-14.663h370.411c8.098 0 14.663 6.565 14.663 14.663 0 8.098-6.565 14.663-14.663 14.663z"></path><path fill="##37abc8ff" d="M2704.936 1646.281h30.476v603.097h-30.476zM3397.856 1646.281h30.476v603.097h-30.476z"></path><path fill="#0542bf" d="M2650.4 1612.598h824.447v47.896H2650.4z"></path><path fill="#b0d8ff" d="M1828.627 1424.932s-7.485 70.982 80.199 46.184l5.347-49.927-85.546 3.743z"></path><path fill="#1e2889" d="M2076.709 1205.186h87.685l-62.23 265.93-110.199.138z"></path><path fill="#191e56" d="M1762.793 2140.481s-11.926 13.154-22.718 22.375c-10.792 9.22-25.614 9.265-32.489 21.669-6.875 12.404 19.221 43.35 35.436 67.44 16.215 24.09 37.542 39.39 51.546 22.468s-22.979-46.847-14.54-78.318c8.439-31.471 15.367-30.156 15.367-30.156l-32.602-25.478zM1987.738 2216.189s.395 17.751-1.093 31.868c-1.487 14.116-12.213 24.346-8.669 38.078 3.545 13.731 43.776 18.235 72.116 24.561s54.344 2.755 52.864-19.16c-1.479-21.916-48.907-18.187-64.436-46.832-15.526-28.644-9.595-32.456-9.595-32.456l-41.187 3.941z"></path><defs><path id="b" d="m2057.328 1593.35 10.55 11.872 34.286 596.037s-62.881 67.367-155.912 0c0 0 20.852-173.574 12.832-298.513s18.179-309.397 18.179-309.397h80.065z"></path></defs><use fill="#0542bf" overflow="visible" xlink:href="#b"></use><clipPath id="c"><use overflow="visible" xlink:href="#b"></use></clipPath><path fill="#073c9b" d="M1931.92 2082.982s41.25-8.25 69-79.5 41.24-72.478 45.745 9.511c4.505 81.989 16.707 192.432-8.144 231.711l63.643-13.503s48.007-81.984 46.507-123.743-25.5-124.387-28.5-195.182c-3-70.795 1.5-104.49-7.5-172.393s-9.285-81.568-25.949-117.403c-16.664-35.835 19.214-58.788-17.689-58.274-36.903.514-74.69-.955-84.526 8.409-9.837 9.364-45.277 63.931-45.277 63.931s2.604 123.935 7.022 194.435-4.582 166.501-9.082 192.001c-4.5 25.5-5.25 60-5.25 60z" clip-path="url(#c)"></path><defs><path id="d" d="m2060.669 1381.09 10.158 222.419s-20.852 14.97-58.278 3.208l48.12-225.627z"></path></defs><use fill="#fff" overflow="visible" xlink:href="#d"></use><clipPath id="e"><use overflow="visible" xlink:href="#d"></use></clipPath><path fill="#daebff" d="M2036.171 1620.229s21.49-134.712 22.745-143.856 3.505-10.644 8.005-27.894 16.5-61.5 4.5-76.5-25.468-46.537-33.75-5.993c-8.282 40.545-14.25 49.493-19.5 101.243s-4.491 62.294-5.62 89.273c-1.13 26.978-7.121 47.715 0 56.097 7.119 8.38 23.62 7.63 23.62 7.63z" clip-path="url(#e)"></path><defs><path id="f" d="M1864.516 1663.183s-78.728 371.195-158.059 461.018c0 0 31.344 80.199 150.039 65.763 0 0 95.763-219.745 87.981-436.283l-79.961-90.498z"></path></defs><use fill="#0542bf" overflow="visible" xlink:href="#f"></use><clipPath id="g"><use overflow="visible" xlink:href="#f"></use></clipPath><path fill="#073c9b" d="M1752.114 1989.981s129.556 6.166 129.556 194.334l32.503-66.474 39.473-140.019s-1.475-65.842 6.025-94.342 25.673-67.5 24.837-105c-.837-37.5-8.337-135.216-26.337-141.935-18-6.719-129.703 26.637-129.703 26.637l-48.798 213.107-27.556 113.692z" clip-path="url(#g)"></path><defs><path id="h" d="M2002.926 1164.552s66.687 9.841 83.796 34.97c17.109 25.129 53.078 104.576 74.464 105.111 21.386.535 31.01-10.159 31.01-10.159l31.01-14.97 24.06 54.001s-76.457 57.209-108.002 51.862c-31.545-5.347-64.159-51.862-64.159-51.862s-61.486 277.489-55.872 384.956c5.614 107.467-50.525 256.363-50.525 256.363s-159.864 44.117-261.449-109.866c0 0 83.407-141.342 109.071-218.868 25.664-77.526 71.052-133.084 80.734-171.969 9.682-38.886 8.554-91.962 8.554-91.962l5.347-139.547 91.961-78.06z"></path></defs><use fill="#ffab00" overflow="visible" xlink:href="#h"></use><clipPath id="i"><use overflow="visible" xlink:href="#h"></use></clipPath><path fill="#fe8e00" d="M1890.67 1454.479c2.25-.75 49.5-6.653 51-69.702s4.673-90.799 42.837-115.549 54.613-83.031 114.664-62.486c60.051 20.545-2.25-45.515-2.25-45.515l-123.751-15.448-55.5 59.408-82.5 124.042 23.25 102 32.25 23.25zM2075.837 1346.145c0-1-.732-12.64-.732-12.64s30.066 35.973 55.066 36.973c25 1 62.334-11.333 67.334-26.667 5-15.333 4-31 4-31l20.204 31.333s-4.203 27.667-6.203 27.667-12 6.557-22.333 9.278c-10.333 2.722-25.333 10.388-33 12.388s-36.667 4.667-42.333 2.667-9.667-3.667-13.667-6.333c-4-2.667-8-1.667-10.333-7s-11.667-28.333-13-31.667c-1.336-3.333-5.003-4.999-5.003-4.999z" clip-path="url(#i)"></path><path fill="#fe8e00" d="M1770.669 1947.83s104.006-22.349 143.503-119.85c39.498-97.5 19.182-184.275 63.09-288.639 43.908-104.363 95.658-244.614 90.408-277.614 0 0 15 35.25 8.25 81s-29.255 235.501-29.255 235.501l-12.745 248.251-48.75 159.001-113.85 11.25-100.651-48.9z" clip-path="url(#i)"></path><path fill="#d1e3ff" d="M766.227 595.699h659.827v787.263H766.227z" transform="rotate(-180 1096.14 989.33)"></path><path fill="#e3eeff" d="M736.039 595.699h675.909v787.263H736.039z" transform="rotate(-180 1073.993 989.33)"></path><path fill="#d1e3ff" d="M766.227 1382.962h659.827v56.097H766.227z" transform="rotate(-180 1096.14 1411.01)"></path><path fill="#e3eeff" d="M685.748 1382.962h675.909v56.097H685.748z" transform="rotate(-180 1023.702 1411.01)"></path><path fill="#f5fcff" d="M722.624 693.639h702.739v591.383H722.624z" transform="rotate(90 1073.994 989.33)"></path><path fill="#fff" d="m1297.079 1340.7-248.051-702.739H931.933l248.051 702.739z"></path><path fill="#e2eeff" d="M1350.118 1102.278a3.018 3.018 0 0 0 3.018-3.018V665.459a3.017 3.017 0 1 0-6.036 0v433.801a3.017 3.017 0 0 0 3.018 3.018z"></path><path fill="#fff" d="M1154.83 1340.7 906.779 637.961h-45.65L1109.18 1340.7z"></path><path fill="#d1e3ff" d="M429.616 986.648h702.739v5.367H429.616z" transform="rotate(90 780.985 989.33)"></path><path fill="#d1e3ff" d="M726.044 692.031h659.827l3.889-37.642H729.933z"></path><path fill="#d1e3ff" d="M726.044 719.583h659.827l3.889-37.641H729.933z"></path><path fill="#d1e3ff" d="M726.044 752.646h659.827l3.889-37.642H729.933z"></path><path fill="#d1e3ff" d="M726.044 789.436h659.827l3.889-37.642H729.933zM726.044 833.52h659.827l3.889-37.642H729.933zM726.044 883.113h659.827l3.889-37.642H729.933z"></path><circle cx="3686.956" cy="876.882" r="200.344" fill="#7bbdff"></circle><circle cx="3686.957" cy="876.882" r="183.613" fill="#daebff" transform="rotate(-45.001 3686.964 876.93)"></circle><path fill="#054aa9" d="M3686.957 882.628a5.732 5.732 0 0 1-3.866-1.495l-99.636-90.615a5.747 5.747 0 0 1 7.732-8.502l95.847 87.168 73.725-64.433a5.745 5.745 0 1 1 7.562 8.652l-77.583 67.804a5.725 5.725 0 0 1-3.781 1.421zM3680.692 1017.379h12.032v31.584h-12.032zM3680.692 704.802h12.032v31.583h-12.032z"></path><path fill="#054aa9" d="M3524.404 861.09h12.032v31.583h-12.032z" transform="rotate(90 3530.42 876.882)"></path><path fill="#054aa9" d="M3836.98 861.09h12.032v31.584h-12.032z" transform="rotate(90 3842.996 876.882)"></path><path fill="none" stroke="#de4d30" stroke-linecap="round" stroke-linejoin="round" stroke-miterlimit="10" stroke-width="2" d="m3686.956 880.517 48.631 146.262"></path><circle cx="3686.956" cy="876.882" r="21.183" fill="#7bbdff"></circle><circle cx="3686.956" cy="876.882" r="12.476" fill="#ffab00"></circle><path fill="#b0d8ff" d="M1632.42 1633.656H946.483a8.609 8.609 0 0 1-8.609-8.609v-113.271a8.609 8.609 0 0 1 8.609-8.609h685.937a8.609 8.609 0 0 1 8.609 8.609v113.271a8.61 8.61 0 0 1-8.609 8.609z"></path><ellipse cx="1008.303" cy="1568.412" fill="#006dfe" rx="14.894" ry="17.458"></ellipse><ellipse cx="1070.794" cy="1568.412" fill="#006dfe" rx="14.894" ry="17.458"></ellipse><ellipse cx="1133.286" cy="1568.412" fill="#006dfe" rx="14.894" ry="17.458"></ellipse><path fill="#006dfe" d="M1474.391 1601.552h-14.074a1.546 1.546 0 0 1-1.546-1.546v-63.484c0-.854.692-1.546 1.546-1.546h14.074c.854 0 1.546.692 1.546 1.546v63.484c0 .854-.692 1.546-1.546 1.546zM1502.664 1601.552h-14.074a1.546 1.546 0 0 1-1.546-1.546v-63.484c0-.854.692-1.546 1.546-1.546h14.074c.854 0 1.546.692 1.546 1.546v63.484a1.547 1.547 0 0 1-1.546 1.546zM1530.936 1601.552h-14.074a1.546 1.546 0 0 1-1.546-1.546v-63.484c0-.854.692-1.546 1.546-1.546h14.074c.854 0 1.546.692 1.546 1.546v63.484c0 .854-.692 1.546-1.546 1.546zM1559.209 1601.552h-14.074a1.546 1.546 0 0 1-1.546-1.546v-63.484c0-.854.692-1.546 1.546-1.546h14.074c.854 0 1.546.692 1.546 1.546v63.484c0 .854-.692 1.546-1.546 1.546z"></path><path fill="#0542bf" d="M965.515 1633.656h646.736v23.524H965.515z"></path><path fill="#b0d8ff" d="M1632.42 1787.669H946.483a8.609 8.609 0 0 1-8.609-8.609v-113.271a8.609 8.609 0 0 1 8.609-8.609h685.937a8.609 8.609 0 0 1 8.609 8.609v113.271a8.61 8.61 0 0 1-8.609 8.609z"></path><ellipse cx="1008.303" cy="1722.425" fill="#006dfe" rx="14.894" ry="17.458"></ellipse><ellipse cx="1070.794" cy="1722.425" fill="#006dfe" rx="14.894" ry="17.458"></ellipse><ellipse cx="1133.286" cy="1722.425" fill="#006dfe" rx="14.894" ry="17.458"></ellipse><path fill="#006dfe" d="M1474.391 1755.565h-14.074a1.546 1.546 0 0 1-1.546-1.546v-63.484c0-.854.692-1.546 1.546-1.546h14.074c.854 0 1.546.692 1.546 1.546v63.484c0 .854-.692 1.546-1.546 1.546zM1502.664 1755.565h-14.074a1.546 1.546 0 0 1-1.546-1.546v-63.484c0-.854.692-1.546 1.546-1.546h14.074c.854 0 1.546.692 1.546 1.546v63.484a1.547 1.547 0 0 1-1.546 1.546zM1530.936 1755.565h-14.074a1.546 1.546 0 0 1-1.546-1.546v-63.484c0-.854.692-1.546 1.546-1.546h14.074c.854 0 1.546.692 1.546 1.546v63.484c0 .854-.692 1.546-1.546 1.546zM1559.209 1755.565h-14.074a1.546 1.546 0 0 1-1.546-1.546v-63.484c0-.854.692-1.546 1.546-1.546h14.074c.854 0 1.546.692 1.546 1.546v63.484c0 .854-.692 1.546-1.546 1.546z"></path><path fill="#0542bf" d="M965.515 1787.669h646.736v23.524H965.515z"></path><path fill="#b0d8ff" d="M1632.42 1941.682H946.483a8.609 8.609 0 0 1-8.609-8.609v-113.271a8.609 8.609 0 0 1 8.609-8.609h685.937a8.609 8.609 0 0 1 8.609 8.609v113.271a8.61 8.61 0 0 1-8.609 8.609z"></path><ellipse cx="1008.303" cy="1876.437" fill="#006dfe" rx="14.894" ry="17.458"></ellipse><ellipse cx="1070.794" cy="1876.437" fill="#006dfe" rx="14.894" ry="17.458"></ellipse><ellipse cx="1133.286" cy="1876.437" fill="#006dfe" rx="14.894" ry="17.458"></ellipse><path fill="#006dfe" d="M1474.391 1909.578h-14.074a1.546 1.546 0 0 1-1.546-1.546v-63.484c0-.854.692-1.546 1.546-1.546h14.074c.854 0 1.546.692 1.546 1.546v63.484c0 .853-.692 1.546-1.546 1.546zM1502.664 1909.578h-14.074a1.546 1.546 0 0 1-1.546-1.546v-63.484c0-.854.692-1.546 1.546-1.546h14.074c.854 0 1.546.692 1.546 1.546v63.484a1.548 1.548 0 0 1-1.546 1.546zM1530.936 1909.578h-14.074a1.546 1.546 0 0 1-1.546-1.546v-63.484c0-.854.692-1.546 1.546-1.546h14.074c.854 0 1.546.692 1.546 1.546v63.484c0 .853-.692 1.546-1.546 1.546zM1559.209 1909.578h-14.074a1.546 1.546 0 0 1-1.546-1.546v-63.484c0-.854.692-1.546 1.546-1.546h14.074c.854 0 1.546.692 1.546 1.546v63.484c0 .853-.692 1.546-1.546 1.546z"></path><path fill="#0542bf" d="M965.515 1941.682h646.736v23.524H965.515z"></path><path fill="#b0d8ff" d="M1632.42 2095.695H946.483a8.609 8.609 0 0 1-8.609-8.609v-113.271a8.609 8.609 0 0 1 8.609-8.609h685.937a8.609 8.609 0 0 1 8.609 8.609v113.271a8.61 8.61 0 0 1-8.609 8.609z"></path><ellipse cx="1008.303" cy="2030.45" fill="#006dfe" rx="14.894" ry="17.458"></ellipse><ellipse cx="1070.794" cy="2030.45" fill="#006dfe" rx="14.894" ry="17.458"></ellipse><ellipse cx="1133.286" cy="2030.45" fill="#006dfe" rx="14.894" ry="17.458"></ellipse><path fill="#006dfe" d="M1474.391 2063.59h-14.074a1.546 1.546 0 0 1-1.546-1.546v-63.484c0-.854.692-1.546 1.546-1.546h14.074c.854 0 1.546.692 1.546 1.546v63.484c0 .854-.692 1.546-1.546 1.546zM1502.664 2063.59h-14.074a1.546 1.546 0 0 1-1.546-1.546v-63.484c0-.854.692-1.546 1.546-1.546h14.074c.854 0 1.546.692 1.546 1.546v63.484a1.547 1.547 0 0 1-1.546 1.546zM1530.936 2063.59h-14.074a1.546 1.546 0 0 1-1.546-1.546v-63.484c0-.854.692-1.546 1.546-1.546h14.074c.854 0 1.546.692 1.546 1.546v63.484c0 .854-.692 1.546-1.546 1.546zM1559.209 2063.59h-14.074a1.546 1.546 0 0 1-1.546-1.546v-63.484c0-.854.692-1.546 1.546-1.546h14.074c.854 0 1.546.692 1.546 1.546v63.484c0 .854-.692 1.546-1.546 1.546z"></path><path fill="#0542bf" d="M965.515 2095.695h646.736v23.524H965.515z"></path><path fill="#b0d8ff" d="M1632.42 2249.708H946.483a8.609 8.609 0 0 1-8.609-8.609v-113.271a8.61 8.61 0 0 1 8.609-8.609h685.937a8.609 8.609 0 0 1 8.609 8.609v113.271a8.61 8.61 0 0 1-8.609 8.609z"></path><ellipse cx="1008.303" cy="2184.463" fill="#006dfe" rx="14.894" ry="17.458"></ellipse><ellipse cx="1070.794" cy="2184.463" fill="#006dfe" rx="14.894" ry="17.458"></ellipse><ellipse cx="1133.286" cy="2184.463" fill="#006dfe" rx="14.894" ry="17.458"></ellipse><path fill="#006dfe" d="M1474.391 2217.603h-14.074a1.546 1.546 0 0 1-1.546-1.546v-63.484c0-.854.692-1.546 1.546-1.546h14.074c.854 0 1.546.692 1.546 1.546v63.484c0 .854-.692 1.546-1.546 1.546zM1502.664 2217.603h-14.074a1.546 1.546 0 0 1-1.546-1.546v-63.484c0-.854.692-1.546 1.546-1.546h14.074c.854 0 1.546.692 1.546 1.546v63.484a1.547 1.547 0 0 1-1.546 1.546zM1530.936 2217.603h-14.074a1.546 1.546 0 0 1-1.546-1.546v-63.484c0-.854.692-1.546 1.546-1.546h14.074c.854 0 1.546.692 1.546 1.546v63.484c0 .854-.692 1.546-1.546 1.546zM1559.209 2217.603h-14.074a1.546 1.546 0 0 1-1.546-1.546v-63.484c0-.854.692-1.546 1.546-1.546h14.074c.854 0 1.546.692 1.546 1.546v63.484c0 .854-.692 1.546-1.546 1.546z"></path><path fill="#0542bf" d="M965.515 2249.708h646.736v23.524H965.515z"></path><path fill="#ea756c" d="M3471.678 1327.728s-87.75 183.001-105.75 198.001-58.5 13.5-72.75 38.25 23.25 51.75 55.5 34.5 60.75-57.75 60.75-57.75l80.25-126.001v-75.75l-18-11.25z"></path><path fill="#0542bf" d="M3772.498 2117.842s15.182 16.745 28.92 28.483c13.739 11.738 32.607 11.794 41.358 27.585s-24.469 55.184-45.11 85.851-47.791 50.143-65.618 28.601c-17.828-21.542 29.252-59.636 18.509-99.699-10.743-40.062-19.562-38.389-19.562-38.389l41.503-32.432zM3558.962 2163.598s-.48 21.614 1.33 38.803c1.811 17.188 14.872 29.645 10.555 46.365-4.316 16.719-53.302 22.204-87.811 29.906-34.509 7.702-66.171 3.355-64.369-23.33 1.802-26.686 59.55-22.145 78.459-57.024 18.906-34.878 11.684-39.52 11.684-39.52l50.152 4.8z"></path><defs><path id="j" d="M3466.656 1557.479s-8.831 225.501 0 339.502 25.332 277.502 25.332 277.502h78.664s-6.664-252.001 15.836-345.002c22.5-93 45-248.501 39-272.001h-158.832z"></path></defs><use fill="#1e2889" overflow="visible" xlink:href="#j"></use><clipPath id="k"><use overflow="visible" xlink:href="#j"></use></clipPath><path fill="#181c77" d="M3521.178 1547.683s15 329.339 71 446.569c0 0 28-206.772 29-209.772s36-158.336 36-158.336l-46-87.289-90 8.828z" clip-path="url(#k)"></path><defs><path id="l" d="M3541.602 1569.274s20.627 193.413 44.673 271.824 128.594 316.78 128.594 316.78 48.092-2.091 78.411-34.501c0 0-84.684-221.641-92.002-293.779s.459-238.569-35.839-290.743l-123.837 30.419z"></path></defs><use fill="#1e2889" overflow="visible" xlink:href="#l"></use><clipPath id="m"><use overflow="visible" xlink:href="#l"></use></clipPath><path fill="#181c77" d="M3614.179 1531s18 243.48 43 306.481c25 63 115.319 280.361 115.319 280.361l40.682-18.36-49-133.001s-23-326.307-26-336.654-49-98.827-49-98.827h-75.001z" clip-path="url(#m)"></path><path fill="#181c77" d="M3481.178 2133.954h98.001l-8.526 40.528s-36.354 11-78.664 0l-10.811-40.528zM3692.753 2125.497l94.171-37.159 6.354 35.039s-25.977 40.222-78.411 34.501l-22.114-32.381z"></path><defs><path id="n" d="M3469.178 1053.851s-10.828 5.666-13.5 9.625c-11.01 16.313-30.977 52-13.739 157.001 17.239 105.001 37.576 126.001 32.907 198.001-4.669 72-12.669 147.001-12.669 147.001s86.583 73.711 217.583-11.29c0 0-27.957-204.364-38.957-277.365s-46.459-224.848-124.292-224.348l-47.333 1.375z"></path></defs><use fill="#66afff" overflow="visible" xlink:href="#n"></use><clipPath id="o"><use overflow="visible" xlink:href="#n"></use></clipPath><path fill="#39a1ff" d="M3454.563 1362.929s37.402 4.327 57.632-35.201c20.23-39.528 70.897-168.381 59.523-211.066 15.96 44.316 14.288 132.793 7.124 169.055s-48.664 122.762-110.665 119.262l-13.614-42.05z" clip-path="url(#o)"></path><path fill="#6d6a6b" d="M2750.336 1501.51h15.253v109.982h-15.253zM2975.316 1501.51h15.255v109.982h-15.255z"></path><path fill="#3f0717" d="M2730.181 1499.889h282.181v20.181h-282.181z"></path><path fill="#894700" d="M3148.184 1503.167h86.911v23.347h-86.911z"></path><path fill="#ffab00" d="M3283.794 1516.739s52.234-13.649 52.234-70.863c0-98.985-36.631-98.985-36.631-98.985h-73.41v-51.428h73.41s76.281 9.972 76.281 150.842c0 109.229-91.884 117.901-91.884 117.901H3107.16v-47.467h176.634z"></path><path fill="#fe8e00" d="m3233.135 1367.547 67.407-147.372-46.909-21.062-67.408 147.372z"></path><path fill="#fe8e00" d="M3175.533 1375.339h40.25v25.821h-40.25z" transform="rotate(-65.827 3195.697 1388.274)"></path><path fill="#894700" d="M3262.84 1183.931h28.501v51.413h-28.501z" transform="rotate(-65.821 3276.946 1209.608)"></path><path fill="#e57700" d="m3209.654 1387.935 23.481-20.388-46.91-21.062.371 31.099z"></path><path fill="#d16d00" d="M3107.16 1505.186v-12.481c0-6.889 5.593-12.475 12.481-12.475h144.531c6.895 0 12.481 5.586 12.481 12.475v12.481H3107.16z"></path><path fill="#6b3500" d="M3054.565 1612.737v-15.287c0-8.453 6.85-15.293 15.287-15.293h285.404c8.437 0 15.281 6.84 15.281 15.293v15.287h-315.972z"></path><path fill="#e57700" d="M3172.598 1597.45h58.175c10.475 0 14.758-6.05 9.521-13.442l-10.049-14.178c-5.225-7.395-13.804-19.489-19.035-26.872l-10.05-14.181c-5.237-7.396-13.803-7.396-19.041 0l-10.043 14.181a27329.862 27329.862 0 0 0-19.035 26.872l-10.049 14.178c-5.238 7.392-.955 13.442 9.514 13.442h20.092z"></path><path fill="#894700" d="M3183.292 1539.337c0 4.609 3.747 8.347 8.353 8.347 4.605 0 8.34-3.738 8.34-8.347 0-4.596-3.735-8.337-8.34-8.337s-8.353 3.741-8.353 8.337zM3216.434 1584.847c0 4.605 3.735 8.34 8.347 8.34 4.605 0 8.333-3.735 8.333-8.34 0-4.612-3.728-8.347-8.333-8.347a8.343 8.343 0 0 0-8.347 8.347zM3150.628 1584.847c0 4.605 3.735 8.34 8.346 8.34 4.599 0 8.34-3.735 8.34-8.34a8.343 8.343 0 1 0-16.686 0z"></path><path fill="#d16d00" d="M3265.746 1299.004c0 12.246 9.927 22.172 22.176 22.172 12.249 0 22.169-9.927 22.169-22.172 0-12.246-9.92-22.179-22.169-22.179s-22.176 9.933-22.176 22.179z"></path><path fill="#894700" d="M3274.628 1299.004c0 7.334 5.96 13.287 13.294 13.287 7.34 0 13.288-5.953 13.288-13.287 0-7.341-5.947-13.288-13.288-13.288-7.334 0-13.294 5.947-13.294 13.288z"></path><path fill="#fe8e00" d="M2778.174 1448.478h35v121.001h-35zM2827.175 1448.478h35v121.001h-35zM2876.175 1448.478h35v121.001h-35zM2925.175 1448.478h35v121.001h-35z"></path><path fill="#006dfe" d="M1791.939 626.61c-.001-18.116 4.98-30.813 14.774-36.868 15.376-9.504 40.099-1.074 69.617 23.738 28.43 23.897 58.493 60.363 84.65 102.679 26.158 42.317 45.336 85.51 54.003 121.625 8.997 37.495 5.485 63.38-9.89 72.884-15.376 9.504-40.099 1.074-69.617-23.737-28.43-23.898-58.493-60.363-84.65-102.68-26.158-42.317-45.336-85.51-54.003-121.624-3.266-13.61-4.884-25.695-4.884-36.017zm220.135 247.373c0-9.684-1.555-21.26-4.701-34.372-8.477-35.327-27.317-77.708-53.049-119.336s-55.219-77.427-83.029-100.804c-26.335-22.136-48.374-30.546-60.465-23.071-12.092 7.475-14.423 30.947-6.395 64.401 8.477 35.327 27.317 77.707 53.049 119.335s55.219 77.427 83.029 100.804c26.335 22.136 48.374 30.546 60.465 23.072 7.352-4.545 11.096-15.008 11.096-30.029z"></path><path fill="#006dfe" d="M1717.258 750.206c0-18.076 20.171-34.674 56.796-46.735 35.276-11.617 82.101-18.015 131.849-18.015s96.574 6.398 131.849 18.015c36.625 12.062 56.796 28.66 56.796 46.735 0 18.076-20.171 34.674-56.796 46.735-35.276 11.617-82.101 18.015-131.849 18.015s-96.574-6.398-131.849-18.015c-36.625-12.062-56.796-28.659-56.796-46.735zm369.464 0c0-14.215-18.74-28.54-51.417-39.302-34.507-11.364-80.462-17.622-129.401-17.622s-94.894 6.259-129.401 17.622c-32.677 10.761-51.417 25.086-51.417 39.302 0 14.216 18.741 28.54 51.417 39.301 34.507 11.364 80.462 17.622 129.401 17.622s94.895-6.259 129.401-17.622c32.676-10.761 51.417-25.086 51.417-39.301z"></path><path fill="#006dfe" d="M1791.685 873.769c0-10.368 1.642-22.515 4.958-36.209 8.74-36.096 28.008-79.251 54.253-121.513s56.382-78.666 84.861-102.506c29.568-24.751 54.309-33.13 69.665-23.594 15.356 9.537 18.814 35.429 9.74 72.905-8.74 36.096-28.008 79.251-54.253 121.513-26.245 42.263-56.382 78.666-84.861 102.506-29.568 24.751-54.309 33.13-69.666 23.594-9.743-6.052-14.697-18.691-14.697-36.696zm211.673-280.498-2.064 3.324c-12.076-7.499-34.132.865-60.512 22.947-27.858 23.32-57.419 59.058-83.236 100.633-25.818 41.575-44.744 83.916-53.294 119.226-8.097 33.437-5.814 56.915 6.262 64.414 12.076 7.499 34.132-.865 60.513-22.947 27.858-23.319 57.418-59.058 83.236-100.633 25.818-41.575 44.744-83.916 53.294-119.226 8.097-33.437 5.814-56.915-6.262-64.414l2.063-3.324z"></path><circle cx="1905.903" cy="750.206" r="21.759" fill="#00b77b" transform="rotate(-45.001 1905.904 750.231)"></circle><path fill="#fff" d="M2992.525 893.923h-712.661c-7.818 0-14.154-6.335-14.154-14.153V591.66c0-7.816 6.337-14.149 14.154-14.149h712.661c7.818 0 14.151 6.333 14.151 14.149v288.11c0 7.819-6.333 14.153-14.151 14.153z"></path><path fill="#daebff" d="M2986.802 746.92v120.259c0 5.349-4.354 9.703-9.742 9.703h-684.453c-5.388 0-9.742-4.354-9.742-9.703V603.021c63.215 0 94.693 23.634 113.146 54.678a81.366 81.366 0 0 1 3.363 6.082c31.22 59.079 21.821 140.054 90.47 140.054 2.542 0 4.957-.299 7.242-.906a20.307 20.307 0 0 0 4.226-1.376c46.18-19.453 38.98-157.48 121.128-156.49 17.548.22 30.657 6.945 41.006 17.682.991 1.081 1.983 2.154 2.931 3.322 36.782 43.165 37.299 139.362 93.783 156.825 20.359 6.296 38.341-2.241 56.105-16.337 1.12-.912 2.282-1.814 3.404-2.805 37.559-31.178 74.903-84.472 132.854-71.41 1.679.389 3.366.82 5.089 1.3 9.185 2.667 18.888 6.977 29.19 13.28z"></path><path fill="#00b77b" d="M2986.847 722.637c-12.289.179-21.691 4.315-29.236 11.004-13.968 12.368-21.471 33.499-28.805 54.155-10.992 30.917-22.332 62.826-55.496 62.826-1.765 0-3.619-.089-5.517-.26-21.607-2.115-37.515-19.702-51.529-43.807-8.712-14.924-16.689-32.389-24.794-50.277-22.94-50.324-46.701-102.368-90.426-103.577-.515 0-.99-.043-1.464-.043-13.237 0-24.064 5.042-33.204 13.41-18.497 16.86-30.272 47.255-41.783 77.01-17.035 44.026-34.626 89.565-74.341 90.468-28.546.607-41.523-10.179-53.166-30.616-4.486-7.935-8.797-17.335-13.715-28.072-8.969-19.661-20.176-44.112-38.72-72.57-12.461-19.059-28.285-31.174-45.278-38.506-45.791-19.963-99.692-5.347-116.509.132v-4.531c18.023-5.693 68.389-18.586 113.146-1.683 19.535 7.375 37.989 20.437 52.217 42.257 18.761 28.678 30.012 53.298 39.072 73.091 5.087 11.124 9.439 20.656 14.012 28.505 10.955 18.924 22.987 28.282 48.855 27.679 36.827-.861 53.123-43.035 70.419-87.703 11.725-30.315 23.671-61.279 42.86-78.784 10.176-9.268 22.377-14.794 37.688-14.361 46.485 1.252 70.759 54.546 94.263 106.122 8.016 17.504 15.778 34.622 24.272 49.243 13.457 23.372 28.548 40.316 48.553 42.3 34.152 3.365 45.018-27.252 56.536-59.722 7.153-20.223 14.481-40.831 27.765-53.988 8.451-8.448 19.362-13.795 34.241-14.015l.084 4.313z"></path><path fill="#0ace68" d="M3022.868 1073.895c-17.607-77.995-87.271-136.262-170.588-136.262v174.93l170.588-38.668z"></path><path fill="#fff" d="M2852.28 1112.563v-174.93c-96.611 0-174.929 78.318-174.929 174.93 0 96.611 78.318 174.929 174.929 174.929s174.93-78.318 174.93-174.929c0-13.295-1.532-26.223-4.342-38.668l-170.588 38.668z"></path><circle cx="2852.28" cy="1115.498" r="133.704" fill="#daebff"></circle><path fill="#ea756c" d="M2028.712 1124.477s-10.221 25.912-3.611 44.956c0 0-14.299 10.456-40.594 0v-42.456l33.205-9.5 11 7z"></path><defs><path id="p" d="M2085.819 1034.466s7.651 107.114-21.603 114.315c-29.254 7.201-57.608-22.053-57.608-22.053l3.6-73.81 75.611-18.452z"></path></defs><use fill="#ffaca6" overflow="visible" xlink:href="#p"></use><clipPath id="q"><use overflow="visible" xlink:href="#p"></use></clipPath><path fill="#ea756c" d="M1997.17 1138.477s41.333-7 45.334-24c4-17 3.667-30.667 23-34.333 19.333-3.667 29.333-9.333 29.333-9.333l-4.333-26.667-69.334 1-10 36-14 57.333z" clip-path="url(#q)"></path><defs><path id="r" d="M2228.553 1280.039s69.506-39.565 95.704-60.951c26.198-21.386 54.645-49.023 59.882-42.238 4.866 6.304-28.337 38.496-28.337 38.496s25.129 8.02 16.04 32.614c-9.089 24.594-27.802 21.386-59.347 32.08s-65.229 45.446-65.229 45.446l-18.713-45.447z"></path></defs><use fill="#ffaca6" overflow="visible" xlink:href="#r"></use><clipPath id="s"><use overflow="visible" xlink:href="#r"></use></clipPath><path fill="#ea756c" d="M2236.922 1269.478s6.25 23.25 22.75 22.5 44.684-14.75 60.967-14.5 64.793-26.015 35.163-62.133c-29.63-36.118 0 0 0 0l24.87 5.882 1.75 45s-33.25 23-36.5 24.25-38.25 12.25-53 17.5-30.344 16.473-38 21c-7.656 4.527-4.25 10.75-17.75 2.25s-23-18.75-23-18.75l-.5-31.25 23.25-11.749z" clip-path="url(#s)"></path><defs><path id="t" d="M2057.729 973.411s25.664-2.406 38.095 21.253c12.431 23.659 4.812 57.743-7.619 61.753-12.431 4.01-48.52 10.426-50.525 38.495-2.005 28.07-3.609 30.075-23.659 43.308-20.05 13.233 8.02 45.312-19.248 79.798-27.268 34.486-83.006 62.555-72.58 127.516 10.426 64.961-9.791 76.599-25.161 90.694-30.991 28.421-111.979 63.289-136.039-59.416 0 0 2.75-53.733 27.039-79.397s29.101-24.06 31.507-68.169c2.406-44.109 26.466-36.09 43.307-66.565 16.842-30.476 23.659-42.104 34.486-121.502 10.827-79.397 78.996-93.432 103.056-91.026 24.058 2.406 44.91 8.822 57.341 23.258z"></path></defs><use fill="#1e2889" overflow="visible" xlink:href="#t"></use><clipPath id="u"><use overflow="visible" xlink:href="#t"></use></clipPath><path fill="#172272" d="M1787.919 1448.478s54.75-17.235 67.5-82.493 29.047-100.881 64.64-131.093c35.593-30.213 21.61-79.665 37.36-105.915s11.349-78.345 63-84.75 84.423-36.661 78.962-54.331l17.789 51.277-18 63.659s-41.568 40.351-52.284 70.498c-10.716 30.147-45.043 119.398-62.38 153.148s-33.087 104.25-33.837 114.001c-.75 9.75-31.039 24.276-57.75 28.776s-99.75 9.763-104.25 5.119-.75-27.896-.75-27.896z" clip-path="url(#u)"></path><path fill="#fe8e00" d="M2185.444 1293.24s33.003 47.283 29.394 72.746l41.784-25.664s11.497-32.917-32.613-65.598l-38.565 18.516z"></path><defs><path id="v" d="M3407.296 922.963s-30.269.3-36.262-37.461c-5.994-37.761 23.339-41.638 35.963-47.95 13.186-6.593 14.685-20.978 38.061-23.975s31.468 10.489 51.547 11.089c20.079.599 42.856-4.795 53.345 20.679 10.489 25.474 24.513 31.222 26.373 65.444 2.697 49.637-22.177 36.151-29.669 66.719-7.492 30.568-26.673 36.263-44.954 26.672s-94.404-81.217-94.404-81.217z"></path></defs><use fill="#191e56" overflow="visible" xlink:href="#v"></use><clipPath id="w"><use overflow="visible" xlink:href="#v"></use></clipPath><path fill="#11163d" d="M3358.427 871.116s11.507 12.923 48.253 6.016c36.747-6.907 57.747-5.407 80.247 16.093s48.5 69 83.501 58.5l-17.5 44.5-23 25.38h-26l-69-9.88-60-82-17.5-28 .999-30.609z" clip-path="url(#w)"></path><defs><path id="x" d="M3456.928 997.726s15.5 35 8.5 66c0 0 23.851 17.063 56.517-11.271 0 0-16.684-24.063-15.35-66.063l-32.667-12-17 23.334z"></path></defs><use fill="#ffaca6" overflow="visible" xlink:href="#x"></use><clipPath id="y"><use overflow="visible" xlink:href="#x"></use></clipPath><path fill="#ea756c" d="M3462.595 1036.06s38-15.333 57.667.333l-7.276-43.334-3.057-17.492-40.667-13.841-22.792 9.637 10.459 26.363 5.666 38.334z" clip-path="url(#y)"></path><defs><path id="z" d="M3407.658 904.082s-9.89 134.261 33.265 134.561c43.156.3 59.039-53.644 59.039-53.644s25.474 2.098 21.578-28.77c-3.896-30.868-26.373-11.089-26.373-11.089s-17.981-9.29-26.373-28.77c-8.391-19.48-32.965.299-61.136-12.288z"></path></defs><use fill="#ffaca6" overflow="visible" xlink:href="#z"></use><clipPath id="A"><use overflow="visible" xlink:href="#z"></use></clipPath><path fill="#ea756c" d="M3397.638 923.226s4 4 28 2.5 29.25 12 48.5 26.25 33.5 19.75 51.25 6.25l-11-31-24.75-7.5-30.25-21.41-59.75-1.09-2 26z" clip-path="url(#A)"></path><defs><path id="B" d="M3490.016 1262.978s-10.838 41.5-33.838 50-124.751-46.274-124.751-46.274-37.5-87-78.5-76 2 66 45 97.501c43 31.5 93.25 80.774 189.751 85.774 21 0 50-55.5 63-95.5l-60.662-15.501z"></path></defs><use fill="#ffaca6" overflow="visible" xlink:href="#B"></use><clipPath id="C"><use overflow="visible" xlink:href="#B"></use></clipPath><path fill="#ea756c" d="M3315.177 1304.144s56 35.334 108.667 44.334 69.334 12 80.667-17.667c11.333-29.667 17.667-43.667 7-51.667l39.167-3.667 6.5 26s-15.667 39-23.333 50.334c-7.667 11.333-33.667 26.667-42.667 28-9 1.333-28 4.333-48.667 2s-72.667-10-72.667-10l-54.667-67.667z" clip-path="url(#C)"></path><path fill="#006dfe" d="M3477.178 1262.978s2.5-29.5 8-69.5 7-76 35-89.5 53 2.5 57.5 28.5-5.5 148.501-5.5 148.501-62.5 24.999-95-18.001z"></path><path fill="#daebff" d="M3768.428 1337.048h169.289v74.849h-169.289z"></path><path fill="#ebf5ff" d="M3836.884 1411.897h169.288v74.849h-169.288z"></path><path fill="#daebff" d="M2336.455 1791.132h169.289v74.849h-169.289z"></path><path fill="#ebf5ff" d="M2404.911 1865.981h169.288v74.849h-169.288z"></path></svg>