<svg xmlns="http://www.w3.org/2000/svg" xmlns:xlink="http://www.w3.org/1999/xlink" enable-background="new 0 0 4680 3120" viewBox="0 0 4680 3120" id="operations-engineer"><ellipse cx="1159.739" cy="2422.232" fill="#d3e2f9" rx="376.493" ry="36.604"></ellipse><path fill="#d3e2f9" d="M640.129 2269.252h3351.808v22.156H640.129z"></path><path fill="#daebff" fill-rule="evenodd" d="M2626.293 2151.254c-1.922-4.235-3.56-8.435-5.744-12.328-.751-1.338-2.976-2.808-4.337-2.644-2.869.344-6.95-1.583-8.236 3.108-.821 2.997-1.85 5.964-2.348 9.016-.569 3.502-2.273 4.745-5.703 4.102-2.108-.396-4.27-.501-6.717-.77-.365-4.719-.444-9.233-1.211-13.626-.25-1.434-2.095-3.24-3.563-3.668-2.639-.769-5.703-3.516-8.271.363-1.802 2.722-3.825 5.307-5.482 8.112-1.384 2.342-2.823 2.768-5.321 1.598-8.831-4.134-7.01-2.265-5.429-10.768.17-.914.525-1.792.746-2.698 1.181-4.846-2.194-9.992-7.093-10.479-1.02-.101-2.244.771-3.207 1.437-1.658 1.147-3.175 2.496-4.767 3.739-1.588 1.239-3.197 2.45-5.291 4.051-2.262-2.01-4.735-3.856-6.697-6.141-.682-.794-.512-2.853-.006-4.019.919-2.114 2.392-3.986 3.613-5.971 3.396-5.523 2.996-8.266-2.083-12.344-.793-.636-2.246-.72-3.356-.623-1.206.107-2.367.722-3.547 1.118-9.861 3.317-9.861 3.317-14.548-6.916 3.255-2.562 6.498-5.385 10.021-7.801 2.709-1.859 1.977-3.894.941-6.057-1.16-2.422-.571-6.203-5.036-6.109-4.16.088-8.33-.215-12.721-.352-.702-3.804-1.343-7.265-2.053-11.106 3.654-1.276 6.921-2.923 10.368-3.507 5.878-.997 4.238-5.27 4.719-8.904.532-4.031-2.231-4.515-4.907-5.428-3.201-1.092-6.353-2.327-9.11-3.346-.303-.732-.426-.881-.414-1.019.865-10.189.865-10.189 10.916-10.628 5.956-.26 8.563-2.617 8.986-8.571.08-1.132-.732-2.65-1.616-3.469-2.841-2.635-5.909-5.028-8.837-7.471-.01-.416-.125-.772-.01-1.023 5.201-11.413 3.198-9.827 13.896-6.382 3.551 1.143 5.893 1.166 8.282-2.233 2.319-3.3 4.235-5.877.793-9.644-2.049-2.243-3.343-5.174-4.873-7.628.281-.63.337-.962.531-1.158 7.021-7.108 7.306-7.45 15.163-.995 4.302 3.534 6.742.973 10.132-.814 3.594-1.896 3.034-4.458 2.258-7.448-.779-3.001-1.367-6.052-2.128-9.489l10.278-4.725c2.3 3.389 4.594 6.501 6.586 9.795 1.409 2.33 3.196 2.892 5.471 1.799 2.744-1.317 7.333.228 7.596-5.059.193-3.855.808-7.69 1.275-11.903l11.146-1.154c.999 3.558 2.218 7.054 2.919 10.652.611 3.145 2.066 4.563 5.314 4.452 3.366-.115 7.404 1.691 8.568-3.585.032-.149.126-.284.19-.425 4.367-9.555 4.367-9.555 15.275-6.671-.197 3.81-.207 7.781-.656 11.702-.601 5.242 4.108 4.579 6.647 6.28 2.108 1.412 4.084 1.723 6.067-.722 2.332-2.877 5.125-5.38 8.045-8.381 2.542 1.514 5.159 2.833 7.454 4.576.759.577 1.208 2.415.897 3.387a40.996 40.996 0 0 1-3.365 7.682c-1.665 2.935-.847 4.694 1.314 7.215 3.714 4.332 7.098 5.144 11.728 1.691 2.2-1.641 4.854-2.676 7.09-3.874.496.222.674.25.776.354 7.151 7.388 7.151 7.388.309 15.02-4.354 4.859-4.332 8.664.399 13.326.78.768 2.512.945 3.741.812 4.005-.436 7.98-1.142 12.281-1.792l3.659 10.591c-3.461 1.909-7.037 4.022-10.744 5.873-2.236 1.115-3.111 2.277-2.638 5.036 1.328 7.753 1.147 7.777 8.94 9.308 2.717.534 5.424 1.112 8.437 1.732-.018 3.628-.037 7-.057 10.828-4.364.834-8.573 1.839-12.84 2.404-5.212.689-3.381 5.091-4.499 7.926-1.03 2.616-.158 4.359 2.408 5.638 3.602 1.795 7.053 3.891 10.343 5.733.158.676.335.989.279 1.254-2.023 9.507-2.012 9.404-11.414 8.184-3.681-.478-7.397-2.481-10.406 2.746-2.574 4.469-2.971 7.363 1.122 10.549.967.753 1.719 1.787 2.539 2.721 4.386 5.008 4.263 4.922.381 10.142-1.887 2.538-3.601 3.559-6.478 1.549-1.644-1.148-3.764-1.645-5.323-2.874-3.84-3.024-6.798-2.72-10.403.825-2.716 2.669-3.494 4.732-1.589 7.968.857 1.456 1.279 3.167 1.915 4.755 2.747 6.864 2.59 7.447-4.338 10.628-1.061.487-3.028.204-3.973-.516-1.952-1.487-3.5-3.505-5.21-5.31-4.328-4.571-8.693-5-13.371-1.06-.736.619-1.013 2.151-.98 3.244.102 3.26.21 6.558.796 9.753.574 3.134-.465 4.611-3.49 5.152-2.264.405-4.484 1.063-7.114 1.702zm-69.909-121.649c-13.085 28.117-.558 62.59 27.454 75.543 28.765 13.301 63.405.404 76.789-28.59 12.923-27.995-.069-62.558-28.442-75.66-28.485-13.155-62.275-.359-75.801 28.707z" clip-rule="evenodd"></path><path fill="#daebff" fill-rule="evenodd" d="M2588.187 2097.954c-25.213-11.25-36.026-39.84-24.705-65.323 11.13-25.056 40.248-36.16 65.326-24.914 24.468 10.971 35.998 40.805 25.18 65.149-11.15 25.087-40.62 36.323-65.801 25.088zm40.318-35.831c5.122-11.616-.05-25.076-11.557-30.079-11.306-4.916-24.781.579-29.907 12.196-4.963 11.246.363 24.495 11.866 29.522 11.462 5.01 24.521-.127 29.598-11.639zM2271.922 1991.637c.645.416.773.838.649 1.568-.772 4.556-1.528 9.116-2.197 13.688-.125.846-.482 1.12-1.208 1.331-6.751 1.972-13.494 3.972-20.24 5.964l-1.798.533 3.613 34.857 13.354 1.077c3.208.259 6.416.546 9.627.76.802.054 1.136.353 1.416 1.111a487.24 487.24 0 0 0 4.86 12.708c.345.862.25 1.338-.376 1.99-4.966 5.164-9.875 10.383-14.841 15.546-.715.741-.866 1.213-.196 2.128 6.428 8.784 12.798 17.611 19.185 26.425.185.254.375.504.633.852 1.237-.58 2.461-1.148 3.68-1.726 5.657-2.685 11.325-5.349 16.958-8.085.899-.436 1.386-.252 2.104.347 3.41 2.845 6.902 5.59 10.321 8.424.395.327.817 1.053.719 1.477-1.672 7.216-3.422 14.414-5.158 21.615l32.322 14.454c1.117-1.619 2.195-3.184 3.274-4.742 3.07-4.439 6.163-8.863 9.193-13.329.503-.742.981-.825 1.8-.684 4.42.762 8.846 1.5 13.288 2.128.988.14 1.356.506 1.615 1.402 1.983 6.843 4.014 13.673 6.031 20.505.127.431.272.856.436 1.365l34.777-3.606c.059-.5.131-.977.17-1.456.578-7.095 1.169-14.189 1.705-21.288.071-.935.339-1.378 1.284-1.718a383.04 383.04 0 0 0 12.458-4.752c.877-.35 1.396-.333 2.104.347 5.192 5 10.436 9.948 15.657 14.919.506.482.864.924 1.685.324 9.085-6.634 18.201-13.224 27.308-19.829.068-.049.11-.134.239-.297-.728-1.545-1.474-3.14-2.229-4.73-2.51-5.288-5.005-10.584-7.558-15.852-.399-.824-.305-1.301.284-2.006a485.573 485.573 0 0 0 8.474-10.454c.531-.672.972-.848 1.815-.641 7.091 1.741 14.197 3.427 21.298 5.125.352.084.712.13 1.068.194l14.229-31.819c-4.759-3.318-9.517-6.638-14.276-9.955-1.562-1.089-3.103-2.21-4.703-3.241-.643-.414-.784-.829-.659-1.563.774-4.554 1.529-9.113 2.202-13.683.122-.837.457-1.126 1.191-1.34 6.749-1.969 13.489-3.971 20.232-5.963l1.823-.54-3.613-34.849c-3.124-.256-6.181-.508-9.24-.757-4.563-.371-9.124-.755-13.688-1.091-.769-.057-1.159-.257-1.453-1.058a450.376 450.376 0 0 0-4.964-12.954c-.331-.825-.069-1.221.429-1.745 4.946-5.179 9.863-10.386 14.83-15.545.747-.775.923-1.261.207-2.237-6.354-8.665-12.637-17.381-18.943-26.082-.262-.36-.531-.716-.849-1.145-3.694 1.752-7.335 3.476-10.974 5.204-3.278 1.557-6.566 3.094-9.823 4.692-.729.358-1.161.239-1.774-.27a566.125 566.125 0 0 0-10.555-8.556c-.678-.536-.832-.99-.628-1.82 1.737-7.09 3.424-14.191 5.122-21.291.084-.351.13-.711.193-1.067l-31.82-14.23c-3.578 5.131-7.156 10.261-10.732 15.393-.803 1.153-1.651 2.28-2.385 3.476-.451.735-.925.894-1.775.745-4.417-.771-8.841-1.511-13.28-2.142-1.03-.146-1.424-.517-1.701-1.476-2.009-6.974-4.081-13.93-6.134-20.892-.076-.259-.168-.513-.298-.905l-34.825 3.611c-.213 2.579-.422 5.096-.628 7.613-.415 5.105-.854 10.208-1.214 15.317-.063.891-.421 1.202-1.201 1.49-4.211 1.553-8.415 3.131-12.575 4.811-.927.374-1.423.223-2.089-.416-5.133-4.927-10.315-9.803-15.442-14.738-.779-.749-1.269-.916-2.241-.203-8.703 6.38-17.457 12.692-26.194 19.025-.323.234-.639.479-1.026.77 1.75 3.691 3.475 7.333 5.203 10.973 1.536 3.237 3.041 6.491 4.636 9.699.417.839.265 1.31-.31 1.999a502.303 502.303 0 0 0-8.467 10.454c-.536.679-.983.832-1.818.627-7.09-1.74-14.191-3.425-21.291-5.123-.351-.084-.711-.129-1.068-.192l-14.229 31.819c4.761 3.32 9.521 6.64 14.283 9.959 1.56 1.089 3.102 2.21 4.702 3.242zm144.91-46.048c40.044 17.918 57.966 65.011 39.999 105.099-17.883 39.902-64.955 57.84-104.904 39.977-40.072-17.918-58.033-64.988-40.093-105.069 17.895-39.975 64.978-57.916 104.998-40.007z" clip-rule="evenodd"></path><path fill="#b0d8ff" fill-rule="evenodd" d="M2620.63 2150.004c-1.922-4.235-3.56-8.435-5.744-12.329-.751-1.338-2.976-2.808-4.337-2.644-2.869.344-6.95-1.583-8.236 3.108-.821 2.997-1.85 5.964-2.348 9.016-.568 3.502-2.273 4.745-5.703 4.102-2.108-.396-4.27-.501-6.717-.77-.365-4.719-.444-9.232-1.211-13.626-.25-1.434-2.094-3.241-3.562-3.668-2.639-.769-5.703-3.516-8.271.363-1.802 2.722-3.825 5.307-5.482 8.112-1.384 2.342-2.823 2.768-5.321 1.598-8.831-4.134-7.01-2.265-5.429-10.768.17-.914.526-1.792.746-2.698 1.181-4.846-2.194-9.992-7.093-10.479-1.02-.101-2.244.771-3.207 1.437-1.658 1.147-3.175 2.496-4.767 3.739-1.588 1.239-3.197 2.45-5.291 4.051-2.262-2.01-4.735-3.856-6.697-6.141-.682-.794-.512-2.853-.006-4.019.919-2.114 2.392-3.986 3.613-5.97 3.395-5.523 2.996-8.267-2.083-12.344-.793-.636-2.246-.72-3.357-.623-1.206.107-2.367.722-3.547 1.118-9.861 3.317-9.861 3.317-14.548-6.916 3.255-2.562 6.498-5.385 10.021-7.801 2.709-1.859 1.977-3.894.941-6.057-1.16-2.422-.571-6.203-5.036-6.109-4.16.088-8.33-.215-12.722-.352-.702-3.804-1.343-7.265-2.053-11.106 3.654-1.276 6.921-2.923 10.368-3.507 5.878-.997 4.238-5.27 4.719-8.904.532-4.031-2.231-4.515-4.907-5.428-3.202-1.092-6.353-2.327-9.11-3.347-.303-.732-.426-.881-.414-1.019.865-10.189.865-10.189 10.916-10.628 5.956-.26 8.563-2.617 8.985-8.571.08-1.132-.732-2.65-1.616-3.469-2.84-2.635-5.909-5.028-8.837-7.471-.01-.416-.124-.771-.01-1.023 5.201-11.413 3.198-9.827 13.896-6.382 3.551 1.143 5.893 1.166 8.282-2.233 2.319-3.3 4.235-5.877.793-9.644-2.049-2.243-3.343-5.174-4.873-7.628.281-.63.337-.962.531-1.158 7.021-7.108 7.305-7.45 15.163-.995 4.301 3.534 6.742.973 10.132-.814 3.594-1.896 3.034-4.458 2.258-7.448-.779-3.001-1.367-6.052-2.128-9.489l10.278-4.725c2.3 3.389 4.594 6.501 6.586 9.795 1.409 2.331 3.196 2.892 5.471 1.799 2.744-1.317 7.333.228 7.596-5.059.193-3.855.808-7.69 1.275-11.903l11.146-1.154c.999 3.558 2.218 7.054 2.919 10.652.611 3.145 2.066 4.563 5.314 4.451 3.366-.115 7.404 1.691 8.568-3.585.032-.149.126-.284.19-.425 4.367-9.555 4.367-9.555 15.275-6.671-.197 3.81-.207 7.781-.656 11.702-.601 5.242 4.108 4.579 6.647 6.28 2.108 1.412 4.085 1.723 6.067-.722 2.333-2.877 5.125-5.38 8.045-8.381 2.542 1.514 5.159 2.833 7.454 4.576.759.577 1.208 2.415.897 3.387a40.996 40.996 0 0 1-3.365 7.682c-1.665 2.935-.847 4.694 1.314 7.215 3.714 4.332 7.097 5.145 11.728 1.691 2.2-1.641 4.854-2.676 7.09-3.874.496.222.674.25.776.354 7.151 7.388 7.151 7.388.31 15.02-4.354 4.859-4.332 8.664.399 13.326.78.768 2.512.945 3.741.812 4.005-.436 7.98-1.142 12.281-1.792l3.659 10.591c-3.461 1.909-7.037 4.022-10.744 5.873-2.236 1.115-3.111 2.277-2.638 5.035 1.327 7.753 1.147 7.777 8.94 9.308 2.717.534 5.424 1.112 8.437 1.732-.018 3.629-.037 7-.057 10.828-4.364.834-8.573 1.839-12.84 2.404-5.212.689-3.381 5.091-4.499 7.926-1.03 2.616-.158 4.359 2.408 5.638 3.602 1.795 7.053 3.891 10.343 5.733.158.676.335.989.279 1.254-2.023 9.507-2.012 9.404-11.414 8.184-3.682-.478-7.397-2.481-10.406 2.746-2.574 4.469-2.971 7.363 1.121 10.549.968.753 1.719 1.787 2.539 2.721 4.386 5.007 4.263 4.922.381 10.142-1.887 2.538-3.601 3.559-6.478 1.549-1.644-1.148-3.764-1.645-5.323-2.874-3.84-3.024-6.797-2.72-10.403.825-2.716 2.669-3.494 4.732-1.589 7.968.857 1.456 1.279 3.167 1.915 4.755 2.746 6.864 2.59 7.447-4.338 10.628-1.061.487-3.028.204-3.973-.516-1.952-1.487-3.5-3.505-5.209-5.31-4.328-4.571-8.693-5-13.371-1.06-.736.619-1.014 2.151-.98 3.244.101 3.26.21 6.558.796 9.753.574 3.134-.464 4.611-3.49 5.153-2.263.406-4.483 1.064-7.113 1.704zm-69.909-121.65c-13.085 28.117-.558 62.59 27.454 75.543 28.765 13.301 63.405.404 76.789-28.59 12.923-27.995-.069-62.558-28.442-75.66-28.485-13.155-62.275-.358-75.801 28.707z" clip-rule="evenodd"></path><path fill="#b0d8ff" fill-rule="evenodd" d="M2582.523 2096.703c-25.213-11.25-36.026-39.84-24.705-65.323 11.13-25.056 40.248-36.16 65.326-24.914 24.468 10.971 35.998 40.805 25.18 65.149-11.149 25.087-40.619 36.324-65.801 25.088zm40.319-35.831c5.122-11.616-.05-25.076-11.557-30.079-11.306-4.916-24.781.579-29.907 12.196-4.963 11.246.363 24.495 11.866 29.522 11.462 5.01 24.521-.126 29.598-11.639zM2266.259 1990.386c.645.416.773.838.649 1.568-.773 4.556-1.528 9.116-2.197 13.689-.125.846-.482 1.12-1.208 1.331-6.751 1.972-13.494 3.972-20.24 5.964l-1.798.533 3.613 34.857 13.354 1.077c3.208.26 6.415.546 9.627.76.802.054 1.136.353 1.416 1.111a487.24 487.24 0 0 0 4.86 12.708c.345.862.25 1.338-.376 1.99-4.966 5.164-9.875 10.383-14.841 15.545-.715.741-.866 1.213-.196 2.128 6.427 8.784 12.798 17.611 19.185 26.425.185.254.375.504.633.852 1.236-.58 2.461-1.148 3.68-1.726 5.657-2.685 11.325-5.349 16.958-8.085.899-.436 1.386-.252 2.104.347 3.409 2.845 6.902 5.59 10.321 8.424.395.327.817 1.053.719 1.477-1.672 7.216-3.422 14.413-5.158 21.615l32.322 14.454c1.117-1.619 2.195-3.184 3.274-4.742 3.07-4.439 6.163-8.863 9.193-13.329.504-.741.981-.825 1.8-.684 4.42.762 8.846 1.499 13.288 2.128.988.14 1.356.506 1.615 1.402 1.983 6.844 4.013 13.673 6.031 20.505.127.431.272.856.436 1.366l34.777-3.606c.059-.5.131-.977.17-1.456.578-7.095 1.169-14.189 1.706-21.288.071-.935.339-1.378 1.284-1.718a382.16 382.16 0 0 0 12.458-4.752c.877-.35 1.396-.333 2.104.347 5.192 5 10.436 9.948 15.657 14.919.506.482.864.924 1.685.324 9.085-6.634 18.202-13.224 27.308-19.829.068-.049.11-.134.24-.297-.728-1.545-1.474-3.14-2.229-4.73-2.51-5.288-5.005-10.585-7.558-15.852-.399-.824-.305-1.301.284-2.006a485.573 485.573 0 0 0 8.474-10.454c.531-.672.972-.848 1.815-.641 7.091 1.741 14.197 3.427 21.298 5.125.352.084.712.13 1.068.194l14.229-31.819-14.276-9.955c-1.563-1.089-3.103-2.21-4.703-3.241-.643-.414-.783-.829-.659-1.563.774-4.554 1.529-9.113 2.202-13.683.122-.837.457-1.126 1.191-1.34 6.749-1.969 13.489-3.971 20.232-5.963l1.823-.54c-1.202-11.596-2.403-23.163-3.613-34.849-3.124-.256-6.181-.508-9.241-.757-4.563-.371-9.124-.755-13.688-1.091-.769-.057-1.159-.257-1.453-1.058a453.348 453.348 0 0 0-4.964-12.954c-.331-.825-.069-1.221.429-1.745 4.946-5.179 9.863-10.386 14.83-15.545.747-.775.923-1.261.207-2.237-6.354-8.665-12.637-17.381-18.942-26.082-.262-.36-.531-.716-.849-1.145-3.694 1.752-7.335 3.476-10.975 5.204-3.278 1.557-6.565 3.094-9.823 4.692-.729.358-1.161.239-1.774-.27a566.125 566.125 0 0 0-10.555-8.556c-.678-.536-.832-.99-.628-1.82 1.737-7.09 3.424-14.191 5.122-21.291.085-.351.13-.711.193-1.067l-31.82-14.23-10.732 15.393c-.803 1.153-1.651 2.28-2.385 3.476-.451.735-.925.894-1.775.745-4.417-.771-8.841-1.511-13.28-2.142-1.03-.146-1.424-.517-1.701-1.476-2.009-6.974-4.08-13.93-6.134-20.892-.076-.259-.168-.513-.298-.905l-34.825 3.611c-.212 2.579-.422 5.096-.628 7.613-.414 5.105-.854 10.208-1.214 15.317-.063.891-.421 1.202-1.201 1.49-4.211 1.553-8.415 3.131-12.575 4.812-.927.374-1.423.223-2.089-.416-5.134-4.927-10.316-9.803-15.442-14.738-.779-.749-1.269-.916-2.241-.203-8.703 6.38-17.457 12.692-26.194 19.025-.323.234-.639.48-1.025.77 1.75 3.691 3.475 7.333 5.203 10.973 1.537 3.238 3.041 6.491 4.636 9.699.417.839.265 1.31-.31 1.999a502.303 502.303 0 0 0-8.467 10.454c-.536.679-.983.832-1.818.627-7.09-1.74-14.191-3.426-21.291-5.123-.351-.084-.711-.129-1.068-.192l-14.229 31.819c4.761 3.32 9.521 6.64 14.283 9.959 1.558 1.087 3.1 2.208 4.7 3.24zm144.91-46.048c40.043 17.918 57.966 65.011 39.999 105.099-17.883 39.902-64.955 57.84-104.904 39.977-40.072-17.918-58.033-64.988-40.092-105.069 17.894-39.975 64.977-57.916 104.997-40.007z" clip-rule="evenodd"></path><ellipse cx="1791.851" cy="2412.551" fill="#d3e2f9" rx="166.275" ry="57.119"></ellipse><ellipse cx="3520.168" cy="2534.145" fill="#d3e2f9" rx="240.973" ry="57.119"></ellipse><defs><path id="a" d="M1737.587 2315.083c0 2.738.641 32.307-40.887 42.347s-49.389 28.093-45.423 41.672c11.266 38.572 72.804 16.285 94.253 20.392s51.465-3.801 53.746-27.075c2.282-23.274-7.583-75.1-7.583-75.1l-54.106-2.236z"></path></defs><use fill="#ffab00" overflow="visible" xlink:href="#a"></use><clipPath id="b"><use overflow="visible" xlink:href="#a"></use></clipPath><path fill="#fe8e00" d="M1724.991 2333.697s50.753 6.019 48.765 48.792c-1.989 42.773-16.501 44.301-16.501 44.301 2.206-.856 49.647-.382 49.647-.382s-1.348-83.255-.865-85.928c.483-2.673-9.064-38.19-10.21-38.19-1.146 0-70.836 9.505-70.836 9.505v21.902z" clip-path="url(#b)"></path><defs><path id="c" d="M1841.638 2328.482s-3.651 8.671-8.671 53.85 12.322 60.695 53.393 59.326c41.072-1.369 38.79-33.314 38.333-47.461-.456-14.147-14.147-19.623-13.234-56.587l-69.821-9.128z"></path></defs><use fill="#ffab00" overflow="visible" xlink:href="#c"></use><clipPath id="d"><use overflow="visible" xlink:href="#c"></use></clipPath><path fill="#fe8e00" d="M1832.124 2372.56s3.802-16.04 26.334-15.658 25.587-1.694 35.899 11.756c10.311 13.45 12.985 14.214 11.839 31.399-1.146 17.186.764 37.538-9.93 41.683-10.693 4.146 25.588 0 25.588 0l12.221-33.281 1.528-63.18-18.713-25.04s-100.845 1.546-97.385 1.528c3.46-.019 12.619 50.793 12.619 50.793z" clip-path="url(#d)"></path><defs><path id="e" d="m1723.623 1724.471-6.086 34.272v554.622s41.245 37.808 105.405 10.311l7.032-587.162-106.351-12.043z"></path></defs><use fill="#1e2889" overflow="visible" xlink:href="#e"></use><clipPath id="f"><use overflow="visible" xlink:href="#e"></use></clipPath><path fill="#172272" d="M1705.507 2029.084s70.94-17.613 80.869 41.677c9.928 59.29 4.773 274.518 4.773 274.518l45.31-14.604 7.966-289.778 18.826-312.988L1692 1716.571l-5.683 209.831 19.19 102.682z" clip-path="url(#f)"></path><defs><path id="g" d="m1947.824 1736.514-5.729 586.016s-30.934 50.411-119.154 1.146l7.032-587.162h117.851z"></path></defs><use fill="#1e2889" overflow="visible" xlink:href="#g"></use><clipPath id="h"><use overflow="visible" xlink:href="#g"></use></clipPath><path fill="#172272" d="M1818.645 2023.5s87.647-23.201 91.084 51.557c3.437 74.757-1.719 275.829-1.719 275.829l39.813-12.03 18.904-36.09-8.02-293.015 11.911-170.997-3.891-114.284-160.113 7.734 12.031 291.296z" clip-path="url(#h)"></path><path fill="#006dfe" d="M3866.882 1843.079H2829.235c-53.507 0-96.883-43.376-96.883-96.883V838.891c0-53.507 43.376-96.883 96.883-96.883h1037.646c53.507 0 96.883 43.376 96.883 96.883v907.305c.001 53.507-43.375 96.883-96.882 96.883z"></path><linearGradient id="i" x1="2787.613" x2="3908.504" y1="1292.543" y2="1292.543" gradientUnits="userSpaceOnUse"><stop offset="0" stop-color="#b0d8ff"></stop><stop offset=".015" stop-color="#b3d9ff"></stop><stop offset=".145" stop-color="#c4e1ff"></stop><stop offset=".301" stop-color="#d1e7ff"></stop><stop offset=".512" stop-color="#d8eaff"></stop><stop offset="1" stop-color="#daebff"></stop></linearGradient><path fill="url(#i)" d="M3820.316 1793.667H2875.8c-48.705 0-88.188-39.483-88.188-88.188V879.607c0-48.704 39.483-88.187 88.188-88.187h944.516c48.705 0 88.188 39.483 88.188 88.187v825.873c0 48.704-39.483 88.187-88.188 88.187z"></path><path fill="none" stroke="#fff" stroke-linecap="round" stroke-linejoin="round" stroke-width="10" d="M2999.411 843.285v9.5"></path><path fill="none" stroke="#fff" stroke-dasharray="19.247 23.299" stroke-linecap="round" stroke-linejoin="round" stroke-width="10" d="M2999.411 876.084v839.28"></path><path fill="none" stroke="#fff" stroke-linecap="round" stroke-linejoin="round" stroke-width="10" d="M2999.411 1727.014v9.5M3230.008 843.285v9.5"></path><path fill="none" stroke="#fff" stroke-dasharray="19.247 23.299" stroke-linecap="round" stroke-linejoin="round" stroke-width="10" d="M3230.008 876.084v839.28"></path><path fill="none" stroke="#fff" stroke-linecap="round" stroke-linejoin="round" stroke-width="10" d="M3230.008 1727.014v9.5M3460.604 843.285v9.5"></path><path fill="none" stroke="#fff" stroke-dasharray="19.247 23.299" stroke-linecap="round" stroke-linejoin="round" stroke-width="10" d="M3460.604 876.084v839.28"></path><path fill="none" stroke="#fff" stroke-linecap="round" stroke-linejoin="round" stroke-width="10" d="M3460.604 1727.014v9.5M3691.201 843.285v9.5"></path><path fill="none" stroke="#fff" stroke-dasharray="19.247 23.299" stroke-linecap="round" stroke-linejoin="round" stroke-width="10" d="M3691.201 876.084v839.28"></path><path fill="none" stroke="#fff" stroke-linecap="round" stroke-linejoin="round" stroke-width="10" d="M3691.201 1727.014v9.5M3861.369 944.005h-9.5"></path><path fill="none" stroke="#fff" stroke-dasharray="18.671 22.601" stroke-linecap="round" stroke-linejoin="round" stroke-width="10" d="M3829.269 944.005h-979.225"></path><path fill="none" stroke="#fff" stroke-linecap="round" stroke-linejoin="round" stroke-width="10" d="M2838.743 944.005h-9.5M3861.369 1174.601h-9.5"></path><path fill="none" stroke="#fff" stroke-dasharray="18.671 22.601" stroke-linecap="round" stroke-linejoin="round" stroke-width="10" d="M3829.269 1174.601h-979.225"></path><path fill="none" stroke="#fff" stroke-linecap="round" stroke-linejoin="round" stroke-width="10" d="M2838.743 1174.601h-9.5M3861.369 1405.198h-9.5"></path><path fill="none" stroke="#fff" stroke-dasharray="18.671 22.601" stroke-linecap="round" stroke-linejoin="round" stroke-width="10" d="M3829.269 1405.198h-979.225"></path><path fill="none" stroke="#fff" stroke-linecap="round" stroke-linejoin="round" stroke-width="10" d="M2838.743 1405.198h-9.5M3861.369 1635.795h-9.5"></path><path fill="none" stroke="#fff" stroke-dasharray="18.671 22.601" stroke-linecap="round" stroke-linejoin="round" stroke-width="10" d="M3829.269 1635.795h-979.225"></path><path fill="none" stroke="#fff" stroke-linecap="round" stroke-linejoin="round" stroke-width="10" d="M2838.743 1635.795h-9.5"></path><path fill="#daebff" d="m3033.679 1670.366-26.077-11.045v783.859h709.854v-394.086z"></path><path fill="#b0d8ff" d="m3214.855 2030.938-8.045 22.857v389.385h-199.208v-783.859z"></path><path fill="#ebf5ff" d="m3717.456 2049.094-510.646 4.701-199.208-394.474 510.646-4.701z"></path><path fill="#fff" d="m3214.855 1786.899-110.699 1.019-49.607-98.232 110.7-1.019z"></path><path fill="#b0d8ff" d="m3428.552 1999.167-77.687.715-148.941-294.936 77.686-.716z"></path><path fill="#191e56" d="m3394.848 1978.833-31.032.286-128.189-253.841 31.033-.285z"></path><path fill="#b0d8ff" d="m3540.976 1998.132-77.687.715-148.941-294.936 77.686-.715zM3653.4 1997.097l-77.687.715-148.942-294.936 77.687-.715z"></path><path fill="#191e56" d="m3507.272 1977.799-31.032.285-128.188-253.84 31.031-.286zM3619.696 1976.764l-31.032.286-128.189-253.841 31.032-.286z"></path><path fill="#006dfe" d="m3187.18 1898.951-24.389.225-31.684-62.743 24.388-.224zM3230.008 1898.557l-24.389.224-31.684-62.742 24.388-.224z"></path><path fill="#b0d8ff" d="m3272.836 1898.163-24.388.224-31.685-62.742 24.388-.225z"></path><path fill="#006dfe" d="m3238.67 2000.914-24.388.225-31.684-62.743 24.388-.224z"></path><path fill="#b0d8ff" d="m3281.499 2000.52-24.389.225-31.684-62.743 24.388-.224zM3324.327 2000.126l-24.388.224-31.685-62.742 24.388-.224z"></path><circle cx="3271.461" cy="1767.495" r="26.661" fill="#ffab00"></circle><circle cx="3421.46" cy="1840.869" r="26.661" fill="#ffab00"></circle><circle cx="3547.223" cy="1864.12" r="26.661" fill="#ffab00" transform="rotate(-80.781 3547.26 1864.064)"></circle><path fill="#00b77b" d="M3162.715 1742.799c1.631-3.465 1.409-7.965-1.069-12.873-5.454-10.801-19.743-19.466-31.915-19.354-6.573.061-11.179 2.672-13.172 6.759l-3.485 5.988a10.315 10.315 0 0 0-1.832 3.149l-.011.02.003.002c-1.217 3.334-.845 7.498 1.431 12.006 5.455 10.801 19.744 19.466 31.916 19.354 6.48-.059 11.053-2.596 13.091-6.584l3.999-6.712c.405-.549.752-1.137 1.044-1.755z"></path><ellipse cx="3139.606" cy="1730.129" fill="#00d967" rx="16.407" ry="26.393" transform="rotate(-59.008 3139.663 1730.204)"></ellipse><defs><path id="j" d="M1738.708 1485.008c-2.167 1.625-13.984 17.921-13.984 17.921s8.025 90.32 2.607 158.696c-5.418 68.377-7.314 71.928-7.314 71.928s52.086 19.729 112.779 19.791c59.956.06 115.45-19.791 115.45-19.791s-18.292-50.257-11.249-147.776l-5.418-59.053-9.752-62.846-183.119 21.13z"></path></defs><use fill="#b0d8ff" overflow="visible" xlink:href="#j"></use><clipPath id="k"><use overflow="visible" xlink:href="#j"></use></clipPath><path fill="#b0d8ff" d="M1725.164 1585.711s78.184 36.907 199.185 11.985" clip-path="url(#k)"></path><path fill="#7bc3ff" d="m1956.769 1587.388 23.027 158.754-133.818 15.17s-76.39-10.835-117.564-16.253c-41.175-5.418-33.048 23.838-40.633-15.17-7.585-39.008-9.21-85.6-9.21-85.6l43.342-44.271c0-.001 144.649 50.742 234.856-12.63z" clip-path="url(#k)"></path><path fill="#191e56" d="M3401.828 2478.083s-5.178 24.74-18.124 25.315c-12.945.575-45.165-20.425-52.932 8.918s7.479 41.713 16.973 45.165 60.412 31.644 94.646 21c34.233-10.644 17.548-38.836 18.699-62.426 1.151-23.589-2.014-35.672-2.014-35.672l-57.248-2.3zM3662.018 2452.146s3.552 25.025-8.424 29.973c-11.976 4.948-49.421-3.831-46.736 26.404 2.685 30.235 21.232 36.676 31.333 36.69s67.576 9.191 96.142-12.471 3.281-42.49-3.667-65.063-14.036-32.856-14.036-32.856l-54.612 17.323z"></path><path fill="#d1e3ff" d="M1448.119 833.031h576.047v687.302h-576.047z" transform="rotate(-180 1736.143 1176.682)"></path><path fill="#e3eeff" d="M1421.764 833.031h590.087v687.302h-590.087z" transform="rotate(-180 1716.808 1176.682)"></path><path fill="#d1e3ff" d="M1448.119 1520.333h576.047v48.974h-576.047z" transform="rotate(-180 1736.143 1544.82)"></path><path fill="#e3eeff" d="M1377.859 1520.333h590.087v48.974h-590.087z" transform="rotate(-180 1672.902 1544.82)"></path><path fill="#f5fcff" d="M1410.053 918.535h613.51v516.294h-613.51z" transform="rotate(90 1716.808 1176.682)"></path><path fill="#fff" d="m1911.568 1483.437-216.556-613.51h-102.226l216.555 613.51z"></path><path fill="#e2eeff" d="M1957.872 1275.288a2.634 2.634 0 0 0 2.635-2.635v-378.72a2.634 2.634 0 1 0-5.27 0v378.72a2.634 2.634 0 0 0 2.635 2.635z"></path><path fill="#fff" d="m1787.381 1483.437-216.556-613.51h-39.854l216.556 613.51z"></path><path fill="#d1e3ff" d="M1154.249 1174.34h613.51v4.685h-613.51z" transform="rotate(90 1461.004 1176.682)"></path><path fill="#d1e3ff" d="M1413.039 917.132h576.047l3.394-32.863h-576.046z"></path><path fill="#d1e3ff" d="M1413.039 941.185h576.047l3.394-32.862h-576.046z"></path><path fill="#d1e3ff" d="M1413.039 970.049h576.047l3.394-32.861h-576.046z"></path><path fill="#d1e3ff" d="M1413.039 1002.169h576.047l3.394-32.863h-576.046zM1413.039 1040.655h576.047l3.394-32.863h-576.046zM1413.039 1083.951h576.047l3.394-32.862h-576.046z"></path><path fill="#a6c2d1" d="M1229.191 2168.828h-40.463l73.253 126.247H969.438l-20.018 34.492h373.029z"></path><path fill="#191e56" d="M778.556 793.358a4.318 4.318 0 0 1-2.545-7.813l296.911-215.959a4.32 4.32 0 1 1 5.082 6.986L781.093 792.531a4.297 4.297 0 0 1-2.537.827zM2263.837 793.359a4.45 4.45 0 0 1-.861-.086l-1067.41-215.959a4.322 4.322 0 0 1-3.378-5.091 4.322 4.322 0 0 1 5.091-3.378l1067.41 215.959a4.322 4.322 0 0 1-.852 8.555z"></path><path fill="#191e56" d="M2263.838 793.358c-.143 0-.289-.006-.435-.021L1195.994 686.768a4.321 4.321 0 0 1-3.87-4.728c.237-2.375 2.353-4.119 4.728-3.87l1067.409 106.569a4.321 4.321 0 0 1-.423 8.619zM838.121 863.489a4.322 4.322 0 0 1-3.293-1.523l-59.569-70.131a4.32 4.32 0 0 1 3.292-7.117h119.136a4.318 4.318 0 0 1 3.292 7.117l-59.568 70.131a4.31 4.31 0 0 1-3.29 1.523zm-50.231-70.131 50.231 59.137 50.23-59.137H787.89z"></path><path fill="#191e56" d="M957.238 863.489a4.318 4.318 0 0 1-3.293-1.524l-59.55-70.131a4.32 4.32 0 0 1 3.292-7.116h119.131a4.32 4.32 0 0 1 3.293 7.117l-59.581 70.131a4.318 4.318 0 0 1-3.292 1.523zm-50.214-70.131 50.215 59.137 50.242-59.137H907.024z"></path><path fill="#191e56" d="M1076.378 863.489a4.32 4.32 0 0 1-3.293-1.524l-59.558-70.131a4.32 4.32 0 0 1 3.292-7.116h119.121a4.321 4.321 0 0 1 3.293 7.117l-59.563 70.131a4.318 4.318 0 0 1-3.292 1.523zm-50.222-70.131 50.222 59.136 50.226-59.136h-100.448z"></path><path fill="#191e56" d="M1195.509 863.489a4.322 4.322 0 0 1-3.293-1.523l-59.568-70.131a4.32 4.32 0 0 1 3.292-7.117h119.135a4.321 4.321 0 0 1 3.293 7.117l-59.568 70.131a4.315 4.315 0 0 1-3.291 1.523zm-50.23-70.131 50.23 59.137 50.23-59.137h-100.46z"></path><path fill="#191e56" d="M1314.627 863.489a4.318 4.318 0 0 1-3.293-1.524l-59.551-70.131a4.319 4.319 0 0 1 3.293-7.116h119.123a4.321 4.321 0 0 1 3.293 7.117l-59.572 70.131a4.322 4.322 0 0 1-3.293 1.523zm-50.214-70.131 50.215 59.137 50.232-59.137h-100.447z"></path><path fill="#191e56" d="M1433.771 863.489a4.323 4.323 0 0 1-3.293-1.523l-59.572-70.131a4.32 4.32 0 0 1 3.293-7.117h119.122a4.318 4.318 0 0 1 3.292 7.116l-59.55 70.131a4.314 4.314 0 0 1-3.292 1.524zm-50.233-70.131 50.232 59.136 50.215-59.136h-100.447z"></path><path fill="#191e56" d="M1552.898 863.489a4.323 4.323 0 0 1-3.293-1.523l-59.577-70.131a4.32 4.32 0 0 1 3.293-7.117h119.139a4.318 4.318 0 0 1 3.292 7.117l-59.562 70.131a4.32 4.32 0 0 1-3.292 1.523zm-50.239-70.131 50.238 59.137 50.225-59.137h-100.463z"></path><path fill="#191e56" d="M1672.019 863.489a4.32 4.32 0 0 1-3.293-1.524l-59.559-70.131a4.32 4.32 0 0 1 3.293-7.116h119.127a4.32 4.32 0 0 1 3.293 7.117l-59.568 70.131a4.322 4.322 0 0 1-3.293 1.523zm-50.222-70.131 50.223 59.137 50.23-59.137h-100.453z"></path><path fill="#191e56" d="M1791.146 863.489a4.32 4.32 0 0 1-3.293-1.524l-59.559-70.131a4.319 4.319 0 0 1 3.292-7.116h119.122a4.32 4.32 0 0 1 3.293 7.117l-59.562 70.131a4.322 4.322 0 0 1-3.293 1.523zm-50.223-70.131 50.223 59.136 50.225-59.136h-100.448zM838.121 863.489a4.32 4.32 0 0 1-4.32-4.32v-70.131a4.32 4.32 0 1 1 8.64 0v70.131a4.32 4.32 0 0 1-4.32 4.32zM957.238 863.489a4.32 4.32 0 0 1-4.32-4.32v-70.131a4.32 4.32 0 1 1 8.64 0v70.131a4.32 4.32 0 0 1-4.32 4.32zM1076.369 863.489a4.32 4.32 0 0 1-4.32-4.32v-70.131a4.32 4.32 0 1 1 8.64 0v70.131a4.32 4.32 0 0 1-4.32 4.32zM1195.499 863.489a4.32 4.32 0 0 1-4.32-4.32v-70.131a4.32 4.32 0 1 1 8.64 0v70.131a4.32 4.32 0 0 1-4.32 4.32zM1314.627 863.489a4.32 4.32 0 0 1-4.32-4.32v-70.131a4.32 4.32 0 1 1 8.64 0v70.131a4.32 4.32 0 0 1-4.32 4.32zM1433.761 863.489a4.32 4.32 0 0 1-4.32-4.32v-70.131a4.32 4.32 0 1 1 8.64 0v70.131a4.32 4.32 0 0 1-4.32 4.32zM1552.88 863.489a4.32 4.32 0 0 1-4.32-4.32v-70.131a4.32 4.32 0 1 1 8.64 0v70.131a4.32 4.32 0 0 1-4.32 4.32zM1672.015 863.489a4.32 4.32 0 0 1-4.32-4.32v-70.131a4.32 4.32 0 1 1 8.64 0v70.131a4.32 4.32 0 0 1-4.32 4.32z"></path><path fill="#191e56" d="M1791.137 863.489a4.32 4.32 0 0 1-4.32-4.32v-70.131a4.32 4.32 0 1 1 8.64 0v70.131a4.32 4.32 0 0 1-4.32 4.32zM1908.369 863.489a4.322 4.322 0 0 1-3.293-1.523l-59.563-70.131a4.32 4.32 0 0 1 3.293-7.117h119.132a4.318 4.318 0 0 1 3.292 7.117l-59.569 70.131a4.318 4.318 0 0 1-3.292 1.523zm-50.226-70.131 50.226 59.137 50.231-59.137h-100.457z"></path><path fill="#191e56" d="M1908.356 863.489a4.32 4.32 0 0 1-4.32-4.32v-70.131a4.32 4.32 0 1 1 8.64 0v70.131a4.32 4.32 0 0 1-4.32 4.32zM2025.597 863.489a4.322 4.322 0 0 1-3.293-1.523l-59.563-70.131a4.32 4.32 0 0 1 3.292-7.117h119.123a4.318 4.318 0 0 1 3.293 7.116l-59.559 70.131a4.32 4.32 0 0 1-3.293 1.524zm-50.226-70.131 50.226 59.136 50.223-59.136h-100.449z"></path><path fill="#191e56" d="M2025.583 863.489a4.32 4.32 0 0 1-4.32-4.32v-70.131a4.32 4.32 0 1 1 8.64 0v70.131a4.32 4.32 0 0 1-4.32 4.32zM2144.724 863.489a4.322 4.322 0 0 1-3.293-1.523l-59.568-70.131a4.32 4.32 0 0 1 3.293-7.117h119.127a4.318 4.318 0 0 1 3.293 7.116l-59.559 70.131a4.32 4.32 0 0 1-3.293 1.524zm-50.23-70.131 50.23 59.137 50.222-59.137h-100.452z"></path><path fill="#191e56" d="M2144.706 863.489a4.32 4.32 0 0 1-4.32-4.32v-70.131a4.32 4.32 0 0 1 8.64 0v70.131a4.32 4.32 0 0 1-4.32 4.32zM2263.841 863.489a4.32 4.32 0 0 1-3.293-1.524l-59.558-70.131a4.32 4.32 0 0 1 3.293-7.116h119.126a4.32 4.32 0 0 1 3.293 7.117l-59.568 70.131a4.322 4.322 0 0 1-3.293 1.523zm-50.222-70.131 50.222 59.137 50.23-59.137h-100.452z"></path><path fill="#191e56" d="M2263.833 863.489a4.32 4.32 0 0 1-4.32-4.32v-70.131a4.32 4.32 0 1 1 8.64 0v70.131a4.32 4.32 0 0 1-4.32 4.32zM2382.976 863.489a4.322 4.322 0 0 1-3.293-1.523l-59.568-70.131a4.32 4.32 0 0 1 3.293-7.117h119.127a4.318 4.318 0 0 1 3.293 7.116l-59.559 70.131a4.32 4.32 0 0 1-3.293 1.524zm-50.23-70.131 50.23 59.137 50.223-59.137h-100.453z"></path><path fill="#191e56" d="M2382.958 863.489a4.32 4.32 0 0 1-4.32-4.32v-70.131a4.32 4.32 0 1 1 8.64 0v70.131a4.32 4.32 0 0 1-4.32 4.32z"></path><path fill="#191e56" d="M2442.535 864.398H778.552a4.32 4.32 0 0 1-4.32-4.32v-71.04a4.32 4.32 0 0 1 4.32-4.32h1663.983a4.32 4.32 0 0 1 4.32 4.32v71.04a4.32 4.32 0 0 1-4.32 4.32zm-1659.662-8.64h1655.342v-62.4H782.873v62.4zM1196.423 615.599a4.307 4.307 0 0 1-2.212-.61l-119.417-71.193a4.323 4.323 0 0 1 0-7.423l119.417-71.171a4.322 4.322 0 0 1 6.532 3.712v142.364a4.317 4.317 0 0 1-2.187 3.756 4.294 4.294 0 0 1-2.133.565zm-110.979-75.512 106.659 63.586V476.519l-106.659 63.568z"></path><path fill="#191e56" d="M1196.423 757.97a4.307 4.307 0 0 1-2.212-.61l-119.417-71.18a4.322 4.322 0 0 1 0-7.422l119.417-71.19a4.32 4.32 0 0 1 6.532 3.711v142.37a4.317 4.317 0 0 1-2.187 3.756 4.297 4.297 0 0 1-2.133.565zm-110.98-75.501 106.66 63.576V618.884l-106.66 63.585zM1196.423 1042.699a4.31 4.31 0 0 1-2.212-.61l-119.417-71.176a4.323 4.323 0 0 1-.001-7.422l119.417-71.197a4.322 4.322 0 0 1 6.534 3.711v142.373a4.316 4.316 0 0 1-2.187 3.756 4.293 4.293 0 0 1-2.134.565zm-110.98-75.497 106.66 63.573V903.612l-106.66 63.59z"></path><path fill="#191e56" d="M1196.423 1185.069a4.317 4.317 0 0 1-2.212-.61l-119.417-71.19a4.32 4.32 0 0 1 0-7.422l119.417-71.18a4.32 4.32 0 0 1 6.532 3.711v142.37a4.317 4.317 0 0 1-2.187 3.756 4.289 4.289 0 0 1-2.133.565zm-110.98-75.51 106.66 63.585v-127.161l-106.66 63.576z"></path><path fill="#191e56" d="M1196.423 1327.443a4.317 4.317 0 0 1-2.212-.61l-119.417-71.189a4.318 4.318 0 0 1 0-7.422l119.417-71.185a4.322 4.322 0 0 1 6.532 3.711v142.373a4.317 4.317 0 0 1-2.187 3.756 4.29 4.29 0 0 1-2.133.566zm-110.98-75.509 106.66 63.584v-127.164l-106.66 63.58z"></path><path fill="#191e56" d="M1196.423 1469.808a4.317 4.317 0 0 1-2.212-.61l-119.417-71.194a4.32 4.32 0 0 1 0-7.423l119.417-71.171a4.32 4.32 0 0 1 6.532 3.712v142.365a4.317 4.317 0 0 1-2.187 3.756 4.305 4.305 0 0 1-2.133.565zm-110.979-75.514 106.659 63.587v-127.156l-106.659 63.569z"></path><path fill="#191e56" d="M1196.423 1612.168a4.317 4.317 0 0 1-2.212-.61l-119.417-71.18a4.317 4.317 0 0 1 0-7.421l119.417-71.18a4.322 4.322 0 0 1 6.532 3.711v142.361a4.317 4.317 0 0 1-4.32 4.319zm-110.979-75.5 106.659 63.576v-127.151l-106.659 63.575z"></path><path fill="#191e56" d="M1196.423 1754.533a4.307 4.307 0 0 1-2.212-.61l-119.417-71.18a4.322 4.322 0 0 1 0-7.422l119.417-71.184a4.322 4.322 0 0 1 6.532 3.711v142.365a4.317 4.317 0 0 1-4.32 4.32zm-110.979-75.501 106.659 63.576v-127.156l-106.659 63.58zM1196.423 544.407h-119.417a4.32 4.32 0 1 1 0-8.64h119.417a4.32 4.32 0 1 1 0 8.64zM1196.423 686.789h-119.417a4.32 4.32 0 1 1 0-8.64h119.417a4.32 4.32 0 1 1 0 8.64zM1196.423 971.515h-119.417a4.32 4.32 0 1 1 0-8.64h119.417a4.32 4.32 0 1 1 0 8.64zM1196.423 1113.88h-119.417a4.32 4.32 0 1 1 0-8.64h119.417a4.32 4.32 0 1 1 0 8.64zM1196.423 1256.245h-119.417a4.32 4.32 0 1 1 0-8.64h119.417a4.32 4.32 0 1 1 0 8.64zM1196.423 1398.602h-119.417a4.32 4.32 0 1 1 0-8.64h119.417a4.32 4.32 0 1 1 0 8.64zM1196.423 1540.979h-119.417a4.32 4.32 0 1 1 0-8.64h119.417a4.32 4.32 0 1 1 0 8.64z"></path><path fill="#191e56" d="M1196.423 1683.344h-119.417a4.32 4.32 0 1 1 0-8.64h119.417a4.32 4.32 0 1 1 0 8.64zM1196.423 1895.626a4.317 4.317 0 0 1-2.212-.61l-119.417-71.193a4.318 4.318 0 0 1 0-7.421l119.417-71.18a4.322 4.322 0 0 1 6.532 3.711v142.373a4.32 4.32 0 0 1-4.32 4.32zm-110.98-75.513 106.66 63.587v-127.163l-106.66 63.576z"></path><path fill="#191e56" d="M1196.423 1824.433h-119.417a4.32 4.32 0 1 1 0-8.64h119.417a4.32 4.32 0 1 1 0 8.64zM1196.423 2036.692a4.317 4.317 0 0 1-2.212-.61l-119.417-71.19a4.323 4.323 0 0 1 0-7.423l119.417-71.171a4.327 4.327 0 0 1 4.345-.044 4.318 4.318 0 0 1 2.187 3.756v142.361a4.317 4.317 0 0 1-2.187 3.756 4.289 4.289 0 0 1-2.133.565zm-110.979-75.51 106.659 63.585v-127.152l-106.659 63.567z"></path><path fill="#191e56" d="M1196.423 1965.502h-119.417a4.32 4.32 0 1 1 0-8.64h119.417a4.32 4.32 0 1 1 0 8.64zM1196.423 2177.766a4.317 4.317 0 0 1-2.212-.61l-119.417-71.189a4.32 4.32 0 0 1 0-7.421l119.417-71.172a4.322 4.322 0 0 1 6.532 3.711v142.36a4.317 4.317 0 0 1-2.187 3.756 4.3 4.3 0 0 1-2.133.565zm-110.979-75.509 106.659 63.584v-127.152l-106.659 63.568z"></path><path fill="#191e56" d="M1196.423 2106.561h-119.417a4.32 4.32 0 1 1 0-8.64h119.417a4.32 4.32 0 1 1 0 8.64z"></path><path fill="#191e56" d="M1196.423 2177.766h-120.96a4.32 4.32 0 0 1-4.32-4.32V468.915a4.32 4.32 0 0 1 4.32-4.32h120.96a4.32 4.32 0 0 1 4.32 4.32v1704.53a4.32 4.32 0 0 1-4.32 4.321zm-116.639-8.64h112.32V473.236h-112.32v1695.89z"></path><path fill="#45a7ff" d="M1322.449 2338.139c3.076 0 5.924-1.635 7.462-4.286s1.538-5.922 0-8.573l-93.258-160.74a8.629 8.629 0 0 0-7.462-4.286h-186.513a8.629 8.629 0 0 0-7.462 4.286l-93.258 160.74c-1.538 2.651-1.538 5.922 0 8.573s4.386 4.286 7.462 4.286h373.029z"></path><path fill="#191e56" d="M1042.678 2168.828h186.513l93.258 160.739H949.42l93.258-160.739m0-17.155a17.236 17.236 0 0 0-14.92 8.582l-93.258 160.74a17.066 17.066 0 0 0-.004 17.145 17.25 17.25 0 0 0 14.925 8.582h373.029a17.244 17.244 0 0 0 14.925-8.582 17.08 17.08 0 0 0 0-17.145l-93.258-160.74a17.251 17.251 0 0 0-14.925-8.582h-186.514z"></path><path fill="#45a7ff" d="M956.518 1002.164c4.76 0 8.618-3.841 8.618-8.578V859.169c0-4.737-3.859-8.577-8.618-8.577H784.253c-4.76 0-8.618 3.84-8.618 8.577v134.417c0 4.737 3.859 8.578 8.618 8.578h172.265z"></path><path fill="#191e56" d="M784.253 859.169h172.265v134.417H784.253V859.169m0-17.15c-9.515 0-17.232 7.677-17.232 17.15v134.417c0 9.475 7.717 17.15 17.232 17.15h172.265c9.519 0 17.232-7.676 17.232-17.15V859.169c0-9.474-7.713-17.15-17.232-17.15H784.253zM1031.168 735.755h207.375l98.268 186.896v186.908h-305.643V735.755m0-17.149c-9.519 0-17.232 7.676-17.232 17.149v373.804c0 9.469 7.713 17.151 17.232 17.151h305.643c9.52 0 17.233-7.681 17.233-17.151V922.651c0-2.769-.672-5.498-1.965-7.952l-98.268-186.896c-2.971-5.655-8.856-9.198-15.268-9.198h-207.375v.001z"></path><path fill="#404041" d="M1124.115 764.194h97.112l84.786 162.188v36.596h-181.898V764.194m0-11.708c-6.5 0-11.765 5.245-11.765 11.709v198.784c0 6.465 5.264 11.71 11.765 11.71h181.898c6.495 0 11.765-5.245 11.765-11.71v-36.596c0-1.881-.453-3.735-1.328-5.406l-84.785-162.188a11.78 11.78 0 0 0-10.438-6.303h-97.112z"></path><path fill="#ffab00" d="M1505.152 2413.65c4.76 0 8.618-3.84 8.618-8.573v-110.003c0-4.732-3.859-8.573-8.618-8.573H814.327c-4.759 0-8.618 3.84-8.618 8.573v110.003c0 4.732 3.859 8.573 8.618 8.573h690.825z"></path><path fill="#191e56" d="M814.327 2295.075h690.825v110.003H814.327v-110.003m0-17.154c-9.519 0-17.232 7.68-17.232 17.154v110.003c0 9.474 7.713 17.154 17.232 17.154h690.825c9.519 0 17.232-7.68 17.232-17.154v-110.003c0-9.474-7.713-17.154-17.232-17.154H814.327z"></path><path fill="#78c2ff" d="m1002.725 2277.824 51.736-89.393h103.45l51.728 89.393z"></path><path fill="#96bae2" d="m2244.288 902.452 24.254 491.865 59.576-.024 14.34-491.841z"></path><path fill="#113d8c" d="m2244.288 1394.317-65.08 71.533 51.843 103.166-9.927-95.473 42.722-39.529zM2353.488 1394.317l65.079 71.533-51.842 103.166 9.927-95.473-42.722-39.529z"></path><circle cx="2298.336" cy="1394.305" r="59.285" fill="#0542bf" transform="rotate(-80.781 2298.363 1394.269)"></circle><circle cx="2298.336" cy="1394.305" r="35.594" fill="#191e56" transform="rotate(-22.5 2298.229 1394.252)"></circle><path fill="#0542bf" d="M2392.274 836.348c0 55.549-45.275 100.593-101.092 100.593-55.815 0-101.075-45.044-101.075-100.593 0-55.549 45.26-100.593 101.075-100.593 55.816 0 101.092 45.044 101.092 100.593z"></path><path fill="#191e56" d="M2357.621 836.348c0 36.531-29.749 66.104-66.44 66.104-36.689 0-66.421-29.572-66.421-66.104 0-36.514 29.731-66.097 66.421-66.097 36.691 0 66.44 29.583 66.44 66.097z"></path><path fill="#0542bf" d="M2332.962 836.348c0 22.969-18.709 41.581-41.781 41.581-23.079 0-41.788-18.612-41.788-41.581 0-22.978 18.709-41.599 41.788-41.599 23.073 0 41.781 18.621 41.781 41.599z"></path><path fill="#a6c2d1" d="M915.352 859.169h41.166v134.417h-41.166z"></path><path fill="#ffab00" d="M1336.811 1118.136c4.76 0 8.619-3.84 8.619-8.577V922.651a8.523 8.523 0 0 0-.985-3.976l-98.269-186.895a8.624 8.624 0 0 0-7.633-4.602h-207.375c-4.76 0-8.618 3.84-8.618 8.577v373.804c0 4.737 3.859 8.577 8.618 8.577h305.643z"></path><path fill="#fe8e00" d="M1238.543 735.755h-6.056l89.962 171.098v186.912h-291.281v15.794h305.643V922.651z"></path><path fill="#b0d8ff" d="M1306.013 968.834c3.248 0 5.885-2.624 5.885-5.857v-36.596c0-.941-.229-1.868-.668-2.703l-84.786-162.187a5.882 5.882 0 0 0-5.217-3.154h-97.112c-3.247 0-5.885 2.625-5.885 5.856v198.784c0 3.233 2.637 5.857 5.885 5.857h181.898z"></path><path fill="#ffc45c" d="M1043.693 753.649h33.313v312.862h-33.313z"></path><path fill="#78c2ff" d="M790.314 867.707h50.426v99.488h-50.426z"></path><path fill="#ffc45c" d="M840.74 2313.489h473.887v36.591H840.74z"></path><path fill="#fe8e00" d="M1452.256 2295.075h53.556v109.508h-53.556z"></path><defs><path id="l" d="m1788.28 1314.891-4.527-.3s-87.845-6.743-120.352 59.895c-32.506 66.638-73.139 194.496-50.927 216.709s86.445-.542 145.347-34.673l-5.57-46.051s-74.765 31.965-79.099 11.377c-4.334-20.587 44.967-102.937 44.967-102.937l6.603 84.017 186.268-16.838 10.294 68.263s51.468 30.881 83.433 18.42c31.965-12.461 17.879-68.263 6.501-95.894-11.377-27.63-51.964-143.394-102.395-156.572-53.906-14.086-69.131-8.962-69.131-8.962l-51.412 3.546z"></path></defs><use fill="#b0d8ff" overflow="visible" xlink:href="#l"></use><clipPath id="m"><use overflow="visible" xlink:href="#l"></use></clipPath><path fill="#7bc3ff" d="M1625.478 1460.628c-2.167 3.792-29.256 101.311-3.792 112.147 25.463 10.835 127.568-22.754 127.568-22.754l-.248 26.547-39.553 15.17-47.134 15.711-59.053-1.625-5.418-36.299-8.127-39.549 35.757-69.348zM1713.787 1441.666l4.334-22.755s10.835-39.007-1.083-67.721c0 0 10.835 13.544 11.377 35.757.542 22.213-7.266 70.49-7.266 70.49l-7.362 1.565M1909.908 1354.441s-2.167 33.048 1.083 75.848l7.585 1.625s-7.585-43.342-8.668-77.473zM1927.786 1533.767s91.018 67.722 101.853-12.19l-7.585 52.823-34.673 13.544-59.595-1.083-15.17-22.754 15.17-30.34z" clip-path="url(#m)"></path><defs><path id="n" d="m1756.116 1409.701-7.111 223.752h189.075l22.754-223.752z"></path></defs><use fill="#006dfe" overflow="visible" xlink:href="#n"></use><clipPath id="o"><use overflow="visible" xlink:href="#n"></use></clipPath><path fill="#005bfc" d="M1744.126 1540.81c1.625 0 89.392-39.008 89.392-39.008s10.294 16.795-27.089 43.342c-37.382 26.547 79.79 43.104 114.388 6.112 34.599-36.993 43.697-65.244 43.697-65.244l-11.265 147.441-17.337 17.878-207.432-8.616 15.646-101.905z" clip-path="url(#o)"></path><defs><path id="p" d="M1749.231 1522.885s7.821-2.462 31.494-19.929c23.672-17.467 39.394-25.219 50.571-4.571 11.178 20.648-22.088 40.54-49.045 46.032s-33.02 4.533-33.02 4.533v-26.065z"></path></defs><use fill="#ffaca6" overflow="visible" xlink:href="#p"></use><clipPath id="q"><use overflow="visible" xlink:href="#p"></use></clipPath><path fill="#ea756c" d="M1752.69 1517.513s-3.959 21.13 14.19 18.692 54.177-4.876 66.638-44.425l4.334 25.733-10.294 24.652-38.466 6.849-31.694 3.445-10.565.271-4.334-23.567 4.876-11.649h5.315z" clip-path="url(#q)"></path><path fill="#739ad8" d="M2659.473 1753.343H1454.039c-47.457 0-85.927 55.647-85.927 124.301 0 68.669 38.47 124.32 85.927 124.32h1205.434c47.462 0 85.932-55.651 85.932-124.32.001-68.654-38.47-124.301-85.932-124.301z"></path><path fill="#5f6dc1" d="M1476.113 1816.272c-33.843 0-61.37 27.538-61.37 61.372s27.527 61.382 61.37 61.382c33.845 0 61.377-27.548 61.377-61.382s-27.532-61.372-61.377-61.372z"></path><path fill="#1e2889" d="M1476.113 1846.175c-17.349 0-31.472 14.132-31.472 31.469 0 17.361 14.123 31.474 31.472 31.474 17.356 0 31.47-14.113 31.47-31.474 0-17.336-14.114-31.469-31.47-31.469z"></path><path fill="#5f6dc1" d="M1669.543 1816.272c-33.843 0-61.37 27.538-61.37 61.372s27.527 61.382 61.37 61.382c33.845 0 61.377-27.548 61.377-61.382s-27.532-61.372-61.377-61.372z"></path><path fill="#1e2889" d="M1669.543 1846.175c-17.349 0-31.472 14.132-31.472 31.469 0 17.361 14.123 31.474 31.472 31.474 17.356 0 31.47-14.113 31.47-31.474-.001-17.336-14.114-31.469-31.47-31.469z"></path><path fill="#5f6dc1" d="M1862.972 1816.272c-33.843 0-61.37 27.538-61.37 61.372s27.527 61.382 61.37 61.382c33.845 0 61.377-27.548 61.377-61.382s-27.531-61.372-61.377-61.372z"></path><path fill="#1e2889" d="M1862.972 1846.175c-17.349 0-31.472 14.132-31.472 31.469 0 17.361 14.123 31.474 31.472 31.474 17.356 0 31.47-14.113 31.47-31.474 0-17.336-14.114-31.469-31.47-31.469z"></path><path fill="#5f6dc1" d="M2056.402 1816.272c-33.843 0-61.37 27.538-61.37 61.372s27.527 61.382 61.37 61.382c33.845 0 61.377-27.548 61.377-61.382s-27.532-61.372-61.377-61.372z"></path><path fill="#1e2889" d="M2056.402 1846.175c-17.349 0-31.472 14.132-31.472 31.469 0 17.361 14.123 31.474 31.472 31.474 17.356 0 31.469-14.113 31.469-31.474 0-17.336-14.113-31.469-31.469-31.469z"></path><path fill="#5f6dc1" d="M2249.831 1816.272c-33.843 0-61.37 27.538-61.37 61.372s27.527 61.382 61.37 61.382c33.845 0 61.377-27.548 61.377-61.382s-27.531-61.372-61.377-61.372z"></path><path fill="#1e2889" d="M2249.831 1846.175c-17.348 0-31.471 14.132-31.471 31.469 0 17.361 14.123 31.474 31.471 31.474 17.356 0 31.47-14.113 31.47-31.474 0-17.336-14.114-31.469-31.47-31.469z"></path><path fill="#5f6dc1" d="M2443.261 1816.272c-33.843 0-61.37 27.538-61.37 61.372s27.527 61.382 61.37 61.382c33.845 0 61.377-27.548 61.377-61.382s-27.532-61.372-61.377-61.372z"></path><path fill="#1e2889" d="M2443.261 1846.175c-17.349 0-31.472 14.132-31.472 31.469 0 17.361 14.123 31.474 31.472 31.474 17.356 0 31.469-14.113 31.469-31.474 0-17.336-14.113-31.469-31.469-31.469z"></path><path fill="#5f6dc1" d="M2636.69 1816.272c-33.843 0-61.37 27.538-61.37 61.372s27.527 61.382 61.37 61.382c33.845 0 61.377-27.548 61.377-61.382s-27.531-61.372-61.377-61.372z"></path><path fill="#1e2889" d="M2636.69 1846.175c-17.348 0-31.471 14.132-31.471 31.469 0 17.361 14.123 31.474 31.471 31.474 17.356 0 31.47-14.113 31.47-31.474 0-17.336-14.114-31.469-31.47-31.469z"></path><path fill="#1e2889" d="M2745.406 1877.645c0-14.583-1.752-28.568-4.935-41.576l10.268-5.27c-6.698-27.263-18.881-50.568-35.248-67.387l-6.317 12.846c-13.989-14.379-31.058-22.867-49.526-22.915l-.174-15.747h-52.676v15.747h-52.695v-15.747h-52.698v15.747h-52.692v-15.747h-52.679v15.747h-52.692v-15.747h-52.695v15.747h-52.692v-15.747h-52.688v15.747h-52.686v-15.747h-52.689v15.747h-52.693v-15.747h-52.689v15.747h-52.693v-15.747h-52.689v15.747h-52.688v-15.747h-52.689v15.747h-52.692v-15.747h-52.692v15.747h-52.689v-15.747h-52.69v15.747h-52.689v-15.747h-46.257c-2.425 0-4.827.133-7.207.385l.788 15.742c-18.207 1.951-34.843 12.072-48.128 27.881l-6.914-12.163c-15.521 18.467-26.533 42.972-31.859 70.866l10.51 4.178a176.994 176.994 0 0 0-3.117 33.159c0 14.688 1.768 28.745 4.996 41.818l-10.254 5.298c6.729 27.249 18.945 50.52 35.337 67.296l6.296-12.879c13.983 14.303 31.041 22.758 49.471 22.787l.082 15.742h52.523v-15.742h52.69v15.742h52.691v-15.742h52.688v15.742h52.692v-15.742h52.692v15.742h52.689v-15.742h52.69v15.742h52.684v-15.742h52.695v15.742h52.694v-15.742h52.69v15.742h52.689v-15.742h52.692v15.742h52.685v-15.742h52.695v15.742h52.686v-15.742h52.692v15.742h52.692v-15.742h52.686v15.742h52.695v-15.742h52.686v15.742h46.418c2.359 0 4.695-.124 7.019-.361l-.758-15.751c18.212-1.894 34.855-11.968 48.154-27.743l6.907 12.182c15.541-18.419 26.595-42.891 31.954-70.753l-10.507-4.221a177.287 177.287 0 0 0 3.16-33.414zm-85.933 105.431H1454.039c-40.18 0-72.872-47.282-72.872-105.431 0-58.13 32.692-105.44 72.872-105.44h1205.434c40.187 0 72.879 47.311 72.879 105.44 0 58.148-32.692 105.431-72.879 105.431z"></path><path fill="#191e56" d="M1476.117 1644.605h174.247v92.992h-174.247zM1790.268 1644.605h174.247v92.992h-174.247zM2104.418 1644.605h174.247v92.992h-174.247zM2418.569 1644.605h174.247v92.992h-174.247z"></path><defs><path id="r" d="M3672.332 1551.775s18.618 89.777 12.497 114.261c-6.121 24.484-57.641 68.863-57.641 68.863v-179.553l45.144-3.571z"></path></defs><use fill="#ffaca6" overflow="visible" xlink:href="#r"></use><clipPath id="s"><use overflow="visible" xlink:href="#r"></use></clipPath><path fill="#ea756c" d="M3683.849 1575.167s-36.118 1.806-34.312 11.919c1.806 10.113 8.76 65.735 7.089 74.403-1.672 8.668-25.148 38.285-25.148 38.285l-7.223-141.583 46.592-9.391 8.307 9.391 4.695 16.976z" clip-path="url(#s)"></path><defs><path id="t" d="M3326.743 1544.124c0 1.53-28.055 90.797-10.202 134.155s77.024 68.863 77.024 68.863l4.591-55.09s-36.727-11.222-35.197-40.808c1.53-29.585 22.444-99.468 22.444-99.468l-58.66-7.652z"></path></defs><use fill="#ffaca6" overflow="visible" xlink:href="#t"></use><clipPath id="u"><use overflow="visible" xlink:href="#t"></use></clipPath><path fill="#ea756c" d="M3302.513 1574.716s57.656-.813 51.863 27.63-21.234 72.432 20.212 102.448c41.446 30.016 41.446 18.129 41.446 18.129s1.625-76.79-.813-79.586c-2.438-2.796-3.25-90.798-5.689-99.213-2.438-8.416-94.294-35.233-94.294-35.233l-12.725 65.825z" clip-path="url(#u)"></path><defs><path id="v" d="M3503.656 1863.948s-4.334 215.625 27.088 295.807c31.423 80.182 113.772 299.058 113.772 299.058s56.344 22.754 95.352-23.838c0 0-94.268-222.126-94.268-307.726s11.251-191.462 2.583-238.035c-8.668-46.573-11.341-73.925-11.341-73.925l-133.186 48.659z"></path></defs><use fill="#1e2889" overflow="visible" xlink:href="#v"></use><clipPath id="w"><use overflow="visible" xlink:href="#v"></use></clipPath><path fill="#191977" d="M3664.707 1997.812s-105.451-48.461-91.733 110.82c13.718 159.281 27.804 234.323 27.804 234.323l-87.767-109.716-23.08-160.364-22.179-119.19 22.179-80.182 17.342-57.627s111.839-9.553 112.424-9.553c.585 0 45.011 34.545 45.011 34.545v156.944z" clip-path="url(#w)"></path><defs><path id="x" d="M3387.175 1842.08s-27.63 198.486-24.38 289.503c3.25 91.018 17.878 352.694 17.878 352.694s52.01 26.005 97.519 0c0 0 1.625-208.853 14.628-294.995 13.002-86.142 60.137-205.602 72.326-259.238 12.19-53.635 6.501-81.266 6.501-81.266l-184.472-6.698z"></path></defs><use fill="#1e2889" overflow="visible" xlink:href="#x"></use><clipPath id="y"><use overflow="visible" xlink:href="#x"></use></clipPath><path fill="#212182" d="M3368.899 1909.119s86.142 3.878 84.516 88.693c-1.625 84.815-15.464 190.461-5.294 279.853 10.17 89.392 41.809 157.158 41.809 157.158s57.753-206.57 64.255-214.37c6.501-7.801 67.634-151.606 65.51-166.658-2.123-15.051-18.376-186.103-18.376-186.103l-54.096-30.234-160.049 4.621-18.275 67.04z" clip-path="url(#y)"></path><path fill="#ea756c" d="M3527.112 1327.731c-2.642-8.347-4.863-21.028-5.433-40.313l-57.789-1.806s.721 8.18.029 18.797c13.58-.383 39.19 2.269 63.193 23.322z"></path><path fill="#ffaca6" d="M3527.112 1327.731c-24.003-21.053-49.613-23.705-63.193-23.322-1.003 15.399-4.98 35.925-18.449 44.049l31.061 20.226s31.784-10.474 35.396-11.197c3.612-.722 22.032-8.668 22.032-8.668l4.388-5.057s-6.341-.577-11.235-16.031z"></path><defs><path id="z" d="M3491.908 1355.569c-28.334.135-45.437-7.751-45.437-7.751s-58.438-1.378-90.574 39.174-53.384 137.493-53.384 137.493 26.78 64.272 91.052 30.606l-8.672 291.346s134.714 98.659 255.606-12.286l-9.632-276.561s32.538 8.576 46.481-8.427c0 0-18.243-133.964-38.918-163.234-30.266-42.848-100.083-42.166-100.083-42.166s-18.688 11.674-46.439 11.806z"></path></defs><use fill="#006dfe" overflow="visible" xlink:href="#z"></use><clipPath id="A"><use overflow="visible" xlink:href="#z"></use></clipPath><path fill="#0054fc" d="M3398.156 1426.812s11.136 37.952-4.591 128.279c-15.727 90.326 0 0 0 0l-31.036 18.632-17.468-2.889c0-.001 49.123-93.005 53.095-144.022z" clip-path="url(#A)"></path><path fill="#0041f9" d="M3630.867 1557.59s9.46-153.037-7.877-188.906l30.409 16.683 12.39 47.134 11.558 69.889 8.716 41.734-11.569 18.626-28.48 3.298-15.147-8.458" clip-path="url(#A)"></path><path fill="#0054fc" d="M3421.46 1873.774s73.645 6.501 118.625-73.139c44.98-79.641 92.511-258.433 93.126-351.885L3632 1590.135l12.792 267.212-83.384 53.809-139.948-37.382z" clip-path="url(#A)"></path><defs><path id="B" d="M1791.26 1265.048s8.205 30.039-7.506 49.543c0 0 10.486 14.386 33.241 12.761s22.699-16.005 22.699-16.005-13.489-6.749-10.239-46.299h-38.195z"></path></defs><use fill="#ffaca6" overflow="visible" xlink:href="#B"></use><clipPath id="C"><use overflow="visible" xlink:href="#B"></use></clipPath><path fill="#ea756c" d="M1788.732 1288.886s34.673.722 47.676 13.725c0 0-1.806-40.452-.722-40.452 1.083 0-51.932-5.418-51.932-5.418l4.978 32.145z" clip-path="url(#C)"></path><path fill="#1e2889" d="M1741.136 1163.539s5.361 73.076 20.88 80.25h96.736s28.99-32.618 26.438-76.471l-87.79-34.823-56.264 31.044z"></path><path fill="#ea756c" d="M1753.192 1192.99s-16.389 2.165-14.534 16.698c1.855 14.534 13.297 24.12 21.337 19.172l-6.803-35.87zM1868.844 1192.99s16.389 2.165 14.534 16.698c-1.855 14.534-13.297 24.12-21.337 19.172l6.803-35.87z"></path><defs><path id="D" d="M1751.646 1166.396s-7.422 87.203 38.345 110.086 72.36-32.778 76.689-55.043c4.329-22.265 5.566-58.135 5.566-58.135l-42.674-12.988h-58.135l-19.791 16.08z"></path></defs><use fill="#ffaca6" overflow="visible" xlink:href="#D"></use><clipPath id="E"><use overflow="visible" xlink:href="#D"></use></clipPath><path fill="#ea756c" d="M1749.254 1204.37s20.697 12.999 60.427 11.737c39.73-1.263 63.103-10.653 63.103-10.653l4.799-29.256s-1.084-20.948-2.167-21.31-115.42-7.224-115.42-7.224l-13.522 16.572 4.728 26.048-1.948 14.086z" clip-path="url(#E)"></path><path fill="#ffab00" d="M1790.791 1163.126c-5.429-28.494-13.46-56.029-23.001-83.412-.929.609-1.877 1.189-2.78 1.835-20.831 14.892-34.438 39.478-34.438 67.285 0 2.749.181 5.454.442 8.136.02.003.038-.006.059-.002a495.855 495.855 0 0 0 59.718 6.158z"></path><path fill="#ffca00" d="M1812.164 1163.571c-.32 0-.639-.002-.957-.001l.957.001z"></path><path fill="#ffab00" d="M1832.36 1163.141a495.88 495.88 0 0 0 60.013-6.173c.022-.003.039.005.059.002.261-2.681.442-5.386.442-8.135 0-27.785-13.584-52.351-34.385-67.246-.907-.65-1.861-1.235-2.795-1.848-.042.204-.078.409-.147.611-9.869 27.166-18.149 54.31-23.187 82.789z"></path><path fill="#fe8e00" d="M1892.433 1156.969c-.02.003-.038-.005-.059-.002a495.9 495.9 0 0 1-60.013 6.173c5.038-28.479 13.318-55.623 23.187-82.79.069-.202.105-.406.147-.611.448-2.188-.583-4.46-2.553-5.517-25.446-13.652-56.959-13.788-82.822-.874-2.225 1.111-3.385 3.778-2.59 6.185l.061.179c9.541 27.383 17.571 54.918 23.001 83.412a495.855 495.855 0 0 1-59.718-6.158c-.021-.004-.039.005-.059.002-1.777-.265-3.208.933-3.208 2.73v8.41c.051 1.872 1.43 3.492 3.268 3.85.966.16 1.935.295 2.903.448a19.328 19.328 0 0 1-.223-2.683v-1.979c13.676 1.164 27.193 3.622 40.857 4.885 12.308 1.138 24.761 1.027 37.112 1.027 11.664 0 23.427.111 35.059-.847 14.362-1.182 28.553-3.844 42.912-5.066v1.979a19.8 19.8 0 0 1-.223 2.683c.967-.153 1.936-.289 2.903-.448a4.069 4.069 0 0 0 3.268-3.85v-8.41c-.002-1.794-1.433-2.991-3.21-2.728zm-80.269 6.602-.957-.001c.319-.001.637.001.957.001z"></path><path fill="#ffab00" d="M1889.693 1167.745c-14.359 1.222-28.55 3.883-42.912 5.066-11.631.958-23.395.847-35.059.847-12.351 0-24.805.111-37.112-1.027-13.663-1.263-27.181-3.721-40.857-4.885v1.979c.004.891.093 1.787.223 2.683 1.245 8.641 8.038 17.204 16.167 19.692 39.512 12.092 83.648 12.093 123.159 0 8.13-2.488 14.923-11.05 16.168-19.691.128-.896.217-1.792.223-2.683v-1.981zM1779.406 1073.591c-1.513.437-7.059 2.277-6.718 5.181.342 2.903 9.393 30.912 13.151 45.088s7.002 38.776 9.906 39.712c2.903.936 27.155 1.114 30.571 0 3.416-1.114 3.416-3.334 4.782-10.507s10.076-48.333 19.811-70.193c1.196-3.156 1.025-5.294-5.465-7.515-6.49-2.22-15.883-5.978-27.155-6.49-11.273-.513-22.895.108-38.883 4.724z"></path><path fill="#191e56" d="M3423.799 1229.429s18.781 40.291 36.118 60.879h66.457s29.978-35.035 35.034-64.651l-41.536 17.337-81.266-11.197-14.807-2.368z"></path><path fill="#fe8e00" d="M3393.821 1164.436h-2.709s-8.939-2.167-11.648 4.876c-2.709 7.043 2.98 28.714 15.711 43.613 12.731 14.899 39.007 28.985 60.949 33.861 21.942 4.876 62.033 7.585 92.101-4.334s41.446-29.797 47.405-40.633c5.959-10.835 9.752-23.567-10.023-22.755l-34.403 28.463-108.354-4.625-49.029-38.466z"></path><path fill="#ffab00" d="M3391.112 1164.436s4.334-40.091 29.256-67.721c24.922-27.63 50.385-34.132 85.058-33.048 34.673 1.083 60.678 28.714 72.055 64.471s8.127 50.927 8.127 50.927-20.587 56.344-89.934 49.843c-69.347-6.502-95.894-40.092-104.562-64.472z"></path><path fill="#fe8e00" d="M3481.859 1229.429s1.083-43.051 0-67.16c-1.083-24.109-12.995-88.015-21.667-93.173-8.672-5.158 3.518-9.492 15.708-11.389 12.19-1.896 42.8-1.354 60.137 7.043 5.959 2.98-1.489 6.79-1.489 6.79s-18.557 53.618-17.744 91c.813 37.382 3.25 69.889 3.25 69.889s-28.443 4.295-38.195-3z"></path><path fill="#daebff" d="M3808.923 1962.755h200.152v88.495h-200.152z"></path><path fill="#ebf5ff" d="M3889.859 2051.25h200.152v88.495h-200.152z"></path></svg>